<svg xmlns="http://www.w3.org/2000/svg" xmlns:xlink="http://www.w3.org/1999/xlink" width="264.864" height="235.125" viewBox="0 0 264.864 235.125">
  <defs>
    <linearGradient id="linear-gradient" y1="0.5" x2="1" y2="0.5" gradientUnits="objectBoundingBox">
      <stop offset="0" stop-color="#1c75bc"/>
      <stop offset="0.279" stop-color="#1f77bc"/>
      <stop offset="0.541" stop-color="#2b7dbc"/>
      <stop offset="0.796" stop-color="#3e88bc"/>
      <stop offset="1" stop-color="#5394bc"/>
    </linearGradient>
  </defs>
  <g id="Grupo_42838" data-name="Grupo 42838" transform="translate(-332.32 -139.774)">
    <g id="Grupo_42775" data-name="Grupo 42775">
      <g id="Grupo_42767" data-name="Grupo 42767">
        <path id="Trazado_111919" data-name="Trazado 111919" d="M397.775,228.1V258.43c0,2.894-4.315,5.241-9.637,5.241s-9.639-2.347-9.639-5.241V228.1Z" fill="#f9b028"/>
        <path id="Trazado_111920" data-name="Trazado 111920" d="M378.5,228.1c0,2.894,4.315,5.24,9.639,5.24s9.637-2.346,9.637-5.24-4.315-5.24-9.637-5.24S378.5,225.2,378.5,228.1Z" fill="#f9dc32"/>
        <path id="Trazado_111921" data-name="Trazado 111921" d="M388.138,233.335c-5.324,0-9.639-2.346-9.639-5.24V258.43c0,2.894,4.315,5.241,9.639,5.241a16.966,16.966,0,0,0,3.235-.31V233.026A16.969,16.969,0,0,1,388.138,233.335Z" fill="#f9c32a"/>
      </g>
      <g id="Grupo_42768" data-name="Grupo 42768">
        <path id="Trazado_111922" data-name="Trazado 111922" d="M397.775,191.371V228.1c0,2.9-4.315,5.24-9.637,5.24s-9.639-2.345-9.639-5.24V191.371Z" fill="#c64453"/>
        <path id="Trazado_111923" data-name="Trazado 111923" d="M378.5,191.371c0,2.894,4.315,5.24,9.639,5.24s9.637-2.346,9.637-5.24-4.315-5.24-9.637-5.24S378.5,188.477,378.5,191.371Z" fill="#ed5561"/>
        <path id="Trazado_111924" data-name="Trazado 111924" d="M388.138,196.611c-5.324,0-9.639-2.346-9.639-5.24V228.1c0,2.9,4.315,5.24,9.639,5.24a16.969,16.969,0,0,0,3.235-.309V196.3A17.051,17.051,0,0,1,388.138,196.611Z" fill="#de495a"/>
      </g>
      <g id="Grupo_42769" data-name="Grupo 42769">
        <path id="Trazado_111925" data-name="Trazado 111925" d="M382.382,243.34v23.966c0,2.894-4.315,5.24-9.638,5.24s-9.638-2.346-9.638-5.24V243.34Z" fill="#f9b028"/>
        <path id="Trazado_111926" data-name="Trazado 111926" d="M363.106,243.34c0,2.894,4.315,5.241,9.638,5.241s9.638-2.347,9.638-5.241-4.315-5.24-9.638-5.24S363.106,240.446,363.106,243.34Z" fill="#f9dc32"/>
        <path id="Trazado_111927" data-name="Trazado 111927" d="M372.744,248.58c-5.323,0-9.638-2.346-9.638-5.24v23.966c0,2.894,4.315,5.24,9.638,5.24a16.872,16.872,0,0,0,3.235-.31V248.271A16.953,16.953,0,0,1,372.744,248.58Z" fill="#f9c32a"/>
      </g>
      <g id="Grupo_42770" data-name="Grupo 42770">
        <path id="Trazado_111928" data-name="Trazado 111928" d="M382.382,219.374V243.34c0,2.894-4.315,5.241-9.638,5.241s-9.638-2.347-9.638-5.241V219.374Z" fill="#c64453"/>
        <path id="Trazado_111929" data-name="Trazado 111929" d="M363.106,219.374c0,2.9,4.315,5.241,9.638,5.241s9.638-2.346,9.638-5.241-4.315-5.24-9.638-5.24S363.106,216.481,363.106,219.374Z" fill="#ed5561"/>
        <path id="Trazado_111930" data-name="Trazado 111930" d="M372.744,224.615c-5.323,0-9.638-2.346-9.638-5.241V243.34c0,2.894,4.315,5.24,9.638,5.24a16.953,16.953,0,0,0,3.235-.309V224.306A17.035,17.035,0,0,1,372.744,224.615Z" fill="#de495a"/>
      </g>
      <g id="Grupo_42771" data-name="Grupo 42771">
        <path id="Trazado_111931" data-name="Trazado 111931" d="M366.989,255.6v20.578c0,2.894-4.315,5.24-9.638,5.24s-9.638-2.346-9.638-5.24V255.6Z" fill="#f9b028"/>
        <path id="Trazado_111932" data-name="Trazado 111932" d="M347.713,255.6c0,2.893,4.315,5.24,9.638,5.24s9.638-2.347,9.638-5.24-4.315-5.241-9.638-5.241S347.713,252.709,347.713,255.6Z" fill="#f9dc32"/>
        <path id="Trazado_111933" data-name="Trazado 111933" d="M357.351,260.843c-5.323,0-9.638-2.347-9.638-5.24v20.578c0,2.894,4.315,5.24,9.638,5.24a16.954,16.954,0,0,0,3.235-.309V260.534A17.034,17.034,0,0,1,357.351,260.843Z" fill="#f9c32a"/>
      </g>
      <g id="Grupo_42772" data-name="Grupo 42772">
        <path id="Trazado_111934" data-name="Trazado 111934" d="M366.989,247.934V255.6c0,2.894-4.315,5.24-9.638,5.24s-9.638-2.346-9.638-5.24v-7.669Z" fill="#c64453"/>
        <path id="Trazado_111935" data-name="Trazado 111935" d="M347.713,247.934c0,2.894,4.315,5.24,9.638,5.24s9.638-2.346,9.638-5.24-4.315-5.241-9.638-5.241S347.713,245.04,347.713,247.934Z" fill="#ed5561"/>
        <path id="Trazado_111936" data-name="Trazado 111936" d="M357.351,253.174c-5.323,0-9.638-2.346-9.638-5.24V255.6c0,2.894,4.315,5.24,9.638,5.24a17.034,17.034,0,0,0,3.235-.309v-7.669A17.035,17.035,0,0,1,357.351,253.174Z" fill="#de495a"/>
      </g>
      <g id="Grupo_42773" data-name="Grupo 42773">
        <path id="Trazado_111937" data-name="Trazado 111937" d="M351.6,272.546v12.51c0,2.894-4.315,5.241-9.638,5.241s-9.638-2.347-9.638-5.241v-12.51Z" fill="#f9b028"/>
        <path id="Trazado_111938" data-name="Trazado 111938" d="M332.32,272.546c0,2.894,4.315,5.24,9.638,5.24s9.638-2.346,9.638-5.24-4.315-5.24-9.638-5.24S332.32,269.651,332.32,272.546Z" fill="#f9dc32"/>
        <path id="Trazado_111939" data-name="Trazado 111939" d="M341.958,277.786c-5.323,0-9.638-2.346-9.638-5.24v12.51c0,2.894,4.315,5.24,9.638,5.24a16.954,16.954,0,0,0,3.235-.309v-12.51A16.952,16.952,0,0,1,341.958,277.786Z" fill="#f9c32a"/>
      </g>
      <g id="Grupo_42774" data-name="Grupo 42774">
        <path id="Trazado_111940" data-name="Trazado 111940" d="M351.6,260.035v12.511c0,2.894-4.315,5.24-9.638,5.24s-9.638-2.346-9.638-5.24V260.035Z" fill="#c64453"/>
        <path id="Trazado_111941" data-name="Trazado 111941" d="M332.32,260.035c0,2.895,4.315,5.24,9.638,5.24s9.638-2.345,9.638-5.24-4.315-5.24-9.638-5.24S332.32,257.142,332.32,260.035Z" fill="#ed5561"/>
        <path id="Trazado_111942" data-name="Trazado 111942" d="M341.958,265.275c-5.323,0-9.638-2.345-9.638-5.24v12.511c0,2.894,4.315,5.24,9.638,5.24a16.952,16.952,0,0,0,3.235-.309v-12.51A17.038,17.038,0,0,1,341.958,265.275Z" fill="#de495a"/>
      </g>
    </g>
    <g id="Grupo_42776" data-name="Grupo 42776">
      <path id="Trazado_111943" data-name="Trazado 111943" d="M339.172,230.542c1.451-.372,3.313-.99,3.32,1.429a6.621,6.621,0,0,1-3.3,5.186l0,1.265-.871.5,0-1.281c-1.847.881-3.2.545-3.271-1.425l2.474-1.428c.051.612.324.848.791.746l-.006-2.466c-1.458.4-3.279.986-3.286-1.465-.005-1.954,1.42-3.932,3.267-5.142l0-1.265.871-.5,0,1.265c1.861-.9,3.056-.5,3.187,1.416l-2.488,1.437c-.057-.545-.316-.756-.693-.7Zm.013,4.541a2.139,2.139,0,0,0,.875-1.62c0-.561-.351-.671-.881-.6l.006,2.218m-.885-4.374-.006-2.162a1.879,1.879,0,0,0-.813,1.512c0,.545.33.684.819.65" fill="#f9dc32"/>
    </g>
    <g id="Grupo_42777" data-name="Grupo 42777">
      <path id="Trazado_111944" data-name="Trazado 111944" d="M382.8,172.245c1.451-.372,3.313-.991,3.32,1.428a6.619,6.619,0,0,1-3.3,5.186l0,1.266-.871.5,0-1.281c-1.846.883-3.2.546-3.27-1.424l2.473-1.428c.051.612.325.848.791.746l-.006-2.466c-1.458.4-3.279.986-3.286-1.464-.005-1.955,1.42-3.933,3.267-5.143l0-1.265.871-.5,0,1.265c1.861-.9,3.056-.5,3.188,1.417l-2.489,1.436c-.057-.544-.316-.756-.693-.7Zm.013,4.54a2.138,2.138,0,0,0,.875-1.619c0-.561-.351-.672-.881-.6l.006,2.218m-.885-4.373-.006-2.163a1.879,1.879,0,0,0-.813,1.512c0,.545.33.684.819.651" fill="#f9dc32"/>
    </g>
    <g id="Grupo_42778" data-name="Grupo 42778">
      <path id="Trazado_111945" data-name="Trazado 111945" d="M357.673,198.535c1.128-.289,2.574-.769,2.58,1.11a5.149,5.149,0,0,1-2.565,4.029l0,.983-.677.391,0-1c-1.435.685-2.482.423-2.541-1.107l1.922-1.11c.04.476.252.659.615.58L357,200.5c-1.132.311-2.546.766-2.552-1.138a5.174,5.174,0,0,1,2.538-3.995l0-.983.677-.391,0,.984c1.445-.7,2.374-.387,2.476,1.1l-1.934,1.116c-.044-.423-.245-.588-.538-.543Zm.011,3.528a1.661,1.661,0,0,0,.679-1.259c0-.435-.272-.522-.684-.465l.005,1.724m-.688-3.4-.005-1.68a1.461,1.461,0,0,0-.631,1.174c0,.424.256.531.636.506" fill="#f9dc32"/>
    </g>
    <g id="Grupo_42779" data-name="Grupo 42779">
      <path id="Trazado_111946" data-name="Trazado 111946" d="M342.814,169.264c1.127-.29,2.574-.77,2.58,1.109a5.149,5.149,0,0,1-2.565,4.03l0,.983-.676.39,0-.995c-1.435.685-2.483.424-2.541-1.107l1.922-1.109c.039.476.251.659.614.58l-.005-1.916c-1.133.311-2.547.766-2.552-1.138a5.174,5.174,0,0,1,2.537-4l0-.983.677-.391,0,.983c1.446-.7,2.375-.386,2.476,1.1l-1.932,1.115c-.045-.423-.246-.587-.539-.543Zm.01,3.528a1.661,1.661,0,0,0,.68-1.259c0-.436-.273-.522-.685-.465l.005,1.724m-.687-3.4-.005-1.68a1.459,1.459,0,0,0-.631,1.175c0,.423.256.531.636.505" fill="#f9dc32"/>
    </g>
    <g id="Grupo_42780" data-name="Grupo 42780">
      <path id="Trazado_111947" data-name="Trazado 111947" d="M457.2,263.582l18.757-10.888a2.561,2.561,0,0,1,2.57,0l44.5,25.686a1.132,1.132,0,0,1,0,1.958L504.69,290.98a3.046,3.046,0,0,1-3.055,0L457.2,265.338A1.015,1.015,0,0,1,457.2,263.582Z" fill="#fff"/>
      <path id="Trazado_111948" data-name="Trazado 111948" d="M457.2,265.338l44.434,25.646a3.046,3.046,0,0,0,3.055,0l18.341-10.645a1.122,1.122,0,0,0,.562-.975v2.3h0a1.119,1.119,0,0,1-.56.955L504.69,293.267a3.051,3.051,0,0,1-3.055,0L457.2,267.623a1,1,0,0,1-.506-.884h0v-2.275A1,1,0,0,0,457.2,265.338Z" fill="#a7bcce"/>
      <path id="Trazado_111949" data-name="Trazado 111949" d="M457.2,265.338l44.434,25.646a3.05,3.05,0,0,0,1.4.4v2.285a3.048,3.048,0,0,1-1.4-.4L457.2,267.623a1,1,0,0,1-.506-.884h0v-2.275A1,1,0,0,0,457.2,265.338Z" fill="#bbcee1"/>
    </g>
    <g id="Grupo_42782" data-name="Grupo 42782">
      <g id="Grupo_42781" data-name="Grupo 42781">
        <path id="Trazado_111950" data-name="Trazado 111950" d="M435.512,163.786l105.138,60.979,0,77.368L435.512,240.91Z" fill="url(#linear-gradient)"/>
        <path id="Trazado_111951" data-name="Trazado 111951" d="M540.649,224.765l3.5-2.124v77.368l-3.5,2.124Z" fill="#a7bcce"/>
        <path id="Trazado_111952" data-name="Trazado 111952" d="M435.512,163.786l3.581-2.075,105.052,60.93-3.5,2.124Z" fill="#fff"/>
      </g>
      <path id="Trazado_111953" data-name="Trazado 111953" d="M435.512,163.786V240.91l105.134,61.223,0-77.368ZM538.157,297.8,438,239.48V168.108L538.159,226.2Z" fill="#bbcee1"/>
    </g>
    <g id="Grupo_42786" data-name="Grupo 42786">
      <g id="Grupo_42784" data-name="Grupo 42784">
        <g id="Grupo_42783" data-name="Grupo 42783">
          <path id="Trazado_111954" data-name="Trazado 111954" d="M554.6,183.919l39.6,22.76v47.331L554.6,231.1Z" fill="#bbcee1"/>
          <path id="Trazado_111955" data-name="Trazado 111955" d="M594.2,206.679l2.979-1.78V252.23l-2.981,1.78Z" fill="#a7bcce"/>
          <path id="Trazado_111956" data-name="Trazado 111956" d="M554.6,183.919l3.031-1.75,39.551,22.73-2.979,1.78Z" fill="#fff"/>
        </g>
      </g>
      <path id="Trazado_111957" data-name="Trazado 111957" d="M557.948,189.842l32.91,18.914,0,39.333L557.948,229.05Z" fill="#f4f7ff"/>
      <path id="Trazado_111958" data-name="Trazado 111958" d="M560.35,216.542v10.65l5.962,3.449V219.968Z" fill="#f9ae40"/>
      <g id="Grupo_42785" data-name="Grupo 42785">
        <path id="Trazado_111959" data-name="Trazado 111959" d="M557.334,224.5v1.032l1.869,1.081v-1.04Z" fill="#bbcee1"/>
        <path id="Trazado_111960" data-name="Trazado 111960" d="M557.334,220.544v1.032l1.869,1.081v-1.039Z" fill="#bbcee1"/>
        <path id="Trazado_111961" data-name="Trazado 111961" d="M557.334,216.587v1.032L559.2,218.7v-1.039Z" fill="#bbcee1"/>
        <path id="Trazado_111962" data-name="Trazado 111962" d="M557.334,212.63v1.032l1.869,1.081V213.7Z" fill="#bbcee1"/>
        <path id="Trazado_111963" data-name="Trazado 111963" d="M557.334,208.674v1.032l1.869,1.081v-1.039Z" fill="#bbcee1"/>
        <path id="Trazado_111964" data-name="Trazado 111964" d="M557.334,204.717v1.032l1.869,1.081v-1.039Z" fill="#bbcee1"/>
        <path id="Trazado_111965" data-name="Trazado 111965" d="M557.334,200.76v1.032l1.869,1.081v-1.039Z" fill="#bbcee1"/>
        <path id="Trazado_111966" data-name="Trazado 111966" d="M557.334,196.8v1.032l1.869,1.081v-1.039Z" fill="#bbcee1"/>
      </g>
      <path id="Trazado_111967" data-name="Trazado 111967" d="M567.731,211.91v19.563l5.962,3.449V215.337Z" fill="#f9ae40"/>
      <path id="Trazado_111968" data-name="Trazado 111968" d="M575.112,218.849v16.9l5.963,3.449V222.275Z" fill="#f9ae40"/>
      <path id="Trazado_111969" data-name="Trazado 111969" d="M582.494,212.874v27.16l5.962,3.449V216.3Z" fill="#f9ae40"/>
    </g>
    <g id="Grupo_42790" data-name="Grupo 42790">
      <g id="Grupo_42788" data-name="Grupo 42788">
        <g id="Grupo_42787" data-name="Grupo 42787">
          <path id="Trazado_111970" data-name="Trazado 111970" d="M506.186,141.525l39.6,22.76v47.331l-39.6-22.909Z" fill="#bbcee1"/>
          <path id="Trazado_111971" data-name="Trazado 111971" d="M545.789,164.285l2.98-1.781v47.332l-2.981,1.78Z" fill="#a7bcce"/>
          <path id="Trazado_111972" data-name="Trazado 111972" d="M506.186,141.525l3.031-1.751,39.552,22.73-2.98,1.781Z" fill="#fff"/>
        </g>
      </g>
      <path id="Trazado_111973" data-name="Trazado 111973" d="M509.532,147.447l32.911,18.914,0,39.332-32.909-19.037Z" fill="#f4f7ff"/>
      <g id="Grupo_42789" data-name="Grupo 42789">
        <path id="Trazado_111974" data-name="Trazado 111974" d="M508.919,182.107v1.032l1.869,1.082v-1.04Z" fill="#bbcee1"/>
        <path id="Trazado_111975" data-name="Trazado 111975" d="M508.919,178.15v1.032l1.869,1.082v-1.039Z" fill="#bbcee1"/>
        <path id="Trazado_111976" data-name="Trazado 111976" d="M508.919,174.193v1.032l1.869,1.081v-1.039Z" fill="#bbcee1"/>
        <path id="Trazado_111977" data-name="Trazado 111977" d="M508.919,170.236v1.032l1.869,1.081v-1.04Z" fill="#bbcee1"/>
        <path id="Trazado_111978" data-name="Trazado 111978" d="M508.919,166.279v1.032l1.869,1.082v-1.039Z" fill="#bbcee1"/>
        <path id="Trazado_111979" data-name="Trazado 111979" d="M508.919,162.322v1.032l1.869,1.081V163.4Z" fill="#bbcee1"/>
        <path id="Trazado_111980" data-name="Trazado 111980" d="M508.919,158.366V159.4l1.869,1.082v-1.04Z" fill="#bbcee1"/>
        <path id="Trazado_111981" data-name="Trazado 111981" d="M508.919,154.409v1.032l1.869,1.082v-1.039Z" fill="#bbcee1"/>
      </g>
    </g>
    <g id="Grupo_42793" data-name="Grupo 42793">
      <path id="Trazado_111982" data-name="Trazado 111982" d="M525.09,331.827,462.1,367.511l-40.145-23.224,62.984-35.674Z" fill="#ed5561"/>
      <g id="Grupo_42791" data-name="Grupo 42791">
        <path id="Trazado_111983" data-name="Trazado 111983" d="M474.434,366.655v1.4L537.423,332v-1.028Z" fill="#f0cec9"/>
        <path id="Trazado_111984" data-name="Trazado 111984" d="M537.423,330.971l-62.989,35.685-40.146-23.224,62.985-35.675Z" fill="#fffbf0"/>
        <path id="Trazado_111985" data-name="Trazado 111985" d="M474.434,366.655v1.4l-40.146-23.226v-1.4Z" fill="#f5ddd8"/>
      </g>
      <path id="Trazado_111986" data-name="Trazado 111986" d="M496.84,311.566l24.254,13.987-1.062.6-24.254-13.987Z" fill="#dfbab8"/>
      <path id="Trazado_111987" data-name="Trazado 111987" d="M494.32,313l24.253,13.987-1.062.6L493.257,313.6Z" fill="#dfbab8"/>
      <path id="Trazado_111988" data-name="Trazado 111988" d="M488.456,316.315l33.4,19.276-1.062.6-33.4-19.276Z" fill="#dfbab8"/>
      <path id="Trazado_111989" data-name="Trazado 111989" d="M486.145,317.626l33.4,19.277-1.063.6-33.4-19.276Z" fill="#dfbab8"/>
      <path id="Trazado_111990" data-name="Trazado 111990" d="M483.833,318.939l33.4,19.276-1.062.6-33.4-19.276Z" fill="#dfbab8"/>
      <path id="Trazado_111991" data-name="Trazado 111991" d="M481.521,320.25l33.4,19.277-1.063.6-33.4-19.276Z" fill="#dfbab8"/>
      <path id="Trazado_111992" data-name="Trazado 111992" d="M479.209,321.563l33.4,19.276-1.062.6-33.4-19.276Z" fill="#dfbab8"/>
      <path id="Trazado_111993" data-name="Trazado 111993" d="M476.9,322.874l33.4,19.277-1.062.6-33.4-19.276Z" fill="#dfbab8"/>
      <path id="Trazado_111994" data-name="Trazado 111994" d="M474.586,324.186l33.4,19.276-1.064.6-33.4-19.277Z" fill="#dfbab8"/>
      <path id="Trazado_111995" data-name="Trazado 111995" d="M472.274,325.5l33.4,19.276-1.063.6-33.4-19.276Z" fill="#dfbab8"/>
      <path id="Trazado_111996" data-name="Trazado 111996" d="M469.963,326.81l33.4,19.277-1.062.6-33.4-19.277Z" fill="#dfbab8"/>
      <path id="Trazado_111997" data-name="Trazado 111997" d="M467.65,328.123l33.4,19.276-1.062.6-33.4-19.276Z" fill="#dfbab8"/>
      <path id="Trazado_111998" data-name="Trazado 111998" d="M465.339,329.435l33.4,19.277-1.062.6-33.4-19.277Z" fill="#dfbab8"/>
      <path id="Trazado_111999" data-name="Trazado 111999" d="M463.027,330.747l33.4,19.276-1.063.6-33.4-19.276Z" fill="#dfbab8"/>
      <path id="Trazado_112000" data-name="Trazado 112000" d="M460.716,332.059l33.4,19.277-1.064.6-33.4-19.276Z" fill="#dfbab8"/>
      <path id="Trazado_112001" data-name="Trazado 112001" d="M458.4,333.371l33.4,19.276-1.062.6-33.4-19.276Z" fill="#dfbab8"/>
      <path id="Trazado_112002" data-name="Trazado 112002" d="M456.092,334.683l33.4,19.277-1.062.6-33.4-19.276Z" fill="#dfbab8"/>
      <g id="Grupo_42792" data-name="Grupo 42792">
        <path id="Trazado_112003" data-name="Trazado 112003" d="M483.122,348.6a12.272,12.272,0,0,0-11.134,0A4.844,4.844,0,0,0,470,350.574L459.07,352.69l1.738.415,2.831.679-1.546,1.529-.974.959,9.915-1.921a6.344,6.344,0,0,0,.99.7,8.664,8.664,0,0,0,1.193.566l-3.277,5.749,1.654-.566,2.63-.9,1.179,1.636.725,1,3.611-6.324a10.06,10.06,0,0,0,3.423-1.162C486.227,353.27,486.207,350.381,483.122,348.6Z" fill="#ed5561"/>
        <path id="Trazado_112004" data-name="Trazado 112004" d="M472.512,351.647c0,1.553,2.264,2.812,5.059,2.812s5.059-1.259,5.059-2.812-2.265-2.81-5.059-2.81S472.512,350.1,472.512,351.647Z" fill="#cc3a41"/>
      </g>
    </g>
    <g id="Grupo_42798" data-name="Grupo 42798">
      <g id="Grupo_42794" data-name="Grupo 42794">
        <path id="Trazado_112005" data-name="Trazado 112005" d="M474,306.858v2.068c0,2.8-4.166,5.059-9.3,5.059s-9.305-2.264-9.305-5.059v-2.068Z" fill="#ef9d26"/>
        <path id="Trazado_112006" data-name="Trazado 112006" d="M468.5,313.539a12.171,12.171,0,0,0,2.241-.772v-4.433H468.5Z" fill="#f9c32a"/>
        <path id="Trazado_112007" data-name="Trazado 112007" d="M471.859,312.154a5.41,5.41,0,0,0,1.622-1.573V307.1h-1.622Z" fill="#f9c32a"/>
        <path id="Trazado_112008" data-name="Trazado 112008" d="M455.391,306.858c0,2.794,4.166,5.06,9.305,5.06s9.3-2.266,9.3-5.06-4.166-5.059-9.3-5.059S455.391,304.065,455.391,306.858Z" fill="#f9dc32"/>
        <path id="Trazado_112009" data-name="Trazado 112009" d="M457.532,306.8c0,2.1,3.207,3.8,7.164,3.8s7.163-1.7,7.163-3.8-3.207-3.8-7.163-3.8S457.532,304.694,457.532,306.8Z" fill="#f9c32a"/>
        <path id="Trazado_112010" data-name="Trazado 112010" d="M467.865,305.254l.655-.381-.517-.3-.656.382a3.977,3.977,0,0,0-3.647-.157c-1.271.738-.425,1.511.22,2.147l-1.278.745c-.19-.215-.149-.428.154-.638l-1.484-.857c-1.009.63-.775,1.429.237,2.129l-.664.386.518.3.656-.382a3.985,3.985,0,0,0,3.692.159c1.255-.728.371-1.508-.258-2.155l1.255-.729c.15.179.118.376-.147.57l1.492.861C469.044,306.694,468.9,305.951,467.865,305.254Zm-3.623,2.72a1.282,1.282,0,0,1-1.1.026l1.146-.666C464.482,307.588,464.533,307.8,464.242,307.974Zm.9-1.74c-.168-.246-.19-.457.093-.62a1.142,1.142,0,0,1,1.032-.034Z" fill="#ef9d26"/>
      </g>
      <g id="Grupo_42795" data-name="Grupo 42795">
        <path id="Trazado_112011" data-name="Trazado 112011" d="M474,304.2v2.069c0,2.794-4.166,5.059-9.3,5.059s-9.305-2.265-9.305-5.059V304.2Z" fill="#ef9d26"/>
        <path id="Trazado_112012" data-name="Trazado 112012" d="M468.5,310.879a12.1,12.1,0,0,0,2.241-.774v-4.432H468.5Z" fill="#f9c32a"/>
        <path id="Trazado_112013" data-name="Trazado 112013" d="M471.859,309.493a5.386,5.386,0,0,0,1.622-1.573v-3.484h-1.622Z" fill="#f9c32a"/>
        <path id="Trazado_112014" data-name="Trazado 112014" d="M455.391,304.2c0,2.794,4.166,5.06,9.305,5.06s9.3-2.266,9.3-5.06-4.166-5.059-9.3-5.059S455.391,301.4,455.391,304.2Z" fill="#f9dc32"/>
        <path id="Trazado_112015" data-name="Trazado 112015" d="M457.532,304.134c0,2.1,3.207,3.8,7.164,3.8s7.163-1.7,7.163-3.8-3.207-3.8-7.163-3.8S457.532,302.034,457.532,304.134Z" fill="#f9c32a"/>
        <path id="Trazado_112016" data-name="Trazado 112016" d="M467.865,302.594l.655-.382-.517-.3-.656.381a3.983,3.983,0,0,0-3.647-.157c-1.271.739-.425,1.511.22,2.148l-1.278.743c-.19-.214-.149-.426.154-.636l-1.484-.858c-1.009.631-.775,1.429.237,2.129l-.664.387.518.3.656-.381a3.991,3.991,0,0,0,3.692.159c1.255-.73.371-1.509-.258-2.155l1.255-.729c.15.178.118.376-.147.57l1.492.861C469.044,304.034,468.9,303.291,467.865,302.594Zm-3.623,2.72a1.282,1.282,0,0,1-1.1.026l1.146-.666C464.482,304.927,464.533,305.145,464.242,305.314Zm.9-1.741c-.168-.246-.19-.456.093-.62a1.142,1.142,0,0,1,1.032-.034Z" fill="#ef9d26"/>
      </g>
      <g id="Grupo_42796" data-name="Grupo 42796">
        <path id="Trazado_112017" data-name="Trazado 112017" d="M474,301.537V303.6c0,2.795-4.166,5.06-9.3,5.06s-9.305-2.265-9.305-5.06v-2.067Z" fill="#ef9d26"/>
        <path id="Trazado_112018" data-name="Trazado 112018" d="M468.5,308.218a12.1,12.1,0,0,0,2.241-.773v-4.432H468.5Z" fill="#f9c32a"/>
        <path id="Trazado_112019" data-name="Trazado 112019" d="M471.859,306.833a5.41,5.41,0,0,0,1.622-1.573v-3.485h-1.622Z" fill="#f9c32a"/>
        <path id="Trazado_112020" data-name="Trazado 112020" d="M455.391,301.537c0,2.794,4.166,5.06,9.305,5.06s9.3-2.266,9.3-5.06-4.166-5.059-9.3-5.059S455.391,298.743,455.391,301.537Z" fill="#f9dc32"/>
        <path id="Trazado_112021" data-name="Trazado 112021" d="M457.532,301.474c0,2.1,3.207,3.8,7.164,3.8s7.163-1.7,7.163-3.8-3.207-3.8-7.163-3.8S457.532,299.373,457.532,301.474Z" fill="#f9c32a"/>
        <path id="Trazado_112022" data-name="Trazado 112022" d="M467.865,299.933l.655-.381-.517-.3-.656.382a3.977,3.977,0,0,0-3.647-.157c-1.271.738-.425,1.51.22,2.147l-1.278.744c-.19-.215-.149-.428.154-.638l-1.484-.856c-1.009.63-.775,1.429.237,2.129l-.664.386.518.3.656-.382a3.985,3.985,0,0,0,3.692.159c1.255-.729.371-1.508-.258-2.156l1.255-.728c.15.179.118.377-.147.569l1.492.863C469.044,301.373,468.9,300.63,467.865,299.933Zm-3.623,2.719a1.282,1.282,0,0,1-1.1.028l1.146-.666C464.482,302.267,464.533,302.483,464.242,302.652Zm.9-1.739c-.168-.247-.19-.457.093-.62a1.136,1.136,0,0,1,1.032-.034Z" fill="#ef9d26"/>
      </g>
      <g id="Grupo_42797" data-name="Grupo 42797">
        <path id="Trazado_112023" data-name="Trazado 112023" d="M474,298.876v2.068c0,2.794-4.166,5.06-9.3,5.06s-9.305-2.266-9.305-5.06v-2.068Z" fill="#ef9d26"/>
        <path id="Trazado_112024" data-name="Trazado 112024" d="M468.5,305.558a12.174,12.174,0,0,0,2.241-.774v-4.432H468.5Z" fill="#f9c32a"/>
        <path id="Trazado_112025" data-name="Trazado 112025" d="M471.859,304.172a5.386,5.386,0,0,0,1.622-1.573v-3.484h-1.622Z" fill="#f9c32a"/>
        <path id="Trazado_112026" data-name="Trazado 112026" d="M455.391,298.876c0,2.794,4.166,5.059,9.305,5.059s9.3-2.265,9.3-5.059-4.166-5.06-9.3-5.06S455.391,296.082,455.391,298.876Z" fill="#f9dc32"/>
        <path id="Trazado_112027" data-name="Trazado 112027" d="M457.532,298.813c0,2.1,3.207,3.8,7.164,3.8s7.163-1.7,7.163-3.8-3.207-3.8-7.163-3.8S457.532,296.713,457.532,298.813Z" fill="#f9c32a"/>
        <path id="Trazado_112028" data-name="Trazado 112028" d="M467.865,297.272l.655-.381-.517-.3-.656.381a3.983,3.983,0,0,0-3.647-.158c-1.271.74-.425,1.512.22,2.149l-1.278.743c-.19-.215-.149-.427.154-.637l-1.484-.857c-1.009.631-.775,1.43.237,2.129l-.664.386.518.3.656-.38a3.993,3.993,0,0,0,3.692.159c1.255-.73.371-1.509-.258-2.156l1.255-.728c.15.178.118.376-.147.569l1.492.862C469.044,298.713,468.9,297.97,467.865,297.272Zm-3.623,2.72a1.279,1.279,0,0,1-1.1.027l1.146-.666C464.482,299.605,464.533,299.823,464.242,299.992Zm.9-1.74c-.168-.246-.19-.456.093-.62a1.139,1.139,0,0,1,1.032-.034Z" fill="#ef9d26"/>
      </g>
    </g>
    <g id="Grupo_42802" data-name="Grupo 42802">
      <g id="Grupo_42799" data-name="Grupo 42799">
        <path id="Trazado_112029" data-name="Trazado 112029" d="M460.2,314.658v2.068c0,2.795-4.166,5.06-9.3,5.06s-9.305-2.265-9.305-5.06v-2.068Z" fill="#ef9d26"/>
        <path id="Trazado_112030" data-name="Trazado 112030" d="M454.7,321.34a12.119,12.119,0,0,0,2.241-.774v-4.432H454.7Z" fill="#f9c32a"/>
        <path id="Trazado_112031" data-name="Trazado 112031" d="M458.054,319.954a5.41,5.41,0,0,0,1.622-1.573V314.9h-1.622Z" fill="#f9c32a"/>
        <path id="Trazado_112032" data-name="Trazado 112032" d="M441.585,314.658c0,2.794,4.166,5.06,9.305,5.06s9.3-2.266,9.3-5.06-4.166-5.059-9.3-5.059S441.585,311.864,441.585,314.658Z" fill="#f9dc32"/>
        <ellipse id="Elipse_1064" data-name="Elipse 1064" cx="7.164" cy="3.804" rx="7.164" ry="3.804" transform="translate(443.726 310.791)" fill="#f9c32a"/>
        <path id="Trazado_112033" data-name="Trazado 112033" d="M454.059,313.054l.656-.381-.519-.3-.656.382a3.978,3.978,0,0,0-3.646-.157c-1.271.738-.425,1.51.22,2.148l-1.279.743c-.189-.215-.149-.426.155-.637l-1.484-.857c-1.009.63-.776,1.429.237,2.129l-.665.386.519.3.656-.382a3.985,3.985,0,0,0,3.692.159c1.254-.729.371-1.508-.258-2.154l1.254-.73c.152.179.119.377-.146.569l1.492.863C455.237,314.495,455.092,313.752,454.059,313.054Zm-3.623,2.72a1.282,1.282,0,0,1-1.1.027l1.145-.666C450.676,315.388,450.727,315.605,450.436,315.774Zm.9-1.74c-.168-.246-.19-.456.093-.62a1.141,1.141,0,0,1,1.033-.034Z" fill="#ef9d26"/>
      </g>
      <g id="Grupo_42800" data-name="Grupo 42800">
        <path id="Trazado_112034" data-name="Trazado 112034" d="M460.2,312v2.068c0,2.795-4.166,5.06-9.3,5.06s-9.305-2.265-9.305-5.06V312Z" fill="#ef9d26"/>
        <path id="Trazado_112035" data-name="Trazado 112035" d="M454.7,318.679a12.046,12.046,0,0,0,2.241-.774v-4.432H454.7Z" fill="#f9c32a"/>
        <path id="Trazado_112036" data-name="Trazado 112036" d="M458.054,317.294a5.412,5.412,0,0,0,1.622-1.574v-3.484h-1.622Z" fill="#f9c32a"/>
        <path id="Trazado_112037" data-name="Trazado 112037" d="M441.585,312c0,2.795,4.166,5.06,9.305,5.06s9.3-2.265,9.3-5.06-4.166-5.058-9.3-5.058S441.585,309.2,441.585,312Z" fill="#f9dc32"/>
        <ellipse id="Elipse_1065" data-name="Elipse 1065" cx="7.164" cy="3.804" rx="7.164" ry="3.804" transform="translate(443.726 308.131)" fill="#f9c32a"/>
        <path id="Trazado_112038" data-name="Trazado 112038" d="M454.059,310.394l.656-.382-.519-.3-.656.381a3.978,3.978,0,0,0-3.646-.156c-1.271.738-.425,1.51.22,2.147l-1.279.743c-.189-.215-.149-.427.155-.637l-1.484-.856c-1.009.63-.776,1.429.237,2.128l-.665.387.519.3.656-.38a3.994,3.994,0,0,0,3.692.159c1.254-.729.371-1.509-.258-2.155l1.254-.729c.152.178.119.376-.146.569l1.492.862C455.237,311.834,455.092,311.091,454.059,310.394Zm-3.623,2.719a1.279,1.279,0,0,1-1.1.027l1.145-.666C450.676,312.728,450.727,312.944,450.436,313.113Zm.9-1.74c-.168-.246-.19-.456.093-.62a1.141,1.141,0,0,1,1.033-.034Z" fill="#ef9d26"/>
      </g>
      <g id="Grupo_42801" data-name="Grupo 42801">
        <path id="Trazado_112039" data-name="Trazado 112039" d="M460.2,309.337V311.4c0,2.8-4.166,5.061-9.3,5.061s-9.305-2.266-9.305-5.061v-2.067Z" fill="#ef9d26"/>
        <path id="Trazado_112040" data-name="Trazado 112040" d="M454.7,316.019a12.194,12.194,0,0,0,2.241-.774v-4.432H454.7Z" fill="#f9c32a"/>
        <path id="Trazado_112041" data-name="Trazado 112041" d="M458.054,314.633a5.409,5.409,0,0,0,1.622-1.573v-3.484h-1.622Z" fill="#f9c32a"/>
        <path id="Trazado_112042" data-name="Trazado 112042" d="M441.585,309.337c0,2.794,4.166,5.06,9.305,5.06s9.3-2.266,9.3-5.06-4.166-5.06-9.3-5.06S441.585,306.543,441.585,309.337Z" fill="#f9dc32"/>
        <ellipse id="Elipse_1066" data-name="Elipse 1066" cx="7.164" cy="3.804" rx="7.164" ry="3.804" transform="translate(443.726 305.47)" fill="#f9c32a"/>
        <path id="Trazado_112043" data-name="Trazado 112043" d="M454.059,307.732l.656-.38-.519-.3-.656.382a3.981,3.981,0,0,0-3.646-.158c-1.271.739-.425,1.511.22,2.149l-1.279.743c-.189-.215-.149-.428.155-.638l-1.484-.856c-1.009.63-.776,1.429.237,2.129l-.665.386.519.3.656-.382a3.988,3.988,0,0,0,3.692.16c1.254-.729.371-1.508-.258-2.155l1.254-.729c.152.178.119.377-.146.569l1.492.863C455.237,309.174,455.092,308.431,454.059,307.732Zm-3.623,2.721a1.279,1.279,0,0,1-1.1.026l1.145-.665C450.676,310.066,450.727,310.283,450.436,310.453Zm.9-1.74c-.168-.246-.19-.456.093-.62a1.141,1.141,0,0,1,1.033-.034Z" fill="#ef9d26"/>
      </g>
    </g>
    <g id="Grupo_42805" data-name="Grupo 42805">
      <g id="Grupo_42803" data-name="Grupo 42803">
        <path id="Trazado_112044" data-name="Trazado 112044" d="M446.389,322.458v2.068c0,2.794-4.166,5.06-9.3,5.06s-9.306-2.266-9.306-5.06v-2.068Z" fill="#ef9d26"/>
        <path id="Trazado_112045" data-name="Trazado 112045" d="M440.891,329.14a12.148,12.148,0,0,0,2.241-.774v-4.432h-2.241Z" fill="#f9c32a"/>
        <path id="Trazado_112046" data-name="Trazado 112046" d="M444.247,327.754a5.374,5.374,0,0,0,1.622-1.573V322.7h-1.622Z" fill="#f9c32a"/>
        <path id="Trazado_112047" data-name="Trazado 112047" d="M427.778,322.458c0,2.794,4.166,5.06,9.306,5.06s9.3-2.266,9.3-5.06-4.166-5.06-9.3-5.06S427.778,319.664,427.778,322.458Z" fill="#f9dc32"/>
        <path id="Trazado_112048" data-name="Trazado 112048" d="M429.92,322.395c0,2.1,3.207,3.8,7.164,3.8s7.163-1.7,7.163-3.8-3.207-3.8-7.163-3.8S429.92,320.3,429.92,322.395Z" fill="#f9c32a"/>
        <path id="Trazado_112049" data-name="Trazado 112049" d="M440.253,320.854l.656-.381-.518-.3-.657.381a3.978,3.978,0,0,0-3.646-.157c-1.272.739-.425,1.511.221,2.148l-1.28.743c-.189-.215-.148-.427.155-.637L433.7,321.8c-1.01.631-.775,1.429.236,2.129l-.664.386.519.3.656-.381a3.99,3.99,0,0,0,3.693.16c1.254-.73.37-1.509-.259-2.156l1.255-.729c.15.179.118.377-.148.57l1.493.862C441.432,322.3,441.286,321.552,440.253,320.854Zm-3.622,2.72a1.283,1.283,0,0,1-1.105.027l1.147-.666C436.87,323.188,436.921,323.4,436.631,323.574Zm.9-1.74c-.168-.246-.19-.456.093-.62a1.139,1.139,0,0,1,1.032-.034Z" fill="#ef9d26"/>
      </g>
      <g id="Grupo_42804" data-name="Grupo 42804">
        <path id="Trazado_112050" data-name="Trazado 112050" d="M446.389,319.8v2.067c0,2.8-4.166,5.06-9.3,5.06s-9.306-2.265-9.306-5.06V319.8Z" fill="#ef9d26"/>
        <path id="Trazado_112051" data-name="Trazado 112051" d="M440.891,326.478a12.071,12.071,0,0,0,2.241-.772v-4.433h-2.241Z" fill="#f9c32a"/>
        <path id="Trazado_112052" data-name="Trazado 112052" d="M444.247,325.094a5.4,5.4,0,0,0,1.622-1.573v-3.485h-1.622Z" fill="#f9c32a"/>
        <path id="Trazado_112053" data-name="Trazado 112053" d="M427.778,319.8c0,2.794,4.166,5.058,9.306,5.058s9.3-2.264,9.3-5.058-4.166-5.06-9.3-5.06S427.778,317,427.778,319.8Z" fill="#f9dc32"/>
        <path id="Trazado_112054" data-name="Trazado 112054" d="M429.92,319.734c0,2.1,3.207,3.8,7.164,3.8s7.163-1.7,7.163-3.8-3.207-3.8-7.163-3.8S429.92,317.634,429.92,319.734Z" fill="#f9c32a"/>
        <path id="Trazado_112055" data-name="Trazado 112055" d="M440.253,318.193l.656-.38-.518-.3-.657.382a3.975,3.975,0,0,0-3.646-.158c-1.272.739-.425,1.511.221,2.149l-1.28.743c-.189-.215-.148-.428.155-.638l-1.484-.856c-1.01.63-.775,1.429.236,2.129l-.664.385.519.3.656-.381a3.99,3.99,0,0,0,3.693.16c1.254-.729.37-1.508-.259-2.156l1.255-.728c.15.179.118.376-.148.569l1.493.861C441.432,319.634,441.286,318.891,440.253,318.193Zm-3.622,2.72a1.283,1.283,0,0,1-1.105.027l1.147-.667C436.87,320.527,436.921,320.744,436.631,320.913Zm.9-1.74c-.168-.246-.19-.456.093-.62a1.139,1.139,0,0,1,1.032-.033Z" fill="#ef9d26"/>
      </g>
    </g>
    <g id="Grupo_42807" data-name="Grupo 42807">
      <g id="Grupo_42806" data-name="Grupo 42806">
        <path id="Trazado_112056" data-name="Trazado 112056" d="M432.583,330.258v2.068c0,2.8-4.166,5.06-9.306,5.06s-9.3-2.265-9.3-5.06v-2.068Z" fill="#ef9d26"/>
        <path id="Trazado_112057" data-name="Trazado 112057" d="M427.085,336.94a12.171,12.171,0,0,0,2.241-.774v-4.433h-2.241Z" fill="#f9c32a"/>
        <path id="Trazado_112058" data-name="Trazado 112058" d="M430.441,335.555a5.391,5.391,0,0,0,1.622-1.575V330.5h-1.622Z" fill="#f9c32a"/>
        <path id="Trazado_112059" data-name="Trazado 112059" d="M413.973,330.258c0,2.794,4.166,5.059,9.3,5.059s9.306-2.265,9.306-5.059-4.166-5.06-9.306-5.06S413.973,327.464,413.973,330.258Z" fill="#f9dc32"/>
        <path id="Trazado_112060" data-name="Trazado 112060" d="M416.114,330.194c0,2.1,3.207,3.8,7.163,3.8s7.164-1.7,7.164-3.8-3.207-3.8-7.164-3.8S416.114,328.1,416.114,330.194Z" fill="#f9c32a"/>
        <path id="Trazado_112061" data-name="Trazado 112061" d="M426.446,328.654l.656-.382-.518-.3-.655.38a3.985,3.985,0,0,0-3.648-.156c-1.27.738-.425,1.511.221,2.148l-1.279.743c-.189-.215-.149-.427.155-.637l-1.484-.856c-1.009.63-.776,1.428.237,2.128l-.665.386.518.3.657-.381a3.994,3.994,0,0,0,3.692.16c1.255-.729.371-1.509-.258-2.156l1.254-.728c.151.178.119.376-.146.569l1.492.861C427.625,330.1,427.479,329.352,426.446,328.654Zm-3.622,2.72a1.275,1.275,0,0,1-1.1.026l1.146-.666C423.064,330.988,423.115,331.2,422.824,331.374Zm.9-1.74c-.168-.246-.19-.456.092-.62a1.144,1.144,0,0,1,1.033-.035Z" fill="#ef9d26"/>
      </g>
    </g>
    <g id="Grupo_42808" data-name="Grupo 42808">
      <path id="Trazado_112062" data-name="Trazado 112062" d="M566.426,291.792l-11.948-6.936v13.932l11.949,6.916Z" fill="#bbcee1"/>
      <path id="Trazado_112063" data-name="Trazado 112063" d="M566.827,277.76l-12.35,7.1,11.948,6.936,12.366-7.107Z" fill="#fff"/>
      <path id="Trazado_112064" data-name="Trazado 112064" d="M578.793,284.685l-12.367,7.107V305.7l12.366-7.154Z" fill="#a7bcce"/>
    </g>
    <path id="Trazado_112065" data-name="Trazado 112065" d="M536.693,172.436c-1.253-.723-2.272-.142-2.276,1.3a4.518,4.518,0,0,0,.6,2.11l-9.163,8.706a4.213,4.213,0,0,0-1.177-1.07,1.561,1.561,0,0,0-1.657-.123l-4.978-6.538a2.315,2.315,0,0,0,.085-.616,4.982,4.982,0,0,0-2.262-3.918c-1.253-.724-2.272-.142-2.276,1.3a4.988,4.988,0,0,0,2.262,3.918,1.692,1.692,0,0,0,1.446.222l5.133,6.741a2.373,2.373,0,0,0-.03.313,4.979,4.979,0,0,0,2.262,3.918c1.253.724,2.273.143,2.276-1.3a4.362,4.362,0,0,0-.47-1.855l9.208-8.751a4.027,4.027,0,0,0,1,.86c1.253.724,2.272.142,2.276-1.3A4.982,4.982,0,0,0,536.693,172.436Z" fill="#ed5561"/>
    <g id="Grupo_42813" data-name="Grupo 42813">
      <g id="Grupo_42812" data-name="Grupo 42812">
        <g id="Grupo_42810" data-name="Grupo 42810">
          <g id="Grupo_42809" data-name="Grupo 42809">
            <path id="Trazado_112066" data-name="Trazado 112066" d="M418.374,191.038,388.4,208.266v35.825l29.976-17.34Z" fill="#bbcee1"/>
            <path id="Trazado_112067" data-name="Trazado 112067" d="M388.4,208.266l-2.255-1.348v35.825l2.256,1.348Z" fill="#a7bcce"/>
            <path id="Trazado_112068" data-name="Trazado 112068" d="M418.374,191.038l-2.295-1.325-29.937,17.205,2.255,1.348Z" fill="#fff"/>
          </g>
        </g>
        <path id="Trazado_112069" data-name="Trazado 112069" d="M415.841,195.521l-24.91,14.316v29.771l24.909-14.41Z" fill="#f4f7ff"/>
        <g id="Grupo_42811" data-name="Grupo 42811">
          <path id="Trazado_112070" data-name="Trazado 112070" d="M391.909,235.618v.782l-1.415.818v-.787Z" fill="#bbcee1"/>
          <path id="Trazado_112071" data-name="Trazado 112071" d="M391.909,232.623v.781l-1.415.818v-.786Z" fill="#bbcee1"/>
          <path id="Trazado_112072" data-name="Trazado 112072" d="M391.909,229.628v.781l-1.415.819v-.787Z" fill="#bbcee1"/>
          <path id="Trazado_112073" data-name="Trazado 112073" d="M391.909,226.633v.781l-1.415.819v-.787Z" fill="#bbcee1"/>
          <path id="Trazado_112074" data-name="Trazado 112074" d="M391.909,223.638v.781l-1.415.818v-.787Z" fill="#bbcee1"/>
          <path id="Trazado_112075" data-name="Trazado 112075" d="M391.909,220.643v.781l-1.415.818v-.787Z" fill="#bbcee1"/>
          <path id="Trazado_112076" data-name="Trazado 112076" d="M391.909,217.648v.781l-1.415.819v-.787Z" fill="#bbcee1"/>
          <path id="Trazado_112077" data-name="Trazado 112077" d="M391.909,214.653v.782l-1.415.818v-.787Z" fill="#bbcee1"/>
        </g>
      </g>
      <path id="Trazado_112078" data-name="Trazado 112078" d="M393.273,235.688l20.777-12.02V206.232Z" fill="#f9ae40"/>
      <path id="Trazado_112079" data-name="Trazado 112079" d="M396.577,209.093v5.9l-3.3,1.911v-5.915Z" fill="#f9ae40"/>
      <path id="Trazado_112080" data-name="Trazado 112080" d="M393.273,235.688l20.777-29.456v-7.243Z" fill="#ed5561"/>
    </g>
    <g id="Grupo_42815" data-name="Grupo 42815">
      <g id="Grupo_42814" data-name="Grupo 42814">
        <path id="Trazado_112081" data-name="Trazado 112081" d="M416.988,350.266l.006,0v-1.3l-.436.041a2.211,2.211,0,0,0-.682-.641L390.39,333.571a4.453,4.453,0,0,0-4.457-.006l-38.565,22.262a2.106,2.106,0,0,0-.478.38l-.575.06v1.364h0a2.084,2.084,0,0,0,1.046,1.84l25.41,14.75a5.022,5.022,0,0,0,5.031.007l38.067-21.975A2.218,2.218,0,0,0,416.988,350.266Z" fill="#bbcee1"/>
        <path id="Trazado_112082" data-name="Trazado 112082" d="M415.876,346.995,390.39,332.2a4.446,4.446,0,0,0-4.457-.005l-38.565,22.261a2.105,2.105,0,0,0-.005,3.644l25.41,14.751a5.022,5.022,0,0,0,5.031,0l38.067-21.974A2.246,2.246,0,0,0,415.876,346.995Z" fill="#e2f7e8"/>
        <path id="Trazado_112083" data-name="Trazado 112083" d="M415.871,350.882,377.8,372.856a5.007,5.007,0,0,1-2.528.672v1.37a5.015,5.015,0,0,0,2.528-.67l38.067-21.975a2.218,2.218,0,0,0,1.117-1.987l.006,0v-1.3h0A2.224,2.224,0,0,1,415.871,350.882Z" fill="#a7bcce"/>
      </g>
      <path id="Trazado_112084" data-name="Trazado 112084" d="M405.04,349.1c0,1.232,1.838,2.231,4.1,2.231s4.1-1,4.1-2.231-1.837-2.232-4.1-2.232S405.04,347.867,405.04,349.1Z" fill="#1c75bc"/>
      <path id="Trazado_112085" data-name="Trazado 112085" d="M400.552,351.7c0,1.232,1.837,2.232,4.1,2.232s4.1-1,4.1-2.232-1.837-2.23-4.1-2.23S400.552,350.472,400.552,351.7Z" fill="#f9ae40"/>
      <path id="Trazado_112086" data-name="Trazado 112086" d="M363.546,354.346l-4.845-2.814a.85.85,0,0,0-.848,0l-7.332,4.234a.4.4,0,0,0,0,.692l4.832,2.8a.953.953,0,0,0,.956,0l7.238-4.178A.427.427,0,0,0,363.546,354.346Z" fill="#f9ae40"/>
      <path id="Trazado_112087" data-name="Trazado 112087" d="M399.176,340.525,360.894,362.6l1.661.959,38.282-22.077Z" fill="#a7bcce"/>
      <path id="Trazado_112088" data-name="Trazado 112088" d="M402.256,342.3l-38.281,22.077,1.661.96,38.281-22.078Z" fill="#a7bcce"/>
    </g>
    <path id="Trazado_112089" data-name="Trazado 112089" d="M456.608,182.271l-16.035-9.286v1.56l16.035,9.286Z" fill="#f4f7ff" style="mix-blend-mode: overlay;isolation: isolate"/>
    <path id="Trazado_112090" data-name="Trazado 112090" d="M456.608,184.9l-16.035-9.286v1.559l16.035,9.286Z" fill="#f4f7ff" style="mix-blend-mode: overlay;isolation: isolate"/>
    <g id="Grupo_42816" data-name="Grupo 42816">
      <path id="Trazado_112091" data-name="Trazado 112091" d="M535.506,287.863l-16.035-9.285v1.559l16.035,9.286Z" fill="#f4f7ff" style="mix-blend-mode: overlay;isolation: isolate"/>
      <path id="Trazado_112092" data-name="Trazado 112092" d="M535.506,290.49,519.471,281.2v1.56l16.035,9.286Z" fill="#f4f7ff" style="mix-blend-mode: overlay;isolation: isolate"/>
    </g>
    <g id="Grupo_42817" data-name="Grupo 42817">
      <path id="Trazado_112093" data-name="Trazado 112093" d="M517.052,277.188,501.017,267.9v1.559l16.035,9.286Z" fill="#f4f7ff" style="mix-blend-mode: overlay;isolation: isolate"/>
      <path id="Trazado_112094" data-name="Trazado 112094" d="M517.052,279.814l-16.035-9.286v1.56l16.035,9.286Z" fill="#f4f7ff" style="mix-blend-mode: overlay;isolation: isolate"/>
    </g>
    <g id="Grupo_42818" data-name="Grupo 42818">
      <path id="Trazado_112095" data-name="Trazado 112095" d="M498.6,266.511l-16.035-9.286v1.559l16.035,9.286Z" fill="#f4f7ff" style="mix-blend-mode: overlay;isolation: isolate"/>
      <path id="Trazado_112096" data-name="Trazado 112096" d="M498.6,269.137l-16.035-9.286v1.56L498.6,270.7Z" fill="#f4f7ff" style="mix-blend-mode: overlay;isolation: isolate"/>
    </g>
    <g id="Grupo_42819" data-name="Grupo 42819">
      <path id="Trazado_112097" data-name="Trazado 112097" d="M480.144,255.834l-16.034-9.286v1.559l16.034,9.286Z" fill="#f4f7ff" style="mix-blend-mode: overlay;isolation: isolate"/>
      <path id="Trazado_112098" data-name="Trazado 112098" d="M480.144,258.46l-16.034-9.286v1.559l16.034,9.286Z" fill="#f4f7ff" style="mix-blend-mode: overlay;isolation: isolate"/>
    </g>
    <path id="Trazado_112099" data-name="Trazado 112099" d="M456.608,187.524l-16.035-9.286V179.8l16.035,9.286Z" fill="#f4f7ff" style="mix-blend-mode: overlay;isolation: isolate"/>
    <path id="Trazado_112100" data-name="Trazado 112100" d="M456.608,190.151l-16.035-9.286v1.559l16.035,9.286Z" fill="#f4f7ff" style="mix-blend-mode: overlay;isolation: isolate"/>
    <path id="Trazado_112101" data-name="Trazado 112101" d="M456.608,192.777l-16.035-9.286v1.559l16.035,9.286Z" fill="#f4f7ff" style="mix-blend-mode: overlay;isolation: isolate"/>
    <path id="Trazado_112102" data-name="Trazado 112102" d="M456.608,195.4l-16.035-9.286v1.56l16.035,9.286Z" fill="#f4f7ff" style="mix-blend-mode: overlay;isolation: isolate"/>
    <path id="Trazado_112103" data-name="Trazado 112103" d="M456.608,198.031l-16.035-9.286v1.56l16.035,9.286Z" fill="#f4f7ff" style="mix-blend-mode: overlay;isolation: isolate"/>
    <path id="Trazado_112104" data-name="Trazado 112104" d="M456.608,200.657l-16.035-9.286v1.559l16.035,9.286Z" fill="#f4f7ff" style="mix-blend-mode: overlay;isolation: isolate"/>
    <path id="Trazado_112105" data-name="Trazado 112105" d="M456.608,203.284,440.573,194v1.559l16.035,9.286Z" fill="#f4f7ff" style="mix-blend-mode: overlay;isolation: isolate"/>
    <path id="Trazado_112106" data-name="Trazado 112106" d="M456.608,205.91l-16.035-9.286v1.559l16.035,9.286Z" fill="#f4f7ff" style="mix-blend-mode: overlay;isolation: isolate"/>
    <path id="Trazado_112107" data-name="Trazado 112107" d="M456.608,208.537l-16.035-9.286v1.559l16.035,9.286Z" fill="#f4f7ff" style="mix-blend-mode: overlay;isolation: isolate"/>
    <path id="Trazado_112108" data-name="Trazado 112108" d="M456.608,211.164l-16.035-9.286v1.559l16.035,9.286Z" fill="#f4f7ff" style="mix-blend-mode: overlay;isolation: isolate"/>
    <path id="Trazado_112109" data-name="Trazado 112109" d="M456.608,213.79,440.573,204.5v1.56l16.035,9.286Z" fill="#f4f7ff" style="mix-blend-mode: overlay;isolation: isolate"/>
    <path id="Trazado_112110" data-name="Trazado 112110" d="M456.608,216.417l-16.035-9.286v1.559l16.035,9.286Z" fill="#f4f7ff" style="mix-blend-mode: overlay;isolation: isolate"/>
    <path id="Trazado_112111" data-name="Trazado 112111" d="M456.608,219.043l-16.035-9.286v1.559l16.035,9.286Z" fill="#f4f7ff" style="mix-blend-mode: overlay;isolation: isolate"/>
    <path id="Trazado_112112" data-name="Trazado 112112" d="M456.608,221.669l-16.035-9.286v1.559l16.035,9.286Z" fill="#f4f7ff" style="mix-blend-mode: overlay;isolation: isolate"/>
    <path id="Trazado_112113" data-name="Trazado 112113" d="M456.608,224.3l-16.035-9.286v1.559l16.035,9.286Z" fill="#f4f7ff" style="mix-blend-mode: overlay;isolation: isolate"/>
    <g id="Grupo_42834" data-name="Grupo 42834">
      <path id="Trazado_112114" data-name="Trazado 112114" d="M459.577,183.987l75.929,44.038,0,55.874-75.927-44.214Z" fill="#f4f7ff"/>
      <path id="Trazado_112115" data-name="Trazado 112115" d="M461.458,236.6v.623l71.621,41.707V278.3Z" fill="#bbcee1"/>
      <path id="Trazado_112116" data-name="Trazado 112116" d="M461.458,230.061v.624l71.621,41.706v-.623Z" fill="#bbcee1"/>
      <path id="Trazado_112117" data-name="Trazado 112117" d="M461.458,223.526v.624l71.621,41.707v-.624Z" fill="#bbcee1"/>
      <path id="Trazado_112118" data-name="Trazado 112118" d="M461.458,216.991v.624l71.621,41.707V258.7Z" fill="#bbcee1"/>
      <path id="Trazado_112119" data-name="Trazado 112119" d="M461.458,210.456v.624l71.621,41.706v-.623Z" fill="#bbcee1"/>
      <path id="Trazado_112120" data-name="Trazado 112120" d="M461.458,203.921v.624l71.621,41.707v-.624Z" fill="#bbcee1"/>
      <path id="Trazado_112121" data-name="Trazado 112121" d="M461.458,197.387v.623l71.621,41.706v-.623Z" fill="#bbcee1"/>
      <path id="Trazado_112122" data-name="Trazado 112122" d="M461.458,191.214V236.6l.567.328V191.54Z" fill="#bbcee1"/>
      <path id="Trazado_112123" data-name="Trazado 112123" d="M468.349,195.239v45.385l.566.328V195.564Z" fill="#bbcee1"/>
      <path id="Trazado_112124" data-name="Trazado 112124" d="M475.239,199.264v45.385l.566.328V199.59Z" fill="#bbcee1"/>
      <path id="Trazado_112125" data-name="Trazado 112125" d="M482.129,203.289v45.385l.567.328V203.615Z" fill="#bbcee1"/>
      <path id="Trazado_112126" data-name="Trazado 112126" d="M489.02,207.314V252.7l.567.327V207.64Z" fill="#bbcee1"/>
      <path id="Trazado_112127" data-name="Trazado 112127" d="M495.91,211.339v45.385l.566.328V211.665Z" fill="#bbcee1"/>
      <path id="Trazado_112128" data-name="Trazado 112128" d="M502.8,215.364v45.385l.566.328V215.69Z" fill="#bbcee1"/>
      <path id="Trazado_112129" data-name="Trazado 112129" d="M509.69,219.389v45.385l.567.328V219.715Z" fill="#bbcee1"/>
      <path id="Trazado_112130" data-name="Trazado 112130" d="M516.581,223.415V268.8l.567.328V223.74Z" fill="#bbcee1"/>
      <path id="Trazado_112131" data-name="Trazado 112131" d="M523.472,227.439v45.385l.567.328V227.765Z" fill="#bbcee1"/>
      <path id="Trazado_112132" data-name="Trazado 112132" d="M530.362,231.464V276.85l.566.328V231.79Z" fill="#bbcee1"/>
      <g id="Grupo_42820" data-name="Grupo 42820">
        <path id="Trazado_112133" data-name="Trazado 112133" d="M475.527,230.362a3.076,3.076,0,0,1,1.395,2.417c0,.888-.631,1.247-1.4.8a3.077,3.077,0,0,1-1.4-2.417C474.125,230.274,474.754,229.916,475.527,230.362Z" fill="#ed5561"/>
      </g>
      <g id="Grupo_42821" data-name="Grupo 42821">
        <path id="Trazado_112134" data-name="Trazado 112134" d="M475.527,223.718a3.076,3.076,0,0,1,1.395,2.417c0,.888-.631,1.247-1.4.8a3.073,3.073,0,0,1-1.4-2.416C474.125,223.63,474.754,223.272,475.527,223.718Z" fill="#f9ae40"/>
      </g>
      <g id="Grupo_42822" data-name="Grupo 42822">
        <path id="Trazado_112135" data-name="Trazado 112135" d="M489.308,238.666a3.073,3.073,0,0,1,1.395,2.417c0,.888-.632,1.246-1.4.8a3.073,3.073,0,0,1-1.4-2.417C487.906,238.578,488.534,238.22,489.308,238.666Z" fill="#f9ae40"/>
      </g>
      <g id="Grupo_42823" data-name="Grupo 42823">
        <path id="Trazado_112136" data-name="Trazado 112136" d="M496.2,229.345a3.075,3.075,0,0,1,1.4,2.417c0,.888-.632,1.247-1.4.8a3.076,3.076,0,0,1-1.395-2.418C494.8,229.257,495.425,228.9,496.2,229.345Z" fill="#f9ae40"/>
      </g>
      <g id="Grupo_42824" data-name="Grupo 42824">
        <path id="Trazado_112137" data-name="Trazado 112137" d="M503.035,226.761a3.074,3.074,0,0,1,1.4,2.417c0,.888-.631,1.247-1.4.8a3.079,3.079,0,0,1-1.395-2.418C501.634,226.673,502.263,226.315,503.035,226.761Z" fill="#f9ae40"/>
      </g>
      <g id="Grupo_42825" data-name="Grupo 42825">
        <path id="Trazado_112138" data-name="Trazado 112138" d="M516.869,241.465a3.074,3.074,0,0,1,1.4,2.417c0,.888-.632,1.247-1.405.8a3.072,3.072,0,0,1-1.395-2.416C515.467,241.377,516.1,241.019,516.869,241.465Z" fill="#f9ae40"/>
      </g>
      <g id="Grupo_42826" data-name="Grupo 42826">
        <path id="Trazado_112139" data-name="Trazado 112139" d="M509.978,250.546a3.071,3.071,0,0,1,1.4,2.417c0,.889-.631,1.247-1.4.8a3.08,3.08,0,0,1-1.4-2.417C508.577,250.458,509.206,250.1,509.978,250.546Z" fill="#f9ae40"/>
      </g>
      <g id="Grupo_42827" data-name="Grupo 42827">
        <path id="Trazado_112140" data-name="Trazado 112140" d="M523.76,238.413a3.076,3.076,0,0,1,1.4,2.417c0,.888-.632,1.246-1.4.8a3.073,3.073,0,0,1-1.4-2.417C522.357,238.325,522.986,237.966,523.76,238.413Z" fill="#f9ae40"/>
      </g>
      <g id="Grupo_42828" data-name="Grupo 42828">
        <path id="Trazado_112141" data-name="Trazado 112141" d="M482.417,238.108a3.073,3.073,0,0,1,1.4,2.417c0,.888-.63,1.246-1.4.8a3.075,3.075,0,0,1-1.395-2.417C481.016,238.02,481.644,237.662,482.417,238.108Z" fill="#ed5561"/>
      </g>
      <g id="Grupo_42829" data-name="Grupo 42829">
        <path id="Trazado_112142" data-name="Trazado 112142" d="M489.308,232.163a3.073,3.073,0,0,1,1.395,2.417c0,.888-.632,1.247-1.4.8a3.071,3.071,0,0,1-1.4-2.417C487.906,232.075,488.534,231.717,489.308,232.163Z" fill="#ed5561"/>
      </g>
      <g id="Grupo_42830" data-name="Grupo 42830">
        <path id="Trazado_112143" data-name="Trazado 112143" d="M503.035,243.368a3.073,3.073,0,0,1,1.4,2.417c0,.888-.631,1.247-1.4.8a3.075,3.075,0,0,1-1.395-2.417C501.634,243.28,502.263,242.922,503.035,243.368Z" fill="#ed5561"/>
      </g>
      <g id="Grupo_42831" data-name="Grupo 42831">
        <path id="Trazado_112144" data-name="Trazado 112144" d="M509.978,235.318a3.071,3.071,0,0,1,1.4,2.417c0,.888-.631,1.246-1.4.8a3.074,3.074,0,0,1-1.4-2.417C508.577,235.23,509.206,234.872,509.978,235.318Z" fill="#ed5561"/>
      </g>
      <g id="Grupo_42832" data-name="Grupo 42832">
        <path id="Trazado_112145" data-name="Trazado 112145" d="M523.76,232.587a3.076,3.076,0,0,1,1.4,2.417c0,.888-.632,1.247-1.4.8a3.073,3.073,0,0,1-1.4-2.417C522.357,232.5,522.986,232.141,523.76,232.587Z" fill="#ed5561"/>
      </g>
      <path id="Trazado_112146" data-name="Trazado 112146" d="M523.7,233.928l-13.872,2.749L503,244.6l-13.7-11.181-6.859,5.919-6.839-7.686-7.066,2.733.2.51,6.715-2.6,6.942,7.806,6.922-5.972,13.755,11.228,7.056-8.18,13.69-2.713Z" fill="#ed5561"/>
      <path id="Trazado_112147" data-name="Trazado 112147" d="M523.649,239.947l-6.958,2.9-6.607,8.708-6.791-23.264-.083-.283-7.189,2.716-6.742,9.121L475.5,224.9l-7.315,9.661.435.331,6.92-9.142L489.1,240.46l.224.242,7.039-9.521,6.486-2.451,7.013,24.022,7.173-9.455,6.823-2.847Z" fill="#f9ae40"/>
      <g id="Grupo_42833" data-name="Grupo 42833">
        <path id="Trazado_112148" data-name="Trazado 112148" d="M468.637,233.027a3.079,3.079,0,0,1,1.4,2.417c0,.889-.632,1.247-1.4.8a3.076,3.076,0,0,1-1.4-2.417C467.234,232.94,467.863,232.581,468.637,233.027Z" fill="#ed5561"/>
      </g>
    </g>
    <g id="Grupo_42835" data-name="Grupo 42835">
      <path id="Trazado_112149" data-name="Trazado 112149" d="M396.408,248.63s-1.48.162-1.966.287a10.335,10.335,0,0,0-3.037.91c-.631.509.927.51,1.364.65s-.557.593-1.2,1.1a3.381,3.381,0,0,0-1.342,2.161c-.23.913,2.735,3.139,3.5,1.8a3.6,3.6,0,0,1,2.085-2.023,13.357,13.357,0,0,0,2.918-2.3Z" fill="#f4c5a2"/>
      <path id="Trazado_112150" data-name="Trazado 112150" d="M396.448,247.813l-1.19.764a36.194,36.194,0,0,0,2.523,3.768l1.316-.764Z" fill="#e6e7e8"/>
      <path id="Trazado_112151" data-name="Trazado 112151" d="M407.069,241.169,396.1,247.878l2.605,4.074,12.593-6.941,3.283-4.766.355-13.336Z" fill="#0f4463"/>
      <path id="Trazado_112152" data-name="Trazado 112152" d="M420.294,298.529l-4.91-.289a3.4,3.4,0,0,1-2.183,1.348c-1.7.449-5.071,2.439-4.365,4.108s3.54,1.638,5.092.932a18.061,18.061,0,0,1,3.58-1.079l.385.674,3.153-.815.114-4.507Z" fill="#9d4d36"/>
      <path id="Trazado_112153" data-name="Trazado 112153" d="M423.322,300.638a7.364,7.364,0,0,1-1.536,2.319c-.789.592-3.011,4.071-2.347,5.231a3.021,3.021,0,0,0,3.053,1.364,6.835,6.835,0,0,0,3.82-2.82l.644-1.251s.291.546.374.524a24.346,24.346,0,0,0,2.426-1.431s-.184-3.481-.329-5.028Z" fill="#9d4d36"/>
      <path id="Trazado_112154" data-name="Trazado 112154" d="M420.662,254.935h-6.549c-.136.205-.264,16.158-.2,18.75s.9,24.653.9,24.653a7.744,7.744,0,0,0,6.63.894l.717-27.719Z" fill="#072944"/>
      <path id="Trazado_112155" data-name="Trazado 112155" d="M428.939,253.13s.137,8.24.046,10.969.819,14.372.909,14.645.35,21.358.35,21.358-2.728,2.365-7.822,1.273c0,0-1.532-28.635-2.078-33.092s-1.183-13.64-1.183-13.64Z" fill="#07304b"/>
      <path id="Trazado_112156" data-name="Trazado 112156" d="M426.308,225.306l-8.209.261-3.162,1.342A27.65,27.65,0,0,0,413,234.482c-.682,4.98.66,20.148.66,20.148,3.093,1.547,13.462,1.137,13.462,1.137,1.91-4.912,3.775-27.288,3.775-27.288Z" fill="#0b3b56"/>
      <path id="Trazado_112157" data-name="Trazado 112157" d="M420.2,225.5l-2.864,2.449c-1.241,7.235-1.124,21.386-1.009,27.4,1.052.167,2.239.276,3.442.347.29-15.039,5.268-29.338,5.631-30.362Z" fill="#d4d6d8"/>
      <path id="Trazado_112158" data-name="Trazado 112158" d="M417.644,229.058l.528,2.252s-1.1,13.9-1.461,19.818l1.183,2.437,1.5-2.092.275-19.311,1.473-2.763A3.714,3.714,0,0,0,417.644,229.058Z" fill="#0b3b56"/>
      <path id="Trazado_112159" data-name="Trazado 112159" d="M419.325,228.854l-2.614,1.069,1.023-4.355,1.364-.932Z" fill="#e6e7e8"/>
      <path id="Trazado_112160" data-name="Trazado 112160" d="M425.012,223.43l-6.31.989.624,4.435,6.1-3.581Z" fill="#f4c5a2"/>
      <path id="Trazado_112161" data-name="Trazado 112161" d="M426.535,219.336c0,3.442-2.506,6.231-5.6,6.231s-4.954-2.789-4.954-6.231,1.863-6.231,4.954-6.231S426.535,215.9,426.535,219.336Z" fill="#fed4bd"/>
      <path id="Trazado_112162" data-name="Trazado 112162" d="M421.418,218.9s-.826,3.525,1,3.48,1.128.636,1.6,1.364,1.827.228,2.67-1.5,1.737-5.6.375-7.5a7.381,7.381,0,0,0-6.232-2.638c-2.3.205-5.222,2.011-5.482,3.639C414.869,218.723,421.418,218.9,421.418,218.9Z" fill="#07304b"/>
      <path id="Trazado_112163" data-name="Trazado 112163" d="M427.774,254.471l-7.968-.167-.147,4.578,8.59,1.181Z" fill="#0b3b56"/>
      <path id="Trazado_112164" data-name="Trazado 112164" d="M426.524,259.079s-1.092,1.01-1.409,1.4a10.336,10.336,0,0,0-1.9,2.538c-.2.784,1.048-.141,1.482-.288s1.033.249.825,1.04a33.264,33.264,0,0,1-1.648,3.068c-.384.86,3.192.922,4.253-.2a6.007,6.007,0,0,0,1.743-3.822c.12-1.456-.477-2.672-.342-3.3Z" fill="#f4c5a2"/>
      <path id="Trazado_112165" data-name="Trazado 112165" d="M425.634,258.165l-.433,1.659,5.015,1.533.5-1.819Z" fill="#e6e7e8"/>
      <path id="Trazado_112166" data-name="Trazado 112166" d="M430.9,228.479s-3.5.289-3.024,6.225.411,10,.411,10l-2.867,13.944,5.321,1.433s3.684-14.233,3.684-14.71-.909-12.573-.909-12.573S433.2,229.547,430.9,228.479Z" fill="#0f4463"/>
      <path id="Trazado_112167" data-name="Trazado 112167" d="M413.411,251.473l-.056,5.45a.9.9,0,0,0,.68.88l2.223.555.057-3.569Z" fill="#0b3b56"/>
      <path id="Trazado_112168" data-name="Trazado 112168" d="M425.558,224.351l-6.232,4.5,2.735,2.672,4.247-6.22Z" fill="#e6e7e8"/>
    </g>
    <g id="Grupo_42836" data-name="Grupo 42836">
      <path id="Trazado_112169" data-name="Trazado 112169" d="M392.569,261.327s1.022-1.028,1.412-1.322a10.046,10.046,0,0,1,2.538-1.761c.77-.172-.175,1.015-.334,1.433s.207,1.014.984.84a32.807,32.807,0,0,0,3.045-1.495c.851-.344.785,3.139-.349,4.132a5.854,5.854,0,0,1-3.783,1.562c-1.423.065-2.584-.56-3.2-.449Z" fill="#f4c5a2"/>
      <path id="Trazado_112170" data-name="Trazado 112170" d="M362.224,319.886s-.2.587,2.331.724,5.217.138,5.562,1.792-1.986,3.594-4.743,3.973a32.921,32.921,0,0,1-8.793-.379c-.387-.077-.719-.257-.772-.648a8.684,8.684,0,0,1,.331-3.826C356.879,319.291,362.224,319.886,362.224,319.886Z" fill="#933e31"/>
      <path id="Trazado_112171" data-name="Trazado 112171" d="M369.136,321.764s-.2.585,2.332.723,5.217.138,5.561,1.792-1.62,2.964-4.377,3.344c-2.376.326-7.13.551-9.019.629a.737.737,0,0,1-.772-.649,19.164,19.164,0,0,1-.136-3.806C362.9,321.453,369.136,321.764,369.136,321.764Z" fill="#9d4d36"/>
      <path id="Trazado_112172" data-name="Trazado 112172" d="M356.63,280.8s-.274,20.325-.457,22.8-.733,17.457-.733,17.457,4.246,2.139,7.542.674l1.889-38.639Z" fill="#072944"/>
      <path id="Trazado_112173" data-name="Trazado 112173" d="M362.581,282.077v20.356c-.183,5.951-.518,21.561-.518,21.561A10.962,10.962,0,0,0,370,321.9c-.275-2.655,0-17.67,0-17.67.994-7.791,1.588-20.309,1.692-22.61.011-.241.016-.37.016-.37Z" fill="#07304b"/>
      <path id="Trazado_112174" data-name="Trazado 112174" d="M353.7,252.093s-3.113,9.689-2.442,14.816a27.412,27.412,0,0,0,5.371,3.48Z" fill="#0f4463"/>
      <path id="Trazado_112175" data-name="Trazado 112175" d="M371.78,244.054c-.366,3.711-3.1,6.479-6.114,6.181s-5.154-3.545-4.789-7.256,3.1-6.48,6.115-6.183S372.146,240.343,371.78,244.054Z" fill="#fed4bd"/>
      <path id="Trazado_112176" data-name="Trazado 112176" d="M361.623,247.225a5.991,5.991,0,0,0,4.1-.705,7.082,7.082,0,0,0,2.206-2.688s1.654.689,2.172-.689,2.556-1.341,2.659-2.582c0,0-.573-6.127-7.122-5.058C365.636,235.5,356.311,237.387,361.623,247.225Z" fill="#f99840"/>
      <path id="Trazado_112177" data-name="Trazado 112177" d="M361.218,248.359a12.284,12.284,0,0,1,7.054,1.9,2.366,2.366,0,0,0,.85,1.066c.621.413,5.209,2.158,5.209,2.158s-2.869,19.349-1.312,28.138c0,0-6.684,5.219-17.121,0,0,0-1.526-23.972-2.2-29.526C353.7,252.093,355.44,249.941,361.218,248.359Z" fill="#0b3b56"/>
      <path id="Trazado_112178" data-name="Trazado 112178" d="M374.331,253.481l7.813,8.485,11.108-2.075s1.282,2.929.916,5.065l-13.55,3.3-8.8-7.827S368.9,254.336,374.331,253.481Z" fill="#0f4463"/>
    </g>
    <g id="Grupo_42837" data-name="Grupo 42837">
      <path id="Trazado_112179" data-name="Trazado 112179" d="M580.9,251.3s.156-1.441.278-1.915a10.043,10.043,0,0,1,.882-2.959c.495-.615.5.9.634,1.327s.795.664,1.293.042a32.539,32.539,0,0,0,1.445-3.07c.451-.8,2.574,1.963,2.307,3.446a5.85,5.85,0,0,1-1.978,3.582c-1.072.94-2.369,1.177-2.781,1.648Z" fill="#f4c5a2"/>
      <path id="Trazado_112180" data-name="Trazado 112180" d="M552.592,323.232s-.2.586,2.331.725,5.217.138,5.561,1.792-1.985,3.594-4.742,3.973a32.879,32.879,0,0,1-8.793-.38c-.388-.076-.72-.256-.772-.648a8.667,8.667,0,0,1,.33-3.826C547.247,322.638,552.592,323.232,552.592,323.232Z" fill="#933e31"/>
      <path id="Trazado_112181" data-name="Trazado 112181" d="M559.5,325.109s-.2.586,2.331.725,5.217.138,5.561,1.792-1.62,2.964-4.377,3.343c-2.375.327-7.129.552-9.018.629a.737.737,0,0,1-.773-.648,19.1,19.1,0,0,1-.135-3.806C553.265,324.8,559.5,325.109,559.5,325.109Z" fill="#9d4d36"/>
      <path id="Trazado_112182" data-name="Trazado 112182" d="M547,284.142s-.274,20.325-.458,22.8-.732,17.457-.732,17.457,4.247,2.138,7.543.673l1.887-38.638Z" fill="#072944"/>
      <path id="Trazado_112183" data-name="Trazado 112183" d="M552.949,285.424v20.355c-.183,5.951-.518,21.562-.518,21.562a10.958,10.958,0,0,0,7.934-2.091c-.274-2.655,0-17.67,0-17.67.994-7.791,1.589-20.309,1.693-22.61l.016-.37Z" fill="#07304b"/>
      <path id="Trazado_112184" data-name="Trazado 112184" d="M544.068,255.44s-3.113,9.689-2.441,14.816A27.345,27.345,0,0,0,547,273.735Z" fill="#0f4463"/>
      <path id="Trazado_112185" data-name="Trazado 112185" d="M560.994,246.483c-.01,3.729-2.47,6.745-5.495,6.738s-5.47-3.037-5.46-6.767,2.47-6.746,5.495-6.738S561,242.754,560.994,246.483Z" fill="#fed4bd"/>
      <path id="Trazado_112186" data-name="Trazado 112186" d="M551.585,251.705a12.284,12.284,0,0,1,7.055,1.9,2.36,2.36,0,0,0,.85,1.065c.62.414,5.209,2.159,5.209,2.159s-2.869,19.349-1.312,28.138c0,0-6.684,5.219-17.121,0,0,0-1.526-23.972-2.2-29.526C544.068,255.44,545.808,253.288,551.585,251.705Z" fill="#0b3b56"/>
      <path id="Trazado_112187" data-name="Trazado 112187" d="M564.7,256.828l7.8,1.792,8.327-8.489s2.923.9,3.514,3.4l-9.933,11.3-12.214-1.066S559.267,257.683,564.7,256.828Z" fill="#0f4463"/>
      <path id="Trazado_112188" data-name="Trazado 112188" d="M557.5,239.413s4.274.819,4.32,4.412l-3.991,1.317s.624,3.032-1.614,3.805c0,0-.649,2.747-4.707,2.491,0,0-6.107-7.955,1.352-11.722A9.877,9.877,0,0,1,557.5,239.413Z" fill="#0b3b56"/>
    </g>
  </g>
</svg>
