<svg xmlns="http://www.w3.org/2000/svg" width="366" height="61" viewBox="0 0 366 61">
  <g id="Grupo_42665" data-name="Grupo 42665" transform="translate(-232 -3496.594)">
    <g id="Rect치ngulo_32209" data-name="Rect치ngulo 32209" transform="translate(292 3496.594)" fill="#ffc74a" stroke="#ffc74a" stroke-width="4">
      <rect width="245" height="61" rx="15" stroke="none"/>
      <rect x="2" y="2" width="241" height="57" rx="13" fill="none"/>
    </g>
    <rect id="Rect치ngulo_32210" data-name="Rect치ngulo 32210" width="366" height="33" transform="translate(232 3510.594)" fill="#fff"/>
    <path id="Trazado_112818" data-name="Trazado 112818" d="M11.064.605h4.326V15h-2.8V5.264q0-.42.01-1.177t.01-1.167L9.883,15H6.963L4.258,2.92q0,.41.01,1.167t.01,1.177V15h-2.8V.605H5.85L8.467,11.924Zm9.756,2.48H18V.518H20.82ZM18,4.355H20.82V15H18ZM29.414,4.1a4.109,4.109,0,0,1,2.7.864,3.514,3.514,0,0,1,1.05,2.866V15H30.313V8.525a2.954,2.954,0,0,0-.225-1.289,1.58,1.58,0,0,0-1.562-.82,1.938,1.938,0,0,0-1.943,1.2,4.126,4.126,0,0,0-.273,1.621V15H23.535V4.375h2.686V5.928a4.725,4.725,0,0,1,1.016-1.182A3.53,3.53,0,0,1,29.414,4.1Zm9.18-1.016H35.771V.518h2.822Zm-2.822,1.27h2.822V15H35.771ZM40.2,6.436V4.453H41.68V1.484h2.754V4.453h1.729V6.436H44.434v5.625a1.267,1.267,0,0,0,.166.815,1.828,1.828,0,0,0,1.016.161q.127,0,.269,0t.278-.015V15.1l-1.318.049a3.538,3.538,0,0,1-2.7-.684,2.035,2.035,0,0,1-.469-1.475V6.436ZM53.818,9.824a3.025,3.025,0,0,1-.532.269,4.451,4.451,0,0,1-.737.19l-.625.117a4.036,4.036,0,0,0-1.26.381,1.277,1.277,0,0,0-.645,1.182,1.244,1.244,0,0,0,.4,1.03,1.488,1.488,0,0,0,.962.317,2.835,2.835,0,0,0,1.655-.527,2.249,2.249,0,0,0,.786-1.924Zm-1.689-1.3a4.344,4.344,0,0,0,1.1-.244.837.837,0,0,0,.6-.791.939.939,0,0,0-.454-.9,2.837,2.837,0,0,0-1.333-.249,1.737,1.737,0,0,0-1.4.488,2.03,2.03,0,0,0-.391.977H47.568a4.085,4.085,0,0,1,.781-2.295A4.545,4.545,0,0,1,52.139,4.1a6.732,6.732,0,0,1,3.105.693A2.662,2.662,0,0,1,56.6,7.412v4.883q0,.508.02,1.23a1.547,1.547,0,0,0,.166.742,1,1,0,0,0,.41.322V15H54.17a3.1,3.1,0,0,1-.176-.605q-.049-.283-.078-.645a5.718,5.718,0,0,1-1.328,1.064,4,4,0,0,1-2.031.518,3.492,3.492,0,0,1-2.388-.825,2.943,2.943,0,0,1-.942-2.339A3.036,3.036,0,0,1,48.74,9.326a6.721,6.721,0,0,1,2.441-.684Zm12.7-4.4A3.943,3.943,0,0,1,68.11,5.635,6.145,6.145,0,0,1,69.3,9.541a6.868,6.868,0,0,1-1.172,4.111,4.239,4.239,0,0,1-5.391,1.1A4.233,4.233,0,0,1,61.7,13.662V15H58.975V.625h2.773V5.742A4.061,4.061,0,0,1,62.91,4.609,3.452,3.452,0,0,1,64.824,4.121Zm-.713,8.867a1.91,1.91,0,0,0,1.67-.869,3.969,3.969,0,0,0,.6-2.285,5.151,5.151,0,0,0-.293-1.875,2.041,2.041,0,0,0-2.051-1.406,2.071,2.071,0,0,0-2.08,1.377,5.168,5.168,0,0,0-.293,1.895,3.969,3.969,0,0,0,.605,2.266A2.073,2.073,0,0,0,64.111,12.988Z" transform="translate(374 3514.594)" fill="#15579f"/>
  </g>
</svg>
