<svg xmlns="http://www.w3.org/2000/svg" xmlns:xlink="http://www.w3.org/1999/xlink" width="743" height="577" viewBox="0 0 743 577">
  <defs>
    <linearGradient id="linear-gradient" x1="0.559" y1="0.589" x2="1.071" y2="0.573" gradientUnits="objectBoundingBox">
      <stop offset="0" stop-color="#ffc74a"/>
      <stop offset="1" stop-color="#fff" stop-opacity="0"/>
    </linearGradient>
    <linearGradient id="linear-gradient-2" x1="0.5" y1="0.5" x2="1.071" y2="0.573" xlink:href="#linear-gradient"/>
    <linearGradient id="linear-gradient-5" x1="0.5" y1="0.5" x2="1.071" y2="0.573" gradientUnits="objectBoundingBox">
      <stop offset="0" stop-color="#8acc59"/>
      <stop offset="1" stop-color="#fff" stop-opacity="0"/>
    </linearGradient>
  </defs>
  <g id="Grupo_43261" data-name="Grupo 43261" transform="translate(-361 -12299)">
    <g id="Trazado_112820" data-name="Trazado 112820" transform="translate(584 12453)" fill="#15579f">
      <path d="M 119.5 231.5 C 111.4247055053711 231.5 103.3546447753906 230.7103271484375 95.51399993896484 229.1528778076172 C 87.87300109863281 227.6350860595703 80.35711669921875 225.3703765869141 73.17511749267578 222.4216156005859 C 66.12361907958984 219.5264434814453 59.32247161865234 215.9430236816406 52.96061706542969 211.7709045410156 C 46.65932464599609 207.6385345458984 40.73391342163086 202.892822265625 35.3489990234375 197.6656188964844 C 29.96432304382324 192.4386444091797 25.07576560974121 186.6872406005859 20.81911849975586 180.5710906982422 C 16.52191162109375 174.3966827392578 12.83111763000488 167.7961120605469 9.849265098571777 160.9527130126953 C 6.812470436096191 153.983154296875 4.480117797851562 146.6896820068359 2.917058706283569 139.2749176025391 C 1.31320583820343 131.6666717529297 0.5 123.8358535766602 0.5 116 C 0.5 108.1641464233398 1.31320583820343 100.3333206176758 2.917058706283569 92.72509002685547 C 4.480117797851562 85.31032562255859 6.812470436096191 78.01685333251953 9.849265098571777 71.04729461669922 C 12.83111763000488 64.20388031005859 16.52191162109375 57.60332489013672 20.81911849975586 51.42891311645508 C 25.07576560974121 45.31276321411133 29.96432304382324 39.56135177612305 35.3489990234375 34.33438110351562 C 40.73391342163086 29.10717582702637 46.65932464599609 24.36147117614746 52.96061706542969 20.22908782958984 C 59.32247161865234 16.05697059631348 66.12361907958984 12.47355842590332 73.17511749267578 9.57838249206543 C 80.35711669921875 6.629617691040039 87.87300109863281 4.364911556243896 95.51399993896484 2.84711766242981 C 103.3546447753906 1.289676427841187 111.4247055053711 0.5 119.5 0.5 C 127.5752944946289 0.5 135.6453552246094 1.289676427841187 143.4859924316406 2.84711766242981 C 151.1269989013672 4.364911556243896 158.6428833007812 6.629617691040039 165.8248748779297 9.57838249206543 C 172.8763885498047 12.47355842590332 179.6775360107422 16.05697059631348 186.0393829345703 20.22908782958984 C 192.3406829833984 24.36147117614746 198.2660827636719 29.10717582702637 203.6510009765625 34.33438110351562 C 209.0356750488281 39.56135177612305 213.9242401123047 45.31276321411133 218.1808776855469 51.42891311645508 C 222.4780883789062 57.60332489013672 226.1688842773438 64.20388031005859 229.1507415771484 71.04729461669922 C 232.1875305175781 78.01685333251953 234.5198822021484 85.31032562255859 236.0829467773438 92.72509002685547 C 237.6867980957031 100.3333206176758 238.5 108.1641464233398 238.5 116 C 238.5 123.8358535766602 237.6867980957031 131.6666717529297 236.0829467773438 139.2749176025391 C 234.5198822021484 146.6896820068359 232.1875305175781 153.983154296875 229.1507415771484 160.9527130126953 C 226.1688842773438 167.7961120605469 222.4780883789062 174.3966827392578 218.1808776855469 180.5710906982422 C 213.9242401123047 186.6872406005859 209.0356750488281 192.4386444091797 203.6510009765625 197.6656188964844 C 198.2660827636719 202.892822265625 192.3406829833984 207.6385345458984 186.0393829345703 211.7709045410156 C 179.6775360107422 215.9430236816406 172.8763885498047 219.5264434814453 165.8248748779297 222.4216156005859 C 158.6428833007812 225.3703765869141 151.1269989013672 227.6350860595703 143.4859924316406 229.1528778076172 C 135.6453552246094 230.7103271484375 127.5752944946289 231.5 119.5 231.5 Z" stroke="none"/>
      <path d="M 119.5 1 C 111.4573440551758 1 103.4200592041016 1.786468505859375 95.61140441894531 3.3375244140625 C 88.00199890136719 4.84906005859375 80.5172119140625 7.104400634765625 73.36500549316406 10.04090881347656 C 66.34291076660156 12.92402648925781 59.57012939453125 16.49249267578125 53.23481750488281 20.64718627929688 C 46.95997619628906 24.76222229003906 41.05949401855469 29.48797607421875 35.69725036621094 34.69316101074219 C 30.33552551269531 39.89781188964844 25.46788024902344 45.62464904785156 21.22950744628906 51.71453857421875 C 16.95103454589844 57.86199951171875 13.27641296386719 64.43368530273438 10.30766296386719 71.24702453613281 C 7.284347534179688 78.18556213378906 4.96240234375 85.446533203125 3.40631103515625 92.82821655273438 C 1.809600830078125 100.4026184082031 1 108.1987152099609 1 116 C 1 123.8012847900391 1.809600830078125 131.5973815917969 3.40631103515625 139.1717834472656 C 4.96240234375 146.553466796875 7.284347534179688 153.8144378662109 10.30766296386719 160.7529602050781 C 13.27641296386719 167.5663146972656 16.95103454589844 174.1380004882812 21.22950744628906 180.2854614257812 C 25.46788024902344 186.3753356933594 30.33552551269531 192.1021881103516 35.69725036621094 197.3068389892578 C 41.05949401855469 202.5120239257812 46.95997619628906 207.2377777099609 53.23481750488281 211.3528137207031 C 59.57012939453125 215.5075073242188 66.34291076660156 219.0759735107422 73.36500549316406 221.9590911865234 C 80.5172119140625 224.8955993652344 88.00199890136719 227.1509399414062 95.61140441894531 228.6624755859375 C 103.4200592041016 230.2135314941406 111.4573440551758 231 119.5 231 C 127.5426559448242 231 135.5799407958984 230.2135314941406 143.3885955810547 228.6624755859375 C 150.9980010986328 227.1509399414062 158.4827575683594 224.8955993652344 165.6349792480469 221.9590911865234 C 172.6571044921875 219.0759735107422 179.4298706054688 215.5075073242188 185.7651824951172 211.3528137207031 C 192.0400390625 207.2377777099609 197.9404907226562 202.5120239257812 203.3027191162109 197.3068389892578 C 208.6644439697266 192.1021881103516 213.5320892333984 186.3753356933594 217.7705078125 180.2854614257812 C 222.0489349365234 174.1380004882812 225.7235870361328 167.5663146972656 228.6923370361328 160.7529602050781 C 231.7156524658203 153.8144378662109 234.03759765625 146.553466796875 235.5936889648438 139.1717834472656 C 237.1903991699219 131.5973815917969 238 123.8012847900391 238 116 C 238 108.1987152099609 237.1903991699219 100.4026184082031 235.5936889648438 92.82821655273438 C 234.03759765625 85.446533203125 231.7156524658203 78.18556213378906 228.6923370361328 71.24702453613281 C 225.7235870361328 64.43368530273438 222.0489349365234 57.86199951171875 217.7705078125 51.71453857421875 C 213.5320892333984 45.62464904785156 208.6644439697266 39.89781188964844 203.3027191162109 34.69316101074219 C 197.9404907226562 29.48797607421875 192.0400390625 24.76222229003906 185.7651824951172 20.64718627929688 C 179.4298706054688 16.49249267578125 172.6571044921875 12.92402648925781 165.6349792480469 10.04090881347656 C 158.4827575683594 7.104400634765625 150.9980010986328 4.84906005859375 143.3885955810547 3.3375244140625 C 135.5799407958984 1.786468505859375 127.5426559448242 1 119.5 1 M 119.5 0 C 185.4980010986328 0 239 51.93496704101562 239 116 C 239 180.0650329589844 185.4980010986328 232 119.5 232 C 53.50196838378906 232 0 180.0650329589844 0 116 C 0 51.93496704101562 53.50196838378906 0 119.5 0 Z" stroke="none" fill="#707070"/>
    </g>
    <path id="Trazado_112821" data-name="Trazado 112821" d="M109.5,0C169.975,0,219,47.682,219,106.5S169.975,213,109.5,213,0,165.318,0,106.5,49.025,0,109.5,0Z" transform="translate(594 12462)" fill="#eef0f2"/>
    <path id="Trazado_112826" data-name="Trazado 112826" d="M15,0H209a15,15,0,0,1,15,15V59a15,15,0,0,1-15,15H15A15,15,0,0,1,0,59V15A15,15,0,0,1,15,0Z" transform="translate(880 12649)" fill="url(#linear-gradient)"/>
    <path id="Trazado_112827" data-name="Trazado 112827" d="M15,0H183a15,15,0,0,1,15,15V59a15,15,0,0,1-15,15H15A15,15,0,0,1,0,59V15A15,15,0,0,1,15,0Z" transform="translate(361 12649)" fill="url(#linear-gradient-2)"/>
    <path id="Trazado_112832" data-name="Trazado 112832" d="M15,0H183a15,15,0,0,1,15,15V60a15,15,0,0,1-15,15H15A15,15,0,0,1,0,60V15A15,15,0,0,1,15,0Z" transform="translate(735 12801)" fill="url(#linear-gradient-2)"/>
    <path id="Trazado_112833" data-name="Trazado 112833" d="M15,0H183a15,15,0,0,1,15,15V60a15,15,0,0,1-15,15H15A15,15,0,0,1,0,60V15A15,15,0,0,1,15,0Z" transform="translate(520 12801)" fill="url(#linear-gradient-2)"/>
    <path id="Trazado_112819" data-name="Trazado 112819" d="M15,0H183a15,15,0,0,1,15,15V67a15,15,0,0,1-15,15H15A15,15,0,0,1,0,67V15A15,15,0,0,1,15,0Z" transform="translate(361 12451)" fill="url(#linear-gradient-5)"/>
    <path id="Trazado_112822" data-name="Trazado 112822" d="M15,0H183a15,15,0,0,1,15,15V67a15,15,0,0,1-15,15H15A15,15,0,0,1,0,67V15A15,15,0,0,1,15,0Z" transform="translate(615 12299)" fill="url(#linear-gradient-5)"/>
    <path id="Trazado_112828" data-name="Trazado 112828" d="M15,0H183a15,15,0,0,1,15,15V67a15,15,0,0,1-15,15H15A15,15,0,0,1,0,67V15A15,15,0,0,1,15,0Z" transform="translate(872 12451)" fill="url(#linear-gradient-5)"/>
    <path id="Trazado_112823" data-name="Trazado 112823" d="M18.207,9.5q0-4.523,2.426-6.973A7.228,7.228,0,0,1,26,.4q4.359,0,6.375,2.859a6.19,6.19,0,0,1,1.2,3.223H29.961a4.875,4.875,0,0,0-.9-1.875A3.67,3.67,0,0,0,26.141,3.48a3.617,3.617,0,0,0-3.105,1.588A7.633,7.633,0,0,0,21.9,9.563a6.7,6.7,0,0,0,1.2,4.354,3.8,3.8,0,0,0,3.053,1.447,3.492,3.492,0,0,0,2.895-1.242,5.4,5.4,0,0,0,.914-2h3.574a7.753,7.753,0,0,1-2.4,4.594A7.02,7.02,0,0,1,26.2,18.48,7.451,7.451,0,0,1,20.34,16.09,9.569,9.569,0,0,1,18.207,9.5ZM39.453,3.7H36.066V.621h3.387ZM36.066,5.227h3.387V18H36.066Zm14.25,4.582a2.964,2.964,0,0,0-.48-1.289,2.014,2.014,0,0,0-1.746-.773,2.3,2.3,0,0,0-2.309,1.676,7.006,7.006,0,0,0-.328,2.367,6.442,6.442,0,0,0,.328,2.262,2.229,2.229,0,0,0,2.25,1.594,1.984,1.984,0,0,0,1.664-.633,3.15,3.15,0,0,0,.6-1.641H53.7a5.587,5.587,0,0,1-1.1,2.883,5.355,5.355,0,0,1-4.652,2.191,5.442,5.442,0,0,1-4.535-1.828,7.4,7.4,0,0,1-1.453-4.746A7.506,7.506,0,0,1,43.566,6.75,5.588,5.588,0,0,1,48,4.922,6.67,6.67,0,0,1,51.928,6a5.014,5.014,0,0,1,1.811,3.809ZM59.445,18h-3.34V.727h3.34Zm8.988-2.355a2.647,2.647,0,0,0,2.25-1.043,4.852,4.852,0,0,0,.785-2.965,4.825,4.825,0,0,0-.785-2.959,2.966,2.966,0,0,0-4.506,0,4.8,4.8,0,0,0-.791,2.959,4.826,4.826,0,0,0,.791,2.965A2.663,2.663,0,0,0,68.434,15.645Zm6.539-4.008a7.4,7.4,0,0,1-1.617,4.811,5.942,5.942,0,0,1-4.91,2,5.942,5.942,0,0,1-4.91-2,7.4,7.4,0,0,1-1.617-4.811,7.454,7.454,0,0,1,1.617-4.793,5.9,5.9,0,0,1,4.91-2.027,5.9,5.9,0,0,1,4.91,2.027A7.454,7.454,0,0,1,74.973,11.637ZM87.8,3.727V15h3.328A3.594,3.594,0,0,0,94.7,12.48a8.886,8.886,0,0,0,.551-3.293,8.107,8.107,0,0,0-.826-4.049q-.826-1.412-3.287-1.412Zm3.938-3a9.079,9.079,0,0,1,2.672.375,5.7,5.7,0,0,1,2.941,2.191,7.687,7.687,0,0,1,1.23,2.789,13.389,13.389,0,0,1,.328,2.859,11.481,11.481,0,0,1-1.383,5.836A6.239,6.239,0,0,1,91.742,18H84.3V.727ZM106.4,7.641a2.268,2.268,0,0,0-1.8.727,3.627,3.627,0,0,0-.8,1.969h5.191a2.907,2.907,0,0,0-.8-2.01A2.493,2.493,0,0,0,106.4,7.641Zm0-2.754a6.694,6.694,0,0,1,2.871.6,5.03,5.03,0,0,1,2.109,1.887,6.437,6.437,0,0,1,.973,2.637,17.028,17.028,0,0,1,.105,2.531h-8.742a3.174,3.174,0,0,0,1.207,2.7,2.843,2.843,0,0,0,1.664.48,2.4,2.4,0,0,0,1.676-.586,2.783,2.783,0,0,0,.621-.879h3.41a4.237,4.237,0,0,1-1.184,2.309,5.8,5.8,0,0,1-4.594,1.863,6.478,6.478,0,0,1-4.3-1.57q-1.863-1.57-1.863-5.109a7.1,7.1,0,0,1,1.682-5.086A5.75,5.75,0,0,1,106.4,4.887Zm17.859,7.781a3.547,3.547,0,0,0,.645,1.77,3.709,3.709,0,0,0,3.012,1.066,6.356,6.356,0,0,0,2.074-.281,2,2,0,0,0,1.512-2,1.479,1.479,0,0,0-.75-1.324,8.065,8.065,0,0,0-2.355-.809l-1.828-.41a11.552,11.552,0,0,1-3.727-1.324A4.212,4.212,0,0,1,121.1,5.613a4.992,4.992,0,0,1,1.688-3.855A7.135,7.135,0,0,1,127.742.223,7.537,7.537,0,0,1,132.4,1.67a5.167,5.167,0,0,1,2.021,4.2h-3.469a2.478,2.478,0,0,0-1.359-2.215,4.559,4.559,0,0,0-2.1-.434,3.916,3.916,0,0,0-2.227.563,1.791,1.791,0,0,0-.832,1.57,1.486,1.486,0,0,0,.82,1.383,10.041,10.041,0,0,0,2.25.715l2.977.715a7.7,7.7,0,0,1,2.953,1.254,4.223,4.223,0,0,1,1.547,3.527,4.978,4.978,0,0,1-1.811,3.932,7.586,7.586,0,0,1-5.115,1.564A8.3,8.3,0,0,1,122.75,16.9a5.121,5.121,0,0,1-1.934-4.236ZM140.82,3.7h-3.387V.621h3.387Zm-3.387,1.523h3.387V18h-3.387Zm9.223,8.7a2.23,2.23,0,0,0,.457,1.266,3.09,3.09,0,0,0,2.3.668,3.5,3.5,0,0,0,1.564-.293.983.983,0,0,0,.111-1.734,19.069,19.069,0,0,0-3.48-1.008,7.249,7.249,0,0,1-3.059-1.348,2.922,2.922,0,0,1-.891-2.3,3.984,3.984,0,0,1,1.389-3.041,5.577,5.577,0,0,1,3.908-1.271,7.17,7.17,0,0,1,3.9.955,4.091,4.091,0,0,1,1.729,3.3h-3.34a1.976,1.976,0,0,0-.363-1.02A2.286,2.286,0,0,0,149,7.418a2.694,2.694,0,0,0-1.553.34.978.978,0,0,0-.463.8.872.872,0,0,0,.492.832,21.307,21.307,0,0,0,3.48.926,6.393,6.393,0,0,1,2.988,1.418,3.219,3.219,0,0,1,.984,2.4,3.882,3.882,0,0,1-1.412,3.1,8.472,8.472,0,0,1-8.812-.07,4.137,4.137,0,0,1-1.436-3.24Zm9.434-6.2V5.344h1.781V1.781h3.3V5.344h2.074V7.723h-2.074v6.75a1.52,1.52,0,0,0,.2.979,2.194,2.194,0,0,0,1.219.193q.152,0,.322-.006t.334-.018v2.5l-1.582.059q-2.367.082-3.234-.82a2.442,2.442,0,0,1-.562-1.77V7.723Zm14.344-.082a2.268,2.268,0,0,0-1.8.727,3.627,3.627,0,0,0-.8,1.969h5.191a2.907,2.907,0,0,0-.8-2.01A2.493,2.493,0,0,0,170.434,7.641Zm0-2.754a6.694,6.694,0,0,1,2.871.6,5.03,5.03,0,0,1,2.109,1.887,6.437,6.437,0,0,1,.973,2.637,17.028,17.028,0,0,1,.105,2.531H167.75a3.174,3.174,0,0,0,1.207,2.7,2.843,2.843,0,0,0,1.664.48,2.4,2.4,0,0,0,1.676-.586,2.783,2.783,0,0,0,.621-.879h3.41a4.237,4.237,0,0,1-1.184,2.309,5.8,5.8,0,0,1-4.594,1.863,6.478,6.478,0,0,1-4.3-1.57q-1.863-1.57-1.863-5.109a7.1,7.1,0,0,1,1.682-5.086A5.75,5.75,0,0,1,170.434,4.887Zm22.582.059a4.446,4.446,0,0,1,1.664.328,3.713,3.713,0,0,1,1.488,1.148,3.669,3.669,0,0,1,.727,1.641,11.34,11.34,0,0,1,.117,1.887L196.988,18h-3.422V9.867a2.669,2.669,0,0,0-.234-1.2,1.665,1.665,0,0,0-1.641-.891,1.92,1.92,0,0,0-1.91,1.148,3.606,3.606,0,0,0-.27,1.465V18h-3.363V10.395a4.271,4.271,0,0,0-.234-1.652,1.636,1.636,0,0,0-1.652-.926,1.972,1.972,0,0,0-1.922.926,3.567,3.567,0,0,0-.27,1.57V18h-3.387V5.25h3.246V7.113A5.375,5.375,0,0,1,183.1,5.7a4.637,4.637,0,0,1,4.887-.105,3.749,3.749,0,0,1,1.1,1.535,4.247,4.247,0,0,1,1.629-1.652A4.971,4.971,0,0,1,193.016,4.945Zm14.109,6.844a3.629,3.629,0,0,1-.639.322,5.341,5.341,0,0,1-.885.229l-.75.141a4.843,4.843,0,0,0-1.512.457,1.532,1.532,0,0,0-.773,1.418,1.493,1.493,0,0,0,.475,1.236,1.786,1.786,0,0,0,1.154.381,3.4,3.4,0,0,0,1.986-.633,2.7,2.7,0,0,0,.943-2.309ZM205.1,10.23a5.213,5.213,0,0,0,1.324-.293,1,1,0,0,0,.715-.949,1.126,1.126,0,0,0-.545-1.084,3.4,3.4,0,0,0-1.6-.3,2.084,2.084,0,0,0-1.676.586,2.435,2.435,0,0,0-.469,1.172h-3.223a4.9,4.9,0,0,1,.938-2.754q1.324-1.687,4.547-1.687a8.078,8.078,0,0,1,3.727.832,3.194,3.194,0,0,1,1.629,3.141v5.859q0,.609.023,1.477a1.857,1.857,0,0,0,.2.891,1.2,1.2,0,0,0,.492.387V18h-3.633a3.72,3.72,0,0,1-.211-.727q-.059-.34-.094-.773a6.862,6.862,0,0,1-1.594,1.277,4.794,4.794,0,0,1-2.437.621,4.191,4.191,0,0,1-2.865-.99,3.532,3.532,0,0,1-1.131-2.807,3.643,3.643,0,0,1,1.816-3.41,8.065,8.065,0,0,1,2.93-.82ZM32.486,32.727V44h3.328a3.594,3.594,0,0,0,3.563-2.52,8.886,8.886,0,0,0,.551-3.293,8.107,8.107,0,0,0-.826-4.049q-.826-1.412-3.287-1.412Zm3.938-3A9.079,9.079,0,0,1,39.1,30.1a5.7,5.7,0,0,1,2.941,2.191,7.687,7.687,0,0,1,1.23,2.789,13.389,13.389,0,0,1,.328,2.859,11.481,11.481,0,0,1-1.383,5.836A6.239,6.239,0,0,1,36.424,47H28.982V29.727Zm14.66,6.914a2.268,2.268,0,0,0-1.8.727,3.627,3.627,0,0,0-.8,1.969h5.191a2.907,2.907,0,0,0-.8-2.01A2.493,2.493,0,0,0,51.084,36.641Zm0-2.754a6.694,6.694,0,0,1,2.871.6,5.03,5.03,0,0,1,2.109,1.887,6.437,6.437,0,0,1,.973,2.637,17.028,17.028,0,0,1,.105,2.531H48.4a3.174,3.174,0,0,0,1.207,2.7,2.843,2.843,0,0,0,1.664.48,2.4,2.4,0,0,0,1.676-.586,2.783,2.783,0,0,0,.621-.879h3.41a4.237,4.237,0,0,1-1.184,2.309A5.8,5.8,0,0,1,51.2,47.422a6.478,6.478,0,0,1-4.3-1.57q-1.863-1.57-1.863-5.109a7.1,7.1,0,0,1,1.682-5.086A5.75,5.75,0,0,1,51.084,33.887ZM69.635,47H66.049V29.727h3.586ZM79.807,33.922a4.931,4.931,0,0,1,3.24,1.037,4.217,4.217,0,0,1,1.26,3.439V47H80.885V39.23a3.545,3.545,0,0,0-.27-1.547A1.9,1.9,0,0,0,78.74,36.7a2.325,2.325,0,0,0-2.332,1.441,4.951,4.951,0,0,0-.328,1.945V47H72.752V34.25h3.223v1.863A5.67,5.67,0,0,1,77.193,34.7,4.235,4.235,0,0,1,79.807,33.922ZM92.1,29.551q.316,0,.574.018t.7.053V32.34q-.281-.035-.943-.053a1.086,1.086,0,0,0-.914.293,1.063,1.063,0,0,0-.252.686v1.078h2.191V36.7H91.268V47H87.939V36.7H86.076V34.344H87.9v-.82A4.316,4.316,0,0,1,88.6,30.7Q89.322,29.551,92.1,29.551Zm9.012,15.094a2.647,2.647,0,0,0,2.25-1.043,4.852,4.852,0,0,0,.785-2.965,4.825,4.825,0,0,0-.785-2.959,2.966,2.966,0,0,0-4.506,0,4.8,4.8,0,0,0-.791,2.959,4.826,4.826,0,0,0,.791,2.965A2.663,2.663,0,0,0,101.111,44.645Zm6.539-4.008a7.4,7.4,0,0,1-1.617,4.811,7.032,7.032,0,0,1-9.82,0,7.937,7.937,0,0,1,0-9.6,6.96,6.96,0,0,1,9.82,0A7.454,7.454,0,0,1,107.65,40.637Zm9.328-6.715q.094,0,.158.006t.287.018v3.422q-.316-.035-.562-.047t-.4-.012a2.77,2.77,0,0,0-2.707,1.313,5.106,5.106,0,0,0-.387,2.273V47h-3.363V34.227h3.188v2.227a7.061,7.061,0,0,1,1.348-1.746A3.669,3.669,0,0,1,116.979,33.922Zm16.676.023a4.446,4.446,0,0,1,1.664.328,3.713,3.713,0,0,1,1.488,1.148,3.669,3.669,0,0,1,.727,1.641,11.34,11.34,0,0,1,.117,1.887L137.627,47h-3.422V38.867a2.669,2.669,0,0,0-.234-1.2,1.665,1.665,0,0,0-1.641-.891,1.92,1.92,0,0,0-1.91,1.148,3.606,3.606,0,0,0-.27,1.465V47h-3.363V39.395a4.271,4.271,0,0,0-.234-1.652,1.636,1.636,0,0,0-1.652-.926,1.972,1.972,0,0,0-1.922.926,3.567,3.567,0,0,0-.27,1.57V47h-3.387V34.25h3.246v1.863A5.375,5.375,0,0,1,123.74,34.7a4.637,4.637,0,0,1,4.887-.105,3.749,3.749,0,0,1,1.1,1.535,4.247,4.247,0,0,1,1.629-1.652A4.971,4.971,0,0,1,133.654,33.945Zm14.109,6.844a3.629,3.629,0,0,1-.639.322,5.341,5.341,0,0,1-.885.229l-.75.141a4.843,4.843,0,0,0-1.512.457,1.532,1.532,0,0,0-.773,1.418,1.493,1.493,0,0,0,.475,1.236,1.786,1.786,0,0,0,1.154.381,3.4,3.4,0,0,0,1.986-.633,2.7,2.7,0,0,0,.943-2.309Zm-2.027-1.559a5.213,5.213,0,0,0,1.324-.293,1,1,0,0,0,.715-.949,1.126,1.126,0,0,0-.545-1.084,3.4,3.4,0,0,0-1.6-.3,2.084,2.084,0,0,0-1.676.586,2.435,2.435,0,0,0-.469,1.172h-3.223a4.9,4.9,0,0,1,.938-2.754q1.324-1.687,4.547-1.687a8.078,8.078,0,0,1,3.727.832,3.194,3.194,0,0,1,1.629,3.141v5.859q0,.609.023,1.477a1.857,1.857,0,0,0,.2.891,1.2,1.2,0,0,0,.492.387V47h-3.633a3.72,3.72,0,0,1-.211-.727q-.059-.34-.094-.773a6.862,6.862,0,0,1-1.594,1.277,4.794,4.794,0,0,1-2.437.621,4.191,4.191,0,0,1-2.865-.99,3.532,3.532,0,0,1-1.131-2.807,3.643,3.643,0,0,1,1.816-3.41,8.065,8.065,0,0,1,2.93-.82Zm15.961-.422a2.964,2.964,0,0,0-.48-1.289,2.014,2.014,0,0,0-1.746-.773,2.3,2.3,0,0,0-2.309,1.676,7.006,7.006,0,0,0-.328,2.367,6.442,6.442,0,0,0,.328,2.262,2.229,2.229,0,0,0,2.25,1.594,1.984,1.984,0,0,0,1.664-.633,3.15,3.15,0,0,0,.6-1.641h3.41a5.587,5.587,0,0,1-1.1,2.883,5.355,5.355,0,0,1-4.652,2.191,5.442,5.442,0,0,1-4.535-1.828,7.4,7.4,0,0,1-1.453-4.746,7.506,7.506,0,0,1,1.605-5.121,5.588,5.588,0,0,1,4.43-1.828A6.67,6.67,0,0,1,163.309,35a5.014,5.014,0,0,1,1.811,3.809ZM170.85,32.7h-3.387V29.621h3.387Zm-3.387,1.523h3.387V47h-3.387Zm12.352,10.418a2.647,2.647,0,0,0,2.25-1.043,4.852,4.852,0,0,0,.785-2.965,4.825,4.825,0,0,0-.785-2.959,2.966,2.966,0,0,0-4.506,0,4.8,4.8,0,0,0-.791,2.959,4.826,4.826,0,0,0,.791,2.965A2.663,2.663,0,0,0,179.814,44.645Zm6.539-4.008a7.4,7.4,0,0,1-1.617,4.811,7.032,7.032,0,0,1-9.82,0,7.937,7.937,0,0,1,0-9.6,6.96,6.96,0,0,1,9.82,0A7.454,7.454,0,0,1,186.354,40.637Zm9.469-6.715a4.931,4.931,0,0,1,3.24,1.037,4.217,4.217,0,0,1,1.26,3.439V47H196.9V39.23a3.545,3.545,0,0,0-.27-1.547,1.9,1.9,0,0,0-1.875-.984,2.325,2.325,0,0,0-2.332,1.441,4.951,4.951,0,0,0-.328,1.945V47h-3.328V34.25h3.223v1.863a5.67,5.67,0,0,1,1.219-1.418A4.235,4.235,0,0,1,195.822,33.922Z" transform="translate(589 12544)" fill="#15579f"/>
    <path id="Trazado_112824" data-name="Trazado 112824" d="M25.583,12.066a3.092,3.092,0,0,0,2.553-1.187A5.3,5.3,0,0,0,29.082,7.5a5.305,5.305,0,0,0-.945-3.371,3.088,3.088,0,0,0-2.553-1.191A3.129,3.129,0,0,0,23.017,4.13,5.25,5.25,0,0,0,22.059,7.5a5.25,5.25,0,0,0,.958,3.375A3.129,3.129,0,0,0,25.583,12.066ZM31.789,7.5a7.006,7.006,0,0,1-1.96,5.344,5.649,5.649,0,0,1-4.245,1.512,5.649,5.649,0,0,1-4.245-1.512A6.989,6.989,0,0,1,19.37,7.5a6.852,6.852,0,0,1,1.969-5.344A5.649,5.649,0,0,1,25.583.649a5.649,5.649,0,0,1,4.245,1.512A6.869,6.869,0,0,1,31.789,7.5ZM40.252,9.21a3.77,3.77,0,0,0-.505-1.96A1.759,1.759,0,0,0,38.108,6.4a1.865,1.865,0,0,0-1.872,1.292,4.9,4.9,0,0,0-.264,1.74,2.776,2.776,0,0,0,.888,2.347,2.021,2.021,0,0,0,1.248.4,1.809,1.809,0,0,0,1.6-.809A3.771,3.771,0,0,0,40.252,9.21Zm-1.424-5a3.753,3.753,0,0,1,2.843,1.239,5.127,5.127,0,0,1,1.165,3.639A5.771,5.771,0,0,1,41.7,12.945a3.685,3.685,0,0,1-2.931,1.327,3.059,3.059,0,0,1-1.9-.571,3.683,3.683,0,0,1-.809-.923v4.992H33.582V4.42h2.4V5.835a4.021,4.021,0,0,1,.861-.984A3.165,3.165,0,0,1,38.829,4.209Zm9.6,2.021a1.7,1.7,0,0,0-1.349.545,2.72,2.72,0,0,0-.6,1.477h3.894a2.181,2.181,0,0,0-.6-1.507A1.87,1.87,0,0,0,48.426,6.23Zm0-2.065a5.021,5.021,0,0,1,2.153.448,3.772,3.772,0,0,1,1.582,1.415,4.828,4.828,0,0,1,.729,1.978,12.771,12.771,0,0,1,.079,1.9H46.414a2.381,2.381,0,0,0,.905,2.021,2.132,2.132,0,0,0,1.248.36,1.8,1.8,0,0,0,1.257-.439,2.087,2.087,0,0,0,.466-.659h2.558a3.178,3.178,0,0,1-.888,1.731,4.349,4.349,0,0,1-3.445,1.4,4.858,4.858,0,0,1-3.226-1.178,4.75,4.75,0,0,1-1.4-3.832,5.326,5.326,0,0,1,1.261-3.814A4.312,4.312,0,0,1,48.426,4.165Zm11.435.026q.07,0,.119,0l.215.013V6.775q-.237-.026-.422-.035t-.3-.009a2.078,2.078,0,0,0-2.03.984,3.829,3.829,0,0,0-.29,1.705V14H54.631V4.42h2.391V6.09a5.3,5.3,0,0,1,1.011-1.31A2.752,2.752,0,0,1,59.861,4.191Zm7.084,5.15a2.722,2.722,0,0,1-.479.242,4.006,4.006,0,0,1-.664.171l-.562.105a3.632,3.632,0,0,0-1.134.343,1.149,1.149,0,0,0-.58,1.063,1.12,1.12,0,0,0,.356.927,1.34,1.34,0,0,0,.866.286A2.551,2.551,0,0,0,66.237,12a2.024,2.024,0,0,0,.708-1.731ZM65.424,8.173a3.91,3.91,0,0,0,.993-.22.753.753,0,0,0,.536-.712.845.845,0,0,0-.409-.813,2.553,2.553,0,0,0-1.2-.224,1.563,1.563,0,0,0-1.257.439,1.827,1.827,0,0,0-.352.879H61.32a3.676,3.676,0,0,1,.7-2.065,4.09,4.09,0,0,1,3.41-1.266,6.059,6.059,0,0,1,2.795.624A2.4,2.4,0,0,1,69.45,7.171v4.395q0,.457.018,1.107a1.392,1.392,0,0,0,.149.668.9.9,0,0,0,.369.29V14H67.261a2.79,2.79,0,0,1-.158-.545q-.044-.255-.07-.58a5.146,5.146,0,0,1-1.2.958,3.6,3.6,0,0,1-1.828.466,3.143,3.143,0,0,1-2.149-.743,2.649,2.649,0,0,1-.848-2.1,2.732,2.732,0,0,1,1.362-2.558,6.049,6.049,0,0,1,2.2-.615ZM77.4,7.856a2.223,2.223,0,0,0-.36-.967,1.511,1.511,0,0,0-1.31-.58,1.725,1.725,0,0,0-1.731,1.257,5.255,5.255,0,0,0-.246,1.775,4.832,4.832,0,0,0,.246,1.7,1.671,1.671,0,0,0,1.688,1.2,1.488,1.488,0,0,0,1.248-.475,2.362,2.362,0,0,0,.448-1.23h2.558a4.191,4.191,0,0,1-.826,2.162,4.016,4.016,0,0,1-3.489,1.644,4.082,4.082,0,0,1-3.4-1.371,5.548,5.548,0,0,1-1.09-3.56,5.63,5.63,0,0,1,1.2-3.841,4.191,4.191,0,0,1,3.322-1.371A5,5,0,0,1,78.6,5a3.761,3.761,0,0,1,1.358,2.856Zm6.864-4.579h-2.54V.966h2.54ZM81.719,4.42h2.54V14h-2.54Zm9.264,7.813a1.985,1.985,0,0,0,1.688-.782,3.639,3.639,0,0,0,.589-2.224,3.619,3.619,0,0,0-.589-2.219,2.224,2.224,0,0,0-3.379,0A3.6,3.6,0,0,0,88.7,9.228a3.619,3.619,0,0,0,.593,2.224A2,2,0,0,0,90.983,12.233Zm4.9-3.006a5.553,5.553,0,0,1-1.213,3.608,5.274,5.274,0,0,1-7.365,0A5.553,5.553,0,0,1,86.1,9.228a5.59,5.59,0,0,1,1.213-3.595,5.22,5.22,0,0,1,7.365,0A5.59,5.59,0,0,1,95.887,9.228ZM93.989.5,91.317,3.128H89.506L91.194.5Zm9,3.691a3.7,3.7,0,0,1,2.43.778,3.163,3.163,0,0,1,.945,2.58V14H103.8V8.173a2.659,2.659,0,0,0-.2-1.16,1.422,1.422,0,0,0-1.406-.738,1.744,1.744,0,0,0-1.749,1.081,3.713,3.713,0,0,0-.246,1.459V14H97.7V4.438h2.417v1.4a4.252,4.252,0,0,1,.914-1.063A3.177,3.177,0,0,1,102.989,4.191Zm11.074,11.646.316.018a3.948,3.948,0,0,0,.7-.026,1.262,1.262,0,0,0,.563-.2,1.352,1.352,0,0,0,.409-.624,1.319,1.319,0,0,0,.154-.58l-3.516-10h2.786l2.092,7.066,1.978-7.066h2.663l-3.287,9.422a13.23,13.23,0,0,1-1.5,3.379,2.856,2.856,0,0,1-2.215.655q-.334,0-.536,0t-.606-.031Zm-95.7,12.372a3.335,3.335,0,0,1,1.248.246,2.784,2.784,0,0,1,1.116.861,2.752,2.752,0,0,1,.545,1.23,8.5,8.5,0,0,1,.088,1.415L21.347,38H18.781V31.9A2,2,0,0,0,18.6,31a1.249,1.249,0,0,0-1.23-.668,1.44,1.44,0,0,0-1.433.861,2.7,2.7,0,0,0-.2,1.1V38H13.217V32.3a3.2,3.2,0,0,0-.176-1.239,1.227,1.227,0,0,0-1.239-.694,1.479,1.479,0,0,0-1.441.694,2.675,2.675,0,0,0-.2,1.178V38H7.619V28.438h2.435v1.4a4.031,4.031,0,0,1,.879-1.063,3.007,3.007,0,0,1,1.89-.562,2.989,2.989,0,0,1,1.775.483,2.812,2.812,0,0,1,.826,1.151A3.185,3.185,0,0,1,16.645,28.6,3.728,3.728,0,0,1,18.368,28.209ZM28.95,33.342a2.722,2.722,0,0,1-.479.242,4.006,4.006,0,0,1-.664.171l-.562.105a3.632,3.632,0,0,0-1.134.343,1.149,1.149,0,0,0-.58,1.063,1.12,1.12,0,0,0,.356.927,1.34,1.34,0,0,0,.866.286A2.551,2.551,0,0,0,28.242,36a2.024,2.024,0,0,0,.708-1.731Zm-1.521-1.169a3.91,3.91,0,0,0,.993-.22.753.753,0,0,0,.536-.712.845.845,0,0,0-.409-.813,2.553,2.553,0,0,0-1.2-.224,1.563,1.563,0,0,0-1.257.439,1.827,1.827,0,0,0-.352.879H23.325a3.676,3.676,0,0,1,.7-2.065,4.09,4.09,0,0,1,3.41-1.266,6.059,6.059,0,0,1,2.795.624,2.4,2.4,0,0,1,1.222,2.355v4.395q0,.457.018,1.107a1.392,1.392,0,0,0,.149.668.9.9,0,0,0,.369.29V38H29.266a2.79,2.79,0,0,1-.158-.545q-.044-.255-.07-.58a5.146,5.146,0,0,1-1.2.958,3.6,3.6,0,0,1-1.828.466,3.143,3.143,0,0,1-2.149-.743,2.649,2.649,0,0,1-.848-2.1,2.732,2.732,0,0,1,1.362-2.558,6.049,6.049,0,0,1,2.2-.615Zm11.558-3.981a3.7,3.7,0,0,1,2.43.778,3.163,3.163,0,0,1,.945,2.58V38H39.8V32.173a2.659,2.659,0,0,0-.2-1.16,1.422,1.422,0,0,0-1.406-.738,1.744,1.744,0,0,0-1.749,1.081,3.713,3.713,0,0,0-.246,1.459V38H33.7V28.438h2.417v1.4a4.252,4.252,0,0,1,.914-1.063A3.177,3.177,0,0,1,38.987,28.191Zm4.7,2.1V28.508h1.336V25.836H47.5v2.672h1.556v1.784H47.5v5.063a1.14,1.14,0,0,0,.149.734,1.645,1.645,0,0,0,.914.145q.114,0,.242,0t.25-.013v1.872l-1.187.044a3.184,3.184,0,0,1-2.426-.615,1.832,1.832,0,0,1-.422-1.327v-5.9Zm10.758-.062a1.7,1.7,0,0,0-1.349.545,2.72,2.72,0,0,0-.6,1.477h3.894a2.181,2.181,0,0,0-.6-1.507A1.87,1.87,0,0,0,54.447,30.23Zm0-2.065a5.021,5.021,0,0,1,2.153.448,3.772,3.772,0,0,1,1.582,1.415,4.828,4.828,0,0,1,.729,1.978,12.771,12.771,0,0,1,.079,1.9H52.434a2.381,2.381,0,0,0,.905,2.021,2.132,2.132,0,0,0,1.248.36,1.8,1.8,0,0,0,1.257-.439,2.087,2.087,0,0,0,.466-.659h2.558a3.178,3.178,0,0,1-.888,1.731,4.349,4.349,0,0,1-3.445,1.4,4.858,4.858,0,0,1-3.226-1.178,4.75,4.75,0,0,1-1.4-3.832,5.326,5.326,0,0,1,1.261-3.814A4.312,4.312,0,0,1,54.447,28.165Zm11.54.026a3.7,3.7,0,0,1,2.43.778,3.163,3.163,0,0,1,.945,2.58V38H66.8V32.173a2.659,2.659,0,0,0-.2-1.16,1.422,1.422,0,0,0-1.406-.738,1.744,1.744,0,0,0-1.749,1.081,3.713,3.713,0,0,0-.246,1.459V38H60.7V28.438h2.417v1.4a4.252,4.252,0,0,1,.914-1.063A3.177,3.177,0,0,1,65.987,28.191Zm8.262-.914h-2.54V24.966h2.54Zm-2.54,1.143h2.54V38h-2.54Zm15.671-.211a3.335,3.335,0,0,1,1.248.246,2.784,2.784,0,0,1,1.116.861,2.752,2.752,0,0,1,.545,1.23,8.5,8.5,0,0,1,.088,1.415L90.359,38H87.792V31.9a2,2,0,0,0-.176-.9,1.249,1.249,0,0,0-1.23-.668,1.44,1.44,0,0,0-1.433.861,2.7,2.7,0,0,0-.2,1.1V38H82.229V32.3a3.2,3.2,0,0,0-.176-1.239,1.227,1.227,0,0,0-1.239-.694,1.479,1.479,0,0,0-1.441.694,2.675,2.675,0,0,0-.2,1.178V38H76.63V28.438h2.435v1.4a4.031,4.031,0,0,1,.879-1.063,3.478,3.478,0,0,1,3.665-.079,2.812,2.812,0,0,1,.826,1.151A3.185,3.185,0,0,1,85.657,28.6,3.728,3.728,0,0,1,87.379,28.209Zm7.875-.932h-2.54V24.966h2.54Zm-2.54,1.143h2.54V38h-2.54Zm8.745,1.811a1.7,1.7,0,0,0-1.349.545,2.72,2.72,0,0,0-.6,1.477H103.4a2.181,2.181,0,0,0-.6-1.507A1.87,1.87,0,0,0,101.459,30.23Zm0-2.065a5.021,5.021,0,0,1,2.153.448,3.772,3.772,0,0,1,1.582,1.415,4.828,4.828,0,0,1,.729,1.978A12.771,12.771,0,0,1,106,33.9H99.447a2.381,2.381,0,0,0,.905,2.021,2.132,2.132,0,0,0,1.248.36,1.8,1.8,0,0,0,1.257-.439,2.087,2.087,0,0,0,.466-.659h2.558a3.178,3.178,0,0,1-.888,1.731,4.349,4.349,0,0,1-3.445,1.4,4.858,4.858,0,0,1-3.226-1.178,4.75,4.75,0,0,1-1.4-3.832,5.326,5.326,0,0,1,1.261-3.814A4.312,4.312,0,0,1,101.459,28.165Zm11.54.026a3.7,3.7,0,0,1,2.43.778,3.163,3.163,0,0,1,.945,2.58V38h-2.566V32.173a2.659,2.659,0,0,0-.2-1.16,1.422,1.422,0,0,0-1.406-.738,1.744,1.744,0,0,0-1.749,1.081,3.713,3.713,0,0,0-.246,1.459V38h-2.5V28.438h2.417v1.4a4.252,4.252,0,0,1,.914-1.063A3.177,3.177,0,0,1,113,28.191Zm4.7,2.1V28.508h1.336V25.836h2.479v2.672h1.556v1.784h-1.556v5.063a1.14,1.14,0,0,0,.149.734,1.645,1.645,0,0,0,.914.145q.114,0,.242,0t.25-.013v1.872l-1.187.044a3.184,3.184,0,0,1-2.426-.615,1.832,1.832,0,0,1-.422-1.327v-5.9Zm11.276,5.941a1.985,1.985,0,0,0,1.688-.782,3.639,3.639,0,0,0,.589-2.224,3.619,3.619,0,0,0-.589-2.219,2.224,2.224,0,0,0-3.379,0,3.6,3.6,0,0,0-.593,2.219,3.619,3.619,0,0,0,.593,2.224A2,2,0,0,0,128.978,36.233Zm4.9-3.006a5.553,5.553,0,0,1-1.213,3.608,5.274,5.274,0,0,1-7.365,0,5.953,5.953,0,0,1,0-7.2,5.22,5.22,0,0,1,7.365,0A5.59,5.59,0,0,1,133.882,33.228Z" transform="translate(381 12469.5)" fill="#00223d"/>
    <path id="Trazado_112825" data-name="Trazado 112825" d="M23.65,5.167a1.753,1.753,0,0,0-.532-1.441,2.308,2.308,0,0,0-1.49-.431H19.106V7.109h2.522a2.187,2.187,0,0,0,1.49-.466A1.865,1.865,0,0,0,23.65,5.167Zm2.681-.018a3.976,3.976,0,0,1-1.16,3.243,5.109,5.109,0,0,1-3.313.949H19.106V14H16.417V1.045h5.643a4.6,4.6,0,0,1,3.111,1A3.882,3.882,0,0,1,26.331,5.149ZM30.716,14h-2.5V1.045h2.5Zm7.726-4.658a2.722,2.722,0,0,1-.479.242,4.006,4.006,0,0,1-.664.171l-.562.105A3.632,3.632,0,0,0,35.6,10.2a1.149,1.149,0,0,0-.58,1.063,1.12,1.12,0,0,0,.356.927,1.34,1.34,0,0,0,.866.286A2.551,2.551,0,0,0,37.734,12a2.024,2.024,0,0,0,.708-1.731ZM36.921,8.173a3.91,3.91,0,0,0,.993-.22.753.753,0,0,0,.536-.712.845.845,0,0,0-.409-.813,2.553,2.553,0,0,0-1.2-.224,1.563,1.563,0,0,0-1.257.439,1.827,1.827,0,0,0-.352.879H32.817a3.676,3.676,0,0,1,.7-2.065,4.09,4.09,0,0,1,3.41-1.266,6.059,6.059,0,0,1,2.795.624,2.4,2.4,0,0,1,1.222,2.355v4.395q0,.457.018,1.107a1.392,1.392,0,0,0,.149.668.9.9,0,0,0,.369.29V14H38.758a2.79,2.79,0,0,1-.158-.545q-.044-.255-.07-.58a5.146,5.146,0,0,1-1.2.958,3.6,3.6,0,0,1-1.828.466,3.143,3.143,0,0,1-2.149-.743,2.649,2.649,0,0,1-.848-2.1,2.732,2.732,0,0,1,1.362-2.558,6.049,6.049,0,0,1,2.2-.615ZM48.479,4.191a3.7,3.7,0,0,1,2.43.778,3.163,3.163,0,0,1,.945,2.58V14H49.288V8.173a2.659,2.659,0,0,0-.2-1.16,1.422,1.422,0,0,0-1.406-.738A1.744,1.744,0,0,0,45.93,7.355a3.713,3.713,0,0,0-.246,1.459V14h-2.5V4.438H45.6v1.4a4.252,4.252,0,0,1,.914-1.063A3.177,3.177,0,0,1,48.479,4.191Zm8.262-.914H54.2V.966h2.54ZM54.2,4.42h2.54V14H54.2ZM65.266.966h2.452V3.251H65.266Zm0,3.5h2.5V14h-2.5ZM62.761.913q.229,0,.466.018l.492.035V3q-.176-.009-.343-.013t-.4,0q-.589,0-.721.325a2.72,2.72,0,0,0-.114,1.02v.176h1.644V6.274H62.137V14h-2.5V6.274h-1.4V4.508h1.371V3.893a3.3,3.3,0,0,1,.677-2.276A3.242,3.242,0,0,1,62.761.913ZM75.883,7.856a2.223,2.223,0,0,0-.36-.967,1.511,1.511,0,0,0-1.31-.58,1.725,1.725,0,0,0-1.731,1.257,5.255,5.255,0,0,0-.246,1.775,4.832,4.832,0,0,0,.246,1.7,1.671,1.671,0,0,0,1.688,1.2,1.488,1.488,0,0,0,1.248-.475,2.362,2.362,0,0,0,.448-1.23h2.558A4.191,4.191,0,0,1,77.6,12.69a4.016,4.016,0,0,1-3.489,1.644,4.082,4.082,0,0,1-3.4-1.371,5.548,5.548,0,0,1-1.09-3.56,5.63,5.63,0,0,1,1.2-3.841,4.191,4.191,0,0,1,3.322-1.371A5,5,0,0,1,77.092,5,3.761,3.761,0,0,1,78.45,7.856Zm9.571,1.485a2.722,2.722,0,0,1-.479.242,4.006,4.006,0,0,1-.664.171l-.562.105a3.632,3.632,0,0,0-1.134.343,1.149,1.149,0,0,0-.58,1.063,1.12,1.12,0,0,0,.356.927,1.34,1.34,0,0,0,.866.286A2.551,2.551,0,0,0,84.747,12a2.024,2.024,0,0,0,.708-1.731ZM83.934,8.173a3.91,3.91,0,0,0,.993-.22.753.753,0,0,0,.536-.712.845.845,0,0,0-.409-.813,2.553,2.553,0,0,0-1.2-.224,1.563,1.563,0,0,0-1.257.439,1.827,1.827,0,0,0-.352.879H79.83a3.676,3.676,0,0,1,.7-2.065,4.09,4.09,0,0,1,3.41-1.266,6.059,6.059,0,0,1,2.795.624,2.4,2.4,0,0,1,1.222,2.355v4.395q0,.457.018,1.107a1.392,1.392,0,0,0,.149.668.9.9,0,0,0,.369.29V14H85.771a2.79,2.79,0,0,1-.158-.545q-.044-.255-.07-.58a5.146,5.146,0,0,1-1.2.958,3.6,3.6,0,0,1-1.828.466,3.143,3.143,0,0,1-2.149-.743,2.649,2.649,0,0,1-.848-2.1,2.732,2.732,0,0,1,1.362-2.558,6.049,6.049,0,0,1,2.2-.615ZM95.9,7.856a2.223,2.223,0,0,0-.36-.967,1.511,1.511,0,0,0-1.31-.58A1.725,1.725,0,0,0,92.5,7.566a5.255,5.255,0,0,0-.246,1.775,4.832,4.832,0,0,0,.246,1.7,1.671,1.671,0,0,0,1.688,1.2,1.488,1.488,0,0,0,1.248-.475,2.362,2.362,0,0,0,.448-1.23h2.558a4.191,4.191,0,0,1-.826,2.162,4.016,4.016,0,0,1-3.489,1.644,4.082,4.082,0,0,1-3.4-1.371,5.548,5.548,0,0,1-1.09-3.56,5.63,5.63,0,0,1,1.2-3.841,4.191,4.191,0,0,1,3.322-1.371A5,5,0,0,1,97.113,5a3.761,3.761,0,0,1,1.358,2.856Zm6.864-4.579h-2.54V.966h2.54Zm-2.54,1.143h2.54V14h-2.54Zm9.264,7.813a1.985,1.985,0,0,0,1.688-.782,3.639,3.639,0,0,0,.589-2.224,3.619,3.619,0,0,0-.589-2.219,2.224,2.224,0,0,0-3.379,0,3.6,3.6,0,0,0-.593,2.219,3.619,3.619,0,0,0,.593,2.224A2,2,0,0,0,109.493,12.233Zm4.9-3.006a5.553,5.553,0,0,1-1.213,3.608,5.274,5.274,0,0,1-7.365,0,5.553,5.553,0,0,1-1.213-3.608,5.59,5.59,0,0,1,1.213-3.595,5.22,5.22,0,0,1,7.365,0A5.59,5.59,0,0,1,114.4,9.228ZM112.5.5l-2.672,2.628h-1.811L109.7.5Zm9,3.691a3.7,3.7,0,0,1,2.43.778,3.163,3.163,0,0,1,.945,2.58V14h-2.566V8.173a2.659,2.659,0,0,0-.2-1.16,1.422,1.422,0,0,0-1.406-.738,1.744,1.744,0,0,0-1.749,1.081,3.713,3.713,0,0,0-.246,1.459V14h-2.5V4.438h2.417v1.4a4.252,4.252,0,0,1,.914-1.063A3.177,3.177,0,0,1,121.5,4.191Z" transform="translate(633 12323.5)" fill="#00223d"/>
    <path id="Trazado_112829" data-name="Trazado 112829" d="M27.9,9.1h3.287l-1.617-5.1Zm.167-8.06h3.059L35.708,14H32.773l-.835-2.663H27.166L26.269,14h-2.83Zm14.4,3.146a3.7,3.7,0,0,1,2.43.778,3.163,3.163,0,0,1,.945,2.58V14H43.267V8.173a2.659,2.659,0,0,0-.2-1.16,1.422,1.422,0,0,0-1.406-.738A1.744,1.744,0,0,0,39.91,7.355a3.713,3.713,0,0,0-.246,1.459V14h-2.5V4.438h2.417v1.4A4.252,4.252,0,0,1,40.5,4.771,3.177,3.177,0,0,1,42.458,4.191Zm10.969,5.15a2.722,2.722,0,0,1-.479.242,4.006,4.006,0,0,1-.664.171l-.562.105a3.632,3.632,0,0,0-1.134.343,1.149,1.149,0,0,0-.58,1.063,1.12,1.12,0,0,0,.356.927,1.34,1.34,0,0,0,.866.286A2.551,2.551,0,0,0,52.72,12a2.024,2.024,0,0,0,.708-1.731ZM51.907,8.173a3.91,3.91,0,0,0,.993-.22.753.753,0,0,0,.536-.712.845.845,0,0,0-.409-.813,2.553,2.553,0,0,0-1.2-.224,1.563,1.563,0,0,0-1.257.439,1.827,1.827,0,0,0-.352.879H47.8a3.676,3.676,0,0,1,.7-2.065,4.09,4.09,0,0,1,3.41-1.266,6.059,6.059,0,0,1,2.795.624,2.4,2.4,0,0,1,1.222,2.355v4.395q0,.457.018,1.107a1.392,1.392,0,0,0,.149.668.9.9,0,0,0,.369.29V14H53.744a2.79,2.79,0,0,1-.158-.545q-.044-.255-.07-.58a5.146,5.146,0,0,1-1.2.958,3.6,3.6,0,0,1-1.828.466,3.143,3.143,0,0,1-2.149-.743,2.649,2.649,0,0,1-.848-2.1,2.732,2.732,0,0,1,1.362-2.558,6.049,6.049,0,0,1,2.2-.615ZM55.036.5,52.364,3.128H50.553L52.241.5ZM60.713,14h-2.5V1.045h2.5ZM65.732,3.277h-2.54V.966h2.54ZM63.192,4.42h2.54V14h-2.54Zm6.917,6.521a1.673,1.673,0,0,0,.343.949,2.317,2.317,0,0,0,1.723.5,2.626,2.626,0,0,0,1.173-.22.737.737,0,0,0,.083-1.3,14.3,14.3,0,0,0-2.61-.756A5.437,5.437,0,0,1,68.527,9.1a2.191,2.191,0,0,1-.668-1.723A2.988,2.988,0,0,1,68.9,5.1a4.183,4.183,0,0,1,2.931-.954,5.378,5.378,0,0,1,2.922.716,3.068,3.068,0,0,1,1.3,2.474h-2.5a1.482,1.482,0,0,0-.272-.765,1.714,1.714,0,0,0-1.406-.51,2.021,2.021,0,0,0-1.165.255.734.734,0,0,0-.347.6.654.654,0,0,0,.369.624,15.98,15.98,0,0,0,2.61.694A4.8,4.8,0,0,1,75.576,9.3a2.415,2.415,0,0,1,.738,1.8,2.911,2.911,0,0,1-1.059,2.325,4.976,4.976,0,0,1-3.274.9,4.929,4.929,0,0,1-3.335-.954,3.1,3.1,0,0,1-1.077-2.43ZM80.744,3.277H78.2V.966h2.54ZM78.2,4.42h2.54V14H78.2Zm6.917,6.521a1.673,1.673,0,0,0,.343.949,2.317,2.317,0,0,0,1.723.5,2.626,2.626,0,0,0,1.173-.22.737.737,0,0,0,.083-1.3,14.3,14.3,0,0,0-2.61-.756A5.437,5.437,0,0,1,83.539,9.1a2.191,2.191,0,0,1-.668-1.723A2.988,2.988,0,0,1,83.912,5.1a4.183,4.183,0,0,1,2.931-.954,5.378,5.378,0,0,1,2.922.716,3.068,3.068,0,0,1,1.3,2.474h-2.5a1.482,1.482,0,0,0-.272-.765,1.714,1.714,0,0,0-1.406-.51,2.021,2.021,0,0,0-1.165.255.734.734,0,0,0-.347.6.654.654,0,0,0,.369.624,15.98,15.98,0,0,0,2.61.694A4.8,4.8,0,0,1,90.587,9.3a2.415,2.415,0,0,1,.738,1.8,2.911,2.911,0,0,1-1.059,2.325,6.354,6.354,0,0,1-6.609-.053,3.1,3.1,0,0,1-1.077-2.43Zm16.594-6.75a3.09,3.09,0,0,1,1.547.382,3.043,3.043,0,0,1,1.1,1.059V1.063h2.54V14h-2.435V12.673a3.533,3.533,0,0,1-1.222,1.239,3.43,3.43,0,0,1-1.705.387,3.56,3.56,0,0,1-2.826-1.358,5.215,5.215,0,0,1-1.147-3.485A6,6,0,0,1,98.7,5.6,3.674,3.674,0,0,1,101.714,4.191Zm.545,8a1.849,1.849,0,0,0,1.617-.791,3.5,3.5,0,0,0,.554-2.048,3.141,3.141,0,0,0-.888-2.514,1.91,1.91,0,0,0-1.266-.457,1.759,1.759,0,0,0-1.613.831,3.848,3.848,0,0,0-.514,2.061,3.813,3.813,0,0,0,.523,2.123A1.769,1.769,0,0,0,102.259,12.189Zm10.7-5.959a1.7,1.7,0,0,0-1.349.545,2.72,2.72,0,0,0-.6,1.477H114.9a2.181,2.181,0,0,0-.6-1.507A1.87,1.87,0,0,0,112.956,6.23Zm0-2.065a5.021,5.021,0,0,1,2.153.448,3.772,3.772,0,0,1,1.582,1.415,4.828,4.828,0,0,1,.729,1.978,12.771,12.771,0,0,1,.079,1.9h-6.557a2.381,2.381,0,0,0,.905,2.021,2.132,2.132,0,0,0,1.248.36,1.8,1.8,0,0,0,1.257-.439,2.087,2.087,0,0,0,.466-.659h2.558a3.178,3.178,0,0,1-.888,1.731,4.349,4.349,0,0,1-3.445,1.4,4.858,4.858,0,0,1-3.226-1.178,4.75,4.75,0,0,1-1.4-3.832,5.326,5.326,0,0,1,1.261-3.814A4.312,4.312,0,0,1,112.956,4.165ZM11.855,28.191q.07,0,.119,0l.215.013v2.566q-.237-.026-.422-.035t-.3-.009a2.078,2.078,0,0,0-2.03.984,3.829,3.829,0,0,0-.29,1.705V38H6.625V28.42H9.016v1.67a5.3,5.3,0,0,1,1.011-1.31A2.752,2.752,0,0,1,11.855,28.191Zm5.581,2.039a1.7,1.7,0,0,0-1.349.545,2.72,2.72,0,0,0-.6,1.477h3.894a2.181,2.181,0,0,0-.6-1.507A1.87,1.87,0,0,0,17.436,30.23Zm0-2.065a5.021,5.021,0,0,1,2.153.448,3.772,3.772,0,0,1,1.582,1.415,4.828,4.828,0,0,1,.729,1.978,12.771,12.771,0,0,1,.079,1.9H15.423a2.381,2.381,0,0,0,.905,2.021,2.132,2.132,0,0,0,1.248.36,1.8,1.8,0,0,0,1.257-.439,2.087,2.087,0,0,0,.466-.659h2.558a3.178,3.178,0,0,1-.888,1.731,4.349,4.349,0,0,1-3.445,1.4A4.858,4.858,0,0,1,14.3,37.139a4.75,4.75,0,0,1-1.4-3.832,5.326,5.326,0,0,1,1.261-3.814A4.312,4.312,0,0,1,17.436,28.165Zm10.292,7.989a1.891,1.891,0,0,0,1.837-1.107,4.249,4.249,0,0,0,.352-1.846,3.944,3.944,0,0,0-.3-1.573,1.9,1.9,0,0,0-1.881-1.248,1.846,1.846,0,0,0-1.525.729,3.543,3.543,0,0,0-.576,2.215A4.269,4.269,0,0,0,25.9,34.95,1.814,1.814,0,0,0,27.728,36.154Zm-.633-7.98a3.008,3.008,0,0,1,1.934.589,3.85,3.85,0,0,1,.879,1.1V28.438h2.417V41.8H29.846V36.813a2.663,2.663,0,0,1-.962,1.033,3.324,3.324,0,0,1-1.859.453,3.639,3.639,0,0,1-2.83-1.327,5.165,5.165,0,0,1-1.169-3.542A5.849,5.849,0,0,1,24.2,29.606,3.606,3.606,0,0,1,27.1,28.174Zm10.063.246v5.774a3.023,3.023,0,0,0,.193,1.23,1.338,1.338,0,0,0,1.345.729,1.758,1.758,0,0,0,1.758-1.037,3.754,3.754,0,0,0,.246-1.485V28.42h2.54V38H40.806V36.646q-.035.044-.176.264a1.764,1.764,0,0,1-.334.387,3.488,3.488,0,0,1-1.138.721,3.879,3.879,0,0,1-1.288.193,2.87,2.87,0,0,1-2.865-1.529,5.852,5.852,0,0,1-.413-2.487V28.42ZM49.437,30.23a1.7,1.7,0,0,0-1.349.545,2.72,2.72,0,0,0-.6,1.477h3.894a2.181,2.181,0,0,0-.6-1.507A1.87,1.87,0,0,0,49.437,30.23Zm0-2.065a5.021,5.021,0,0,1,2.153.448,3.772,3.772,0,0,1,1.582,1.415,4.828,4.828,0,0,1,.729,1.978,12.771,12.771,0,0,1,.079,1.9H47.424a2.381,2.381,0,0,0,.905,2.021,2.132,2.132,0,0,0,1.248.36,1.8,1.8,0,0,0,1.257-.439,2.087,2.087,0,0,0,.466-.659h2.558a3.178,3.178,0,0,1-.888,1.731,4.349,4.349,0,0,1-3.445,1.4A4.858,4.858,0,0,1,46.3,37.139a4.75,4.75,0,0,1-1.4-3.832,5.326,5.326,0,0,1,1.261-3.814A4.312,4.312,0,0,1,49.437,28.165Zm11.435.026q.07,0,.119,0l.215.013v2.566q-.237-.026-.422-.035t-.3-.009a2.078,2.078,0,0,0-2.03.984,3.829,3.829,0,0,0-.29,1.705V38H55.642V28.42h2.391v1.67a5.3,5.3,0,0,1,1.011-1.31A2.752,2.752,0,0,1,60.872,28.191Zm4.377-.914h-2.54V24.966h2.54Zm-2.54,1.143h2.54V38h-2.54Zm15.671-.211a3.335,3.335,0,0,1,1.248.246,2.784,2.784,0,0,1,1.116.861,2.752,2.752,0,0,1,.545,1.23,8.5,8.5,0,0,1,.088,1.415L81.359,38H78.792V31.9a2,2,0,0,0-.176-.9,1.249,1.249,0,0,0-1.23-.668,1.44,1.44,0,0,0-1.433.861,2.7,2.7,0,0,0-.2,1.1V38H73.229V32.3a3.2,3.2,0,0,0-.176-1.239,1.227,1.227,0,0,0-1.239-.694,1.479,1.479,0,0,0-1.441.694,2.675,2.675,0,0,0-.2,1.178V38H67.63V28.438h2.435v1.4a4.031,4.031,0,0,1,.879-1.063,3.478,3.478,0,0,1,3.665-.079,2.812,2.812,0,0,1,.826,1.151A3.185,3.185,0,0,1,76.657,28.6,3.728,3.728,0,0,1,78.379,28.209Zm7.875-.932h-2.54V24.966h2.54Zm-2.54,1.143h2.54V38h-2.54Zm8.745,1.811a1.7,1.7,0,0,0-1.349.545,2.72,2.72,0,0,0-.6,1.477H94.4a2.181,2.181,0,0,0-.6-1.507A1.87,1.87,0,0,0,92.459,30.23Zm0-2.065a5.021,5.021,0,0,1,2.153.448,3.772,3.772,0,0,1,1.582,1.415,4.828,4.828,0,0,1,.729,1.978A12.771,12.771,0,0,1,97,33.9H90.447a2.381,2.381,0,0,0,.905,2.021,2.132,2.132,0,0,0,1.248.36,1.8,1.8,0,0,0,1.257-.439,2.087,2.087,0,0,0,.466-.659H96.88a3.178,3.178,0,0,1-.888,1.731,4.349,4.349,0,0,1-3.445,1.4,4.858,4.858,0,0,1-3.226-1.178,4.75,4.75,0,0,1-1.4-3.832,5.326,5.326,0,0,1,1.261-3.814A4.312,4.312,0,0,1,92.459,28.165Zm11.54.026a3.7,3.7,0,0,1,2.43.778,3.163,3.163,0,0,1,.945,2.58V38h-2.566V32.173a2.659,2.659,0,0,0-.2-1.16,1.422,1.422,0,0,0-1.406-.738,1.744,1.744,0,0,0-1.749,1.081,3.713,3.713,0,0,0-.246,1.459V38h-2.5V28.438h2.417v1.4a4.252,4.252,0,0,1,.914-1.063A3.177,3.177,0,0,1,104,28.191Zm4.7,2.1V28.508h1.336V25.836h2.479v2.672h1.556v1.784h-1.556v5.063a1.14,1.14,0,0,0,.149.734,1.645,1.645,0,0,0,.914.145q.114,0,.242,0t.25-.013v1.872l-1.187.044a3.184,3.184,0,0,1-2.426-.615,1.832,1.832,0,0,1-.422-1.327v-5.9Zm11.276,5.941a1.985,1.985,0,0,0,1.688-.782,3.639,3.639,0,0,0,.589-2.224,3.619,3.619,0,0,0-.589-2.219,2.224,2.224,0,0,0-3.379,0,3.6,3.6,0,0,0-.593,2.219,3.619,3.619,0,0,0,.593,2.224A2,2,0,0,0,119.978,36.233Zm4.9-3.006a5.553,5.553,0,0,1-1.213,3.608,5.274,5.274,0,0,1-7.365,0,5.953,5.953,0,0,1,0-7.2,5.22,5.22,0,0,1,7.365,0A5.59,5.59,0,0,1,124.882,33.228Zm3.744,1.714a1.673,1.673,0,0,0,.343.949,2.317,2.317,0,0,0,1.723.5,2.626,2.626,0,0,0,1.173-.22.737.737,0,0,0,.083-1.3,14.3,14.3,0,0,0-2.61-.756,5.437,5.437,0,0,1-2.294-1.011,2.191,2.191,0,0,1-.668-1.723,2.988,2.988,0,0,1,1.042-2.281,4.183,4.183,0,0,1,2.931-.954,5.378,5.378,0,0,1,2.922.716,3.068,3.068,0,0,1,1.3,2.474h-2.5a1.482,1.482,0,0,0-.272-.765,1.714,1.714,0,0,0-1.406-.51,2.021,2.021,0,0,0-1.165.255.734.734,0,0,0-.347.6.654.654,0,0,0,.369.624,15.98,15.98,0,0,0,2.61.694,4.8,4.8,0,0,1,2.241,1.063,2.415,2.415,0,0,1,.738,1.8,2.911,2.911,0,0,1-1.059,2.325,6.354,6.354,0,0,1-6.609-.053,3.1,3.1,0,0,1-1.077-2.43Z" transform="translate(903 12469.5)" fill="#00223d"/>
    <path id="Trazado_112830" data-name="Trazado 112830" d="M67.493,3.295V11.75h2.5a2.7,2.7,0,0,0,2.672-1.89,6.665,6.665,0,0,0,.413-2.47,6.08,6.08,0,0,0-.62-3.037,2.616,2.616,0,0,0-2.465-1.059Zm2.953-2.25a6.809,6.809,0,0,1,2,.281A4.277,4.277,0,0,1,74.656,2.97a5.765,5.765,0,0,1,.923,2.092,10.042,10.042,0,0,1,.246,2.145,8.611,8.611,0,0,1-1.037,4.377A4.68,4.68,0,0,1,70.446,14H64.865V1.045Zm9.791,2.232H77.7V.966h2.54ZM77.7,4.42h2.54V14H77.7Zm6.917,6.521a1.673,1.673,0,0,0,.343.949,2.317,2.317,0,0,0,1.723.5,2.626,2.626,0,0,0,1.173-.22.737.737,0,0,0,.083-1.3,14.3,14.3,0,0,0-2.61-.756A5.437,5.437,0,0,1,83.032,9.1a2.191,2.191,0,0,1-.668-1.723A2.988,2.988,0,0,1,83.406,5.1a4.183,4.183,0,0,1,2.931-.954,5.378,5.378,0,0,1,2.922.716,3.068,3.068,0,0,1,1.3,2.474h-2.5a1.482,1.482,0,0,0-.272-.765,1.714,1.714,0,0,0-1.406-.51,2.021,2.021,0,0,0-1.165.255.734.734,0,0,0-.347.6.654.654,0,0,0,.369.624,15.98,15.98,0,0,0,2.61.694A4.8,4.8,0,0,1,90.081,9.3a2.415,2.415,0,0,1,.738,1.8,2.911,2.911,0,0,1-1.059,2.325,6.354,6.354,0,0,1-6.609-.053,3.1,3.1,0,0,1-1.077-2.43ZM96.453,6.23a1.7,1.7,0,0,0-1.349.545,2.72,2.72,0,0,0-.6,1.477H98.4a2.181,2.181,0,0,0-.6-1.507A1.87,1.87,0,0,0,96.453,6.23Zm0-2.065a5.021,5.021,0,0,1,2.153.448,3.772,3.772,0,0,1,1.582,1.415,4.828,4.828,0,0,1,.729,1.978A12.771,12.771,0,0,1,101,9.9H94.44a2.381,2.381,0,0,0,.905,2.021,2.132,2.132,0,0,0,1.248.36,1.8,1.8,0,0,0,1.257-.439,2.087,2.087,0,0,0,.466-.659h2.558a3.178,3.178,0,0,1-.888,1.731,4.349,4.349,0,0,1-3.445,1.4,4.858,4.858,0,0,1-3.226-1.178,4.75,4.75,0,0,1-1.4-3.832,5.326,5.326,0,0,1,1.261-3.814A4.312,4.312,0,0,1,96.453,4.165Zm11.54.026a3.7,3.7,0,0,1,2.43.778,3.163,3.163,0,0,1,.945,2.58V14H108.8V8.173a2.659,2.659,0,0,0-.2-1.16,1.422,1.422,0,0,0-1.406-.738,1.744,1.744,0,0,0-1.749,1.081,3.713,3.713,0,0,0-.246,1.459V14h-2.5V4.438h2.417v1.4a4.252,4.252,0,0,1,.914-1.063A3.177,3.177,0,0,1,107.993,4.191ZM105.937.8a2.065,2.065,0,0,1,.466.053,2.853,2.853,0,0,1,.387.114l.826.308q.369.123.483.158a.865.865,0,0,0,.255.035.7.7,0,0,0,.593-.224,1.464,1.464,0,0,0,.25-.532h1.169a3.514,3.514,0,0,1-.628,1.547,1.616,1.616,0,0,1-1.375.624,3.29,3.29,0,0,1-.773-.132q-.29-.07-.554-.158l-.712-.237a1.628,1.628,0,0,0-.29-.075,1.819,1.819,0,0,0-.281-.022.775.775,0,0,0-.545.193,1.123,1.123,0,0,0-.3.554h-1.143a4.093,4.093,0,0,1,.5-1.371A1.882,1.882,0,0,1,105.937.8Zm12.041,11.435a1.985,1.985,0,0,0,1.688-.782,3.639,3.639,0,0,0,.589-2.224,3.619,3.619,0,0,0-.589-2.219,2.224,2.224,0,0,0-3.379,0,3.6,3.6,0,0,0-.593,2.219,3.619,3.619,0,0,0,.593,2.224A2,2,0,0,0,117.978,12.233Zm4.9-3.006a5.553,5.553,0,0,1-1.213,3.608,5.274,5.274,0,0,1-7.365,0,5.553,5.553,0,0,1-1.213-3.608A5.59,5.59,0,0,1,114.3,5.633a5.22,5.22,0,0,1,7.365,0A5.59,5.59,0,0,1,122.882,9.228Z" transform="translate(892 12673.5)" fill="#00223d"/>
    <path id="Trazado_112831" data-name="Trazado 112831" d="M11.837,14H9.147V1.045h2.689Zm7.629-9.809a3.7,3.7,0,0,1,2.43.778,3.163,3.163,0,0,1,.945,2.58V14H20.274V8.173a2.659,2.659,0,0,0-.2-1.16,1.422,1.422,0,0,0-1.406-.738,1.744,1.744,0,0,0-1.749,1.081,3.713,3.713,0,0,0-.246,1.459V14h-2.5V4.438h2.417v1.4a4.252,4.252,0,0,1,.914-1.063A3.177,3.177,0,0,1,19.466,4.191Zm4.7,2.1V4.508H25.5V1.836h2.479V4.508h1.556V6.292H27.982v5.063a1.14,1.14,0,0,0,.149.734,1.645,1.645,0,0,0,.914.145q.114,0,.242,0t.25-.013v1.872l-1.187.044a3.184,3.184,0,0,1-2.426-.615,1.832,1.832,0,0,1-.422-1.327v-5.9ZM34.926,6.23a1.7,1.7,0,0,0-1.349.545,2.72,2.72,0,0,0-.6,1.477h3.894a2.181,2.181,0,0,0-.6-1.507A1.87,1.87,0,0,0,34.926,6.23Zm0-2.065a5.021,5.021,0,0,1,2.153.448,3.772,3.772,0,0,1,1.582,1.415,4.828,4.828,0,0,1,.729,1.978,12.771,12.771,0,0,1,.079,1.9H32.913a2.381,2.381,0,0,0,.905,2.021,2.132,2.132,0,0,0,1.248.36,1.8,1.8,0,0,0,1.257-.439,2.087,2.087,0,0,0,.466-.659h2.558a3.178,3.178,0,0,1-.888,1.731,4.349,4.349,0,0,1-3.445,1.4,4.858,4.858,0,0,1-3.226-1.178,4.75,4.75,0,0,1-1.4-3.832,5.326,5.326,0,0,1,1.261-3.814A4.312,4.312,0,0,1,34.926,4.165Zm10.345,7.778a1.935,1.935,0,0,0,1.485-.664,3.072,3.072,0,0,0,.606-2.114,3.235,3.235,0,0,0-.576-2.074,1.882,1.882,0,0,0-1.542-.712,1.818,1.818,0,0,0-1.819,1.239,4.395,4.395,0,0,0-.264,1.626,3.71,3.71,0,0,0,.281,1.485A1.833,1.833,0,0,0,45.271,11.943Zm-.624-7.752a3.3,3.3,0,0,1,1.257.22A3.01,3.01,0,0,1,47.38,5.8V4.42h2.435v9.088A5.09,5.09,0,0,1,49.19,16.3q-1.072,1.617-4.113,1.617a5.6,5.6,0,0,1-3-.721A2.659,2.659,0,0,1,40.8,15.046h2.725a1.128,1.128,0,0,0,.343.633,2.117,2.117,0,0,0,1.362.343,1.83,1.83,0,0,0,1.811-.905,4.585,4.585,0,0,0,.3-1.951V12.55a3.055,3.055,0,0,1-.773.923,3.11,3.11,0,0,1-1.942.571,3.676,3.676,0,0,1-2.949-1.3,5.241,5.241,0,0,1-1.1-3.511,5.919,5.919,0,0,1,1.063-3.59A3.514,3.514,0,0,1,44.646,4.191Zm12.709,0q.07,0,.119,0l.215.013V6.775q-.237-.026-.422-.035t-.3-.009a2.078,2.078,0,0,0-2.03.984,3.829,3.829,0,0,0-.29,1.705V14H52.126V4.42h2.391V6.09a5.3,5.3,0,0,1,1.011-1.31A2.752,2.752,0,0,1,57.355,4.191Zm7.084,5.15a2.722,2.722,0,0,1-.479.242,4.006,4.006,0,0,1-.664.171l-.562.105A3.632,3.632,0,0,0,61.6,10.2a1.149,1.149,0,0,0-.58,1.063,1.12,1.12,0,0,0,.356.927,1.34,1.34,0,0,0,.866.286A2.551,2.551,0,0,0,63.732,12a2.024,2.024,0,0,0,.708-1.731ZM62.919,8.173a3.91,3.91,0,0,0,.993-.22.753.753,0,0,0,.536-.712.845.845,0,0,0-.409-.813,2.553,2.553,0,0,0-1.2-.224,1.563,1.563,0,0,0-1.257.439,1.827,1.827,0,0,0-.352.879H58.814a3.676,3.676,0,0,1,.7-2.065,4.09,4.09,0,0,1,3.41-1.266,6.059,6.059,0,0,1,2.795.624,2.4,2.4,0,0,1,1.222,2.355v4.395q0,.457.018,1.107a1.392,1.392,0,0,0,.149.668.9.9,0,0,0,.369.29V14H64.756a2.79,2.79,0,0,1-.158-.545q-.044-.255-.07-.58a5.146,5.146,0,0,1-1.2.958A3.6,3.6,0,0,1,61.5,14.3a3.143,3.143,0,0,1-2.149-.743,2.649,2.649,0,0,1-.848-2.1,2.732,2.732,0,0,1,1.362-2.558,6.049,6.049,0,0,1,2.2-.615ZM74.89,7.856a2.223,2.223,0,0,0-.36-.967,1.511,1.511,0,0,0-1.31-.58,1.725,1.725,0,0,0-1.731,1.257,5.255,5.255,0,0,0-.246,1.775,4.832,4.832,0,0,0,.246,1.7,1.671,1.671,0,0,0,1.688,1.2,1.488,1.488,0,0,0,1.248-.475,2.362,2.362,0,0,0,.448-1.23H77.43A4.191,4.191,0,0,1,76.6,12.69a4.016,4.016,0,0,1-3.489,1.644,4.082,4.082,0,0,1-3.4-1.371,5.548,5.548,0,0,1-1.09-3.56,5.63,5.63,0,0,1,1.2-3.841,4.191,4.191,0,0,1,3.322-1.371A5,5,0,0,1,76.1,5a3.761,3.761,0,0,1,1.358,2.856Zm6.864-4.579h-2.54V.966h2.54ZM79.214,4.42h2.54V14h-2.54Zm9.264,7.813a1.985,1.985,0,0,0,1.688-.782,3.639,3.639,0,0,0,.589-2.224,3.619,3.619,0,0,0-.589-2.219,2.224,2.224,0,0,0-3.379,0,3.6,3.6,0,0,0-.593,2.219,3.619,3.619,0,0,0,.593,2.224A2,2,0,0,0,88.478,12.233Zm4.9-3.006a5.553,5.553,0,0,1-1.213,3.608,5.274,5.274,0,0,1-7.365,0,5.553,5.553,0,0,1-1.213-3.608A5.59,5.59,0,0,1,84.8,5.633a5.22,5.22,0,0,1,7.365,0A5.59,5.59,0,0,1,93.382,9.228ZM91.483.5,88.812,3.128H87L88.688.5Zm9,3.691a3.7,3.7,0,0,1,2.43.778,3.163,3.163,0,0,1,.945,2.58V14h-2.566V8.173a2.659,2.659,0,0,0-.2-1.16,1.422,1.422,0,0,0-1.406-.738,1.744,1.744,0,0,0-1.749,1.081,3.713,3.713,0,0,0-.246,1.459V14h-2.5V4.438h2.417v1.4a4.252,4.252,0,0,1,.914-1.063A3.177,3.177,0,0,1,100.483,4.191Zm11.074,11.646.316.018a3.948,3.948,0,0,0,.7-.026,1.262,1.262,0,0,0,.563-.2,1.352,1.352,0,0,0,.409-.624,1.319,1.319,0,0,0,.154-.58l-3.516-10h2.786l2.092,7.066,1.978-7.066h2.663l-3.287,9.422a13.23,13.23,0,0,1-1.5,3.379,2.856,2.856,0,0,1-2.215.655q-.334,0-.536,0t-.606-.031ZM27.433,30.23a1.7,1.7,0,0,0-1.349.545,2.72,2.72,0,0,0-.6,1.477h3.894a2.181,2.181,0,0,0-.6-1.507A1.87,1.87,0,0,0,27.433,30.23Zm0-2.065a5.021,5.021,0,0,1,2.153.448,3.772,3.772,0,0,1,1.582,1.415,4.828,4.828,0,0,1,.729,1.978,12.771,12.771,0,0,1,.079,1.9H25.42a2.381,2.381,0,0,0,.905,2.021,2.132,2.132,0,0,0,1.248.36,1.8,1.8,0,0,0,1.257-.439,2.087,2.087,0,0,0,.466-.659h2.558a3.178,3.178,0,0,1-.888,1.731,4.349,4.349,0,0,1-3.445,1.4A4.858,4.858,0,0,1,24.3,37.139a4.75,4.75,0,0,1-1.4-3.832,5.326,5.326,0,0,1,1.261-3.814A4.312,4.312,0,0,1,27.433,28.165Zm8.851-.888h-2.5V24.966h2.5Zm-3.709,12.56q.211.018.3.022t.158,0a.78.78,0,0,0,.558-.18.968.968,0,0,0,.189-.7V28.464h2.5V39.028a3.338,3.338,0,0,1-.571,2.145,2.826,2.826,0,0,1-2.241.694q-.114,0-.338-.009t-.558-.018Zm9.87-9.606a1.7,1.7,0,0,0-1.349.545,2.72,2.72,0,0,0-.6,1.477h3.894a2.181,2.181,0,0,0-.6-1.507A1.87,1.87,0,0,0,42.445,30.23Zm0-2.065a5.021,5.021,0,0,1,2.153.448,3.772,3.772,0,0,1,1.582,1.415,4.828,4.828,0,0,1,.729,1.978,12.771,12.771,0,0,1,.079,1.9H40.432a2.381,2.381,0,0,0,.905,2.021,2.132,2.132,0,0,0,1.248.36,1.8,1.8,0,0,0,1.257-.439,2.087,2.087,0,0,0,.466-.659h2.558a3.178,3.178,0,0,1-.888,1.731,4.349,4.349,0,0,1-3.445,1.4,4.858,4.858,0,0,1-3.226-1.178,4.75,4.75,0,0,1-1.4-3.832,5.326,5.326,0,0,1,1.261-3.814A4.312,4.312,0,0,1,42.445,28.165ZM54.4,31.856a2.223,2.223,0,0,0-.36-.967,1.511,1.511,0,0,0-1.31-.58A1.725,1.725,0,0,0,51,31.566a5.255,5.255,0,0,0-.246,1.775,4.832,4.832,0,0,0,.246,1.7,1.671,1.671,0,0,0,1.688,1.2,1.488,1.488,0,0,0,1.248-.475,2.362,2.362,0,0,0,.448-1.23h2.558a4.191,4.191,0,0,1-.826,2.162,4.016,4.016,0,0,1-3.489,1.644,4.082,4.082,0,0,1-3.4-1.371,5.548,5.548,0,0,1-1.09-3.56,5.63,5.63,0,0,1,1.2-3.841,4.191,4.191,0,0,1,3.322-1.371A5,5,0,0,1,55.606,29a3.761,3.761,0,0,1,1.358,2.856Zm6.785-3.437v5.774a3.023,3.023,0,0,0,.193,1.23,1.338,1.338,0,0,0,1.345.729,1.758,1.758,0,0,0,1.758-1.037,3.754,3.754,0,0,0,.246-1.485V28.42h2.54V38H64.831V36.646q-.035.044-.176.264a1.764,1.764,0,0,1-.334.387,3.488,3.488,0,0,1-1.138.721,3.879,3.879,0,0,1-1.288.193,2.87,2.87,0,0,1-2.865-1.529,5.852,5.852,0,0,1-.413-2.487V28.42ZM75.4,31.856a2.223,2.223,0,0,0-.36-.967,1.511,1.511,0,0,0-1.31-.58A1.725,1.725,0,0,0,72,31.566a5.255,5.255,0,0,0-.246,1.775,4.832,4.832,0,0,0,.246,1.7,1.671,1.671,0,0,0,1.688,1.2,1.488,1.488,0,0,0,1.248-.475,2.362,2.362,0,0,0,.448-1.23h2.558a4.191,4.191,0,0,1-.826,2.162,4.016,4.016,0,0,1-3.489,1.644,4.082,4.082,0,0,1-3.4-1.371,5.548,5.548,0,0,1-1.09-3.56,5.63,5.63,0,0,1,1.2-3.841,4.191,4.191,0,0,1,3.322-1.371A5,5,0,0,1,76.612,29a3.761,3.761,0,0,1,1.358,2.856Zm6.864-4.579h-2.54V24.966h2.54Zm-2.54,1.143h2.54V38h-2.54Zm9.264,7.813a1.985,1.985,0,0,0,1.688-.782,3.639,3.639,0,0,0,.589-2.224,3.619,3.619,0,0,0-.589-2.219,2.224,2.224,0,0,0-3.379,0,3.6,3.6,0,0,0-.593,2.219,3.619,3.619,0,0,0,.593,2.224A2,2,0,0,0,88.992,36.233Zm4.9-3.006a5.553,5.553,0,0,1-1.213,3.608,5.274,5.274,0,0,1-7.365,0,5.953,5.953,0,0,1,0-7.2,5.22,5.22,0,0,1,7.365,0A5.59,5.59,0,0,1,93.9,33.228ZM92,24.5l-2.672,2.628H87.515L89.2,24.5Zm9,3.691a3.7,3.7,0,0,1,2.43.778,3.163,3.163,0,0,1,.945,2.58V38h-2.566V32.173a2.659,2.659,0,0,0-.2-1.16,1.422,1.422,0,0,0-1.406-.738,1.744,1.744,0,0,0-1.749,1.081,3.713,3.713,0,0,0-.246,1.459V38h-2.5V28.438h2.417v1.4a4.252,4.252,0,0,1,.914-1.063A3.177,3.177,0,0,1,101,28.191Z" transform="translate(385 12667.5)" fill="#00223d"/>
    <path id="Trazado_112834" data-name="Trazado 112834" d="M23.482,3.295V11.75h2.5A2.7,2.7,0,0,0,28.65,9.86a6.665,6.665,0,0,0,.413-2.47,6.08,6.08,0,0,0-.62-3.037,2.616,2.616,0,0,0-2.465-1.059Zm2.953-2.25a6.809,6.809,0,0,1,2,.281A4.277,4.277,0,0,1,30.646,2.97a5.765,5.765,0,0,1,.923,2.092,10.042,10.042,0,0,1,.246,2.145,8.611,8.611,0,0,1-1.037,4.377A4.68,4.68,0,0,1,26.436,14H20.854V1.045Zm11,5.186a1.7,1.7,0,0,0-1.349.545,2.72,2.72,0,0,0-.6,1.477h3.894a2.181,2.181,0,0,0-.6-1.507A1.87,1.87,0,0,0,37.431,6.23Zm0-2.065a5.021,5.021,0,0,1,2.153.448,3.772,3.772,0,0,1,1.582,1.415A4.828,4.828,0,0,1,41.9,8.006a12.771,12.771,0,0,1,.079,1.9H35.418a2.381,2.381,0,0,0,.905,2.021,2.132,2.132,0,0,0,1.248.36,1.8,1.8,0,0,0,1.257-.439,2.087,2.087,0,0,0,.466-.659h2.558a3.178,3.178,0,0,1-.888,1.731,4.349,4.349,0,0,1-3.445,1.4,4.858,4.858,0,0,1-3.226-1.178,4.75,4.75,0,0,1-1.4-3.832,5.326,5.326,0,0,1,1.261-3.814A4.312,4.312,0,0,1,37.431,4.165Zm8.183,6.776a1.673,1.673,0,0,0,.343.949,2.317,2.317,0,0,0,1.723.5,2.626,2.626,0,0,0,1.173-.22.737.737,0,0,0,.083-1.3,14.3,14.3,0,0,0-2.61-.756A5.437,5.437,0,0,1,44.031,9.1a2.191,2.191,0,0,1-.668-1.723A2.988,2.988,0,0,1,44.4,5.1a4.183,4.183,0,0,1,2.931-.954,5.378,5.378,0,0,1,2.922.716,3.068,3.068,0,0,1,1.3,2.474h-2.5a1.482,1.482,0,0,0-.272-.765,1.714,1.714,0,0,0-1.406-.51,2.021,2.021,0,0,0-1.165.255.734.734,0,0,0-.347.6.654.654,0,0,0,.369.624,15.98,15.98,0,0,0,2.61.694A4.8,4.8,0,0,1,51.08,9.3a2.415,2.415,0,0,1,.738,1.8,2.911,2.911,0,0,1-1.059,2.325,4.976,4.976,0,0,1-3.274.9,4.929,4.929,0,0,1-3.335-.954,3.1,3.1,0,0,1-1.077-2.43Zm13.342-1.6a2.722,2.722,0,0,1-.479.242,4.006,4.006,0,0,1-.664.171l-.562.105a3.632,3.632,0,0,0-1.134.343,1.149,1.149,0,0,0-.58,1.063,1.12,1.12,0,0,0,.356.927,1.34,1.34,0,0,0,.866.286A2.551,2.551,0,0,0,58.248,12a2.024,2.024,0,0,0,.708-1.731ZM57.435,8.173a3.91,3.91,0,0,0,.993-.22.753.753,0,0,0,.536-.712.845.845,0,0,0-.409-.813,2.553,2.553,0,0,0-1.2-.224,1.563,1.563,0,0,0-1.257.439,1.827,1.827,0,0,0-.352.879H53.33a3.676,3.676,0,0,1,.7-2.065,4.09,4.09,0,0,1,3.41-1.266,6.059,6.059,0,0,1,2.795.624A2.4,2.4,0,0,1,61.46,7.171v4.395q0,.457.018,1.107a1.392,1.392,0,0,0,.149.668.9.9,0,0,0,.369.29V14H59.271a2.79,2.79,0,0,1-.158-.545q-.044-.255-.07-.58a5.146,5.146,0,0,1-1.2.958,3.6,3.6,0,0,1-1.828.466,3.143,3.143,0,0,1-2.149-.743,2.649,2.649,0,0,1-.848-2.1,2.732,2.732,0,0,1,1.362-2.558,6.049,6.049,0,0,1,2.2-.615ZM68.887,4.191q.07,0,.119,0l.215.013V6.775q-.237-.026-.422-.035t-.3-.009a2.078,2.078,0,0,0-2.03.984,3.829,3.829,0,0,0-.29,1.705V14H63.657V4.42h2.391V6.09a5.3,5.3,0,0,1,1.011-1.31A2.752,2.752,0,0,1,68.887,4.191Zm7,0q.07,0,.119,0l.215.013V6.775q-.237-.026-.422-.035t-.3-.009a2.078,2.078,0,0,0-2.03.984,3.829,3.829,0,0,0-.29,1.705V14H70.662V4.42h2.391V6.09a5.3,5.3,0,0,1,1.011-1.31A2.752,2.752,0,0,1,75.892,4.191Zm6.1,8.042a1.985,1.985,0,0,0,1.688-.782,3.639,3.639,0,0,0,.589-2.224,3.619,3.619,0,0,0-.589-2.219,2.224,2.224,0,0,0-3.379,0,3.6,3.6,0,0,0-.593,2.219,3.619,3.619,0,0,0,.593,2.224A2,2,0,0,0,81.991,12.233Zm4.9-3.006a5.553,5.553,0,0,1-1.213,3.608,5.274,5.274,0,0,1-7.365,0A5.553,5.553,0,0,1,77.1,9.228a5.59,5.59,0,0,1,1.213-3.595,5.22,5.22,0,0,1,7.365,0A5.59,5.59,0,0,1,86.9,9.228ZM91.246,14h-2.5V1.045h2.5Zm5,0h-2.5V1.045h2.5Zm6.741-1.767a1.985,1.985,0,0,0,1.688-.782,3.639,3.639,0,0,0,.589-2.224,3.619,3.619,0,0,0-.589-2.219,2.224,2.224,0,0,0-3.379,0,3.6,3.6,0,0,0-.593,2.219,3.619,3.619,0,0,0,.593,2.224A2,2,0,0,0,102.988,12.233Zm4.9-3.006a5.553,5.553,0,0,1-1.213,3.608,5.274,5.274,0,0,1-7.365,0A5.553,5.553,0,0,1,98.1,9.228a5.59,5.59,0,0,1,1.213-3.595,5.22,5.22,0,0,1,7.365,0A5.59,5.59,0,0,1,107.893,9.228Z" transform="translate(756 12825.5)" fill="#00223d"/>
    <path id="Trazado_112835" data-name="Trazado 112835" d="M42.155,5.167a1.753,1.753,0,0,0-.532-1.441,2.308,2.308,0,0,0-1.49-.431H37.611V7.109h2.522a2.187,2.187,0,0,0,1.49-.466A1.865,1.865,0,0,0,42.155,5.167Zm2.681-.018a3.976,3.976,0,0,1-1.16,3.243,5.109,5.109,0,0,1-3.313.949H37.611V14H34.921V1.045h5.643a4.6,4.6,0,0,1,3.111,1A3.882,3.882,0,0,1,44.835,5.149Zm7.031-.958q.07,0,.119,0l.215.013V6.775q-.237-.026-.422-.035t-.3-.009a2.078,2.078,0,0,0-2.03.984,3.829,3.829,0,0,0-.29,1.705V14H46.637V4.42h2.391V6.09a5.3,5.3,0,0,1,1.011-1.31A2.752,2.752,0,0,1,51.867,4.191Zm4.3.229v5.774a3.023,3.023,0,0,0,.193,1.23,1.338,1.338,0,0,0,1.345.729,1.758,1.758,0,0,0,1.758-1.037,3.754,3.754,0,0,0,.246-1.485V4.42h2.54V14H59.812V12.646q-.035.044-.176.264a1.764,1.764,0,0,1-.334.387,3.488,3.488,0,0,1-1.138.721,3.879,3.879,0,0,1-1.288.193,2.87,2.87,0,0,1-2.865-1.529,5.852,5.852,0,0,1-.413-2.487V4.42ZM68.443,6.23a1.7,1.7,0,0,0-1.349.545,2.72,2.72,0,0,0-.6,1.477h3.894a2.181,2.181,0,0,0-.6-1.507A1.87,1.87,0,0,0,68.443,6.23Zm0-2.065a5.021,5.021,0,0,1,2.153.448,3.772,3.772,0,0,1,1.582,1.415,4.828,4.828,0,0,1,.729,1.978,12.771,12.771,0,0,1,.079,1.9H66.43a2.381,2.381,0,0,0,.905,2.021,2.132,2.132,0,0,0,1.248.36,1.8,1.8,0,0,0,1.257-.439,2.087,2.087,0,0,0,.466-.659h2.558a3.178,3.178,0,0,1-.888,1.731,4.349,4.349,0,0,1-3.445,1.4,4.858,4.858,0,0,1-3.226-1.178,4.75,4.75,0,0,1-1.4-3.832,5.326,5.326,0,0,1,1.261-3.814A4.312,4.312,0,0,1,68.443,4.165Zm11.408.044a3.548,3.548,0,0,1,2.958,1.362,5.53,5.53,0,0,1,1.068,3.516,6.181,6.181,0,0,1-1.055,3.7,3.815,3.815,0,0,1-4.852.993,3.809,3.809,0,0,1-.932-.984V14H74.586V1.063h2.5V5.668a3.655,3.655,0,0,1,1.046-1.02A3.107,3.107,0,0,1,79.851,4.209Zm-.642,7.98a1.719,1.719,0,0,0,1.5-.782,3.572,3.572,0,0,0,.536-2.057,4.636,4.636,0,0,0-.264-1.687A1.837,1.837,0,0,0,79.139,6.4a1.864,1.864,0,0,0-1.872,1.239A4.651,4.651,0,0,0,77,9.342a3.572,3.572,0,0,0,.545,2.039A1.866,1.866,0,0,0,79.209,12.189ZM90.952,9.342a2.722,2.722,0,0,1-.479.242,4.006,4.006,0,0,1-.664.171l-.562.105a3.632,3.632,0,0,0-1.134.343,1.149,1.149,0,0,0-.58,1.063,1.12,1.12,0,0,0,.356.927,1.34,1.34,0,0,0,.866.286A2.551,2.551,0,0,0,90.244,12a2.024,2.024,0,0,0,.708-1.731ZM89.431,8.173a3.91,3.91,0,0,0,.993-.22.753.753,0,0,0,.536-.712.845.845,0,0,0-.409-.813,2.553,2.553,0,0,0-1.2-.224,1.563,1.563,0,0,0-1.257.439,1.827,1.827,0,0,0-.352.879H85.327a3.676,3.676,0,0,1,.7-2.065,4.09,4.09,0,0,1,3.41-1.266,6.059,6.059,0,0,1,2.795.624,2.4,2.4,0,0,1,1.222,2.355v4.395q0,.457.018,1.107a1.392,1.392,0,0,0,.149.668.9.9,0,0,0,.369.29V14H91.268a2.79,2.79,0,0,1-.158-.545q-.044-.255-.07-.58a5.146,5.146,0,0,1-1.2.958,3.6,3.6,0,0,1-1.828.466,3.143,3.143,0,0,1-2.149-.743,2.649,2.649,0,0,1-.848-2.1,2.732,2.732,0,0,1,1.362-2.558,6.049,6.049,0,0,1,2.2-.615Z" transform="translate(541 12825.5)" fill="#00223d"/>
  </g>
</svg>
