<svg id="Grupo_32981" data-name="Grupo 32981" xmlns="http://www.w3.org/2000/svg" xmlns:xlink="http://www.w3.org/1999/xlink" width="35.292" height="35.29" viewBox="0 0 35.292 35.29">
  <defs>
    <clipPath id="clip-path">
      <rect id="Rectángulo_28232" data-name="Rectángulo 28232" width="35.292" height="35.29" fill="none"/>
    </clipPath>
  </defs>
  <g id="Grupo_26253" data-name="Grupo 26253" transform="translate(0 0)" clip-path="url(#clip-path)">
    <path id="Trazado_67547" data-name="Trazado 67547" d="M35.292,17.646A17.646,17.646,0,1,1,17.645,0,17.646,17.646,0,0,1,35.292,17.646" transform="translate(0 0)" fill="#8acc59"/>
    <path id="Trazado_67548" data-name="Trazado 67548" d="M21.309,21.923l-4.949,4.949a3.1,3.1,0,1,1-4.386-4.384l4.95-4.952a1.475,1.475,0,0,0,0-2.086l-4.3-4.3a3.1,3.1,0,0,1,4.386-4.386l4.3,4.3a7.687,7.687,0,0,1,0,10.859" transform="translate(2.021 1.069)" fill="#fcfcfc"/>
  </g>
</svg>
