<svg xmlns="http://www.w3.org/2000/svg" xmlns:xlink="http://www.w3.org/1999/xlink" width="1514.834" height="615.007" viewBox="0 0 1514.834 615.007">
  <defs>
    <linearGradient id="linear-gradient" x1="0.707" y1="0.337" x2="0.305" y2="0.322" gradientUnits="objectBoundingBox">
      <stop offset="0" stop-color="#8acc59"/>
      <stop offset="0.65" stop-color="#6fd8d8"/>
      <stop offset="1" stop-color="#cfcfcf" stop-opacity="0.02"/>
    </linearGradient>
  </defs>
  <g id="Grupo_43257" data-name="Grupo 43257" transform="translate(866 7519.491)">
    <path id="Trazado_112812" data-name="Trazado 112812" d="M0,0H1514.834V615.007H0Z" transform="translate(648.834 -6904.484) rotate(180)" fill="url(#linear-gradient)"/>
    <g id="Grupo_43256" data-name="Grupo 43256" transform="translate(-847 -7451.318)" opacity="0.144">
      <g id="Grupo_42645" data-name="Grupo 42645" transform="translate(0 95.498)">
        <path id="Trazado_110931" data-name="Trazado 110931" d="M475.242,603.333a8.158,8.158,0,1,1,8.183,8.133A8.158,8.158,0,0,1,475.242,603.333Z" transform="translate(321.81 -595.139)" fill="#fff" opacity="0.05"/>
        <path id="Trazado_110932" data-name="Trazado 110932" d="M473.772,603.34a8.164,8.164,0,1,1,8.195,8.12A8.169,8.169,0,0,1,473.772,603.34Z" transform="translate(305.138 -595.07)" fill="#fff" opacity="0.1"/>
        <path id="Trazado_110933" data-name="Trazado 110933" d="M472.3,603.334a8.158,8.158,0,1,1,8.195,8.133A8.158,8.158,0,0,1,472.3,603.334Z" transform="translate(288.477 -595.002)" fill="#fff" opacity="0.1"/>
        <path id="Trazado_110934" data-name="Trazado 110934" d="M470.834,603.351a8.158,8.158,0,1,1,8.195,8.121A8.17,8.17,0,0,1,470.834,603.351Z" transform="translate(271.817 -594.946)" fill="#fff" opacity="0.15"/>
        <path id="Trazado_110935" data-name="Trazado 110935" d="M469.365,603.357a8.158,8.158,0,1,1,8.183,8.121A8.144,8.144,0,0,1,469.365,603.357Z" transform="translate(255.156 -594.878)" fill="#fff" opacity="0.15"/>
        <path id="Trazado_110936" data-name="Trazado 110936" d="M467.9,603.362a8.164,8.164,0,1,1,8.195,8.133A8.178,8.178,0,0,1,467.9,603.362Z" transform="translate(238.484 -594.821)" fill="#fff"/>
        <path id="Trazado_110937" data-name="Trazado 110937" d="M466.426,603.368a8.164,8.164,0,1,1,8.195,8.121A8.169,8.169,0,0,1,466.426,603.368Z" transform="translate(221.823 -594.753)" fill="#fff" opacity="0.2"/>
        <path id="Trazado_110938" data-name="Trazado 110938" d="M464.957,603.361a8.158,8.158,0,1,1,8.195,8.133A8.15,8.15,0,0,1,464.957,603.361Z" transform="translate(205.163 -594.685)" fill="#fff" opacity="0.4"/>
        <path id="Trazado_110939" data-name="Trazado 110939" d="M463.488,603.379a8.158,8.158,0,1,1,8.182,8.12A8.158,8.158,0,0,1,463.488,603.379Z" transform="translate(188.502 -594.628)" fill="#fff"/>
        <path id="Trazado_110940" data-name="Trazado 110940" d="M462.019,603.373a8.158,8.158,0,1,1,8.182,8.133A8.14,8.14,0,0,1,462.019,603.373Z" transform="translate(171.841 -594.56)" fill="#fff" opacity="0.1"/>
        <path id="Trazado_110941" data-name="Trazado 110941" d="M460.549,603.39a8.164,8.164,0,1,1,8.195,8.133A8.177,8.177,0,0,1,460.549,603.39Z" transform="translate(155.169 -594.504)" fill="#fff" opacity="0.4"/>
        <path id="Trazado_110942" data-name="Trazado 110942" d="M459.08,603.4a8.158,8.158,0,1,1,8.195,8.121A8.163,8.163,0,0,1,459.08,603.4Z" transform="translate(138.509 -594.436)" fill="#fff"/>
        <path id="Trazado_110943" data-name="Trazado 110943" d="M457.611,603.39a8.158,8.158,0,1,1,8.195,8.133A8.141,8.141,0,0,1,457.611,603.39Z" transform="translate(121.848 -594.368)" fill="#fff" opacity="0.1"/>
        <path id="Trazado_110944" data-name="Trazado 110944" d="M456.142,603.407a8.158,8.158,0,1,1,8.182,8.121A8.158,8.158,0,0,1,456.142,603.407Z" transform="translate(105.187 -594.311)" fill="#fff"/>
        <path id="Trazado_110945" data-name="Trazado 110945" d="M454.672,603.413a8.164,8.164,0,1,1,8.195,8.12A8.161,8.161,0,0,1,454.672,603.413Z" transform="translate(88.515 -594.242)" fill="#fff" opacity="0.4"/>
        <path id="Trazado_110946" data-name="Trazado 110946" d="M453.2,603.418a8.158,8.158,0,1,1,8.195,8.133A8.176,8.176,0,0,1,453.2,603.418Z" transform="translate(71.854 -594.186)" fill="#fff" opacity="0.4"/>
        <path id="Trazado_110947" data-name="Trazado 110947" d="M451.734,603.424a8.158,8.158,0,1,1,8.195,8.121A8.161,8.161,0,0,1,451.734,603.424Z" transform="translate(55.193 -594.118)" fill="#fff" opacity="0.4"/>
        <path id="Trazado_110948" data-name="Trazado 110948" d="M450.265,603.417a8.158,8.158,0,1,1,8.183,8.133A8.141,8.141,0,0,1,450.265,603.417Z" transform="translate(38.534 -594.05)" fill="#fff"/>
        <path id="Trazado_110949" data-name="Trazado 110949" d="M448.795,603.435a8.164,8.164,0,1,1,8.195,8.133A8.177,8.177,0,0,1,448.795,603.435Z" transform="translate(21.861 -593.994)" fill="#fff" opacity="0.4"/>
        <path id="Trazado_110950" data-name="Trazado 110950" d="M447.326,603.429a8.164,8.164,0,1,1,8.195,8.133A8.16,8.16,0,0,1,447.326,603.429Z" transform="translate(5.201 -593.925)" fill="#fff" opacity="0.1"/>
        <path id="Trazado_110951" data-name="Trazado 110951" d="M445.857,603.446a8.158,8.158,0,1,1,8.195,8.133A8.169,8.169,0,0,1,445.857,603.446Z" transform="translate(-11.46 -593.869)" fill="#fff" opacity="0.1"/>
        <path id="Trazado_110952" data-name="Trazado 110952" d="M444.388,603.452a8.158,8.158,0,1,1,8.183,8.12A8.151,8.151,0,0,1,444.388,603.452Z" transform="translate(-28.121 -593.8)" fill="#fff" opacity="0.4"/>
        <path id="Trazado_110953" data-name="Trazado 110953" d="M442.919,603.446a8.158,8.158,0,1,1,8.182,8.133A8.14,8.14,0,0,1,442.919,603.446Z" transform="translate(-44.781 -593.732)" fill="#fff"/>
        <path id="Trazado_110954" data-name="Trazado 110954" d="M441.449,603.463a8.164,8.164,0,1,1,8.195,8.133A8.177,8.177,0,0,1,441.449,603.463Z" transform="translate(-61.454 -593.676)" fill="#fff"/>
        <path id="Trazado_110955" data-name="Trazado 110955" d="M439.98,603.457a8.158,8.158,0,1,1,8.194,8.133A8.159,8.159,0,0,1,439.98,603.457Z" transform="translate(-78.115 -593.608)" fill="#fff" opacity="0.4"/>
        <path id="Trazado_110956" data-name="Trazado 110956" d="M438.511,603.474a8.158,8.158,0,1,1,8.195,8.133A8.159,8.159,0,0,1,438.511,603.474Z" transform="translate(-94.775 -593.551)" fill="#fff" opacity="0.1"/>
        <path id="Trazado_110957" data-name="Trazado 110957" d="M437.042,603.48a8.158,8.158,0,1,1,8.182,8.121A8.151,8.151,0,0,1,437.042,603.48Z" transform="translate(-111.436 -593.483)" fill="#fff"/>
        <path id="Trazado_110958" data-name="Trazado 110958" d="M435.572,603.485a8.164,8.164,0,1,1,8.195,8.133A8.178,8.178,0,0,1,435.572,603.485Z" transform="translate(-128.108 -593.426)" fill="#fff" opacity="0.4"/>
        <path id="Trazado_110959" data-name="Trazado 110959" d="M434.1,603.491a8.158,8.158,0,1,1,8.194,8.12A8.176,8.176,0,0,1,434.1,603.491Z" transform="translate(-144.769 -593.358)" fill="#fff"/>
        <path id="Trazado_110960" data-name="Trazado 110960" d="M432.634,603.484a8.158,8.158,0,1,1,8.195,8.133A8.151,8.151,0,0,1,432.634,603.484Z" transform="translate(-161.429 -593.29)" fill="#fff" opacity="0.4"/>
        <path id="Trazado_110961" data-name="Trazado 110961" d="M431.165,603.5a8.158,8.158,0,1,1,8.182,8.133A8.158,8.158,0,0,1,431.165,603.5Z" transform="translate(-178.09 -593.233)" fill="#fff" opacity="0.15"/>
        <path id="Trazado_110962" data-name="Trazado 110962" d="M429.7,603.508a8.164,8.164,0,1,1,8.195,8.121A8.162,8.162,0,0,1,429.7,603.508Z" transform="translate(-194.762 -593.165)" fill="#fff"/>
        <path id="Trazado_110963" data-name="Trazado 110963" d="M428.226,603.513a8.164,8.164,0,1,1,8.195,8.133A8.178,8.178,0,0,1,428.226,603.513Z" transform="translate(-211.422 -593.109)" fill="#fff"/>
        <path id="Trazado_110964" data-name="Trazado 110964" d="M426.757,603.519a8.158,8.158,0,1,1,8.195,8.121A8.178,8.178,0,0,1,426.757,603.519Z" transform="translate(-228.083 -593.041)" fill="#fff" opacity="0.1"/>
        <path id="Trazado_110965" data-name="Trazado 110965" d="M425.288,603.512a8.158,8.158,0,1,1,8.182,8.133A8.14,8.14,0,0,1,425.288,603.512Z" transform="translate(-244.744 -592.972)" fill="#fff" opacity="0.1"/>
        <path id="Trazado_110966" data-name="Trazado 110966" d="M423.819,603.53A8.158,8.158,0,1,1,432,611.663,8.158,8.158,0,0,1,423.819,603.53Z" transform="translate(-261.404 -592.915)" fill="#fff" opacity="0.15"/>
        <path id="Trazado_110967" data-name="Trazado 110967" d="M422.349,603.536a8.164,8.164,0,1,1,8.195,8.121A8.161,8.161,0,0,1,422.349,603.536Z" transform="translate(-278.076 -592.848)" fill="#fff" opacity="0.4"/>
        <path id="Trazado_110968" data-name="Trazado 110968" d="M420.88,603.541a8.158,8.158,0,1,1,8.195,8.133A8.177,8.177,0,0,1,420.88,603.541Z" transform="translate(-294.737 -592.791)" fill="#fff"/>
        <path id="Trazado_110969" data-name="Trazado 110969" d="M419.411,603.546a8.158,8.158,0,1,1,8.195,8.121A8.151,8.151,0,0,1,419.411,603.546Z" transform="translate(-311.397 -592.723)" fill="#fff" opacity="0.15"/>
        <path id="Trazado_110970" data-name="Trazado 110970" d="M417.942,603.541a8.158,8.158,0,1,1,8.183,8.133A8.141,8.141,0,0,1,417.942,603.541Z" transform="translate(-328.059 -592.655)" fill="#fff" opacity="0.15"/>
        <path id="Trazado_110971" data-name="Trazado 110971" d="M416.472,603.558a8.164,8.164,0,1,1,8.195,8.133A8.178,8.178,0,0,1,416.472,603.558Z" transform="translate(-344.731 -592.598)" fill="#fff"/>
        <path id="Trazado_110972" data-name="Trazado 110972" d="M415,603.564a8.158,8.158,0,1,1,8.195,8.12A8.161,8.161,0,0,1,415,603.564Z" transform="translate(-361.391 -592.53)" fill="#fff" opacity="0.4"/>
        <path id="Trazado_110973" data-name="Trazado 110973" d="M413.534,603.569a8.158,8.158,0,1,1,8.195,8.133A8.169,8.169,0,0,1,413.534,603.569Z" transform="translate(-378.052 -592.473)" fill="#fff" opacity="0.1"/>
        <path id="Trazado_110974" data-name="Trazado 110974" d="M412.065,603.575a8.158,8.158,0,1,1,8.182,8.121A8.159,8.159,0,0,1,412.065,603.575Z" transform="translate(-394.713 -592.406)" fill="#fff" opacity="0.1"/>
        <path id="Trazado_110975" data-name="Trazado 110975" d="M418,595.386a8.128,8.128,0,0,0-7.343,4.69V607A8.154,8.154,0,1,0,418,595.386Z" transform="translate(-410.659 -592.338)" fill="#fff" opacity="0.4"/>
      </g>
      <g id="Grupo_42646" data-name="Grupo 42646" transform="translate(0 123.921)" opacity="0.59">
        <path id="Trazado_110976" data-name="Trazado 110976" d="M489.785,597.466c-.185-.012-.37-.024-.567-.024a8.164,8.164,0,0,0,.062,16.328l.505-.037Z" transform="translate(388.215 -597.442)" fill="#fff"/>
        <path id="Trazado_110977" data-name="Trazado 110977" d="M479.627,605.631a8.164,8.164,0,1,1,8.194,8.133A8.159,8.159,0,0,1,479.627,605.631Z" transform="translate(371.543 -597.374)" fill="#fff"/>
        <path id="Trazado_110978" data-name="Trazado 110978" d="M478.158,605.647a8.164,8.164,0,1,1,8.195,8.133A8.177,8.177,0,0,1,478.158,605.647Z" transform="translate(354.882 -597.318)" fill="#fff"/>
        <path id="Trazado_110979" data-name="Trazado 110979" d="M476.689,605.654a8.158,8.158,0,1,1,8.194,8.121A8.161,8.161,0,0,1,476.689,605.654Z" transform="translate(338.221 -597.25)" fill="#fff"/>
        <path id="Trazado_110980" data-name="Trazado 110980" d="M475.22,605.647a8.158,8.158,0,1,1,8.183,8.133A8.14,8.14,0,0,1,475.22,605.647Z" transform="translate(321.56 -597.181)" fill="#fff"/>
        <path id="Trazado_110981" data-name="Trazado 110981" d="M473.751,605.665a8.158,8.158,0,1,1,8.182,8.134A8.159,8.159,0,0,1,473.751,605.665Z" transform="translate(304.9 -597.125)" fill="#fff"/>
        <path id="Trazado_110982" data-name="Trazado 110982" d="M472.281,605.658a8.164,8.164,0,1,1,8.195,8.133A8.158,8.158,0,0,1,472.281,605.658Z" transform="translate(288.228 -597.056)" fill="#fff"/>
        <path id="Trazado_110983" data-name="Trazado 110983" d="M470.812,605.676a8.158,8.158,0,1,1,8.195,8.133A8.177,8.177,0,0,1,470.812,605.676Z" transform="translate(271.567 -597)" fill="#fff"/>
        <path id="Trazado_110984" data-name="Trazado 110984" d="M469.343,605.682a8.158,8.158,0,1,1,8.195,8.121A8.151,8.151,0,0,1,469.343,605.682Z" transform="translate(254.907 -596.932)" fill="#fff"/>
        <path id="Trazado_110985" data-name="Trazado 110985" d="M467.874,605.676a8.158,8.158,0,1,1,8.182,8.133A8.141,8.141,0,0,1,467.874,605.676Z" transform="translate(238.246 -596.864)" fill="#fff" opacity="0.4"/>
        <path id="Trazado_110986" data-name="Trazado 110986" d="M466.4,605.692a8.164,8.164,0,1,1,8.195,8.121A8.178,8.178,0,0,1,466.4,605.692Z" transform="translate(221.573 -596.807)" fill="#fff" opacity="0.4"/>
        <path id="Trazado_110987" data-name="Trazado 110987" d="M464.935,605.686a8.158,8.158,0,1,1,8.195,8.133A8.159,8.159,0,0,1,464.935,605.686Z" transform="translate(204.913 -596.738)" fill="#fff" opacity="0.15"/>
        <path id="Trazado_110988" data-name="Trazado 110988" d="M463.466,605.7a8.158,8.158,0,1,1,8.195,8.133A8.169,8.169,0,0,1,463.466,605.7Z" transform="translate(188.252 -596.682)" fill="#fff"/>
        <path id="Trazado_110989" data-name="Trazado 110989" d="M462,605.71a8.158,8.158,0,1,1,8.183,8.12A8.151,8.151,0,0,1,462,605.71Z" transform="translate(171.592 -596.614)" fill="#fff" opacity="0.4"/>
        <path id="Trazado_110990" data-name="Trazado 110990" d="M460.527,605.7a8.164,8.164,0,1,1,8.194,8.133A8.158,8.158,0,0,1,460.527,605.7Z" transform="translate(154.919 -596.546)" fill="#fff" opacity="0.1"/>
        <path id="Trazado_110991" data-name="Trazado 110991" d="M459.058,605.721a8.164,8.164,0,1,1,8.194,8.133A8.177,8.177,0,0,1,459.058,605.721Z" transform="translate(138.259 -596.49)" fill="#fff"/>
        <path id="Trazado_110992" data-name="Trazado 110992" d="M457.589,605.715a8.158,8.158,0,1,1,8.195,8.133A8.152,8.152,0,0,1,457.589,605.715Z" transform="translate(121.598 -596.422)" fill="#fff"/>
        <path id="Trazado_110993" data-name="Trazado 110993" d="M456.12,605.732a8.158,8.158,0,1,1,8.183,8.133A8.159,8.159,0,0,1,456.12,605.732Z" transform="translate(104.938 -596.365)" fill="#fff"/>
        <path id="Trazado_110994" data-name="Trazado 110994" d="M454.651,605.737a8.158,8.158,0,1,1,8.182,8.121A8.15,8.15,0,0,1,454.651,605.737Z" transform="translate(88.277 -596.296)" fill="#fff"/>
        <path id="Trazado_110995" data-name="Trazado 110995" d="M453.181,605.731a8.164,8.164,0,1,1,8.195,8.133A8.159,8.159,0,0,1,453.181,605.731Z" transform="translate(71.605 -596.228)" fill="#fff" opacity="0.15"/>
        <path id="Trazado_110996" data-name="Trazado 110996" d="M451.712,605.749a8.158,8.158,0,1,1,8.195,8.133A8.177,8.177,0,0,1,451.712,605.749Z" transform="translate(54.944 -596.172)" fill="#fff"/>
        <path id="Trazado_110997" data-name="Trazado 110997" d="M450.243,605.755a8.158,8.158,0,1,1,8.195,8.121A8.143,8.143,0,0,1,450.243,605.755Z" transform="translate(38.284 -596.104)" fill="#fff"/>
        <path id="Trazado_110998" data-name="Trazado 110998" d="M448.774,605.76a8.158,8.158,0,1,1,8.183,8.133A8.159,8.159,0,0,1,448.774,605.76Z" transform="translate(21.623 -596.047)" fill="#fff"/>
        <path id="Trazado_110999" data-name="Trazado 110999" d="M447.3,605.766a8.164,8.164,0,1,1,8.195,8.121A8.169,8.169,0,0,1,447.3,605.766Z" transform="translate(4.95 -595.98)" fill="#fff" opacity="0.1"/>
        <path id="Trazado_111000" data-name="Trazado 111000" d="M445.835,605.759a8.158,8.158,0,1,1,8.195,8.133A8.159,8.159,0,0,1,445.835,605.759Z" transform="translate(-11.71 -595.911)" fill="#fff" opacity="0.4"/>
        <path id="Trazado_111001" data-name="Trazado 111001" d="M444.366,605.777a8.158,8.158,0,1,1,8.195,8.134A8.17,8.17,0,0,1,444.366,605.777Z" transform="translate(-28.37 -595.855)" fill="#fff" opacity="0.15"/>
        <path id="Trazado_111002" data-name="Trazado 111002" d="M442.9,605.77a8.158,8.158,0,1,1,8.182,8.133A8.139,8.139,0,0,1,442.9,605.77Z" transform="translate(-45.031 -595.786)" fill="#fff" opacity="0.1"/>
        <path id="Trazado_111003" data-name="Trazado 111003" d="M441.427,605.788a8.164,8.164,0,1,1,8.195,8.133A8.177,8.177,0,0,1,441.427,605.788Z" transform="translate(-61.703 -595.729)" fill="#fff"/>
        <path id="Trazado_111004" data-name="Trazado 111004" d="M439.958,605.794a8.164,8.164,0,1,1,8.195,8.121A8.161,8.161,0,0,1,439.958,605.794Z" transform="translate(-78.364 -595.662)" fill="#fff" opacity="0.1"/>
        <path id="Trazado_111005" data-name="Trazado 111005" d="M438.489,605.788a8.158,8.158,0,1,1,8.195,8.133A8.159,8.159,0,0,1,438.489,605.788Z" transform="translate(-95.025 -595.594)" fill="#fff" opacity="0.1"/>
        <path id="Trazado_111006" data-name="Trazado 111006" d="M437.02,605.8a8.158,8.158,0,1,1,8.183,8.133A8.152,8.152,0,0,1,437.02,605.8Z" transform="translate(-111.685 -595.537)" fill="#fff" opacity="0.15"/>
        <path id="Trazado_111007" data-name="Trazado 111007" d="M435.551,605.8a8.158,8.158,0,1,1,8.183,8.133A8.14,8.14,0,0,1,435.551,605.8Z" transform="translate(-128.346 -595.469)" fill="#fff" opacity="0.4"/>
        <path id="Trazado_111008" data-name="Trazado 111008" d="M434.081,605.816a8.164,8.164,0,1,1,8.195,8.133A8.178,8.178,0,0,1,434.081,605.816Z" transform="translate(-145.018 -595.412)" fill="#fff"/>
        <path id="Trazado_111009" data-name="Trazado 111009" d="M432.612,605.822a8.158,8.158,0,1,1,8.195,8.12A8.16,8.16,0,0,1,432.612,605.822Z" transform="translate(-161.678 -595.344)" fill="#fff"/>
        <path id="Trazado_111010" data-name="Trazado 111010" d="M431.143,605.827a8.158,8.158,0,1,1,8.194,8.133A8.158,8.158,0,0,1,431.143,605.827Z" transform="translate(-178.339 -595.287)" fill="#fff"/>
        <path id="Trazado_111011" data-name="Trazado 111011" d="M429.674,605.833a8.158,8.158,0,1,1,8.183,8.121A8.151,8.151,0,0,1,429.674,605.833Z" transform="translate(-195 -595.219)" fill="#fff"/>
        <path id="Trazado_111012" data-name="Trazado 111012" d="M428.2,605.827a8.164,8.164,0,1,1,8.195,8.133A8.159,8.159,0,0,1,428.2,605.827Z" transform="translate(-211.672 -595.151)" fill="#fff" opacity="0.4"/>
        <path id="Trazado_111013" data-name="Trazado 111013" d="M426.735,605.844a8.158,8.158,0,1,1,8.195,8.133A8.178,8.178,0,0,1,426.735,605.844Z" transform="translate(-228.333 -595.095)" fill="#fff" opacity="0.1"/>
        <path id="Trazado_111014" data-name="Trazado 111014" d="M425.266,605.849a8.158,8.158,0,1,1,8.194,8.121A8.153,8.153,0,0,1,425.266,605.849Z" transform="translate(-244.994 -595.026)" fill="#fff" opacity="0.1"/>
        <path id="Trazado_111015" data-name="Trazado 111015" d="M423.8,605.843a8.158,8.158,0,1,1,8.183,8.133A8.14,8.14,0,0,1,423.8,605.843Z" transform="translate(-261.654 -594.958)" fill="#fff" opacity="0.4"/>
        <path id="Trazado_111016" data-name="Trazado 111016" d="M422.327,605.861a8.164,8.164,0,1,1,8.195,8.121A8.169,8.169,0,0,1,422.327,605.861Z" transform="translate(-278.326 -594.902)" fill="#fff" opacity="0.4"/>
        <path id="Trazado_111017" data-name="Trazado 111017" d="M420.858,605.855a8.164,8.164,0,1,1,8.195,8.133A8.158,8.158,0,0,1,420.858,605.855Z" transform="translate(-294.987 -594.834)" fill="#fff"/>
        <path id="Trazado_111018" data-name="Trazado 111018" d="M419.389,605.872A8.158,8.158,0,1,1,427.583,614,8.178,8.178,0,0,1,419.389,605.872Z" transform="translate(-311.647 -594.777)" fill="#fff"/>
        <path id="Trazado_111019" data-name="Trazado 111019" d="M417.92,605.877A8.158,8.158,0,1,1,426.1,614,8.144,8.144,0,0,1,417.92,605.877Z" transform="translate(-328.308 -594.709)" fill="#fff"/>
        <path id="Trazado_111020" data-name="Trazado 111020" d="M416.451,605.871A8.158,8.158,0,1,1,424.634,614,8.14,8.14,0,0,1,416.451,605.871Z" transform="translate(-344.969 -594.64)" fill="#fff"/>
        <path id="Trazado_111021" data-name="Trazado 111021" d="M414.981,605.889a8.164,8.164,0,1,1,8.195,8.121A8.17,8.17,0,0,1,414.981,605.889Z" transform="translate(-361.641 -594.584)" fill="#fff"/>
        <path id="Trazado_111022" data-name="Trazado 111022" d="M413.512,605.882a8.158,8.158,0,1,1,8.195,8.133A8.158,8.158,0,0,1,413.512,605.882Z" transform="translate(-378.301 -594.516)" fill="#fff" opacity="0.1"/>
        <path id="Trazado_111023" data-name="Trazado 111023" d="M412.043,605.9a8.158,8.158,0,1,1,8.195,8.133A8.161,8.161,0,0,1,412.043,605.9Z" transform="translate(-394.962 -594.459)" fill="#fff"/>
        <path id="Trazado_111024" data-name="Trazado 111024" d="M417.73,597.711a8.13,8.13,0,0,0-7.071,4.172v7.984a8.157,8.157,0,1,0,7.071-12.156Z" transform="translate(-410.659 -594.391)" fill="#fff" opacity="0.1"/>
      </g>
      <g id="Grupo_42647" data-name="Grupo 42647" transform="translate(0 147.074)">
        <path id="Trazado_111025" data-name="Trazado 111025" d="M469.35,607.513a8.158,8.158,0,1,1,8.183,8.121A8.151,8.151,0,0,1,469.35,607.513Z" transform="translate(254.986 -599.318)" fill="#fff" opacity="0.05"/>
        <path id="Trazado_111026" data-name="Trazado 111026" d="M467.881,607.506a8.158,8.158,0,1,1,8.183,8.133A8.141,8.141,0,0,1,467.881,607.506Z" transform="translate(238.326 -599.25)" fill="#fff" opacity="0.1"/>
        <path id="Trazado_111027" data-name="Trazado 111027" d="M466.411,607.524a8.164,8.164,0,1,1,8.195,8.121A8.177,8.177,0,0,1,466.411,607.524Z" transform="translate(221.653 -599.193)" fill="#fff" opacity="0.4"/>
        <path id="Trazado_111028" data-name="Trazado 111028" d="M464.942,607.517a8.158,8.158,0,1,1,8.195,8.133A8.159,8.159,0,0,1,464.942,607.517Z" transform="translate(204.992 -599.125)" fill="#fff"/>
        <path id="Trazado_111029" data-name="Trazado 111029" d="M463.473,607.535a8.158,8.158,0,1,1,8.195,8.133A8.169,8.169,0,0,1,463.473,607.535Z" transform="translate(188.332 -599.068)" fill="#fff" opacity="0.15"/>
        <path id="Trazado_111030" data-name="Trazado 111030" d="M462,607.541a8.158,8.158,0,1,1,8.183,8.121A8.151,8.151,0,0,1,462,607.541Z" transform="translate(171.671 -599)" fill="#fff"/>
        <path id="Trazado_111031" data-name="Trazado 111031" d="M460.534,607.535a8.164,8.164,0,1,1,8.195,8.133A8.159,8.159,0,0,1,460.534,607.535Z" transform="translate(154.999 -598.932)" fill="#fff" opacity="0.4"/>
        <path id="Trazado_111032" data-name="Trazado 111032" d="M459.065,607.552a8.164,8.164,0,1,1,8.195,8.121A8.177,8.177,0,0,1,459.065,607.552Z" transform="translate(138.338 -598.876)" fill="#fff" opacity="0.4"/>
        <path id="Trazado_111033" data-name="Trazado 111033" d="M457.6,607.546a8.158,8.158,0,1,1,8.195,8.133A8.152,8.152,0,0,1,457.6,607.546Z" transform="translate(121.678 -598.808)" fill="#fff"/>
        <path id="Trazado_111034" data-name="Trazado 111034" d="M445.842,607.6a8.158,8.158,0,1,1,8.195,8.133A8.177,8.177,0,0,1,445.842,607.6Z" transform="translate(-11.63 -598.308)" fill="#fff" opacity="0.15"/>
        <path id="Trazado_111035" data-name="Trazado 111035" d="M444.373,607.608a8.158,8.158,0,1,1,8.195,8.12A8.168,8.168,0,0,1,444.373,607.608Z" transform="translate(-28.291 -598.24)" fill="#fff"/>
        <path id="Trazado_111036" data-name="Trazado 111036" d="M442.9,607.6a8.158,8.158,0,1,1,8.183,8.134A8.141,8.141,0,0,1,442.9,607.6Z" transform="translate(-44.952 -598.172)" fill="#fff" opacity="0.4"/>
        <path id="Trazado_111037" data-name="Trazado 111037" d="M441.434,607.619a8.164,8.164,0,1,1,8.195,8.133A8.178,8.178,0,0,1,441.434,607.619Z" transform="translate(-61.624 -598.116)" fill="#fff" opacity="0.1"/>
        <path id="Trazado_111038" data-name="Trazado 111038" d="M439.965,607.625a8.164,8.164,0,1,1,8.195,8.121A8.162,8.162,0,0,1,439.965,607.625Z" transform="translate(-78.284 -598.048)" fill="#fff"/>
        <path id="Trazado_111039" data-name="Trazado 111039" d="M438.5,607.63a8.158,8.158,0,1,1,8.195,8.133A8.169,8.169,0,0,1,438.5,607.63Z" transform="translate(-94.945 -597.991)" fill="#fff" opacity="0.4"/>
        <path id="Trazado_111040" data-name="Trazado 111040" d="M437.027,607.636a8.158,8.158,0,1,1,8.183,8.121A8.152,8.152,0,0,1,437.027,607.636Z" transform="translate(-111.606 -597.923)" fill="#fff" opacity="0.4"/>
        <path id="Trazado_111041" data-name="Trazado 111041" d="M435.558,607.629a8.158,8.158,0,1,1,8.182,8.133A8.14,8.14,0,0,1,435.558,607.629Z" transform="translate(-128.266 -597.854)" fill="#fff"/>
        <path id="Trazado_111042" data-name="Trazado 111042" d="M434.088,607.647a8.164,8.164,0,1,1,8.195,8.133A8.176,8.176,0,0,1,434.088,607.647Z" transform="translate(-144.938 -597.798)" fill="#fff" opacity="0.15"/>
        <path id="Trazado_111043" data-name="Trazado 111043" d="M432.619,607.64a8.158,8.158,0,1,1,8.195,8.134A8.158,8.158,0,0,1,432.619,607.64Z" transform="translate(-161.6 -597.73)" fill="#fff"/>
        <path id="Trazado_111044" data-name="Trazado 111044" d="M412.05,607.73a8.158,8.158,0,1,1,8.195,8.133A8.159,8.159,0,0,1,412.05,607.73Z" transform="translate(-394.883 -596.845)" fill="#fff"/>
        <path id="Trazado_111045" data-name="Trazado 111045" d="M417.817,599.542a8.139,8.139,0,0,0-7.158,4.307v7.688a8.157,8.157,0,1,0,7.158-12Z" transform="translate(-410.659 -596.777)" fill="#fff"/>
      </g>
      <g id="Grupo_42648" data-name="Grupo 42648" transform="translate(305.502 324.298)">
        <path id="Trazado_111046" data-name="Trazado 111046" d="M491.35,613.987a8.552,8.552,0,0,0-2.271-.309,8.158,8.158,0,0,0,.074,16.315,7.618,7.618,0,0,0,2.2-.321Z" transform="translate(81.148 -613.678)" fill="#fff"/>
        <path id="Trazado_111047" data-name="Trazado 111047" d="M479.49,621.878a8.158,8.158,0,1,1,8.183,8.133A8.159,8.159,0,0,1,479.49,621.878Z" transform="translate(64.487 -613.621)" fill="#fff" opacity="0.4"/>
        <path id="Trazado_111048" data-name="Trazado 111048" d="M478.02,621.884a8.164,8.164,0,1,1,8.195,8.12A8.176,8.176,0,0,1,478.02,621.884Z" transform="translate(47.815 -613.553)" fill="#fff" opacity="0.1"/>
        <path id="Trazado_111049" data-name="Trazado 111049" d="M476.551,621.877a8.158,8.158,0,1,1,8.194,8.134A8.158,8.158,0,0,1,476.551,621.877Z" transform="translate(31.154 -613.485)" fill="#fff"/>
        <path id="Trazado_111050" data-name="Trazado 111050" d="M475.082,621.895a8.158,8.158,0,1,1,8.195,8.133A8.169,8.169,0,0,1,475.082,621.895Z" transform="translate(14.494 -613.428)" fill="#fff" opacity="0.4"/>
        <path id="Trazado_111051" data-name="Trazado 111051" d="M473.613,621.9a8.158,8.158,0,1,1,8.182,8.121A8.143,8.143,0,0,1,473.613,621.9Z" transform="translate(-2.167 -613.36)" fill="#fff" opacity="0.4"/>
        <path id="Trazado_111052" data-name="Trazado 111052" d="M472.143,621.906a8.164,8.164,0,1,1,8.195,8.133A8.177,8.177,0,0,1,472.143,621.906Z" transform="translate(-18.839 -613.303)" fill="#fff"/>
        <path id="Trazado_111053" data-name="Trazado 111053" d="M470.674,621.912a8.164,8.164,0,1,1,8.195,8.121A8.17,8.17,0,0,1,470.674,621.912Z" transform="translate(-35.499 -613.235)" fill="#fff" opacity="0.15"/>
        <path id="Trazado_111054" data-name="Trazado 111054" d="M469.205,621.905a8.158,8.158,0,1,1,8.195,8.133A8.159,8.159,0,0,1,469.205,621.905Z" transform="translate(-52.161 -613.167)" fill="#fff"/>
        <path id="Trazado_111055" data-name="Trazado 111055" d="M448.636,622a8.158,8.158,0,1,1,8.183,8.12A8.15,8.15,0,0,1,448.636,622Z" transform="translate(-285.444 -612.283)" fill="#fff"/>
        <path id="Trazado_111056" data-name="Trazado 111056" d="M447.167,621.989a8.158,8.158,0,1,1,8.182,8.133A8.139,8.139,0,0,1,447.167,621.989Z" transform="translate(-302.105 -612.215)" fill="#fff"/>
        <path id="Trazado_111057" data-name="Trazado 111057" d="M445.7,622.007a8.164,8.164,0,1,1,8.195,8.133A8.178,8.178,0,0,1,445.7,622.007Z" transform="translate(-318.777 -612.158)" fill="#fff" opacity="0.4"/>
        <path id="Trazado_111058" data-name="Trazado 111058" d="M444.228,622a8.158,8.158,0,1,1,8.195,8.133A8.159,8.159,0,0,1,444.228,622Z" transform="translate(-335.438 -612.09)" fill="#fff" opacity="0.1"/>
        <path id="Trazado_111059" data-name="Trazado 111059" d="M442.759,622.018a8.158,8.158,0,1,1,8.195,8.133A8.161,8.161,0,0,1,442.759,622.018Z" transform="translate(-352.098 -612.033)" fill="#fff" opacity="0.1"/>
        <path id="Trazado_111060" data-name="Trazado 111060" d="M441.29,622.024a8.158,8.158,0,1,1,8.183,8.121A8.151,8.151,0,0,1,441.29,622.024Z" transform="translate(-368.759 -611.966)" fill="#fff" opacity="0.4"/>
        <path id="Trazado_111061" data-name="Trazado 111061" d="M439.82,622.017a8.164,8.164,0,1,1,8.195,8.133A8.159,8.159,0,0,1,439.82,622.017Z" transform="translate(-385.431 -611.897)" fill="#fff" opacity="0.4"/>
        <path id="Trazado_111062" data-name="Trazado 111062" d="M438.351,622.035a8.158,8.158,0,1,1,8.195,8.133A8.176,8.176,0,0,1,438.351,622.035Z" transform="translate(-402.091 -611.84)" fill="#fff"/>
        <path id="Trazado_111063" data-name="Trazado 111063" d="M436.882,622.028a8.158,8.158,0,1,1,8.195,8.134A8.15,8.15,0,0,1,436.882,622.028Z" transform="translate(-418.753 -611.772)" fill="#fff" opacity="0.4"/>
        <path id="Trazado_111064" data-name="Trazado 111064" d="M435.413,622.046a8.158,8.158,0,1,1,8.183,8.133A8.159,8.159,0,0,1,435.413,622.046Z" transform="translate(-435.413 -611.716)" fill="#fff" opacity="0.4"/>
      </g>
      <g id="Grupo_42649" data-name="Grupo 42649" transform="translate(798.385 351.622)">
        <path id="Trazado_111065" data-name="Trazado 111065" d="M488.311,615.892a8.154,8.154,0,0,0,0,16.167Z" transform="translate(-408.696 -615.892)" fill="#fff" opacity="0.4"/>
        <path id="Trazado_111066" data-name="Trazado 111066" d="M479.758,624.074a8.158,8.158,0,1,1,8.195,8.133A8.142,8.142,0,0,1,479.758,624.074Z" transform="translate(-425.357 -615.892)" fill="#fff" opacity="0.4"/>
        <path id="Trazado_111067" data-name="Trazado 111067" d="M478.289,624.092a8.158,8.158,0,1,1,8.183,8.133A8.159,8.159,0,0,1,478.289,624.092Z" transform="translate(-442.017 -615.836)" fill="#fff"/>
        <path id="Trazado_111068" data-name="Trazado 111068" d="M476.819,624.1a8.164,8.164,0,1,1,8.195,8.12A8.162,8.162,0,0,1,476.819,624.1Z" transform="translate(-458.689 -615.767)" fill="#fff" opacity="0.4"/>
        <path id="Trazado_111069" data-name="Trazado 111069" d="M475.35,624.092a8.158,8.158,0,1,1,8.195,8.133A8.158,8.158,0,0,1,475.35,624.092Z" transform="translate(-475.35 -615.7)" fill="#fff" opacity="0.4"/>
      </g>
      <g id="Grupo_42650" data-name="Grupo 42650" transform="translate(633.749 168.449)">
        <path id="Trazado_111070" data-name="Trazado 111070" d="M475.233,609.233a8.164,8.164,0,1,1,8.195,8.133A8.159,8.159,0,0,1,475.233,609.233Z" transform="translate(-312.042 -601.05)" fill="#fff"/>
        <path id="Trazado_111071" data-name="Trazado 111071" d="M473.764,609.25a8.164,8.164,0,1,1,8.195,8.133A8.178,8.178,0,0,1,473.764,609.25Z" transform="translate(-328.702 -600.993)" fill="#fff"/>
        <path id="Trazado_111072" data-name="Trazado 111072" d="M472.295,609.255a8.158,8.158,0,1,1,8.195,8.121A8.161,8.161,0,0,1,472.295,609.255Z" transform="translate(-345.362 -600.925)" fill="#fff" opacity="0.4"/>
        <path id="Trazado_111073" data-name="Trazado 111073" d="M470.826,609.249a8.158,8.158,0,1,1,8.183,8.133A8.14,8.14,0,0,1,470.826,609.249Z" transform="translate(-362.024 -600.857)" fill="#fff" opacity="0.1"/>
        <path id="Trazado_111074" data-name="Trazado 111074" d="M469.357,609.267a8.158,8.158,0,1,1,8.183,8.12A8.158,8.158,0,0,1,469.357,609.267Z" transform="translate(-378.684 -600.8)" fill="#fff" opacity="0.1"/>
        <path id="Trazado_111075" data-name="Trazado 111075" d="M467.887,609.261a8.164,8.164,0,1,1,8.195,8.133A8.159,8.159,0,0,1,467.887,609.261Z" transform="translate(-395.356 -600.732)" fill="#fff" opacity="0.4"/>
        <path id="Trazado_111076" data-name="Trazado 111076" d="M466.418,609.278a8.158,8.158,0,1,1,8.195,8.133A8.177,8.177,0,0,1,466.418,609.278Z" transform="translate(-412.017 -600.675)" fill="#fff" opacity="0.4"/>
        <path id="Trazado_111077" data-name="Trazado 111077" d="M464.949,609.284a8.158,8.158,0,1,1,8.183,8.121A8.151,8.151,0,0,1,464.949,609.284Z" transform="translate(-428.677 -600.608)" fill="#fff"/>
        <path id="Trazado_111078" data-name="Trazado 111078" d="M463.48,609.289a8.158,8.158,0,1,1,8.182,8.133A8.159,8.159,0,0,1,463.48,609.289Z" transform="translate(-445.338 -600.551)" fill="#fff" opacity="0.4"/>
        <path id="Trazado_111079" data-name="Trazado 111079" d="M462.01,609.295a8.164,8.164,0,1,1,8.195,8.121A8.177,8.177,0,0,1,462.01,609.295Z" transform="translate(-462.01 -600.483)" fill="#fff" opacity="0.4"/>
      </g>
      <g id="Grupo_42651" data-name="Grupo 42651" transform="translate(451.428 10.885)">
        <path id="Trazado_111080" data-name="Trazado 111080" d="M475.153,596.478a8.158,8.158,0,1,1,8.182,8.12A8.15,8.15,0,0,1,475.153,596.478Z" transform="translate(-130.627 -588.283)" fill="#fff" opacity="0.4"/>
        <path id="Trazado_111081" data-name="Trazado 111081" d="M473.683,596.472a8.164,8.164,0,1,1,8.194,8.133A8.158,8.158,0,0,1,473.683,596.472Z" transform="translate(-147.299 -588.215)" fill="#fff"/>
        <path id="Trazado_111082" data-name="Trazado 111082" d="M472.214,596.489a8.158,8.158,0,1,1,8.195,8.133A8.178,8.178,0,0,1,472.214,596.489Z" transform="translate(-163.96 -588.158)" fill="#fff" opacity="0.15"/>
        <path id="Trazado_111083" data-name="Trazado 111083" d="M467.806,596.506A8.164,8.164,0,1,1,476,604.627,8.17,8.17,0,0,1,467.806,596.506Z" transform="translate(-213.954 -587.966)" fill="#fff" opacity="0.4"/>
        <path id="Trazado_111084" data-name="Trazado 111084" d="M466.337,596.5a8.164,8.164,0,1,1,8.195,8.133A8.158,8.158,0,0,1,466.337,596.5Z" transform="translate(-230.614 -587.898)" fill="#fff"/>
        <path id="Trazado_111085" data-name="Trazado 111085" d="M454.583,596.556a8.164,8.164,0,1,1,8.195,8.133A8.177,8.177,0,0,1,454.583,596.556Z" transform="translate(-363.922 -587.399)" fill="#fff" opacity="0.15"/>
        <path id="Trazado_111086" data-name="Trazado 111086" d="M453.114,596.562a8.158,8.158,0,1,1,8.195,8.121A8.161,8.161,0,0,1,453.114,596.562Z" transform="translate(-380.583 -587.331)" fill="#fff"/>
        <path id="Trazado_111087" data-name="Trazado 111087" d="M451.645,596.556a8.158,8.158,0,1,1,8.195,8.133A8.152,8.152,0,0,1,451.645,596.556Z" transform="translate(-397.244 -587.263)" fill="#fff" opacity="0.4"/>
        <path id="Trazado_111088" data-name="Trazado 111088" d="M450.176,596.573a8.158,8.158,0,1,1,8.183,8.133A8.159,8.159,0,0,1,450.176,596.573Z" transform="translate(-413.904 -587.206)" fill="#fff" opacity="0.1"/>
        <path id="Trazado_111089" data-name="Trazado 111089" d="M448.706,596.579A8.164,8.164,0,1,1,456.9,604.7,8.162,8.162,0,0,1,448.706,596.579Z" transform="translate(-430.576 -587.138)" fill="#fff"/>
        <path id="Trazado_111090" data-name="Trazado 111090" d="M447.237,596.583a8.164,8.164,0,1,1,8.195,8.133A8.178,8.178,0,0,1,447.237,596.583Z" transform="translate(-447.237 -587.081)" fill="#fff" opacity="0.4"/>
        <path id="Trazado_111091" data-name="Trazado 111091" d="M461.93,596.528a8.158,8.158,0,1,1,8.182,8.133A8.158,8.158,0,0,1,461.93,596.528Z" transform="translate(-280.596 -587.716)" fill="#fff" opacity="0.15"/>
        <path id="Trazado_111092" data-name="Trazado 111092" d="M460.46,596.534a8.164,8.164,0,1,1,8.195,8.121A8.17,8.17,0,0,1,460.46,596.534Z" transform="translate(-297.268 -587.648)" fill="#fff"/>
        <path id="Trazado_111093" data-name="Trazado 111093" d="M458.991,596.527a8.158,8.158,0,1,1,8.195,8.133A8.159,8.159,0,0,1,458.991,596.527Z" transform="translate(-313.929 -587.58)" fill="#fff" opacity="0.4"/>
        <path id="Trazado_111094" data-name="Trazado 111094" d="M457.522,596.545a8.158,8.158,0,1,1,8.195,8.133A8.158,8.158,0,0,1,457.522,596.545Z" transform="translate(-330.589 -587.524)" fill="#fff" opacity="0.1"/>
      </g>
      <g id="Grupo_42652" data-name="Grupo 42652" transform="translate(0 71.198)">
        <path id="Trazado_111095" data-name="Trazado 111095" d="M475.234,601.353a8.158,8.158,0,1,1,8.195,8.133A8.16,8.16,0,0,1,475.234,601.353Z" transform="translate(321.72 -593.17)" fill="#fff" opacity="0.05"/>
        <path id="Trazado_111096" data-name="Trazado 111096" d="M473.765,601.37a8.158,8.158,0,1,1,8.194,8.133A8.161,8.161,0,0,1,473.765,601.37Z" transform="translate(305.059 -593.113)" fill="#fff" opacity="0.1"/>
        <path id="Trazado_111097" data-name="Trazado 111097" d="M472.3,601.375a8.158,8.158,0,1,1,8.183,8.121A8.142,8.142,0,0,1,472.3,601.375Z" transform="translate(288.398 -593.045)" fill="#fff" opacity="0.1"/>
        <path id="Trazado_111098" data-name="Trazado 111098" d="M470.826,601.381a8.164,8.164,0,1,1,8.194,8.133A8.177,8.177,0,0,1,470.826,601.381Z" transform="translate(271.726 -592.989)" fill="#fff" opacity="0.15"/>
        <path id="Trazado_111099" data-name="Trazado 111099" d="M469.357,601.387a8.158,8.158,0,1,1,8.195,8.12A8.17,8.17,0,0,1,469.357,601.387Z" transform="translate(255.065 -592.92)" fill="#fff" opacity="0.15"/>
        <path id="Trazado_111100" data-name="Trazado 111100" d="M467.888,601.381a8.158,8.158,0,1,1,8.195,8.133A8.15,8.15,0,0,1,467.888,601.381Z" transform="translate(238.404 -592.852)" fill="#fff" opacity="0.4"/>
        <path id="Trazado_111101" data-name="Trazado 111101" d="M466.419,601.4a8.158,8.158,0,1,1,8.183,8.133A8.159,8.159,0,0,1,466.419,601.4Z" transform="translate(221.744 -592.796)" fill="#fff" opacity="0.2"/>
        <path id="Trazado_111102" data-name="Trazado 111102" d="M464.949,601.4a8.164,8.164,0,1,1,8.195,8.121A8.162,8.162,0,0,1,464.949,601.4Z" transform="translate(205.072 -592.728)" fill="#fff" opacity="0.4"/>
        <path id="Trazado_111103" data-name="Trazado 111103" d="M463.48,601.4a8.164,8.164,0,1,1,8.195,8.133A8.158,8.158,0,0,1,463.48,601.4Z" transform="translate(188.411 -592.659)" fill="#fff" opacity="0.4"/>
        <path id="Trazado_111104" data-name="Trazado 111104" d="M462.011,601.415a8.158,8.158,0,1,1,8.195,8.121A8.17,8.17,0,0,1,462.011,601.415Z" transform="translate(171.75 -592.603)" fill="#fff" opacity="0.1"/>
        <path id="Trazado_111105" data-name="Trazado 111105" d="M460.542,601.408a8.158,8.158,0,1,1,8.183,8.133A8.14,8.14,0,0,1,460.542,601.408Z" transform="translate(155.09 -592.534)" fill="#fff" opacity="0.1"/>
        <path id="Trazado_111106" data-name="Trazado 111106" d="M459.073,601.426a8.158,8.158,0,1,1,8.182,8.133A8.158,8.158,0,0,1,459.073,601.426Z" transform="translate(138.429 -592.478)" fill="#fff" opacity="0.4"/>
        <path id="Trazado_111107" data-name="Trazado 111107" d="M457.6,601.42a8.164,8.164,0,1,1,8.195,8.133A8.159,8.159,0,0,1,457.6,601.42Z" transform="translate(121.757 -592.41)" fill="#fff" opacity="0.4"/>
        <path id="Trazado_111108" data-name="Trazado 111108" d="M456.134,601.437a8.158,8.158,0,1,1,8.195,8.133A8.178,8.178,0,0,1,456.134,601.437Z" transform="translate(105.097 -592.353)" fill="#fff" opacity="0.1"/>
        <path id="Trazado_111109" data-name="Trazado 111109" d="M454.665,601.443a8.158,8.158,0,1,1,8.195,8.121A8.154,8.154,0,0,1,454.665,601.443Z" transform="translate(88.436 -592.285)" fill="#fff" opacity="0.4"/>
        <path id="Trazado_111110" data-name="Trazado 111110" d="M453.2,601.436a8.158,8.158,0,1,1,8.182,8.133A8.139,8.139,0,0,1,453.2,601.436Z" transform="translate(71.775 -592.217)" fill="#fff" opacity="0.4"/>
        <path id="Trazado_111111" data-name="Trazado 111111" d="M451.726,601.454a8.164,8.164,0,1,1,8.195,8.133A8.177,8.177,0,0,1,451.726,601.454Z" transform="translate(55.103 -592.161)" fill="#fff" opacity="0.4"/>
        <path id="Trazado_111112" data-name="Trazado 111112" d="M450.257,601.459a8.164,8.164,0,1,1,8.195,8.12A8.162,8.162,0,0,1,450.257,601.459Z" transform="translate(38.442 -592.092)" fill="#fff"/>
        <path id="Trazado_111113" data-name="Trazado 111113" d="M448.788,601.465a8.158,8.158,0,1,1,8.195,8.133A8.168,8.168,0,0,1,448.788,601.465Z" transform="translate(21.781 -592.035)" fill="#fff" opacity="0.4"/>
        <path id="Trazado_111114" data-name="Trazado 111114" d="M447.319,601.471a8.158,8.158,0,1,1,8.182,8.121A8.151,8.151,0,0,1,447.319,601.471Z" transform="translate(5.121 -591.967)" fill="#fff" opacity="0.1"/>
        <path id="Trazado_111115" data-name="Trazado 111115" d="M445.85,601.464a8.158,8.158,0,1,1,8.183,8.133A8.141,8.141,0,0,1,445.85,601.464Z" transform="translate(-11.54 -591.899)" fill="#fff" opacity="0.1"/>
        <path id="Trazado_111116" data-name="Trazado 111116" d="M444.38,601.482a8.164,8.164,0,1,1,8.195,8.133A8.177,8.177,0,0,1,444.38,601.482Z" transform="translate(-28.212 -591.843)" fill="#fff" opacity="0.4"/>
        <path id="Trazado_111117" data-name="Trazado 111117" d="M442.911,601.487a8.158,8.158,0,1,1,8.195,8.121A8.161,8.161,0,0,1,442.911,601.487Z" transform="translate(-44.872 -591.774)" fill="#fff" opacity="0.1"/>
        <path id="Trazado_111118" data-name="Trazado 111118" d="M441.442,601.493a8.158,8.158,0,1,1,8.183,8.133A8.159,8.159,0,0,1,441.442,601.493Z" transform="translate(-61.534 -591.718)" fill="#fff" opacity="0.1"/>
        <path id="Trazado_111119" data-name="Trazado 111119" d="M439.973,601.5a8.158,8.158,0,1,1,8.183,8.12A8.151,8.151,0,0,1,439.973,601.5Z" transform="translate(-78.194 -591.65)" fill="#fff" opacity="0.4"/>
        <path id="Trazado_111120" data-name="Trazado 111120" d="M438.5,601.493a8.164,8.164,0,1,1,8.195,8.133A8.159,8.159,0,0,1,438.5,601.493Z" transform="translate(-94.866 -591.582)" fill="#fff" opacity="0.1"/>
        <path id="Trazado_111121" data-name="Trazado 111121" d="M437.034,601.51a8.158,8.158,0,1,1,8.195,8.133A8.177,8.177,0,0,1,437.034,601.51Z" transform="translate(-111.527 -591.525)" fill="#fff"/>
        <path id="Trazado_111122" data-name="Trazado 111122" d="M435.565,601.516a8.158,8.158,0,1,1,8.195,8.121A8.154,8.154,0,0,1,435.565,601.516Z" transform="translate(-128.187 -591.457)" fill="#fff" opacity="0.4"/>
        <path id="Trazado_111123" data-name="Trazado 111123" d="M434.1,601.521a8.158,8.158,0,1,1,8.182,8.133A8.158,8.158,0,0,1,434.1,601.521Z" transform="translate(-144.848 -591.401)" fill="#fff"/>
        <path id="Trazado_111124" data-name="Trazado 111124" d="M432.626,601.527a8.164,8.164,0,1,1,8.195,8.121A8.162,8.162,0,0,1,432.626,601.527Z" transform="translate(-161.52 -591.333)" fill="#fff" opacity="0.4"/>
        <path id="Trazado_111125" data-name="Trazado 111125" d="M431.157,601.52a8.164,8.164,0,1,1,8.194,8.133A8.158,8.158,0,0,1,431.157,601.52Z" transform="translate(-178.181 -591.264)" fill="#fff" opacity="0.15"/>
        <path id="Trazado_111126" data-name="Trazado 111126" d="M429.688,601.538a8.158,8.158,0,1,1,8.195,8.12A8.17,8.17,0,0,1,429.688,601.538Z" transform="translate(-194.841 -591.208)" fill="#fff"/>
        <path id="Trazado_111127" data-name="Trazado 111127" d="M428.219,601.532a8.158,8.158,0,1,1,8.182,8.133A8.141,8.141,0,0,1,428.219,601.532Z" transform="translate(-211.502 -591.14)" fill="#fff"/>
        <path id="Trazado_111128" data-name="Trazado 111128" d="M426.75,601.549a8.158,8.158,0,1,1,8.183,8.133A8.159,8.159,0,0,1,426.75,601.549Z" transform="translate(-228.163 -591.083)" fill="#fff"/>
        <path id="Trazado_111129" data-name="Trazado 111129" d="M425.28,601.555a8.164,8.164,0,1,1,8.194,8.121A8.162,8.162,0,0,1,425.28,601.555Z" transform="translate(-244.835 -591.015)" fill="#fff" opacity="0.1"/>
        <path id="Trazado_111130" data-name="Trazado 111130" d="M423.811,601.548a8.158,8.158,0,1,1,8.195,8.133A8.158,8.158,0,0,1,423.811,601.548Z" transform="translate(-261.495 -590.947)" fill="#fff" opacity="0.15"/>
        <path id="Trazado_111131" data-name="Trazado 111131" d="M422.342,601.565a8.158,8.158,0,1,1,8.182,8.121A8.159,8.159,0,0,1,422.342,601.565Z" transform="translate(-278.156 -590.89)" fill="#fff" opacity="0.4"/>
        <path id="Trazado_111132" data-name="Trazado 111132" d="M420.873,601.559a8.158,8.158,0,1,1,8.183,8.133A8.141,8.141,0,0,1,420.873,601.559Z" transform="translate(-294.816 -590.822)" fill="#fff"/>
        <path id="Trazado_111133" data-name="Trazado 111133" d="M419.4,601.577a8.164,8.164,0,1,1,8.194,8.133A8.177,8.177,0,0,1,419.4,601.577Z" transform="translate(-311.488 -590.765)" fill="#fff"/>
        <path id="Trazado_111134" data-name="Trazado 111134" d="M417.934,601.583a8.158,8.158,0,1,1,8.195,8.121A8.161,8.161,0,0,1,417.934,601.583Z" transform="translate(-328.15 -590.697)" fill="#fff"/>
        <path id="Trazado_111135" data-name="Trazado 111135" d="M416.465,601.577a8.158,8.158,0,1,1,8.195,8.133A8.151,8.151,0,0,1,416.465,601.577Z" transform="translate(-344.81 -590.629)" fill="#fff"/>
        <path id="Trazado_111136" data-name="Trazado 111136" d="M415,601.594a8.158,8.158,0,1,1,8.183,8.121A8.151,8.151,0,0,1,415,601.594Z" transform="translate(-361.471 -590.573)" fill="#fff" opacity="0.4"/>
        <path id="Trazado_111137" data-name="Trazado 111137" d="M413.526,601.587a8.164,8.164,0,1,1,8.195,8.133A8.159,8.159,0,0,1,413.526,601.587Z" transform="translate(-378.143 -590.504)" fill="#fff" opacity="0.4"/>
        <path id="Trazado_111138" data-name="Trazado 111138" d="M412.057,601.6a8.164,8.164,0,1,1,8.195,8.133A8.177,8.177,0,0,1,412.057,601.6Z" transform="translate(-394.804 -590.448)" fill="#fff" opacity="0.4"/>
        <path id="Trazado_111139" data-name="Trazado 111139" d="M417.916,593.416a8.152,8.152,0,0,0-7.257,4.5v7.306a8.153,8.153,0,1,0,7.257-11.811Z" transform="translate(-410.659 -590.38)" fill="#fff" opacity="0.4"/>
      </g>
      <g id="Grupo_42653" data-name="Grupo 42653" transform="translate(616.545)">
        <path id="Trazado_111140" data-name="Trazado 111140" d="M488.141,587.4h-6.9a8.154,8.154,0,0,0,6.257,2.875,5.536,5.536,0,0,0,.642-.037Z" transform="translate(-226.686 -587.401)" fill="#fff" opacity="0.4"/>
        <path id="Trazado_111141" data-name="Trazado 111141" d="M479.768,587.4a8.164,8.164,0,0,0,12.563,0Z" transform="translate(-243.403 -587.401)" fill="#fff" opacity="0.4"/>
        <path id="Trazado_111142" data-name="Trazado 111142" d="M478.294,587.4a8.154,8.154,0,0,0,12.675,0Z" transform="translate(-260.121 -587.401)" fill="#fff" opacity="0.4"/>
        <path id="Trazado_111143" data-name="Trazado 111143" d="M476.821,587.4a8.153,8.153,0,0,0,12.773,0Z" transform="translate(-276.826 -587.401)" fill="#fff" opacity="0.4"/>
        <path id="Trazado_111144" data-name="Trazado 111144" d="M475.348,587.4a8.135,8.135,0,0,0,12.872,0Z" transform="translate(-293.533 -587.401)" fill="#fff" opacity="0.1"/>
        <path id="Trazado_111145" data-name="Trazado 111145" d="M473.874,587.4a8.152,8.152,0,0,0,12.983,0Z" transform="translate(-310.25 -587.401)" fill="#fff"/>
        <path id="Trazado_111146" data-name="Trazado 111146" d="M472.4,587.4a8.139,8.139,0,0,0,13.082,0Z" transform="translate(-326.957 -587.401)" fill="#fff" opacity="0.4"/>
        <path id="Trazado_111147" data-name="Trazado 111147" d="M470.927,587.4a8.16,8.16,0,0,0,13.193,0Z" transform="translate(-343.674 -587.401)" fill="#fff" opacity="0.4"/>
        <path id="Trazado_111148" data-name="Trazado 111148" d="M469.454,587.4a8.152,8.152,0,0,0,13.292,0Z" transform="translate(-360.38 -587.401)" fill="#fff" opacity="0.1"/>
        <path id="Trazado_111149" data-name="Trazado 111149" d="M467.98,587.4a8.159,8.159,0,0,0,13.4,0Z" transform="translate(-377.097 -587.401)" fill="#fff" opacity="0.1"/>
        <path id="Trazado_111150" data-name="Trazado 111150" d="M466.507,587.4a8.172,8.172,0,0,0,13.5,0Z" transform="translate(-393.803 -587.401)" fill="#fff" opacity="0.1"/>
        <path id="Trazado_111151" data-name="Trazado 111151" d="M465.034,587.4a8.159,8.159,0,0,0,13.588,0Z" transform="translate(-410.509 -587.401)" fill="#fff" opacity="0.4"/>
        <path id="Trazado_111152" data-name="Trazado 111152" d="M463.563,587.4a8.153,8.153,0,0,0,13.662,0Z" transform="translate(-427.204 -587.401)" fill="#fff" opacity="0.4"/>
        <path id="Trazado_111153" data-name="Trazado 111153" d="M462.089,587.4a8.157,8.157,0,0,0,13.761,0Z" transform="translate(-443.91 -587.401)" fill="#fff" opacity="0.4"/>
        <path id="Trazado_111154" data-name="Trazado 111154" d="M460.616,587.4a8.15,8.15,0,0,0,13.847,0Z" transform="translate(-460.616 -587.401)" fill="#fff" opacity="0.1"/>
      </g>
      <g id="Grupo_42654" data-name="Grupo 42654" transform="translate(0 246.213)">
        <path id="Trazado_111155" data-name="Trazado 111155" d="M415.731,607.619a8.1,8.1,0,0,0-5.072,1.814v12.7a8.156,8.156,0,1,0,5.072-14.513Z" transform="translate(-410.659 -604.311)" fill="#fff" opacity="0.2"/>
        <path id="Trazado_111156" data-name="Trazado 111156" d="M428.2,615.734a8.158,8.158,0,1,1-8.182-8.121A8.157,8.157,0,0,1,428.2,615.734Z" transform="translate(-396.8 -604.367)" fill="#fff" opacity="0.4"/>
        <path id="Trazado_111157" data-name="Trazado 111157" d="M429.666,615.742a8.158,8.158,0,1,1-8.183-8.134A8.139,8.139,0,0,1,429.666,615.742Z" transform="translate(-380.139 -604.436)" fill="#fff"/>
        <path id="Trazado_111158" data-name="Trazado 111158" d="M431.147,615.735a8.164,8.164,0,1,1-8.195-8.133A8.178,8.178,0,0,1,431.147,615.735Z" transform="translate(-363.478 -604.503)" fill="#fff" opacity="0.1"/>
        <path id="Trazado_111159" data-name="Trazado 111159" d="M432.6,615.718a8.158,8.158,0,1,1-8.195-8.121A8.161,8.161,0,0,1,432.6,615.718Z" transform="translate(-346.806 -604.561)" fill="#fff" opacity="0.4"/>
        <path id="Trazado_111160" data-name="Trazado 111160" d="M434.074,615.724a8.158,8.158,0,1,1-8.195-8.133A8.159,8.159,0,0,1,434.074,615.724Z" transform="translate(-330.146 -604.629)" fill="#fff"/>
        <path id="Trazado_111161" data-name="Trazado 111161" d="M435.543,615.707a8.158,8.158,0,1,1-8.183-8.121A8.152,8.152,0,0,1,435.543,615.707Z" transform="translate(-313.485 -604.685)" fill="#fff" opacity="0.1"/>
        <path id="Trazado_111162" data-name="Trazado 111162" d="M437.024,615.713a8.164,8.164,0,1,1-8.195-8.133A8.159,8.159,0,0,1,437.024,615.713Z" transform="translate(-296.824 -604.753)" fill="#fff"/>
        <path id="Trazado_111163" data-name="Trazado 111163" d="M438.481,615.707a8.158,8.158,0,1,1-8.195-8.133A8.176,8.176,0,0,1,438.481,615.707Z" transform="translate(-280.152 -604.821)" fill="#fff" opacity="0.4"/>
        <path id="Trazado_111164" data-name="Trazado 111164" d="M439.951,615.7a8.158,8.158,0,1,1-8.195-8.134A8.15,8.15,0,0,1,439.951,615.7Z" transform="translate(-263.491 -604.878)" fill="#fff" opacity="0.4"/>
        <path id="Trazado_111165" data-name="Trazado 111165" d="M441.419,615.7a8.158,8.158,0,1,1-8.182-8.133A8.159,8.159,0,0,1,441.419,615.7Z" transform="translate(-246.831 -604.946)" fill="#fff" opacity="0.4"/>
        <path id="Trazado_111166" data-name="Trazado 111166" d="M442.9,615.679a8.164,8.164,0,1,1-8.195-8.121A8.169,8.169,0,0,1,442.9,615.679Z" transform="translate(-230.17 -605.003)" fill="#fff"/>
        <path id="Trazado_111167" data-name="Trazado 111167" d="M444.37,615.685a8.164,8.164,0,1,1-8.194-8.133A8.159,8.159,0,0,1,444.37,615.685Z" transform="translate(-213.509 -605.071)" fill="#fff" opacity="0.4"/>
        <path id="Trazado_111168" data-name="Trazado 111168" d="M445.828,615.679a8.158,8.158,0,1,1-8.195-8.133A8.171,8.171,0,0,1,445.828,615.679Z" transform="translate(-196.838 -605.139)" fill="#fff" opacity="0.1"/>
        <path id="Trazado_111169" data-name="Trazado 111169" d="M447.3,615.674a8.158,8.158,0,1,1-8.182-8.133A8.14,8.14,0,0,1,447.3,615.674Z" transform="translate(-180.177 -605.195)" fill="#fff" opacity="0.1"/>
        <path id="Trazado_111170" data-name="Trazado 111170" d="M448.766,615.668a8.158,8.158,0,1,1-8.183-8.133A8.158,8.158,0,0,1,448.766,615.668Z" transform="translate(-163.516 -605.264)" fill="#fff" opacity="0.4"/>
        <path id="Trazado_111171" data-name="Trazado 111171" d="M450.247,615.65a8.164,8.164,0,1,1-8.194-8.12A8.169,8.169,0,0,1,450.247,615.65Z" transform="translate(-146.855 -605.32)" fill="#fff"/>
        <path id="Trazado_111172" data-name="Trazado 111172" d="M451.7,615.657a8.158,8.158,0,1,1-8.195-8.133A8.16,8.16,0,0,1,451.7,615.657Z" transform="translate(-130.183 -605.388)" fill="#fff"/>
        <path id="Trazado_111173" data-name="Trazado 111173" d="M453.173,615.64a8.158,8.158,0,1,1-8.195-8.121A8.159,8.159,0,0,1,453.173,615.64Z" transform="translate(-113.522 -605.445)" fill="#fff" opacity="0.4"/>
        <path id="Trazado_111174" data-name="Trazado 111174" d="M454.643,615.646a8.158,8.158,0,1,1-8.183-8.133A8.141,8.141,0,0,1,454.643,615.646Z" transform="translate(-96.862 -605.513)" fill="#fff" opacity="0.1"/>
        <path id="Trazado_111175" data-name="Trazado 111175" d="M456.124,615.64a8.164,8.164,0,1,1-8.195-8.133A8.177,8.177,0,0,1,456.124,615.64Z" transform="translate(-80.201 -605.581)" fill="#fff"/>
        <path id="Trazado_111176" data-name="Trazado 111176" d="M457.582,615.623a8.158,8.158,0,1,1-8.195-8.12A8.169,8.169,0,0,1,457.582,615.623Z" transform="translate(-63.529 -605.638)" fill="#fff" opacity="0.4"/>
        <path id="Trazado_111177" data-name="Trazado 111177" d="M459.051,615.63a8.158,8.158,0,1,1-8.195-8.134A8.149,8.149,0,0,1,459.051,615.63Z" transform="translate(-46.869 -605.706)" fill="#fff"/>
        <path id="Trazado_111178" data-name="Trazado 111178" d="M460.52,615.623a8.158,8.158,0,1,1-8.183-8.133A8.159,8.159,0,0,1,460.52,615.623Z" transform="translate(-30.208 -605.774)" fill="#fff" opacity="0.4"/>
        <path id="Trazado_111179" data-name="Trazado 111179" d="M462,615.618a8.164,8.164,0,1,1-8.195-8.133A8.159,8.159,0,0,1,462,615.618Z" transform="translate(-13.547 -605.831)" fill="#fff" opacity="0.15"/>
        <path id="Trazado_111180" data-name="Trazado 111180" d="M463.47,615.612a8.164,8.164,0,1,1-8.195-8.133A8.177,8.177,0,0,1,463.47,615.612Z" transform="translate(3.113 -605.899)" fill="#fff"/>
        <path id="Trazado_111181" data-name="Trazado 111181" d="M464.928,615.595a8.158,8.158,0,1,1-8.195-8.121A8.162,8.162,0,0,1,464.928,615.595Z" transform="translate(19.785 -605.955)" fill="#fff"/>
        <path id="Trazado_111182" data-name="Trazado 111182" d="M466.4,615.6a8.158,8.158,0,1,1-8.183-8.133A8.14,8.14,0,0,1,466.4,615.6Z" transform="translate(36.446 -606.023)" fill="#fff" opacity="0.1"/>
        <path id="Trazado_111183" data-name="Trazado 111183" d="M467.866,615.6a8.158,8.158,0,1,1-8.182-8.133A8.158,8.158,0,0,1,467.866,615.6Z" transform="translate(53.106 -606.092)" fill="#fff" opacity="0.1"/>
        <path id="Trazado_111184" data-name="Trazado 111184" d="M469.347,615.578a8.164,8.164,0,1,1-8.195-8.121A8.161,8.161,0,0,1,469.347,615.578Z" transform="translate(69.768 -606.149)" fill="#fff" opacity="0.15"/>
        <path id="Trazado_111185" data-name="Trazado 111185" d="M470.8,615.584a8.158,8.158,0,1,1-8.195-8.133A8.178,8.178,0,0,1,470.8,615.584Z" transform="translate(86.44 -606.216)" fill="#fff" opacity="0.4"/>
        <path id="Trazado_111186" data-name="Trazado 111186" d="M472.273,615.567a8.158,8.158,0,1,1-8.195-8.121A8.151,8.151,0,0,1,472.273,615.567Z" transform="translate(103.1 -606.273)" fill="#fff"/>
        <path id="Trazado_111187" data-name="Trazado 111187" d="M473.742,615.573a8.158,8.158,0,1,1-8.182-8.133A8.141,8.141,0,0,1,473.742,615.573Z" transform="translate(119.761 -606.341)" fill="#fff" opacity="0.15"/>
        <path id="Trazado_111188" data-name="Trazado 111188" d="M475.224,615.567a8.164,8.164,0,1,1-8.195-8.133A8.177,8.177,0,0,1,475.224,615.567Z" transform="translate(136.422 -606.409)" fill="#fff" opacity="0.15"/>
        <path id="Trazado_111189" data-name="Trazado 111189" d="M476.682,615.562a8.158,8.158,0,1,1-8.195-8.133A8.159,8.159,0,0,1,476.682,615.562Z" transform="translate(153.094 -606.465)" fill="#fff"/>
        <path id="Trazado_111190" data-name="Trazado 111190" d="M478.151,615.556a8.158,8.158,0,1,1-8.195-8.133A8.169,8.169,0,0,1,478.151,615.556Z" transform="translate(169.754 -606.534)" fill="#fff" opacity="0.4"/>
        <path id="Trazado_111191" data-name="Trazado 111191" d="M479.62,615.538a8.158,8.158,0,1,1-8.182-8.12A8.143,8.143,0,0,1,479.62,615.538Z" transform="translate(186.415 -606.59)" fill="#fff" opacity="0.1"/>
        <path id="Trazado_111192" data-name="Trazado 111192" d="M481.1,615.545a8.164,8.164,0,1,1-8.195-8.133A8.177,8.177,0,0,1,481.1,615.545Z" transform="translate(203.076 -606.659)" fill="#fff" opacity="0.1"/>
        <path id="Trazado_111193" data-name="Trazado 111193" d="M482.57,615.528a8.164,8.164,0,1,1-8.195-8.121A8.169,8.169,0,0,1,482.57,615.528Z" transform="translate(219.737 -606.716)" fill="#fff" opacity="0.4"/>
        <path id="Trazado_111194" data-name="Trazado 111194" d="M484.027,615.534a8.158,8.158,0,1,1-8.195-8.133A8.151,8.151,0,0,1,484.027,615.534Z" transform="translate(236.409 -606.783)" fill="#fff" opacity="0.4"/>
        <path id="Trazado_111195" data-name="Trazado 111195" d="M485.5,615.528a8.158,8.158,0,1,1-8.183-8.133A8.159,8.159,0,0,1,485.5,615.528Z" transform="translate(253.069 -606.851)" fill="#fff"/>
        <path id="Trazado_111196" data-name="Trazado 111196" d="M486.965,615.51a8.158,8.158,0,1,1-8.182-8.12A8.143,8.143,0,0,1,486.965,615.51Z" transform="translate(269.73 -606.908)" fill="#fff" opacity="0.4"/>
        <path id="Trazado_111197" data-name="Trazado 111197" d="M488.447,615.518a8.164,8.164,0,1,1-8.194-8.134A8.176,8.176,0,0,1,488.447,615.518Z" transform="translate(286.39 -606.976)" fill="#fff" opacity="0.4"/>
        <path id="Trazado_111198" data-name="Trazado 111198" d="M489.9,615.5a8.158,8.158,0,1,1-8.195-8.12A8.169,8.169,0,0,1,489.9,615.5Z" transform="translate(303.062 -607.032)" fill="#fff" opacity="0.1"/>
        <path id="Trazado_111199" data-name="Trazado 111199" d="M491.374,615.506a8.158,8.158,0,1,1-8.195-8.133A8.141,8.141,0,0,1,491.374,615.506Z" transform="translate(319.723 -607.101)" fill="#fff"/>
        <path id="Trazado_111200" data-name="Trazado 111200" d="M492.842,615.5a8.158,8.158,0,1,1-8.182-8.133A8.158,8.158,0,0,1,492.842,615.5Z" transform="translate(336.384 -607.169)" fill="#fff" opacity="0.1"/>
        <path id="Trazado_111201" data-name="Trazado 111201" d="M494.324,615.483a8.164,8.164,0,1,1-8.195-8.121A8.162,8.162,0,0,1,494.324,615.483Z" transform="translate(353.044 -607.226)" fill="#fff"/>
        <path id="Trazado_111202" data-name="Trazado 111202" d="M495.781,615.489a8.158,8.158,0,1,1-8.194-8.133A8.177,8.177,0,0,1,495.781,615.489Z" transform="translate(369.716 -607.293)" fill="#fff" opacity="0.1"/>
        <path id="Trazado_111203" data-name="Trazado 111203" d="M491.623,607.746a7.984,7.984,0,0,0-2.567-.395,8.158,8.158,0,0,0,.062,16.315,8.007,8.007,0,0,0,2.505-.407Z" transform="translate(386.377 -607.351)" fill="#fff" opacity="0.1"/>
      </g>
      <g id="Grupo_42655" data-name="Grupo 42655" transform="translate(599.119 296.171)">
        <path id="Trazado_111204" data-name="Trazado 111204" d="M475.52,619.6a8.158,8.158,0,1,1-8.182-8.12A8.151,8.151,0,0,1,475.52,619.6Z" transform="translate(-459.204 -610.502)" fill="#fff" opacity="0.05"/>
        <path id="Trazado_111205" data-name="Trazado 111205" d="M477,619.6a8.164,8.164,0,1,1-8.195-8.133A8.159,8.159,0,0,1,477,619.6Z" transform="translate(-442.544 -610.571)" fill="#fff" opacity="0.1"/>
        <path id="Trazado_111206" data-name="Trazado 111206" d="M478.458,619.6a8.158,8.158,0,1,1-8.195-8.133A8.177,8.177,0,0,1,478.458,619.6Z" transform="translate(-425.871 -610.639)" fill="#fff" opacity="0.1"/>
        <path id="Trazado_111207" data-name="Trazado 111207" d="M479.927,619.582a8.158,8.158,0,1,1-8.195-8.121A8.154,8.154,0,0,1,479.927,619.582Z" transform="translate(-409.21 -610.696)" fill="#fff" opacity="0.15"/>
        <path id="Trazado_111208" data-name="Trazado 111208" d="M481.4,619.588a8.158,8.158,0,1,1-8.183-8.133A8.159,8.159,0,0,1,481.4,619.588Z" transform="translate(-392.55 -610.763)" fill="#fff" opacity="0.15"/>
        <path id="Trazado_111209" data-name="Trazado 111209" d="M482.878,619.57a8.164,8.164,0,1,1-8.194-8.12A8.168,8.168,0,0,1,482.878,619.57Z" transform="translate(-375.89 -610.82)" fill="#fff"/>
        <path id="Trazado_111210" data-name="Trazado 111210" d="M484.347,619.578a8.164,8.164,0,1,1-8.195-8.134A8.159,8.159,0,0,1,484.347,619.578Z" transform="translate(-359.229 -610.889)" fill="#fff" opacity="0.2"/>
        <path id="Trazado_111211" data-name="Trazado 111211" d="M485.8,619.571a8.158,8.158,0,1,1-8.195-8.133A8.177,8.177,0,0,1,485.8,619.571Z" transform="translate(-342.557 -610.957)" fill="#fff" opacity="0.4"/>
        <path id="Trazado_111212" data-name="Trazado 111212" d="M487.273,619.554a8.158,8.158,0,1,1-8.182-8.121A8.143,8.143,0,0,1,487.273,619.554Z" transform="translate(-325.896 -611.013)" fill="#fff"/>
        <path id="Trazado_111213" data-name="Trazado 111213" d="M488.743,619.56a8.158,8.158,0,1,1-8.183-8.133A8.141,8.141,0,0,1,488.743,619.56Z" transform="translate(-309.235 -611.081)" fill="#fff" opacity="0.1"/>
        <path id="Trazado_111214" data-name="Trazado 111214" d="M490.224,619.543a8.164,8.164,0,1,1-8.195-8.121A8.17,8.17,0,0,1,490.224,619.543Z" transform="translate(-292.575 -611.138)" fill="#fff" opacity="0.4"/>
        <path id="Trazado_111215" data-name="Trazado 111215" d="M491.681,619.549a8.158,8.158,0,1,1-8.195-8.133A8.158,8.158,0,0,1,491.681,619.549Z" transform="translate(-275.902 -611.206)" fill="#fff"/>
        <path id="Trazado_111216" data-name="Trazado 111216" d="M493.15,619.543a8.158,8.158,0,1,1-8.195-8.133A8.16,8.16,0,0,1,493.15,619.543Z" transform="translate(-259.242 -611.275)" fill="#fff" opacity="0.1"/>
        <path id="Trazado_111217" data-name="Trazado 111217" d="M494.62,619.538a8.158,8.158,0,1,1-8.183-8.133A8.14,8.14,0,0,1,494.62,619.538Z" transform="translate(-242.582 -611.331)" fill="#fff"/>
        <path id="Trazado_111218" data-name="Trazado 111218" d="M496.1,619.532a8.164,8.164,0,1,1-8.195-8.133A8.16,8.16,0,0,1,496.1,619.532Z" transform="translate(-225.92 -611.399)" fill="#fff" opacity="0.4"/>
        <path id="Trazado_111219" data-name="Trazado 111219" d="M488.129,611.4a8.152,8.152,0,0,0,0,16.105Z" transform="translate(-209.248 -611.365)" fill="#fff" opacity="0.4"/>
      </g>
      <g id="Grupo_42656" data-name="Grupo 42656" transform="translate(268.983 218.544)" opacity="0.59">
        <path id="Trazado_111220" data-name="Trazado 111220" d="M448.77,613.426a8.158,8.158,0,1,1-8.183-8.133A8.159,8.159,0,0,1,448.77,613.426Z" transform="translate(-432.454 -603.022)" fill="#fff" opacity="0.05"/>
        <path id="Trazado_111221" data-name="Trazado 111221" d="M450.238,613.421a8.158,8.158,0,1,1-8.182-8.133A8.14,8.14,0,0,1,450.238,613.421Z" transform="translate(-415.793 -603.079)" fill="#fff" opacity="0.1"/>
        <path id="Trazado_111222" data-name="Trazado 111222" d="M451.72,613.415a8.164,8.164,0,1,1-8.195-8.133A8.177,8.177,0,0,1,451.72,613.415Z" transform="translate(-399.133 -603.147)" fill="#fff"/>
        <path id="Trazado_111223" data-name="Trazado 111223" d="M453.177,613.4a8.158,8.158,0,1,1-8.195-8.121A8.168,8.168,0,0,1,453.177,613.4Z" transform="translate(-382.46 -603.204)" fill="#fff"/>
        <path id="Trazado_111224" data-name="Trazado 111224" d="M454.647,613.4a8.158,8.158,0,1,1-8.183-8.133A8.16,8.16,0,0,1,454.647,613.4Z" transform="translate(-365.8 -603.272)" fill="#fff" opacity="0.15"/>
        <path id="Trazado_111225" data-name="Trazado 111225" d="M456.116,613.387a8.158,8.158,0,1,1-8.182-8.121A8.159,8.159,0,0,1,456.116,613.387Z" transform="translate(-349.139 -603.329)" fill="#fff"/>
        <path id="Trazado_111226" data-name="Trazado 111226" d="M457.6,613.393a8.164,8.164,0,1,1-8.195-8.133A8.158,8.158,0,0,1,457.6,613.393Z" transform="translate(-332.479 -603.397)" fill="#fff"/>
        <path id="Trazado_111227" data-name="Trazado 111227" d="M459.054,613.387a8.158,8.158,0,1,1-8.195-8.133A8.177,8.177,0,0,1,459.054,613.387Z" transform="translate(-315.806 -603.465)" fill="#fff"/>
        <path id="Trazado_111228" data-name="Trazado 111228" d="M460.523,613.369a8.158,8.158,0,1,1-8.195-8.12A8.153,8.153,0,0,1,460.523,613.369Z" transform="translate(-299.146 -603.521)" fill="#fff"/>
        <path id="Trazado_111229" data-name="Trazado 111229" d="M461.992,613.376a8.158,8.158,0,1,1-8.182-8.133A8.158,8.158,0,0,1,461.992,613.376Z" transform="translate(-282.485 -603.589)" fill="#fff"/>
        <path id="Trazado_111230" data-name="Trazado 111230" d="M463.474,613.359a8.164,8.164,0,1,1-8.195-8.121A8.177,8.177,0,0,1,463.474,613.359Z" transform="translate(-265.825 -603.646)" fill="#fff"/>
        <path id="Trazado_111231" data-name="Trazado 111231" d="M464.943,613.365a8.164,8.164,0,1,1-8.195-8.133A8.159,8.159,0,0,1,464.943,613.365Z" transform="translate(-249.164 -603.714)" fill="#fff"/>
        <path id="Trazado_111232" data-name="Trazado 111232" d="M466.4,613.359a8.158,8.158,0,1,1-8.195-8.133A8.17,8.17,0,0,1,466.4,613.359Z" transform="translate(-232.492 -603.782)" fill="#fff"/>
        <path id="Trazado_111233" data-name="Trazado 111233" d="M467.87,613.342a8.158,8.158,0,1,1-8.182-8.121A8.144,8.144,0,0,1,467.87,613.342Z" transform="translate(-215.832 -603.839)" fill="#fff"/>
        <path id="Trazado_111234" data-name="Trazado 111234" d="M469.338,613.348a8.158,8.158,0,1,1-8.183-8.133A8.159,8.159,0,0,1,469.338,613.348Z" transform="translate(-199.17 -603.906)" fill="#fff" opacity="0.4"/>
        <path id="Trazado_111235" data-name="Trazado 111235" d="M470.82,613.331a8.164,8.164,0,1,1-8.195-8.121A8.17,8.17,0,0,1,470.82,613.331Z" transform="translate(-182.509 -603.963)" fill="#fff" opacity="0.4"/>
        <path id="Trazado_111236" data-name="Trazado 111236" d="M472.277,613.337a8.158,8.158,0,1,1-8.195-8.133A8.158,8.158,0,0,1,472.277,613.337Z" transform="translate(-165.838 -604.032)" fill="#fff" opacity="0.15"/>
        <path id="Trazado_111237" data-name="Trazado 111237" d="M473.746,613.331a8.158,8.158,0,1,1-8.182-8.133A8.159,8.159,0,0,1,473.746,613.331Z" transform="translate(-149.177 -604.1)" fill="#fff"/>
        <path id="Trazado_111238" data-name="Trazado 111238" d="M475.215,613.314a8.158,8.158,0,1,1-8.183-8.121A8.144,8.144,0,0,1,475.215,613.314Z" transform="translate(-132.516 -604.156)" fill="#fff" opacity="0.4"/>
        <path id="Trazado_111239" data-name="Trazado 111239" d="M476.7,613.32a8.164,8.164,0,1,1-8.194-8.133A8.177,8.177,0,0,1,476.7,613.32Z" transform="translate(-115.856 -604.224)" fill="#fff" opacity="0.1"/>
        <path id="Trazado_111240" data-name="Trazado 111240" d="M478.155,613.3a8.158,8.158,0,1,1-8.195-8.121A8.17,8.17,0,0,1,478.155,613.3Z" transform="translate(-99.184 -604.281)" fill="#fff"/>
        <path id="Trazado_111241" data-name="Trazado 111241" d="M479.623,613.309a8.158,8.158,0,1,1-8.194-8.133A8.149,8.149,0,0,1,479.623,613.309Z" transform="translate(-82.523 -604.349)" fill="#fff"/>
        <path id="Trazado_111242" data-name="Trazado 111242" d="M481.092,613.3a8.158,8.158,0,1,1-8.183-8.133A8.159,8.159,0,0,1,481.092,613.3Z" transform="translate(-65.862 -604.417)" fill="#fff"/>
        <path id="Trazado_111243" data-name="Trazado 111243" d="M482.574,613.3a8.164,8.164,0,1,1-8.195-8.133A8.159,8.159,0,0,1,482.574,613.3Z" transform="translate(-49.201 -604.474)" fill="#fff"/>
        <path id="Trazado_111244" data-name="Trazado 111244" d="M484.042,613.292a8.164,8.164,0,1,1-8.195-8.133A8.159,8.159,0,0,1,484.042,613.292Z" transform="translate(-32.541 -604.542)" fill="#fff" opacity="0.15"/>
        <path id="Trazado_111245" data-name="Trazado 111245" d="M485.5,613.275a8.158,8.158,0,1,1-8.195-8.121A8.162,8.162,0,0,1,485.5,613.275Z" transform="translate(-15.869 -604.599)" fill="#fff"/>
        <path id="Trazado_111246" data-name="Trazado 111246" d="M486.97,613.281a8.158,8.158,0,1,1-8.183-8.133A8.14,8.14,0,0,1,486.97,613.281Z" transform="translate(0.792 -604.667)" fill="#fff"/>
        <path id="Trazado_111247" data-name="Trazado 111247" d="M488.438,613.275a8.158,8.158,0,1,1-8.182-8.133A8.158,8.158,0,0,1,488.438,613.275Z" transform="translate(17.452 -604.734)" fill="#fff"/>
        <path id="Trazado_111248" data-name="Trazado 111248" d="M489.92,613.27a8.164,8.164,0,1,1-8.195-8.133A8.158,8.158,0,0,1,489.92,613.27Z" transform="translate(34.113 -604.791)" fill="#fff" opacity="0.1"/>
        <path id="Trazado_111249" data-name="Trazado 111249" d="M491.377,613.264a8.158,8.158,0,1,1-8.195-8.133A8.176,8.176,0,0,1,491.377,613.264Z" transform="translate(50.785 -604.86)" fill="#fff" opacity="0.4"/>
        <path id="Trazado_111250" data-name="Trazado 111250" d="M492.846,613.247a8.158,8.158,0,1,1-8.182-8.121A8.151,8.151,0,0,1,492.846,613.247Z" transform="translate(67.446 -604.916)" fill="#fff" opacity="0.15"/>
        <path id="Trazado_111251" data-name="Trazado 111251" d="M494.315,613.253a8.158,8.158,0,1,1-8.183-8.133A8.141,8.141,0,0,1,494.315,613.253Z" transform="translate(84.106 -604.984)" fill="#fff" opacity="0.1"/>
        <path id="Trazado_111252" data-name="Trazado 111252" d="M495.8,613.247a8.164,8.164,0,1,1-8.194-8.133A8.177,8.177,0,0,1,495.8,613.247Z" transform="translate(100.767 -605.052)" fill="#fff"/>
        <path id="Trazado_111253" data-name="Trazado 111253" d="M491.577,605.492a8.447,8.447,0,0,0-2.518-.383,8.158,8.158,0,0,0,.062,16.316,8.059,8.059,0,0,0,2.456-.383Z" transform="translate(117.439 -605.109)" fill="#fff" opacity="0.1"/>
      </g>
      <g id="Grupo_42657" data-name="Grupo 42657" transform="translate(0 195.058)">
        <path id="Trazado_111254" data-name="Trazado 111254" d="M415.917,603.463a8.056,8.056,0,0,0-5.257,1.962v12.39a8.021,8.021,0,0,0,5.319,1.962,8.158,8.158,0,1,0-.062-16.315Z" transform="translate(-410.659 -600.291)" fill="#fff" opacity="0.4"/>
        <path id="Trazado_111255" data-name="Trazado 111255" d="M428.211,611.579a8.158,8.158,0,1,1-8.195-8.121A8.161,8.161,0,0,1,428.211,611.579Z" transform="translate(-396.629 -600.348)" fill="#fff"/>
        <path id="Trazado_111256" data-name="Trazado 111256" d="M429.681,611.585a8.158,8.158,0,1,1-8.183-8.133A8.139,8.139,0,0,1,429.681,611.585Z" transform="translate(-379.969 -600.415)" fill="#fff" opacity="0.15"/>
        <path id="Trazado_111257" data-name="Trazado 111257" d="M431.162,611.579a8.164,8.164,0,1,1-8.195-8.133A8.177,8.177,0,0,1,431.162,611.579Z" transform="translate(-363.308 -600.484)" fill="#fff"/>
        <path id="Trazado_111258" data-name="Trazado 111258" d="M432.62,611.562a8.158,8.158,0,1,1-8.195-8.121A8.161,8.161,0,0,1,432.62,611.562Z" transform="translate(-346.636 -600.541)" fill="#fff" opacity="0.4"/>
        <path id="Trazado_111259" data-name="Trazado 111259" d="M434.088,611.568a8.158,8.158,0,1,1-8.195-8.133A8.152,8.152,0,0,1,434.088,611.568Z" transform="translate(-329.975 -600.609)" fill="#fff" opacity="0.4"/>
        <path id="Trazado_111260" data-name="Trazado 111260" d="M435.558,611.551a8.158,8.158,0,1,1-8.183-8.121A8.159,8.159,0,0,1,435.558,611.551Z" transform="translate(-313.315 -600.665)" fill="#fff"/>
        <path id="Trazado_111261" data-name="Trazado 111261" d="M447.312,611.506a8.158,8.158,0,1,1-8.195-8.121A8.153,8.153,0,0,1,447.312,611.506Z" transform="translate(-180.007 -601.175)" fill="#fff" opacity="0.15"/>
        <path id="Trazado_111262" data-name="Trazado 111262" d="M448.78,611.512a8.158,8.158,0,1,1-8.182-8.133A8.139,8.139,0,0,1,448.78,611.512Z" transform="translate(-163.346 -601.243)" fill="#fff"/>
        <path id="Trazado_111263" data-name="Trazado 111263" d="M450.262,611.506a8.164,8.164,0,1,1-8.195-8.133A8.177,8.177,0,0,1,450.262,611.506Z" transform="translate(-146.685 -601.312)" fill="#fff" opacity="0.4"/>
        <path id="Trazado_111264" data-name="Trazado 111264" d="M451.73,611.5a8.164,8.164,0,1,1-8.195-8.133A8.159,8.159,0,0,1,451.73,611.5Z" transform="translate(-130.024 -601.369)" fill="#fff" opacity="0.1"/>
        <path id="Trazado_111265" data-name="Trazado 111265" d="M453.189,611.5a8.158,8.158,0,1,1-8.195-8.133A8.17,8.17,0,0,1,453.189,611.5Z" transform="translate(-113.353 -601.437)" fill="#fff"/>
        <path id="Trazado_111266" data-name="Trazado 111266" d="M454.657,611.478a8.158,8.158,0,1,1-8.182-8.121A8.151,8.151,0,0,1,454.657,611.478Z" transform="translate(-96.691 -601.493)" fill="#fff" opacity="0.4"/>
        <path id="Trazado_111267" data-name="Trazado 111267" d="M456.126,611.484a8.158,8.158,0,1,1-8.183-8.133A8.159,8.159,0,0,1,456.126,611.484Z" transform="translate(-80.031 -601.561)" fill="#fff" opacity="0.4"/>
        <path id="Trazado_111268" data-name="Trazado 111268" d="M457.608,611.467a8.164,8.164,0,1,1-8.195-8.121A8.178,8.178,0,0,1,457.608,611.467Z" transform="translate(-63.37 -601.618)" fill="#fff"/>
        <path id="Trazado_111269" data-name="Trazado 111269" d="M459.065,611.473a8.158,8.158,0,1,1-8.195-8.133A8.158,8.158,0,0,1,459.065,611.473Z" transform="translate(-46.698 -601.686)" fill="#fff" opacity="0.15"/>
        <path id="Trazado_111270" data-name="Trazado 111270" d="M460.534,611.467a8.158,8.158,0,1,1-8.182-8.133A8.158,8.158,0,0,1,460.534,611.467Z" transform="translate(-30.038 -601.754)" fill="#fff"/>
        <path id="Trazado_111271" data-name="Trazado 111271" d="M481.1,611.389a8.158,8.158,0,1,1-8.183-8.133A8.14,8.14,0,0,1,481.1,611.389Z" transform="translate(203.246 -602.639)" fill="#fff"/>
        <path id="Trazado_111272" data-name="Trazado 111272" d="M482.585,611.383a8.164,8.164,0,1,1-8.195-8.133A8.177,8.177,0,0,1,482.585,611.383Z" transform="translate(219.907 -602.707)" fill="#fff"/>
        <path id="Trazado_111273" data-name="Trazado 111273" d="M484.043,611.378a8.158,8.158,0,1,1-8.195-8.133A8.16,8.16,0,0,1,484.043,611.378Z" transform="translate(236.578 -602.764)" fill="#fff" opacity="0.4"/>
        <path id="Trazado_111274" data-name="Trazado 111274" d="M485.511,611.372a8.158,8.158,0,1,1-8.195-8.133A8.169,8.169,0,0,1,485.511,611.372Z" transform="translate(253.24 -602.831)" fill="#fff" opacity="0.1"/>
        <path id="Trazado_111275" data-name="Trazado 111275" d="M486.98,611.355a8.158,8.158,0,1,1-8.183-8.121A8.152,8.152,0,0,1,486.98,611.355Z" transform="translate(269.9 -602.888)" fill="#fff" opacity="0.1"/>
        <path id="Trazado_111276" data-name="Trazado 111276" d="M488.462,611.361a8.164,8.164,0,1,1-8.195-8.133A8.159,8.159,0,0,1,488.462,611.361Z" transform="translate(286.561 -602.956)" fill="#fff" opacity="0.4"/>
        <path id="Trazado_111277" data-name="Trazado 111277" d="M489.931,611.355a8.164,8.164,0,1,1-8.195-8.133A8.177,8.177,0,0,1,489.931,611.355Z" transform="translate(303.221 -603.025)" fill="#fff" opacity="0.4"/>
        <path id="Trazado_111278" data-name="Trazado 111278" d="M491.388,611.35a8.158,8.158,0,1,1-8.195-8.133A8.15,8.15,0,0,1,491.388,611.35Z" transform="translate(319.893 -603.081)" fill="#fff"/>
        <path id="Trazado_111279" data-name="Trazado 111279" d="M492.858,611.344a8.158,8.158,0,1,1-8.183-8.133A8.159,8.159,0,0,1,492.858,611.344Z" transform="translate(336.554 -603.149)" fill="#fff" opacity="0.4"/>
        <path id="Trazado_111280" data-name="Trazado 111280" d="M494.327,611.327a8.158,8.158,0,1,1-8.182-8.121A8.151,8.151,0,0,1,494.327,611.327Z" transform="translate(353.215 -603.206)" fill="#fff" opacity="0.4"/>
      </g>
      <g id="Grupo_42658" data-name="Grupo 42658" transform="translate(215.285 270.514)">
        <path id="Trazado_111281" data-name="Trazado 111281" d="M444.418,617.643a8.158,8.158,0,1,1-8.195-8.121A8.161,8.161,0,0,1,444.418,617.643Z" transform="translate(-428.103 -607.029)" fill="#fff" opacity="0.05"/>
        <path id="Trazado_111282" data-name="Trazado 111282" d="M445.888,617.649a8.158,8.158,0,1,1-8.183-8.133A8.141,8.141,0,0,1,445.888,617.649Z" transform="translate(-411.442 -607.097)" fill="#fff" opacity="0.1"/>
        <path id="Trazado_111283" data-name="Trazado 111283" d="M447.357,617.643a8.158,8.158,0,1,1-8.183-8.133A8.159,8.159,0,0,1,447.357,617.643Z" transform="translate(-394.782 -607.165)" fill="#fff" opacity="0.1"/>
        <path id="Trazado_111284" data-name="Trazado 111284" d="M448.837,617.626a8.164,8.164,0,1,1-8.194-8.121A8.162,8.162,0,0,1,448.837,617.626Z" transform="translate(-378.121 -607.222)" fill="#fff" opacity="0.15"/>
        <path id="Trazado_111285" data-name="Trazado 111285" d="M450.3,617.632A8.158,8.158,0,1,1,442.1,609.5,8.178,8.178,0,0,1,450.3,617.632Z" transform="translate(-361.449 -607.29)" fill="#fff" opacity="0.15"/>
        <path id="Trazado_111286" data-name="Trazado 111286" d="M451.764,617.614a8.158,8.158,0,1,1-8.195-8.12A8.15,8.15,0,0,1,451.764,617.614Z" transform="translate(-344.788 -607.346)" fill="#fff" opacity="0.4"/>
        <path id="Trazado_111287" data-name="Trazado 111287" d="M453.233,617.621a8.158,8.158,0,1,1-8.183-8.133A8.14,8.14,0,0,1,453.233,617.621Z" transform="translate(-328.127 -607.415)" fill="#fff" opacity="0.2"/>
        <path id="Trazado_111288" data-name="Trazado 111288" d="M454.715,617.615a8.164,8.164,0,1,1-8.195-8.133A8.178,8.178,0,0,1,454.715,617.615Z" transform="translate(-311.467 -607.483)" fill="#fff" opacity="0.4"/>
        <path id="Trazado_111289" data-name="Trazado 111289" d="M456.172,617.61a8.158,8.158,0,1,1-8.194-8.133A8.158,8.158,0,0,1,456.172,617.61Z" transform="translate(-294.795 -607.54)" fill="#fff" opacity="0.4"/>
        <path id="Trazado_111290" data-name="Trazado 111290" d="M457.642,617.6a8.158,8.158,0,1,1-8.195-8.133A8.151,8.151,0,0,1,457.642,617.6Z" transform="translate(-278.134 -607.608)" fill="#fff" opacity="0.1"/>
        <path id="Trazado_111291" data-name="Trazado 111291" d="M459.11,617.587a8.158,8.158,0,1,1-8.183-8.121A8.152,8.152,0,0,1,459.11,617.587Z" transform="translate(-261.473 -607.664)" fill="#fff" opacity="0.1"/>
        <path id="Trazado_111292" data-name="Trazado 111292" d="M460.592,617.593a8.164,8.164,0,1,1-8.195-8.133A8.158,8.158,0,0,1,460.592,617.593Z" transform="translate(-244.812 -607.732)" fill="#fff" opacity="0.4"/>
        <path id="Trazado_111293" data-name="Trazado 111293" d="M462.061,617.587a8.164,8.164,0,1,1-8.195-8.133A8.177,8.177,0,0,1,462.061,617.587Z" transform="translate(-228.152 -607.801)" fill="#fff" opacity="0.4"/>
        <path id="Trazado_111294" data-name="Trazado 111294" d="M463.519,617.582a8.158,8.158,0,1,1-8.195-8.133A8.15,8.15,0,0,1,463.519,617.582Z" transform="translate(-211.48 -607.857)" fill="#fff" opacity="0.1"/>
        <path id="Trazado_111295" data-name="Trazado 111295" d="M464.987,617.576a8.158,8.158,0,1,1-8.182-8.133A8.159,8.159,0,0,1,464.987,617.576Z" transform="translate(-194.819 -607.925)" fill="#fff" opacity="0.4"/>
        <path id="Trazado_111296" data-name="Trazado 111296" d="M466.457,617.559a8.158,8.158,0,1,1-8.183-8.121A8.152,8.152,0,0,1,466.457,617.559Z" transform="translate(-178.159 -607.982)" fill="#fff" opacity="0.4"/>
        <path id="Trazado_111297" data-name="Trazado 111297" d="M467.938,617.565a8.164,8.164,0,1,1-8.195-8.133A8.16,8.16,0,0,1,467.938,617.565Z" transform="translate(-161.498 -608.05)" fill="#fff" opacity="0.4"/>
        <path id="Trazado_111298" data-name="Trazado 111298" d="M469.4,617.559a8.158,8.158,0,1,1-8.195-8.133A8.178,8.178,0,0,1,469.4,617.559Z" transform="translate(-144.826 -608.118)" fill="#fff"/>
        <path id="Trazado_111299" data-name="Trazado 111299" d="M470.864,617.541a8.158,8.158,0,1,1-8.195-8.12A8.143,8.143,0,0,1,470.864,617.541Z" transform="translate(-128.165 -608.174)" fill="#fff" opacity="0.4"/>
        <path id="Trazado_111300" data-name="Trazado 111300" d="M472.333,617.548a8.158,8.158,0,1,1-8.182-8.133A8.158,8.158,0,0,1,472.333,617.548Z" transform="translate(-111.505 -608.242)" fill="#fff" opacity="0.1"/>
        <path id="Trazado_111301" data-name="Trazado 111301" d="M473.814,617.531a8.164,8.164,0,1,1-8.195-8.121A8.169,8.169,0,0,1,473.814,617.531Z" transform="translate(-94.844 -608.3)" fill="#fff" opacity="0.1"/>
        <path id="Trazado_111302" data-name="Trazado 111302" d="M475.272,617.537a8.158,8.158,0,1,1-8.195-8.133A8.159,8.159,0,0,1,475.272,617.537Z" transform="translate(-78.172 -608.368)" fill="#fff" opacity="0.4"/>
        <path id="Trazado_111303" data-name="Trazado 111303" d="M476.741,617.531a8.158,8.158,0,1,1-8.194-8.133A8.169,8.169,0,0,1,476.741,617.531Z" transform="translate(-61.511 -608.436)" fill="#fff" opacity="0.1"/>
        <path id="Trazado_111304" data-name="Trazado 111304" d="M478.21,617.514a8.158,8.158,0,1,1-8.183-8.121A8.143,8.143,0,0,1,478.21,617.514Z" transform="translate(-44.851 -608.492)" fill="#fff" opacity="0.1"/>
        <path id="Trazado_111305" data-name="Trazado 111305" d="M479.692,617.52a8.164,8.164,0,1,1-8.195-8.133A8.177,8.177,0,0,1,479.692,617.52Z" transform="translate(-28.19 -608.56)" fill="#fff" opacity="0.4"/>
        <path id="Trazado_111306" data-name="Trazado 111306" d="M481.161,617.5a8.164,8.164,0,1,1-8.195-8.121A8.161,8.161,0,0,1,481.161,617.5Z" transform="translate(-11.529 -608.616)" fill="#fff" opacity="0.1"/>
        <path id="Trazado_111307" data-name="Trazado 111307" d="M482.618,617.509a8.158,8.158,0,1,1-8.195-8.133A8.15,8.15,0,0,1,482.618,617.509Z" transform="translate(5.143 -608.685)" fill="#fff"/>
        <path id="Trazado_111308" data-name="Trazado 111308" d="M484.087,617.492a8.158,8.158,0,1,1-8.183-8.121A8.159,8.159,0,0,1,484.087,617.492Z" transform="translate(21.804 -608.742)" fill="#fff" opacity="0.4"/>
        <path id="Trazado_111309" data-name="Trazado 111309" d="M485.556,617.486a8.158,8.158,0,1,1-8.182-8.121A8.144,8.144,0,0,1,485.556,617.486Z" transform="translate(38.465 -608.81)" fill="#fff"/>
        <path id="Trazado_111310" data-name="Trazado 111310" d="M487.038,617.492a8.164,8.164,0,1,1-8.195-8.133A8.177,8.177,0,0,1,487.038,617.492Z" transform="translate(55.125 -608.878)" fill="#fff" opacity="0.4"/>
        <path id="Trazado_111311" data-name="Trazado 111311" d="M488.5,617.475a8.158,8.158,0,1,1-8.195-8.121A8.162,8.162,0,0,1,488.5,617.475Z" transform="translate(71.797 -608.934)" fill="#fff" opacity="0.15"/>
        <path id="Trazado_111312" data-name="Trazado 111312" d="M489.965,617.481a8.158,8.158,0,1,1-8.195-8.133A8.14,8.14,0,0,1,489.965,617.481Z" transform="translate(88.458 -609.002)" fill="#fff"/>
        <path id="Trazado_111313" data-name="Trazado 111313" d="M491.433,617.463a8.158,8.158,0,1,1-8.182-8.12A8.158,8.158,0,0,1,491.433,617.463Z" transform="translate(105.119 -609.059)" fill="#fff"/>
        <path id="Trazado_111314" data-name="Trazado 111314" d="M492.915,617.47a8.164,8.164,0,1,1-8.195-8.133A8.159,8.159,0,0,1,492.915,617.47Z" transform="translate(121.779 -609.127)" fill="#fff"/>
        <path id="Trazado_111315" data-name="Trazado 111315" d="M494.372,617.464a8.158,8.158,0,1,1-8.194-8.133A8.177,8.177,0,0,1,494.372,617.464Z" transform="translate(138.451 -609.195)" fill="#fff" opacity="0.1"/>
        <path id="Trazado_111316" data-name="Trazado 111316" d="M495.841,617.447a8.158,8.158,0,1,1-8.195-8.121A8.154,8.154,0,0,1,495.841,617.447Z" transform="translate(155.112 -609.252)" fill="#fff" opacity="0.15"/>
        <path id="Trazado_111317" data-name="Trazado 111317" d="M490.942,609.529a8.012,8.012,0,0,0-1.814-.209,8.158,8.158,0,1,0,1.814,16.118Z" transform="translate(171.773 -609.32)" fill="#fff" opacity="0.4"/>
      </g>
    </g>
  </g>
</svg>
