<svg id="Grupo_42932" data-name="Grupo 42932" xmlns="http://www.w3.org/2000/svg" xmlns:xlink="http://www.w3.org/1999/xlink" width="306.413" height="310.737" viewBox="0 0 306.413 310.737">
  <defs>
    <clipPath id="clip-path">
      <path id="Trazado_112310" data-name="Trazado 112310" d="M606,215.846,587.261,226.68a1.007,1.007,0,0,1-1.51-.872V209.259a1.006,1.006,0,0,1,.5-.872l18.735-10.833a1.006,1.006,0,0,1,1.51.871v16.549A1.007,1.007,0,0,1,606,215.846Z" transform="translate(-585.751 -197.417)" fill="none"/>
    </clipPath>
  </defs>
  <g id="Grupo_42866" data-name="Grupo 42866" transform="translate(51.716)">
    <g id="Grupo_42852" data-name="Grupo 42852" transform="translate(32.316 140.929)">
      <path id="Trazado_112266" data-name="Trazado 112266" d="M540.24,264.243a6.221,6.221,0,0,0-5.647,0l-105.96,61.69c-1.552.9-1.544,2.366.023,3.271l47.182,27.354a6.221,6.221,0,0,0,5.647,0l105.96-61.69c1.552-.9,1.543-2.366-.024-3.271Z" transform="translate(-427.475 -259.652)" fill="#bbb8f6" opacity="0.5" style="mix-blend-mode: multiply;isolation: isolate"/>
      <g id="Grupo_42851" data-name="Grupo 42851" transform="translate(0.691)">
        <path id="Trazado_112267" data-name="Trazado 112267" d="M426.949,323.754l3.162-2.017v.694l104.53-60.747a6.071,6.071,0,0,1,5.507,0l44.6,25.845v-.376l3.163,1.791v1.371h-.005a1.934,1.934,0,0,1-1.125,1.564L480.219,353.81a6.064,6.064,0,0,1-5.507,0L428.1,326.8a1.8,1.8,0,0,1-1.1-1.9C426.982,324.592,426.949,323.754,426.949,323.754Z" transform="translate(-426.949 -259.652)" fill="#9796f7"/>
        <path id="Trazado_112268" data-name="Trazado 112268" d="M540.148,260.315a6.064,6.064,0,0,0-5.507,0L428.078,322.24c-1.514.879-1.505,2.307.023,3.189l46.611,27.005a6.065,6.065,0,0,0,5.507,0l106.563-61.928c1.514-.879,1.506-2.307-.022-3.189Z" transform="translate(-426.949 -259.652)" fill="#d9dff6"/>
        <path id="Trazado_112269" data-name="Trazado 112269" d="M540.26,264.48a1.562,1.562,0,0,0-1.42,0l-4.882,2.837a.435.435,0,0,0,0,.823l3.764,2.172a1.564,1.564,0,0,0,1.425,0l4.882-2.837c.393-.228.386-.6-.01-.825Zm-3.085,6.152c.4.229.4.6.01.826L532.3,274.3a1.566,1.566,0,0,1-1.426,0l-3.763-2.173a.434.434,0,0,1-.005-.822l4.882-2.837a1.563,1.563,0,0,1,1.42,0Zm-6.985,4.06c.4.228.4.6.01.825l-4.882,2.837a1.576,1.576,0,0,1-1.431,0l-3.763-2.172a.437.437,0,0,1,0-.826l4.881-2.837a1.574,1.574,0,0,1,1.421,0Zm-7.063,4.1c.4.229.4.6.01.826l-4.882,2.837a1.566,1.566,0,0,1-1.426,0l-3.763-2.173a.434.434,0,0,1-.005-.822l4.882-2.838a1.571,1.571,0,0,1,1.421,0Zm-6.985,4.059c.4.229.4.6.01.826l-4.882,2.837a1.576,1.576,0,0,1-1.431,0l-3.763-2.173a.436.436,0,0,1,0-.825l4.881-2.838a1.58,1.58,0,0,1,1.421,0Zm-6.995,4.065c.4.229.4.6.01.826l-4.882,2.837a1.566,1.566,0,0,1-1.426,0l-3.763-2.173a.434.434,0,0,1-.005-.822l4.882-2.837a1.565,1.565,0,0,1,1.421,0Zm-6.985,4.059a.438.438,0,0,1,.005.829l-4.882,2.837a1.575,1.575,0,0,1-1.426,0L492.1,292.47a.436.436,0,0,1-.005-.823l4.882-2.837a1.575,1.575,0,0,1,1.426,0Zm-6.995,4.065c.4.229.4.6.01.826l-4.882,2.838a1.582,1.582,0,0,1-1.431,0l-3.763-2.173a.437.437,0,0,1,0-.826l4.882-2.837a1.578,1.578,0,0,1,1.42,0Zm-6.99,4.063c.4.228.4.6.01.826L483.3,302.77a1.569,1.569,0,0,1-1.426,0l-3.763-2.172a.435.435,0,0,1,0-.823l4.882-2.837a1.563,1.563,0,0,1,1.42,0Zm-7.005,4.071a.438.438,0,0,1,0,.829l-4.882,2.837a1.579,1.579,0,0,1-1.425,0l-3.764-2.173a.436.436,0,0,1,0-.823l4.881-2.837a1.581,1.581,0,0,1,1.426,0Zm-6.99,4.062c.4.229.4.6.01.826L469.31,310.9a1.572,1.572,0,0,1-1.426,0l-3.763-2.173a.435.435,0,0,1,0-.823L469,305.067a1.569,1.569,0,0,1,1.42,0Zm-7,4.065c.4.229.4.6.01.826l-4.882,2.837a1.564,1.564,0,0,1-1.425,0l-3.764-2.173a.434.434,0,0,1,0-.822L462,309.132a1.569,1.569,0,0,1,1.42,0Zm-6.984,4.059c.4.229.4.6.01.826l-4.882,2.837a1.576,1.576,0,0,1-1.431,0l-3.764-2.173a.437.437,0,0,1,0-.825l4.882-2.838a1.578,1.578,0,0,1,1.42,0Zm-7,4.065c.4.229.4.6.01.826l-4.882,2.837a1.566,1.566,0,0,1-1.426,0l-3.764-2.172a.435.435,0,0,1,0-.823l4.882-2.837a1.563,1.563,0,0,1,1.42,0Zm-6.985,4.059a.438.438,0,0,1,.005.829l-4.882,2.838a1.578,1.578,0,0,1-1.426,0l-3.763-2.172a.436.436,0,0,1-.005-.823l4.882-2.837a1.575,1.575,0,0,1,1.426,0Zm103.57-53.505c.4.229.4.594.005.823l-16.466,9.568a1.553,1.553,0,0,1-1.42,0l-3.763-2.172c-.4-.229-.4-.594-.005-.823l16.466-9.569a1.56,1.56,0,0,1,1.42,0ZM531.182,280.8a.436.436,0,0,1,0,.826l-4.881,2.837a1.565,1.565,0,0,1-1.421,0l-3.763-2.173a.434.434,0,0,1-.005-.822l4.882-2.838a1.569,1.569,0,0,1,1.426,0Zm-6.99,4.062c.4.229.4.594.005.823l-4.882,2.837a1.566,1.566,0,0,1-1.426,0l-3.763-2.172a.436.436,0,0,1,0-.826l4.882-2.837a1.556,1.556,0,0,1,1.421,0Zm-6.995,4.066c.4.228.4.594.005.822l-4.882,2.837a1.556,1.556,0,0,1-1.421,0l-3.763-2.172c-.4-.229-.4-.6,0-.823l4.882-2.837a1.555,1.555,0,0,1,1.421,0Zm-6.985,4.059a.434.434,0,0,1,.005.822l-4.882,2.837a1.566,1.566,0,0,1-1.426,0l-3.763-2.172a.436.436,0,0,1,0-.826l4.882-2.837a1.562,1.562,0,0,1,1.42,0Zm-6.995,4.065c.4.228.4.594,0,.822l-4.882,2.838a1.562,1.562,0,0,1-1.421,0l-3.763-2.173c-.4-.229-.4-.594,0-.823l4.881-2.837a1.561,1.561,0,0,1,1.421,0Zm-6.985,4.059a.436.436,0,0,1,0,.826l-4.882,2.837a1.571,1.571,0,0,1-1.421,0l-3.763-2.173a.435.435,0,0,1-.005-.823l4.883-2.837a1.567,1.567,0,0,1,1.425,0Zm-7.01,4.074a.435.435,0,0,1,0,.823l-4.882,2.837a1.57,1.57,0,0,1-1.425,0l-3.764-2.173a.436.436,0,0,1,0-.826l4.882-2.837a1.569,1.569,0,0,1,1.42,0Zm-6.99,4.062c.4.229.4.594,0,.823l-4.882,2.837a1.559,1.559,0,0,1-1.42,0l-3.763-2.173a.434.434,0,0,1-.005-.823l4.882-2.837a1.56,1.56,0,0,1,1.42,0Zm-6.99,4.062a.436.436,0,0,1,0,.826l-4.882,2.837a1.562,1.562,0,0,1-1.42,0l-3.764-2.173a.434.434,0,0,1,0-.822l4.882-2.837a1.564,1.564,0,0,1,1.425,0Zm-6.99,4.062c.4.229.4.6,0,.823l-4.882,2.837a1.564,1.564,0,0,1-1.425,0l-3.764-2.172a.436.436,0,0,1,0-.826l4.882-2.837a1.553,1.553,0,0,1,1.42,0Zm-6.995,4.065c.395.229.4.6,0,.823l-4.882,2.837a1.553,1.553,0,0,1-1.42,0l-3.764-2.172c-.4-.229-.4-.6,0-.823l4.882-2.837a1.553,1.553,0,0,1,1.42,0Zm-6.985,4.06a.434.434,0,0,1,.005.822l-4.883,2.838a1.57,1.57,0,0,1-1.425,0l-3.764-2.173a.436.436,0,0,1,0-.826l4.882-2.837a1.564,1.564,0,0,1,1.421,0ZM555.6,273.338c.4.229.4.6.005.823l-5.275,3.066a1.562,1.562,0,0,1-1.421,0l-3.763-2.173a.434.434,0,0,1-.005-.823l5.276-3.065a1.554,1.554,0,0,1,1.42,0Zm-7.273,4.227a.436.436,0,0,1,0,.826l-5.276,3.065a1.553,1.553,0,0,1-1.42,0l-3.763-2.172c-.4-.229-.4-.594-.005-.823l5.275-3.066a1.572,1.572,0,0,1,1.426,0Zm18.8,2.429a.434.434,0,0,1,0,.822l-3.7,2.149a1.559,1.559,0,0,1-1.42,0l-9.495-5.482c-.4-.229-.4-.6-.01-.826l3.7-2.149a1.567,1.567,0,0,1,1.425,0Zm-11.543.067a.434.434,0,0,1,.005.822l-5.275,3.066a1.575,1.575,0,0,1-1.426,0l-3.763-2.173a.438.438,0,0,1-.005-.828l5.276-3.066a1.567,1.567,0,0,1,1.425,0ZM533.579,286.1a.435.435,0,0,1,0,.823L528.7,289.76a1.563,1.563,0,0,1-1.42,0l-3.764-2.172c-.4-.229-.4-.6-.01-.826l4.882-2.837a1.566,1.566,0,0,1,1.426,0Zm12.827-.777a.438.438,0,0,1,.005.829l-9.659,5.614a1.572,1.572,0,0,1-1.426,0l-3.763-2.173a.435.435,0,0,1,0-.823l4.07-2.365-5.052-2.916a.437.437,0,0,1-.01-.826l4.882-2.837a1.576,1.576,0,0,1,1.431,0l5.764,3.328,1.378.8Zm-19.811,4.837a.437.437,0,0,1,0,.826l-4.882,2.837a1.578,1.578,0,0,1-1.42,0l-3.763-2.173c-.4-.229-.4-.6-.011-.826l4.882-2.837a1.576,1.576,0,0,1,1.431,0Zm-7,4.065a.435.435,0,0,1,.005.822l-4.882,2.838a1.579,1.579,0,0,1-1.425,0l-3.764-2.173a.438.438,0,0,1,0-.829l4.881-2.837a1.581,1.581,0,0,1,1.426,0Zm-6.984,4.059a.437.437,0,0,1,0,.826l-4.882,2.837a1.569,1.569,0,0,1-1.42,0l-3.763-2.173c-.4-.228-.4-.6-.011-.826l4.883-2.837a1.574,1.574,0,0,1,1.43,0Zm-6.995,4.065a.436.436,0,0,1,0,.823l-4.887,2.84a1.578,1.578,0,0,1-1.42,0l-3.764-2.173a.437.437,0,0,1-.01-.826l4.888-2.84a1.579,1.579,0,0,1,1.425,0Zm-6.99,4.062a.435.435,0,0,1,0,.823l-4.882,2.837a1.566,1.566,0,0,1-1.42,0l-3.763-2.173c-.4-.228-.4-.6-.01-.826l4.882-2.837a1.57,1.57,0,0,1,1.425,0Zm-7.006,4.071a.437.437,0,0,1,0,.826l-4.882,2.837a1.563,1.563,0,0,1-1.42,0l-3.763-2.173c-.4-.228-.4-.6-.01-.825l4.882-2.838a1.582,1.582,0,0,1,1.431,0Zm-6.99,4.062a.436.436,0,0,1,.005.823l-4.882,2.837a1.575,1.575,0,0,1-1.426,0l-3.763-2.172a.438.438,0,0,1-.005-.829l4.882-2.837a1.575,1.575,0,0,1,1.426,0Zm-6.995,4.066a.434.434,0,0,1,0,.822l-4.881,2.837a1.565,1.565,0,0,1-1.421,0l-3.763-2.172c-.4-.229-.4-.6-.01-.826l4.882-2.837a1.566,1.566,0,0,1,1.426,0Zm-6.985,4.058a.438.438,0,0,1,0,.827l-4.882,2.837a1.58,1.58,0,0,1-1.421,0l-3.763-2.173c-.4-.229-.4-.6-.01-.826l4.882-2.837a1.576,1.576,0,0,1,1.431,0Zm-7.095,4.124a.434.434,0,0,1,.005.822l-10.676,6.2a1.58,1.58,0,0,1-1.421,0l-3.763-2.173a.437.437,0,0,1-.01-.826l10.676-6.2a1.566,1.566,0,0,1,1.426,0Zm71.08-34.63a.437.437,0,0,1,.01.826l-4.882,2.837a1.582,1.582,0,0,1-1.431,0l-3.763-2.173a.437.437,0,0,1,0-.826l4.882-2.837a1.572,1.572,0,0,1,1.42,0Zm-6.995,4.065c.4.228.4.6.01.825l-4.882,2.838a1.57,1.57,0,0,1-1.425,0l-3.764-2.173a.435.435,0,0,1-.005-.823l4.883-2.837a1.569,1.569,0,0,1,1.42,0Zm-6.985,4.059a.438.438,0,0,1,.005.829l-4.882,2.837a1.581,1.581,0,0,1-1.426,0l-3.763-2.173a.436.436,0,0,1,0-.823l4.882-2.837a1.579,1.579,0,0,1,1.425,0Zm-6.995,4.065a.437.437,0,0,1,.01.826l-4.882,2.837a1.582,1.582,0,0,1-1.431,0l-3.763-2.173a.437.437,0,0,1,0-.826l4.882-2.837a1.578,1.578,0,0,1,1.42,0Zm-6.99,4.062c.4.229.4.6.01.826l-4.882,2.837a1.567,1.567,0,0,1-1.425,0l-3.764-2.173a.435.435,0,0,1,0-.823l4.882-2.837a1.569,1.569,0,0,1,1.42,0Zm-7,4.071a.438.438,0,0,1,0,.829l-4.882,2.837a1.573,1.573,0,0,1-1.425,0l-3.763-2.172a.436.436,0,0,1-.005-.823l4.882-2.837a1.575,1.575,0,0,1,1.426,0Zm-6.99,4.062c.4.229.4.6.01.826l-4.882,2.837a1.566,1.566,0,0,1-1.426,0l-3.763-2.172a.435.435,0,0,1-.005-.823l4.882-2.837a1.563,1.563,0,0,1,1.42,0Zm-6.99,4.063a.437.437,0,0,1,0,.828l-4.881,2.838a1.569,1.569,0,0,1-1.426,0l-3.763-2.172a.435.435,0,0,1-.005-.823l4.882-2.837a1.573,1.573,0,0,1,1.425,0Zm-6.99,4.062c.4.228.4.6.01.825l-4.882,2.838a1.582,1.582,0,0,1-1.431,0l-3.763-2.173a.437.437,0,0,1,0-.826l4.882-2.837a1.574,1.574,0,0,1,1.421,0Zm-6.995,4.065c.4.228.4.6.01.826l-4.882,2.837a1.572,1.572,0,0,1-1.426,0l-3.763-2.173a.435.435,0,0,1-.005-.823l4.882-2.837a1.569,1.569,0,0,1,1.42,0Zm-6.985,4.059a.438.438,0,0,1,.005.829l-6.067,3.526a1.581,1.581,0,0,1-1.426,0l-3.763-2.173a.436.436,0,0,1-.005-.823l6.067-3.526a1.581,1.581,0,0,1,1.426,0Zm96.6-49.425c.4.229.4.594.005.823l-5.275,3.065a1.566,1.566,0,0,1-1.426,0l-3.763-2.172a.436.436,0,0,1,0-.826l5.275-3.066a1.56,1.56,0,0,1,1.42,0Zm-7.593,4.376a.437.437,0,0,1,0,.826l-6.44,3.742a1.578,1.578,0,0,1-1.42,0l-3.763-2.173a.437.437,0,0,1-.01-.826l6.439-3.742a1.582,1.582,0,0,1,1.431,0Zm-8.62,5.01a.434.434,0,0,1,0,.822l-4.882,2.838a1.569,1.569,0,0,1-1.42,0l-3.763-2.173c-.4-.229-.4-.6-.01-.826l4.882-2.837a1.564,1.564,0,0,1,1.425,0Zm-6.985,4.059a.437.437,0,0,1,0,.826l-4.882,2.837a1.578,1.578,0,0,1-1.42,0l-3.763-2.173a.437.437,0,0,1-.01-.826l4.882-2.837a1.582,1.582,0,0,1,1.431,0Zm-6.995,4.065a.436.436,0,0,1,0,.823l-4.881,2.837a1.581,1.581,0,0,1-1.426,0l-3.763-2.173a.438.438,0,0,1-.005-.829l4.882-2.837a1.579,1.579,0,0,1,1.425,0Zm-6.985,4.059a.437.437,0,0,1,0,.826L519.26,308.6a1.568,1.568,0,0,1-1.421,0l-3.763-2.173c-.4-.228-.4-.6-.01-.825l4.882-2.838a1.582,1.582,0,0,1,1.431,0ZM517.147,309a.436.436,0,0,1,.005.823l-4.888,2.84a1.572,1.572,0,0,1-1.42,0l-3.763-2.173a.437.437,0,0,1-.01-.826l4.887-2.84a1.578,1.578,0,0,1,1.426,0Zm-6.99,4.062a.435.435,0,0,1,0,.823l-4.882,2.837a1.565,1.565,0,0,1-1.421,0l-3.763-2.172c-.4-.229-.4-.6-.01-.826l4.882-2.837a1.566,1.566,0,0,1,1.426,0Zm-7.006,4.072a.436.436,0,0,1,0,.825l-4.882,2.837a1.568,1.568,0,0,1-1.421,0l-3.763-2.173c-.4-.229-.4-.6-.01-.826l4.882-2.837a1.576,1.576,0,0,1,1.431,0Zm-6.99,4.062a.436.436,0,0,1,.005.823l-4.882,2.837a1.581,1.581,0,0,1-1.426,0l-3.763-2.173a.438.438,0,0,1,0-.829l4.882-2.837a1.575,1.575,0,0,1,1.426,0Zm-6.995,4.065a.435.435,0,0,1,.005.823l-4.882,2.837a1.571,1.571,0,0,1-1.421,0l-3.763-2.173c-.4-.229-.4-.6-.01-.826l4.882-2.837a1.569,1.569,0,0,1,1.426,0Zm-6.984,4.059a.437.437,0,0,1,0,.826l-4.882,2.837a1.578,1.578,0,0,1-1.42,0l-3.764-2.173a.437.437,0,0,1-.01-.826l4.882-2.837a1.582,1.582,0,0,1,1.431,0Zm-7.1,4.123a.435.435,0,0,1,0,.823l-10.676,6.2a1.574,1.574,0,0,1-1.421,0l-3.763-2.173c-.4-.228-.4-.6-.01-.825l10.677-6.205a1.567,1.567,0,0,1,1.425,0ZM578.7,286.673c.4.229.4.6.01.826l-3.7,2.148a1.564,1.564,0,0,1-1.425,0l-9.538-5.506c-.4-.229-.4-.6-.01-.826l3.7-2.148a1.566,1.566,0,0,1,1.426,0Zm-11.437-.042a.434.434,0,0,1,0,.822L561.7,290.69a1.579,1.579,0,0,1-1.425,0l-3.763-2.173a.438.438,0,0,1-.005-.829l5.569-3.236a1.566,1.566,0,0,1,1.426,0Zm-7.709,4.479a.437.437,0,0,1,0,.826l-2.758,1.6a1.575,1.575,0,0,1-1.426,0l-3.763-2.173a.438.438,0,0,1-.005-.829l2.758-1.6a1.582,1.582,0,0,1,1.431,0Zm-5.107,2.968a.435.435,0,0,1,.005.823l-2.89,1.679a1.573,1.573,0,0,1-1.425,0l-3.764-2.173a.437.437,0,0,1,0-.828l2.889-1.679a1.566,1.566,0,0,1,1.426,0Zm-5.1,2.962a.436.436,0,0,1,.005.823l-8,4.65a1.575,1.575,0,0,1-1.426,0l-3.763-2.172a.438.438,0,0,1-.005-.829l8-4.65a1.575,1.575,0,0,1,1.426,0Zm-10.115,5.878a.436.436,0,0,1,0,.824l-4.882,2.836a1.563,1.563,0,0,1-1.42,0l-3.763-2.172c-.4-.229-.4-.6-.01-.826l4.882-2.837a1.564,1.564,0,0,1,1.425,0Zm-6.985,4.06a.436.436,0,0,1,0,.825l-4.882,2.838a1.578,1.578,0,0,1-1.42,0l-3.763-2.173c-.4-.229-.4-.6-.01-.826l4.882-2.837a1.576,1.576,0,0,1,1.431,0Zm-6.995,4.065a.436.436,0,0,1,.005.823l-4.882,2.837a1.581,1.581,0,0,1-1.426,0l-3.763-2.173a.438.438,0,0,1-.005-.829l4.882-2.837a1.581,1.581,0,0,1,1.426,0Zm-6.99,4.062a.435.435,0,0,1,.005.823l-4.882,2.837a1.571,1.571,0,0,1-1.421,0l-3.763-2.173c-.4-.228-.4-.6-.01-.826l4.882-2.837a1.572,1.572,0,0,1,1.426,0Zm-7.006,4.071a.437.437,0,0,1,0,.826l-4.882,2.837a1.574,1.574,0,0,1-1.421,0l-3.763-2.173c-.4-.228-.4-.6-.01-.825L506.065,317a1.582,1.582,0,0,1,1.431,0Zm-6.99,4.062a.435.435,0,0,1,0,.823l-4.882,2.837a1.563,1.563,0,0,1-1.42,0l-3.764-2.172c-.4-.229-.4-.6-.01-.826l4.882-2.837a1.566,1.566,0,0,1,1.426,0ZM497.28,327.3a.437.437,0,0,1,0,.826l-4.882,2.837a1.565,1.565,0,0,1-1.421,0l-3.763-2.172c-.4-.229-.4-.6-.01-.826l4.882-2.837a1.576,1.576,0,0,1,1.431,0Zm-6.991,4.063a.435.435,0,0,1,.005.822l-4.882,2.837a1.573,1.573,0,0,1-1.425,0l-3.764-2.172a.438.438,0,0,1,0-.829l4.882-2.837a1.573,1.573,0,0,1,1.425,0Zm-6.995,4.065a.435.435,0,0,1,.005.823l-4.882,2.836a1.563,1.563,0,0,1-1.42,0l-3.764-2.172c-.4-.229-.4-.6-.009-.826l4.881-2.837a1.569,1.569,0,0,1,1.426,0Zm-6.984,4.059a.437.437,0,0,1,0,.826l-4.882,2.837a1.578,1.578,0,0,1-1.42,0l-3.764-2.173c-.395-.229-.4-.6-.009-.826l4.881-2.837a1.576,1.576,0,0,1,1.431,0Zm94.446-48.2c.4.228.4.6.01.826l-4.882,2.837a1.572,1.572,0,0,1-1.426,0l-3.763-2.173a.435.435,0,0,1-.005-.823l4.882-2.837a1.571,1.571,0,0,1,1.421,0Zm-6.985,4.059a.438.438,0,0,1,.005.829l-4.882,2.837a1.581,1.581,0,0,1-1.426,0l-3.763-2.173a.436.436,0,0,1,0-.823l4.882-2.837a1.581,1.581,0,0,1,1.426,0Zm-7.063,4.105c.4.228.4.6.01.826l-4.882,2.837a1.572,1.572,0,0,1-1.426,0l-3.763-2.173a.435.435,0,0,1-.005-.823l4.882-2.837a1.568,1.568,0,0,1,1.421,0Zm-6.985,4.059a.438.438,0,0,1,.005.829l-4.882,2.837a1.581,1.581,0,0,1-1.426,0L539.657,305a.436.436,0,0,1-.005-.823l4.882-2.837a1.581,1.581,0,0,1,1.426,0Zm-6.995,4.065c.4.229.4.6.01.826l-32.863,19.1a1.566,1.566,0,0,1-1.426,0l-3.763-2.172a.435.435,0,0,1,0-.823l32.862-19.1a1.571,1.571,0,0,1,1.421,0ZM507.763,327.9a.437.437,0,0,1,.01.825l-4.882,2.838a1.582,1.582,0,0,1-1.431,0l-3.764-2.173a.437.437,0,0,1,0-.826l4.882-2.837a1.572,1.572,0,0,1,1.42,0Zm-7,4.065c.4.228.4.6.01.826l-4.882,2.837a1.57,1.57,0,0,1-1.425,0l-3.764-2.173a.435.435,0,0,1,0-.823l4.882-2.837a1.566,1.566,0,0,1,1.42,0Zm-6.984,4.059a.438.438,0,0,1,0,.829l-4.882,2.837a1.579,1.579,0,0,1-1.425,0l-3.763-2.173a.436.436,0,0,1-.005-.823l4.882-2.837a1.579,1.579,0,0,1,1.425,0Zm-7,4.065c.4.229.4.6.01.826l-4.882,2.837a1.576,1.576,0,0,1-1.431,0l-3.763-2.173a.437.437,0,0,1,0-.826l4.882-2.837a1.578,1.578,0,0,1,1.42,0Zm-6.984,4.059a.438.438,0,0,1,0,.829l-3.786,2.2a1.573,1.573,0,0,1-1.425,0L470.832,345a.435.435,0,0,1,0-.822l3.786-2.2a1.581,1.581,0,0,1,1.426,0Z" transform="translate(-426.949 -259.652)" fill="#b4b9f6"/>
      </g>
    </g>
    <g id="Grupo_42856" data-name="Grupo 42856" transform="translate(0)">
      <g id="Grupo_42853" data-name="Grupo 42853" transform="translate(30.567 136.017)">
        <path id="Trazado_112270" data-name="Trazado 112270" d="M574.78,258.058a3.956,3.956,0,0,0-3.591,0l-69.483,40.379a1.1,1.1,0,0,0,.015,2.08l14.82,8.168a3.953,3.953,0,0,0,3.591,0l69.483-40.379a1.1,1.1,0,0,0-.015-2.08Z" transform="translate(-500.969 -254.741)" fill="#bbb8f6" opacity="0.5" style="mix-blend-mode: multiply;isolation: isolate"/>
        <path id="Trazado_112271" data-name="Trazado 112271" d="M573.839,257.4a3.826,3.826,0,0,0-3.474,0l-67.949,37.711s0,2,0,2.368a1.235,1.235,0,0,0,.726,1.007l14.342,7.9a3.826,3.826,0,0,0,3.474,0L588.2,267.313a1.211,1.211,0,0,0,.712-1.006c0-.364-.046-2.508-.046-2.508Z" transform="translate(-500.971 -254.741)" fill="#9796f7"/>
        <path id="Trazado_112272" data-name="Trazado 112272" d="M573.838,255.159a3.826,3.826,0,0,0-3.474,0l-67.237,39.074a1.063,1.063,0,0,0,.014,2.012l14.342,7.9a3.826,3.826,0,0,0,3.474,0l67.237-39.074a1.063,1.063,0,0,0-.014-2.012Z" transform="translate(-500.969 -254.741)" fill="#d9dff6"/>
      </g>
      <path id="Trazado_112273" data-name="Trazado 112273" d="M484.233,195.15l131.578-75.966a2.335,2.335,0,0,1,2.472-.188l.012-.007,2.624,1.559-1.7.992.289,101.8a7.444,7.444,0,0,1-3.381,5.856l-130.8,75.515,1.6.949-2.171,1.264-2.666-1.555.02-.011a2.365,2.365,0,0,1-.965-2.134l-.289-102.22A7.446,7.446,0,0,1,484.233,195.15Z" transform="translate(-480.853 -118.724)" fill="#9796f7"/>
      <g id="Grupo_42854" data-name="Grupo 42854" transform="translate(55.577 126.317)">
        <path id="Trazado_112274" data-name="Trazado 112274" d="M534.624,263.447v24.305l2.362,1.277,28.357-18.053V245.04Z" transform="translate(-534.624 -245.04)" fill="#9796f7"/>
        <path id="Trazado_112275" data-name="Trazado 112275" d="M532.262,263.84V289.03l30.719-17.661V245.433Z" transform="translate(-529.9 -245.04)" fill="#b4b9f6"/>
      </g>
      <path id="Trazado_112276" data-name="Trazado 112276" d="M482.493,196.727a7.446,7.446,0,0,0-3.381,5.856L479.4,304.8c.006,2.155,1.528,3.022,3.4,1.94l131.577-75.967a7.444,7.444,0,0,0,3.381-5.856l-.29-102.219c-.006-2.154-1.528-3.022-3.4-1.939Z" transform="translate(-475.956 -118.724)" fill="#d9dff6"/>
      <g id="Grupo_42855" data-name="Grupo 42855" transform="translate(7.274 12.157)">
        <path id="Trazado_112277" data-name="Trazado 112277" d="M613.645,214.488a8.683,8.683,0,0,1-3.95,6.829l-74.2,42.838-48.072,27.76c-2.183,1.265-3.961.251-3.97-2.26l-.222-80.8a8.691,8.691,0,0,1,3.94-6.838l60.263-34.792,62.011-35.806c2.183-1.256,3.97-.251,3.97,2.27Z" transform="translate(-483.23 -130.881)" fill="#f7f7f7"/>
      </g>
    </g>
    <g id="Grupo_42859" data-name="Grupo 42859" transform="translate(24.432 30.196)" opacity="0.47">
      <path id="Trazado_112278" data-name="Trazado 112278" d="M592.29,149.3l-92.134,53.288a2.8,2.8,0,0,0-1.4,2.418l-.077,65.392a2.8,2.8,0,0,0,4.2,2.421l92.133-53.5a2.8,2.8,0,0,0,1.392-2.415l.079-65.178A2.8,2.8,0,0,0,592.29,149.3Z" transform="translate(-498.683 -148.92)" fill="#d9dff6"/>
      <g id="Grupo_42857" data-name="Grupo 42857" transform="translate(5.889 6.878)" opacity="0.5">
        <path id="Trazado_112279" data-name="Trazado 112279" d="M501.149,241.165l89.283-51.848v.8l-89.284,51.847Z" transform="translate(-500.982 -155.798)" fill="#fff"/>
        <path id="Trazado_112280" data-name="Trazado 112280" d="M501.159,249.57l89.283-51.847v.8l-89.283,51.848Z" transform="translate(-501.003 -155.798)" fill="#fff"/>
        <path id="Trazado_112281" data-name="Trazado 112281" d="M501.169,257.975l89.283-51.847v.8l-89.283,51.846Z" transform="translate(-501.023 -155.798)" fill="#fff"/>
        <path id="Trazado_112282" data-name="Trazado 112282" d="M501.109,207.645,590.392,155.8v.8l-89.283,51.847Z" transform="translate(-500.901 -155.798)" fill="#fff"/>
        <path id="Trazado_112283" data-name="Trazado 112283" d="M501.18,266.381l89.283-51.848v.8l-89.283,51.847Z" transform="translate(-501.043 -155.798)" fill="#fff"/>
        <path id="Trazado_112284" data-name="Trazado 112284" d="M501.119,215.948,590.4,164.1v.8L501.118,216.75Z" transform="translate(-500.921 -155.798)" fill="#fff"/>
        <path id="Trazado_112285" data-name="Trazado 112285" d="M501.129,224.354l89.283-51.847v.8l-89.283,51.847Z" transform="translate(-500.941 -155.798)" fill="#fff"/>
        <path id="Trazado_112286" data-name="Trazado 112286" d="M501.139,232.759l89.283-51.848v.8l-89.283,51.847Z" transform="translate(-500.962 -155.798)" fill="#fff"/>
        <path id="Trazado_112287" data-name="Trazado 112287" d="M501.909,156.161l-.071,58.376-.73.421.071-58.379Z" transform="translate(-412.419 -155.798)" fill="#fff"/>
        <path id="Trazado_112288" data-name="Trazado 112288" d="M510.777,161.328l-.071,58.375-.729.421.071-58.379Z" transform="translate(-430.156 -155.798)" fill="#fff"/>
        <path id="Trazado_112289" data-name="Trazado 112289" d="M519.646,166.494l-.071,58.376-.729.421.071-58.378Z" transform="translate(-447.895 -155.798)" fill="#fff"/>
        <path id="Trazado_112290" data-name="Trazado 112290" d="M528.516,171.661l-.071,58.376-.73.421.071-58.379Z" transform="translate(-465.632 -155.798)" fill="#fff"/>
        <path id="Trazado_112291" data-name="Trazado 112291" d="M537.385,176.827l-.071,58.376-.73.42.071-58.378Z" transform="translate(-483.37 -155.798)" fill="#fff"/>
        <path id="Trazado_112292" data-name="Trazado 112292" d="M546.253,181.993l-.071,58.376-.729.421.071-58.378Z" transform="translate(-501.107 -155.798)" fill="#fff"/>
        <path id="Trazado_112293" data-name="Trazado 112293" d="M555.122,187.16l-.071,58.376-.729.421.071-58.379Z" transform="translate(-518.846 -155.798)" fill="#fff"/>
        <path id="Trazado_112294" data-name="Trazado 112294" d="M563.991,192.327l-.071,58.376-.73.421.071-58.379Z" transform="translate(-536.583 -155.798)" fill="#fff"/>
        <path id="Trazado_112295" data-name="Trazado 112295" d="M572.86,197.494l-.071,58.375-.73.421.071-58.378Z" transform="translate(-554.322 -155.798)" fill="#fff"/>
        <path id="Trazado_112296" data-name="Trazado 112296" d="M581.73,202.66l-.071,58.375-.73.421L581,203.078Z" transform="translate(-572.06 -155.798)" fill="#fff"/>
        <path id="Trazado_112297" data-name="Trazado 112297" d="M590.6,207.293l-.072,59.539-.729.421.072-59.542Z" transform="translate(-589.797 -155.798)" fill="#fff"/>
      </g>
      <g id="Grupo_42858" data-name="Grupo 42858" transform="translate(6.712 50.747)">
        <path id="Trazado_112298" data-name="Trazado 112298" d="M529.05,235.594l16.224-34.213,16.464,13.977,7.107-11.3,20.261,12.569.669-.695-21.152-13.431-7.19,11.439-16.764-14.277-16.143,33.438-25.214-25.318-.833.486Z" transform="translate(-502.479 -199.667)" fill="#9796f7"/>
      </g>
    </g>
    <g id="Grupo_42865" data-name="Grupo 42865" transform="translate(14.421 13.75)">
      <g id="Grupo_42860" data-name="Grupo 42860" transform="translate(113.853)">
        <path id="Trazado_112299" data-name="Trazado 112299" d="M491.48,164.08l-20.4,11.8a2.333,2.333,0,0,1-3.5-2.02v-27.25a2.334,2.334,0,0,1,1.165-2.02l20.4-11.8a2.333,2.333,0,0,1,3.5,2.02v27.25A2.334,2.334,0,0,1,491.48,164.08Z" transform="translate(-467.576 -132.473)" fill="#b4b9f6"/>
        <path id="Trazado_112300" data-name="Trazado 112300" d="M478.4,154.063v-8.7a.967.967,0,0,0-1.451-.837l-6.467,3.739a.967.967,0,0,0-.483.837v8.7a.967.967,0,0,0,1.451.837l6.467-3.74A.967.967,0,0,0,478.4,154.063Zm1.036-9.665a.505.505,0,0,1-.254-.942l9.88-5.754a.506.506,0,0,1,.51.873l-9.881,5.754A.512.512,0,0,1,479.436,144.4Zm.255,2.192,9.881-5.754a.506.506,0,0,0-.51-.873l-9.88,5.754a.505.505,0,1,0,.509.873Zm0,2.261,9.881-5.754a.506.506,0,0,0-.51-.873l-9.88,5.754a.505.505,0,1,0,.509.873Zm0,2.262,9.881-5.755a.506.506,0,0,0-.51-.873l-9.88,5.754a.505.505,0,0,0,.254.942A.511.511,0,0,0,479.691,151.113Zm0,2.26,9.881-5.754a.506.506,0,0,0-.51-.873l-9.88,5.754a.505.505,0,1,0,.509.873Z" transform="translate(-467.176 -132.473)" fill="#fffaff"/>
        <path id="Trazado_112301" data-name="Trazado 112301" d="M478.4,167.629v-8.7a.967.967,0,0,0-1.451-.837l-6.467,3.74a.967.967,0,0,0-.483.837v8.7a.967.967,0,0,0,1.451.837l6.467-3.74A.966.966,0,0,0,478.4,167.629Zm1.036-9.665a.505.505,0,0,1-.254-.942l9.88-5.753a.506.506,0,0,1,.51.873l-9.881,5.754A.51.51,0,0,1,479.436,157.964Zm.255,2.193,9.881-5.754a.506.506,0,0,0-.51-.873l-9.88,5.754a.5.5,0,0,0,.254.941A.51.51,0,0,0,479.691,160.157Zm0,2.261,9.881-5.754a.506.506,0,0,0-.51-.874l-9.88,5.755a.506.506,0,0,0,.254.942A.512.512,0,0,0,479.691,162.418Zm0,2.261,9.881-5.754a.506.506,0,0,0-.51-.873l-9.88,5.754a.505.505,0,1,0,.509.873Zm0,2.261,9.881-5.754a.506.506,0,0,0-.51-.873l-9.88,5.754a.5.5,0,0,0,.254.941A.511.511,0,0,0,479.691,166.94Z" transform="translate(-467.176 -132.473)" fill="#fffaff"/>
      </g>
      <g id="Grupo_42861" data-name="Grupo 42861" transform="translate(114.632 38.724)">
        <path id="Trazado_112302" data-name="Trazado 112302" d="M490.7,202.8l-20.4,11.8a2.333,2.333,0,0,1-3.5-2.019V185.332a2.332,2.332,0,0,1,1.165-2.019l20.4-11.8a2.333,2.333,0,0,1,3.5,2.019v27.251A2.333,2.333,0,0,1,490.7,202.8Z" transform="translate(-466.796 -171.197)" fill="#b4b9f6"/>
        <path id="Trazado_112303" data-name="Trazado 112303" d="M477.62,192.786v-8.7a.967.967,0,0,0-1.451-.837l-6.467,3.74a.967.967,0,0,0-.483.837v8.7a.967.967,0,0,0,1.451.837l6.467-3.74A.967.967,0,0,0,477.62,192.786Zm1.037-9.665a.506.506,0,0,1-.255-.942l9.881-5.754a.506.506,0,0,1,.509.874l-9.881,5.753A.5.5,0,0,1,478.657,183.121Zm.254,2.193,9.881-5.754a.506.506,0,0,0-.509-.874L478.4,184.44a.506.506,0,0,0,.509.874Zm0,2.261,9.881-5.755a.505.505,0,0,0-.509-.873L478.4,186.7a.506.506,0,0,0,.509.874Zm0,2.261,9.881-5.754a.506.506,0,0,0-.509-.874l-9.881,5.755a.505.505,0,1,0,.509.873Zm0,2.261,9.881-5.754a.505.505,0,0,0-.509-.873l-9.881,5.753a.506.506,0,0,0,.509.874Z" transform="translate(-466.396 -171.197)" fill="#fffaff"/>
        <path id="Trazado_112304" data-name="Trazado 112304" d="M477.62,206.353v-8.7a.967.967,0,0,0-1.451-.837l-6.467,3.739a.967.967,0,0,0-.483.837v8.705a.967.967,0,0,0,1.451.837l6.467-3.74A.967.967,0,0,0,477.62,206.353Zm1.037-9.665a.506.506,0,0,1-.255-.942l9.881-5.754a.505.505,0,0,1,.509.873l-9.881,5.754A.508.508,0,0,1,478.657,196.688Zm.254,2.192,9.881-5.754a.505.505,0,0,0-.509-.873l-9.881,5.754a.506.506,0,0,0,.255.942A.5.5,0,0,0,478.911,198.88Zm0,2.261,9.881-5.754a.505.505,0,0,0-.509-.873l-9.881,5.754a.506.506,0,0,0,.255.942A.5.5,0,0,0,478.911,201.141Zm0,2.262,9.881-5.755a.505.505,0,0,0-.509-.873l-9.881,5.754a.506.506,0,0,0,.509.874Zm0,2.26,9.881-5.754a.505.505,0,0,0-.509-.873L478.4,204.79a.506.506,0,0,0,.255.942A.5.5,0,0,0,478.911,205.663Z" transform="translate(-466.396 -171.197)" fill="#fffaff"/>
      </g>
      <g id="Grupo_42862" data-name="Grupo 42862" transform="translate(75.827 53.341)">
        <path id="Trazado_112305" data-name="Trazado 112305" d="M529.245,224.5l-24.976,14.443a2.856,2.856,0,0,1-4.286-2.472V203.117a2.858,2.858,0,0,1,1.426-2.472L526.386,186.2a2.855,2.855,0,0,1,4.285,2.472v33.358A2.855,2.855,0,0,1,529.245,224.5Z" transform="translate(-499.983 -185.814)" fill="#b4b9f6"/>
        <path id="Trazado_112306" data-name="Trazado 112306" d="M519.256,201.809c-2.756-1.794-7-.165-9.476,3.639s-2.251,8.343.505,10.138,7,.166,9.476-3.639S522.012,203.6,519.256,201.809Zm2.62,26.285-14.26,8.246s0-10.646,2.164-14.735c2.124-4.013,7.275-5.754,9.476-3.639C521.983,220.586,521.876,228.094,521.876,228.094Z" transform="translate(-498.822 -185.814)" fill="#fffaff"/>
      </g>
      <g id="Grupo_42864" data-name="Grupo 42864" transform="translate(0 64.944)">
        <g id="Grupo_42863" data-name="Grupo 42863" transform="translate(0)" clip-path="url(#clip-path)">
          <path id="Trazado_112307" data-name="Trazado 112307" d="M606.5,215.555l-20.748,12V208.678l20.748-12Z" transform="translate(-585.751 -197.417)" fill="#d1d3ff"/>
          <path id="Trazado_112308" data-name="Trazado 112308" d="M606.5,215.555l-20.748,12,10.947-16.8Z" transform="translate(-585.751 -197.417)" fill="#d9dff6"/>
          <path id="Trazado_112309" data-name="Trazado 112309" d="M595.723,212.116l-9.972-3.438,20.747-12-8.911,14.76A1.577,1.577,0,0,1,595.723,212.116Z" transform="translate(-585.751 -197.417)" fill="#d9dff6"/>
        </g>
      </g>
    </g>
  </g>
  <g id="Grupo_42870" data-name="Grupo 42870" transform="translate(207.726 19.376)">
    <path id="Trazado_112311" data-name="Trazado 112311" d="M420.113,232.419,402.5,242.672h0l-17.635-10.118L402.6,222.227h0Z" transform="translate(-340.067 -138.099)" fill="#9997e9" opacity="0.5" style="mix-blend-mode: multiply;isolation: isolate"/>
    <path id="Trazado_112312" data-name="Trazado 112312" d="M442.27,245.775l-17.615,10.253L407.02,245.91l17.741-10.327h0Z" transform="translate(-384.381 -138.099)" fill="#bbb8f6" opacity="0.5" style="mix-blend-mode: multiply;isolation: isolate"/>
    <path id="Trazado_112313" data-name="Trazado 112313" d="M464.909,258.59l-17.615,10.253-17.635-10.118L447.4,248.4h0Z" transform="translate(-429.659 -138.099)" fill="#bbb8f6" opacity="0.5" style="mix-blend-mode: multiply;isolation: isolate"/>
    <g id="Grupo_42867" data-name="Grupo 42867" transform="translate(50.125)">
      <path id="Trazado_112314" data-name="Trazado 112314" d="M414.783,232.569l-13.549,7.887-13.565-7.783V146.043l27.115-.1Z" transform="translate(-387.669 -138.099)" fill="#8184eb"/>
      <path id="Trazado_112315" data-name="Trazado 112315" d="M414.783,145.939l-13.549,7.887-13.565-7.783,13.647-7.943Z" transform="translate(-387.669 -138.099)" fill="#d9dff7"/>
      <path id="Trazado_112316" data-name="Trazado 112316" d="M414.783,240.456V153.825l-13.565-7.783v86.631Z" transform="translate(-401.218 -138.099)" fill="#bbb8f6"/>
    </g>
    <g id="Grupo_42868" data-name="Grupo 42868" transform="translate(27.239 25.455)">
      <path id="Trazado_112317" data-name="Trazado 112317" d="M437.67,245.976l-13.549,7.887-13.565-7.783V171.5l27.115-.1Z" transform="translate(-410.555 -163.554)" fill="#8184eb"/>
      <path id="Trazado_112318" data-name="Trazado 112318" d="M437.67,171.394l-13.549,7.887L410.555,171.5l13.647-7.943Z" transform="translate(-410.555 -163.554)" fill="#d9dff7"/>
      <path id="Trazado_112319" data-name="Trazado 112319" d="M437.67,253.863V179.28L424.1,171.5V246.08Z" transform="translate(-424.105 -163.554)" fill="#b4b9f6"/>
    </g>
    <g id="Grupo_42869" data-name="Grupo 42869" transform="translate(4.352 55.772)">
      <path id="Trazado_112320" data-name="Trazado 112320" d="M460.557,259.383l-13.549,7.887-13.565-7.783V201.815l27.115-.1Z" transform="translate(-433.442 -193.872)" fill="#8184eb"/>
      <path id="Trazado_112321" data-name="Trazado 112321" d="M460.557,201.711,447.007,209.6l-13.565-7.783,13.647-7.943Z" transform="translate(-433.442 -193.872)" fill="#d9dff7"/>
      <path id="Trazado_112322" data-name="Trazado 112322" d="M460.557,267.27V209.6l-13.565-7.783v57.672Z" transform="translate(-446.991 -193.872)" fill="#b4b9f6"/>
    </g>
  </g>
  <g id="Grupo_42899" data-name="Grupo 42899" transform="translate(55.554 206.838)">
    <g id="Grupo_42871" data-name="Grupo 42871" transform="translate(0 23.041)">
      <path id="Trazado_112323" data-name="Trazado 112323" d="M584.381,365c0,4.393-6.707,7.955-14.982,7.955S554.42,369.4,554.42,365s6.707-7.952,14.979-7.952S584.381,360.613,584.381,365Z" transform="translate(-521.72 -348.603)" fill="#bbb8f6" opacity="0.5" style="mix-blend-mode: multiply;isolation: isolate"/>
      <path id="Trazado_112324" data-name="Trazado 112324" d="M602.942,356.555c0,4.393-6.707,7.955-14.982,7.955s-14.98-3.562-14.98-7.955,6.707-7.952,14.98-7.952S602.942,352.165,602.942,356.555Z" transform="translate(-558.841 -348.603)" fill="#bbb8f6" opacity="0.5" style="mix-blend-mode: multiply;isolation: isolate"/>
      <path id="Trazado_112325" data-name="Trazado 112325" d="M617.081,370c0,4.393-6.707,7.955-14.982,7.955S587.12,374.391,587.12,370s6.706-7.952,14.979-7.952S617.081,365.607,617.081,370Z" transform="translate(-587.12 -348.603)" fill="#bbb8f6" opacity="0.5" style="mix-blend-mode: multiply;isolation: isolate"/>
    </g>
    <g id="Grupo_42874" data-name="Grupo 42874" transform="translate(15.902 18.612)">
      <g id="Grupo_42873" data-name="Grupo 42873" transform="translate(0)">
        <g id="Grupo_42872" data-name="Grupo 42872" transform="translate(0)">
          <path id="Trazado_112326" data-name="Trazado 112326" d="M573.53,351.691v3.073c0,4.151,6.189,7.517,13.824,7.517s13.825-3.366,13.825-7.517v-3.073Z" transform="translate(-573.53 -344.174)" fill="#9796f7"/>
          <path id="Trazado_112327" data-name="Trazado 112327" d="M586.371,361.213c.442.149.894.288,1.372.4v-7.735h-1.372Zm14.036.031c-.442.148-.894.288-1.372.4v-7.734h1.372Zm-17.65-1.685a8,8,0,0,1-2.41-2.337v-5.175h2.41Z" transform="translate(-579.575 -344.174)" fill="#6782ea" opacity="0.41" style="mix-blend-mode: screen;isolation: isolate"/>
          <path id="Trazado_112328" data-name="Trazado 112328" d="M601.179,351.691c0,4.151-6.19,7.517-13.825,7.517s-13.824-3.366-13.824-7.517,6.189-7.517,13.824-7.517S601.179,347.54,601.179,351.691Z" transform="translate(-573.53 -344.174)" fill="#d9dff6"/>
          <path id="Trazado_112329" data-name="Trazado 112329" d="M598,351.6c0,3.121-4.765,5.651-10.643,5.651s-10.642-2.53-10.642-5.651,4.764-5.65,10.642-5.65S598,348.478,598,351.6Z" transform="translate(-573.53 -344.174)" fill="#b4b9f6"/>
          <path id="Trazado_112330" data-name="Trazado 112330" d="M587.354,346.731c-5.629,0-10.224,2.322-10.605,5.258a3.029,3.029,0,0,1-.037-.392c0-3.119,4.764-5.65,10.642-5.65S598,348.478,598,351.6a3.018,3.018,0,0,1-.037.392C597.579,349.053,592.983,346.731,587.354,346.731Z" transform="translate(-573.53 -344.174)" fill="#9796f7"/>
          <path id="Trazado_112331" data-name="Trazado 112331" d="M582.646,349.309l-.974-.567.769-.444.975.566a5.916,5.916,0,0,1,5.418-.234c1.889,1.1.631,2.246-.327,3.192l1.9,1.1c.282-.319.221-.634-.229-.946l2.2-1.274c1.5.937,1.152,2.124-.351,3.163l.986.574-.77.444-.974-.565a5.93,5.93,0,0,1-5.485.236c-1.865-1.084-.552-2.241.383-3.2l-1.865-1.082c-.223.264-.175.558.22.846l-2.217,1.279C580.9,351.449,581.112,350.345,582.646,349.309Zm5.382,4.04a1.9,1.9,0,0,0,1.64.04l-1.7-.99C587.671,352.775,587.6,353.1,588.028,353.349Zm-1.342-2.585c.25-.365.283-.677-.138-.921a1.693,1.693,0,0,0-1.533-.051Z" transform="translate(-573.53 -344.174)" fill="#9796f7"/>
          <path id="Trazado_112332" data-name="Trazado 112332" d="M582.646,348.954l-.974-.567.769-.444.975.566a5.922,5.922,0,0,1,5.418-.234c1.889,1.1.631,2.246-.327,3.192l1.9,1.1c.282-.319.221-.634-.229-.946l2.2-1.274c1.5.938,1.152,2.124-.351,3.163l.986.575-.77.443-.974-.565a5.93,5.93,0,0,1-5.485.236c-1.865-1.083-.552-2.241.383-3.2l-1.865-1.082c-.223.264-.175.559.22.846l-2.217,1.279C580.9,351.094,581.112,349.99,582.646,348.954Zm5.382,4.041a1.905,1.905,0,0,0,1.64.039l-1.7-.99C587.671,352.42,587.6,352.744,588.028,352.995Zm-1.342-2.586c.25-.365.283-.677-.138-.921a1.693,1.693,0,0,0-1.533-.051Z" transform="translate(-573.53 -344.174)" fill="#d9dff6"/>
        </g>
      </g>
    </g>
    <g id="Grupo_42877" data-name="Grupo 42877" transform="translate(15.902 13.959)">
      <g id="Grupo_42876" data-name="Grupo 42876" transform="translate(0)">
        <g id="Grupo_42875" data-name="Grupo 42875" transform="translate(0)">
          <path id="Trazado_112333" data-name="Trazado 112333" d="M573.53,347.038v3.073c0,4.151,6.189,7.517,13.824,7.517s13.825-3.366,13.825-7.517v-3.073Z" transform="translate(-573.53 -339.521)" fill="#9796f7"/>
          <path id="Trazado_112334" data-name="Trazado 112334" d="M586.371,356.56c.442.148.894.288,1.372.4V349.23h-1.372Zm14.036.031c-.442.148-.894.288-1.372.4v-7.734h1.372Zm-17.65-1.685a8,8,0,0,1-2.41-2.337v-5.175h2.41Z" transform="translate(-579.575 -339.521)" fill="#6782ea" opacity="0.41" style="mix-blend-mode: screen;isolation: isolate"/>
          <path id="Trazado_112335" data-name="Trazado 112335" d="M601.179,347.038c0,4.151-6.19,7.517-13.825,7.517s-13.824-3.366-13.824-7.517,6.189-7.517,13.824-7.517S601.179,342.887,601.179,347.038Z" transform="translate(-573.53 -339.521)" fill="#d9dff6"/>
          <path id="Trazado_112336" data-name="Trazado 112336" d="M598,346.944c0,3.121-4.765,5.651-10.643,5.651s-10.642-2.53-10.642-5.651,4.764-5.65,10.642-5.65S598,343.824,598,346.944Z" transform="translate(-573.53 -339.521)" fill="#b4b9f6"/>
          <path id="Trazado_112337" data-name="Trazado 112337" d="M587.354,342.077c-5.629,0-10.224,2.323-10.605,5.258a3,3,0,0,1-.037-.391c0-3.12,4.764-5.65,10.642-5.65S598,343.824,598,346.944a2.986,2.986,0,0,1-.037.391C597.579,344.4,592.983,342.077,587.354,342.077Z" transform="translate(-573.53 -339.521)" fill="#9796f7"/>
          <path id="Trazado_112338" data-name="Trazado 112338" d="M582.646,344.656l-.974-.568.769-.443.975.565a5.918,5.918,0,0,1,5.418-.233c1.889,1.1.631,2.245-.327,3.192l1.9,1.1c.282-.319.221-.634-.229-.946l2.2-1.274c1.5.937,1.152,2.124-.351,3.163l.986.574-.77.444-.974-.566a5.927,5.927,0,0,1-5.485.237c-1.865-1.084-.552-2.242.383-3.2l-1.865-1.082c-.223.264-.175.558.22.845l-2.217,1.28C580.9,346.8,581.112,345.692,582.646,344.656Zm5.382,4.04a1.9,1.9,0,0,0,1.64.04l-1.7-.99C587.671,348.122,587.6,348.445,588.028,348.7Zm-1.342-2.585c.25-.366.283-.678-.138-.921a1.693,1.693,0,0,0-1.533-.051Z" transform="translate(-573.53 -339.521)" fill="#9796f7"/>
          <path id="Trazado_112339" data-name="Trazado 112339" d="M582.646,344.3l-.974-.567.769-.444.975.566a5.919,5.919,0,0,1,5.418-.234c1.889,1.1.631,2.246-.327,3.192l1.9,1.1c.282-.319.221-.634-.229-.946l2.2-1.274c1.5.937,1.152,2.124-.351,3.163l.986.574-.77.444-.974-.565a5.93,5.93,0,0,1-5.485.236c-1.865-1.084-.552-2.241.383-3.2l-1.865-1.082c-.223.264-.175.558.22.846l-2.217,1.279C580.9,346.441,581.112,345.337,582.646,344.3Zm5.382,4.041a1.905,1.905,0,0,0,1.64.039l-1.7-.99C587.671,347.767,587.6,348.091,588.028,348.342Zm-1.342-2.586c.25-.365.283-.677-.138-.921a1.693,1.693,0,0,0-1.533-.051Z" transform="translate(-573.53 -339.521)" fill="#d9dff6"/>
        </g>
      </g>
    </g>
    <g id="Grupo_42880" data-name="Grupo 42880" transform="translate(15.902 9.306)">
      <g id="Grupo_42879" data-name="Grupo 42879" transform="translate(0)">
        <g id="Grupo_42878" data-name="Grupo 42878" transform="translate(0)">
          <path id="Trazado_112340" data-name="Trazado 112340" d="M573.53,342.385v3.073c0,4.151,6.189,7.517,13.824,7.517s13.825-3.366,13.825-7.517v-3.073Z" transform="translate(-573.53 -334.868)" fill="#9796f7"/>
          <path id="Trazado_112341" data-name="Trazado 112341" d="M586.371,351.907c.442.148.894.288,1.372.4v-7.734h-1.372Zm14.036.031c-.442.148-.894.287-1.372.4v-7.734h1.372Zm-17.65-1.685a7.988,7.988,0,0,1-2.41-2.338V342.74h2.41Z" transform="translate(-579.575 -334.868)" fill="#6782ea" opacity="0.41" style="mix-blend-mode: screen;isolation: isolate"/>
          <path id="Trazado_112342" data-name="Trazado 112342" d="M601.179,342.385c0,4.151-6.19,7.517-13.825,7.517s-13.824-3.366-13.824-7.517,6.189-7.517,13.824-7.517S601.179,338.234,601.179,342.385Z" transform="translate(-573.53 -334.868)" fill="#d9dff6"/>
          <path id="Trazado_112343" data-name="Trazado 112343" d="M598,342.291c0,3.12-4.765,5.651-10.643,5.651s-10.642-2.531-10.642-5.651,4.764-5.65,10.642-5.65S598,339.171,598,342.291Z" transform="translate(-573.53 -334.868)" fill="#b4b9f6"/>
          <path id="Trazado_112344" data-name="Trazado 112344" d="M587.354,337.424c-5.629,0-10.224,2.323-10.605,5.258a3.013,3.013,0,0,1-.037-.391c0-3.12,4.764-5.65,10.642-5.65S598,339.171,598,342.291a3,3,0,0,1-.037.391C597.579,339.747,592.983,337.424,587.354,337.424Z" transform="translate(-573.53 -334.868)" fill="#9796f7"/>
          <path id="Trazado_112345" data-name="Trazado 112345" d="M582.646,340l-.974-.568.769-.444.975.566a5.918,5.918,0,0,1,5.418-.233c1.889,1.1.631,2.245-.327,3.191l1.9,1.1c.282-.319.221-.634-.229-.946l2.2-1.274c1.5.937,1.152,2.124-.351,3.163l.986.574-.77.444-.974-.566a5.927,5.927,0,0,1-5.485.237c-1.865-1.084-.552-2.242.383-3.2l-1.865-1.083c-.223.264-.175.559.22.846l-2.217,1.28C580.9,342.143,581.112,341.039,582.646,340Zm5.382,4.04a1.9,1.9,0,0,0,1.64.039l-1.7-.989C587.671,343.469,587.6,343.792,588.028,344.043Zm-1.342-2.585c.25-.366.283-.678-.138-.922a1.7,1.7,0,0,0-1.533-.05Z" transform="translate(-573.53 -334.868)" fill="#9796f7"/>
          <path id="Trazado_112346" data-name="Trazado 112346" d="M582.646,339.648l-.974-.567.769-.444.975.566a5.916,5.916,0,0,1,5.418-.234c1.889,1.1.631,2.246-.327,3.192l1.9,1.1c.282-.319.221-.634-.229-.946l2.2-1.274c1.5.937,1.152,2.124-.351,3.163l.986.574-.77.444-.974-.566a5.927,5.927,0,0,1-5.485.237c-1.865-1.084-.552-2.241.383-3.2l-1.865-1.082c-.223.264-.175.558.22.846l-2.217,1.279C580.9,341.788,581.112,340.684,582.646,339.648Zm5.382,4.04a1.9,1.9,0,0,0,1.64.04l-1.7-.99C587.671,343.114,587.6,343.437,588.028,343.688Zm-1.342-2.585c.25-.365.283-.677-.138-.921a1.693,1.693,0,0,0-1.533-.051Z" transform="translate(-573.53 -334.868)" fill="#d9dff6"/>
        </g>
      </g>
    </g>
    <g id="Grupo_42883" data-name="Grupo 42883" transform="translate(15.902 4.653)">
      <g id="Grupo_42882" data-name="Grupo 42882" transform="translate(0)">
        <g id="Grupo_42881" data-name="Grupo 42881" transform="translate(0)">
          <path id="Trazado_112347" data-name="Trazado 112347" d="M573.53,337.732V340.8c0,4.151,6.189,7.516,13.824,7.516s13.825-3.365,13.825-7.516v-3.073Z" transform="translate(-573.53 -330.215)" fill="#9796f7"/>
          <path id="Trazado_112348" data-name="Trazado 112348" d="M586.371,347.254c.442.148.894.288,1.372.4v-7.734h-1.372Zm14.036.03c-.442.149-.894.288-1.372.4v-7.734h1.372Zm-17.65-1.684a7.988,7.988,0,0,1-2.41-2.338v-5.175h2.41Z" transform="translate(-579.575 -330.215)" fill="#6782ea" opacity="0.41" style="mix-blend-mode: screen;isolation: isolate"/>
          <path id="Trazado_112349" data-name="Trazado 112349" d="M601.179,337.732c0,4.151-6.19,7.516-13.825,7.516s-13.824-3.365-13.824-7.516,6.189-7.517,13.824-7.517S601.179,333.581,601.179,337.732Z" transform="translate(-573.53 -330.215)" fill="#d9dff6"/>
          <path id="Trazado_112350" data-name="Trazado 112350" d="M598,337.638c0,3.12-4.765,5.65-10.643,5.65s-10.642-2.53-10.642-5.65,4.764-5.65,10.642-5.65S598,334.518,598,337.638Z" transform="translate(-573.53 -330.215)" fill="#b4b9f6"/>
          <path id="Trazado_112351" data-name="Trazado 112351" d="M587.354,332.771c-5.629,0-10.224,2.322-10.605,5.258a3.012,3.012,0,0,1-.037-.392c0-3.119,4.764-5.649,10.642-5.649S598,334.518,598,337.637a3,3,0,0,1-.037.392C597.579,335.093,592.983,332.771,587.354,332.771Z" transform="translate(-573.53 -330.215)" fill="#9796f7"/>
          <path id="Trazado_112352" data-name="Trazado 112352" d="M582.646,335.35l-.974-.568.769-.444.975.566a5.922,5.922,0,0,1,5.418-.234c1.889,1.1.631,2.246-.327,3.192l1.9,1.1c.282-.319.221-.633-.229-.946l2.2-1.273c1.5.937,1.152,2.124-.351,3.162l.986.575-.77.444-.974-.566a5.927,5.927,0,0,1-5.485.237c-1.865-1.084-.552-2.242.383-3.2l-1.865-1.083c-.223.264-.175.559.22.846l-2.217,1.28C580.9,337.489,581.112,336.385,582.646,335.35Zm5.382,4.04a1.9,1.9,0,0,0,1.64.039l-1.7-.989C587.671,338.816,587.6,339.139,588.028,339.39Zm-1.342-2.585c.25-.366.283-.678-.138-.922a1.7,1.7,0,0,0-1.533-.05Z" transform="translate(-573.53 -330.215)" fill="#9796f7"/>
          <path id="Trazado_112353" data-name="Trazado 112353" d="M582.646,334.995l-.974-.568.769-.443.975.565a5.918,5.918,0,0,1,5.418-.233c1.889,1.1.631,2.245-.327,3.192l1.9,1.1c.282-.32.221-.634-.229-.946l2.2-1.274c1.5.937,1.152,2.124-.351,3.163l.986.574-.77.444-.974-.566a5.927,5.927,0,0,1-5.485.237c-1.865-1.084-.552-2.242.383-3.2l-1.865-1.082c-.223.264-.175.558.22.845l-2.217,1.28C580.9,337.135,581.112,336.031,582.646,334.995Zm5.382,4.04a1.9,1.9,0,0,0,1.64.04l-1.7-.99C587.671,338.461,587.6,338.784,588.028,339.035Zm-1.342-2.585c.25-.366.283-.678-.138-.921a1.693,1.693,0,0,0-1.533-.051Z" transform="translate(-573.53 -330.215)" fill="#d9dff6"/>
        </g>
      </g>
    </g>
    <g id="Grupo_42886" data-name="Grupo 42886" transform="translate(15.902)">
      <g id="Grupo_42885" data-name="Grupo 42885" transform="translate(0)">
        <g id="Grupo_42884" data-name="Grupo 42884" transform="translate(0)">
          <path id="Trazado_112354" data-name="Trazado 112354" d="M573.53,333.079v3.072c0,4.151,6.189,7.517,13.824,7.517s13.825-3.366,13.825-7.517v-3.072Z" transform="translate(-573.53 -325.562)" fill="#9796f7"/>
          <path id="Trazado_112355" data-name="Trazado 112355" d="M586.371,342.6c.442.148.894.288,1.372.4v-7.734h-1.372Zm14.036.03c-.442.149-.894.288-1.372.4V335.3h1.372Zm-17.65-1.684a7.988,7.988,0,0,1-2.41-2.338v-5.175h2.41Z" transform="translate(-579.575 -325.562)" fill="#6782ea" opacity="0.41" style="mix-blend-mode: screen;isolation: isolate"/>
          <path id="Trazado_112356" data-name="Trazado 112356" d="M601.179,333.079c0,4.15-6.19,7.516-13.825,7.516s-13.824-3.366-13.824-7.516,6.189-7.517,13.824-7.517S601.179,328.928,601.179,333.079Z" transform="translate(-573.53 -325.562)" fill="#d9dff6"/>
          <path id="Trazado_112357" data-name="Trazado 112357" d="M598,332.984c0,3.121-4.765,5.651-10.643,5.651s-10.642-2.53-10.642-5.651,4.764-5.649,10.642-5.649S598,329.865,598,332.984Z" transform="translate(-573.53 -325.562)" fill="#b4b9f6"/>
          <path id="Trazado_112358" data-name="Trazado 112358" d="M587.354,328.118c-5.629,0-10.224,2.322-10.605,5.258a3.012,3.012,0,0,1-.037-.392c0-3.119,4.764-5.649,10.642-5.649S598,329.865,598,332.984a3,3,0,0,1-.037.392C597.579,330.44,592.983,328.118,587.354,328.118Z" transform="translate(-573.53 -325.562)" fill="#9796f7"/>
          <path id="Trazado_112359" data-name="Trazado 112359" d="M582.646,330.7l-.974-.568.769-.444.975.566a5.922,5.922,0,0,1,5.418-.234c1.889,1.1.631,2.246-.327,3.192l1.9,1.1c.282-.319.221-.634-.229-.946l2.2-1.273c1.5.937,1.152,2.124-.351,3.162l.986.575-.77.444-.974-.566a5.93,5.93,0,0,1-5.485.236c-1.865-1.083-.552-2.241.383-3.2l-1.865-1.082c-.223.264-.175.559.22.846l-2.217,1.28C580.9,332.836,581.112,331.732,582.646,330.7Zm5.382,4.04a1.9,1.9,0,0,0,1.64.039l-1.7-.989C587.671,334.162,587.6,334.486,588.028,334.737Zm-1.342-2.585c.25-.366.283-.678-.138-.922a1.7,1.7,0,0,0-1.533-.05Z" transform="translate(-573.53 -325.562)" fill="#9796f7"/>
          <path id="Trazado_112360" data-name="Trazado 112360" d="M582.646,330.342l-.974-.568.769-.444.975.566a5.918,5.918,0,0,1,5.418-.233c1.889,1.1.631,2.245-.327,3.191l1.9,1.105c.282-.32.221-.634-.229-.946l2.2-1.274c1.5.937,1.152,2.124-.351,3.162l.986.575-.77.444-.974-.566a5.927,5.927,0,0,1-5.485.237c-1.865-1.084-.552-2.242.383-3.2l-1.865-1.083c-.223.264-.175.559.22.846l-2.217,1.28C580.9,332.482,581.112,331.377,582.646,330.342Zm5.382,4.04a1.9,1.9,0,0,0,1.64.039l-1.7-.989C587.671,333.808,587.6,334.131,588.028,334.382Zm-1.342-2.585c.25-.366.283-.678-.138-.922a1.7,1.7,0,0,0-1.533-.05Z" transform="translate(-573.53 -325.562)" fill="#d9dff6"/>
        </g>
      </g>
    </g>
    <g id="Grupo_42889" data-name="Grupo 42889" transform="translate(1.156 32.066)">
      <g id="Grupo_42888" data-name="Grupo 42888" transform="translate(0)">
        <g id="Grupo_42887" data-name="Grupo 42887" transform="translate(0)">
          <path id="Trazado_112361" data-name="Trazado 112361" d="M588.276,365.145v3.072c0,4.151,6.189,7.517,13.824,7.517s13.825-3.366,13.825-7.517v-3.072Z" transform="translate(-588.276 -357.628)" fill="#9796f7"/>
          <path id="Trazado_112362" data-name="Trazado 112362" d="M601.117,374.667c.442.148.894.287,1.372.4v-7.734h-1.372Zm14.036.03c-.442.148-.894.288-1.372.4v-7.735h1.372Zm-17.65-1.685a8,8,0,0,1-2.41-2.337V365.5h2.41Z" transform="translate(-594.321 -357.628)" fill="#6782ea" opacity="0.41" style="mix-blend-mode: screen;isolation: isolate"/>
          <path id="Trazado_112363" data-name="Trazado 112363" d="M615.925,365.145c0,4.15-6.19,7.516-13.825,7.516s-13.824-3.366-13.824-7.516,6.189-7.517,13.824-7.517S615.925,360.994,615.925,365.145Z" transform="translate(-588.276 -357.628)" fill="#d9dff6"/>
          <path id="Trazado_112364" data-name="Trazado 112364" d="M612.743,365.05c0,3.121-4.765,5.651-10.643,5.651s-10.642-2.53-10.642-5.651,4.764-5.649,10.642-5.649S612.743,361.931,612.743,365.05Z" transform="translate(-588.276 -357.628)" fill="#b4b9f6"/>
          <path id="Trazado_112365" data-name="Trazado 112365" d="M602.1,360.184c-5.629,0-10.224,2.322-10.6,5.258a3.017,3.017,0,0,1-.037-.392c0-3.119,4.764-5.649,10.642-5.649s10.643,2.53,10.643,5.649a3.028,3.028,0,0,1-.037.392C612.325,362.506,607.729,360.184,602.1,360.184Z" transform="translate(-588.276 -357.628)" fill="#9796f7"/>
          <path id="Trazado_112366" data-name="Trazado 112366" d="M597.392,362.762l-.974-.567.769-.444.975.566a5.922,5.922,0,0,1,5.418-.234c1.888,1.1.631,2.246-.327,3.192l1.9,1.1c.282-.319.221-.634-.229-.946l2.2-1.274c1.5.938,1.152,2.124-.351,3.163l.986.575-.77.444-.974-.566a5.93,5.93,0,0,1-5.485.236c-1.865-1.083-.552-2.241.383-3.2l-1.865-1.082c-.223.264-.175.558.22.846l-2.217,1.279C595.641,364.9,595.858,363.8,597.392,362.762Zm5.382,4.041a1.9,1.9,0,0,0,1.64.039l-1.7-.99C602.417,366.228,602.342,366.552,602.774,366.8Zm-1.342-2.586c.25-.365.283-.677-.138-.921a1.7,1.7,0,0,0-1.533-.051Z" transform="translate(-588.276 -357.628)" fill="#9796f7"/>
          <path id="Trazado_112367" data-name="Trazado 112367" d="M597.392,362.408l-.974-.568.769-.444.975.566a5.922,5.922,0,0,1,5.418-.234c1.888,1.1.631,2.246-.327,3.192l1.9,1.1c.282-.319.221-.634-.229-.946l2.2-1.273c1.5.937,1.152,2.124-.351,3.162l.986.575-.77.444-.974-.566a5.931,5.931,0,0,1-5.485.237c-1.865-1.084-.552-2.242.383-3.2l-1.865-1.082c-.223.264-.175.559.22.846l-2.217,1.28C595.641,364.547,595.858,363.443,597.392,362.408Zm5.382,4.04a1.9,1.9,0,0,0,1.64.039l-1.7-.989C602.417,365.873,602.342,366.2,602.774,366.448Zm-1.342-2.585c.25-.366.283-.678-.138-.922a1.7,1.7,0,0,0-1.533-.05Z" transform="translate(-588.276 -357.628)" fill="#d9dff6"/>
        </g>
      </g>
    </g>
    <g id="Grupo_42892" data-name="Grupo 42892" transform="translate(1.156 27.431)">
      <g id="Grupo_42891" data-name="Grupo 42891" transform="translate(0)">
        <g id="Grupo_42890" data-name="Grupo 42890" transform="translate(0)">
          <path id="Trazado_112368" data-name="Trazado 112368" d="M588.276,360.51v3.072c0,4.151,6.189,7.517,13.824,7.517s13.825-3.366,13.825-7.517V360.51Z" transform="translate(-588.276 -352.993)" fill="#9796f7"/>
          <path id="Trazado_112369" data-name="Trazado 112369" d="M601.117,370.032c.442.148.894.287,1.372.4V362.7h-1.372Zm14.036.03c-.442.148-.894.288-1.372.4v-7.734h1.372Zm-17.65-1.685a8,8,0,0,1-2.41-2.337v-5.175h2.41Z" transform="translate(-594.321 -352.993)" fill="#6782ea" opacity="0.41" style="mix-blend-mode: screen;isolation: isolate"/>
          <path id="Trazado_112370" data-name="Trazado 112370" d="M615.925,360.51c0,4.15-6.19,7.516-13.825,7.516s-13.824-3.366-13.824-7.516,6.189-7.517,13.824-7.517S615.925,356.359,615.925,360.51Z" transform="translate(-588.276 -352.993)" fill="#d9dff6"/>
          <path id="Trazado_112371" data-name="Trazado 112371" d="M612.743,360.415c0,3.121-4.765,5.651-10.643,5.651s-10.642-2.53-10.642-5.651,4.764-5.649,10.642-5.649S612.743,357.3,612.743,360.415Z" transform="translate(-588.276 -352.993)" fill="#b4b9f6"/>
          <path id="Trazado_112372" data-name="Trazado 112372" d="M602.1,355.549c-5.629,0-10.224,2.322-10.6,5.258a3.018,3.018,0,0,1-.037-.392c0-3.119,4.764-5.649,10.642-5.649s10.643,2.53,10.643,5.649a3.029,3.029,0,0,1-.037.392C612.325,357.871,607.729,355.549,602.1,355.549Z" transform="translate(-588.276 -352.993)" fill="#9796f7"/>
          <path id="Trazado_112373" data-name="Trazado 112373" d="M597.392,358.127l-.974-.567.769-.444.975.566a5.922,5.922,0,0,1,5.418-.234c1.888,1.1.631,2.246-.327,3.192l1.9,1.1c.282-.319.221-.634-.229-.946l2.2-1.274c1.5.938,1.152,2.124-.351,3.163l.986.575-.77.444-.974-.566a5.93,5.93,0,0,1-5.485.236c-1.865-1.084-.552-2.241.383-3.2l-1.865-1.082c-.223.264-.175.558.22.846l-2.217,1.279C595.641,360.267,595.858,359.163,597.392,358.127Zm5.382,4.041a1.9,1.9,0,0,0,1.64.039l-1.7-.99C602.417,361.593,602.342,361.917,602.774,362.168Zm-1.342-2.586c.25-.365.283-.677-.138-.921a1.7,1.7,0,0,0-1.533-.051Z" transform="translate(-588.276 -352.993)" fill="#9796f7"/>
          <path id="Trazado_112374" data-name="Trazado 112374" d="M597.392,357.772l-.974-.567.769-.444.975.566a5.922,5.922,0,0,1,5.418-.234c1.888,1.1.631,2.246-.327,3.192l1.9,1.1c.282-.319.221-.634-.229-.946l2.2-1.273c1.5.937,1.152,2.124-.351,3.162l.986.575-.77.444-.974-.566a5.933,5.933,0,0,1-5.485.237c-1.865-1.084-.552-2.242.383-3.2l-1.865-1.082c-.223.264-.175.559.22.846l-2.217,1.28C595.641,359.912,595.858,358.808,597.392,357.772Zm5.382,4.041a1.9,1.9,0,0,0,1.64.039l-1.7-.989C602.417,361.238,602.342,361.562,602.774,361.813Zm-1.342-2.585c.25-.366.283-.678-.138-.922a1.693,1.693,0,0,0-1.533-.05Z" transform="translate(-588.276 -352.993)" fill="#d9dff6"/>
        </g>
      </g>
    </g>
    <g id="Grupo_42895" data-name="Grupo 42895" transform="translate(33.856 27.033)">
      <g id="Grupo_42894" data-name="Grupo 42894" transform="translate(0)">
        <g id="Grupo_42893" data-name="Grupo 42893" transform="translate(0)">
          <path id="Trazado_112375" data-name="Trazado 112375" d="M555.576,360.112v3.073c0,4.151,6.189,7.516,13.824,7.516s13.825-3.365,13.825-7.516v-3.073Z" transform="translate(-555.576 -352.595)" fill="#9796f7"/>
          <path id="Trazado_112376" data-name="Trazado 112376" d="M568.417,369.634c.442.148.894.288,1.372.4V362.3h-1.372Zm14.036.031c-.441.148-.894.287-1.372.4v-7.734h1.372ZM564.8,367.98a8,8,0,0,1-2.41-2.338v-5.175h2.41Z" transform="translate(-561.621 -352.595)" fill="#6782ea" opacity="0.41" style="mix-blend-mode: screen;isolation: isolate"/>
          <path id="Trazado_112377" data-name="Trazado 112377" d="M583.225,360.112c0,4.151-6.189,7.517-13.825,7.517s-13.824-3.366-13.824-7.517,6.189-7.517,13.824-7.517S583.225,355.961,583.225,360.112Z" transform="translate(-555.576 -352.595)" fill="#d9dff6"/>
          <path id="Trazado_112378" data-name="Trazado 112378" d="M580.043,360.017c0,3.121-4.765,5.651-10.643,5.651s-10.642-2.53-10.642-5.651,4.764-5.649,10.642-5.649S580.043,356.9,580.043,360.017Z" transform="translate(-555.576 -352.595)" fill="#b4b9f6"/>
          <path id="Trazado_112379" data-name="Trazado 112379" d="M569.4,355.151c-5.628,0-10.224,2.322-10.6,5.258a3,3,0,0,1-.037-.392c0-3.119,4.764-5.649,10.642-5.649s10.643,2.53,10.643,5.649a3.012,3.012,0,0,1-.037.392C579.625,357.473,575.029,355.151,569.4,355.151Z" transform="translate(-555.576 -352.595)" fill="#9796f7"/>
          <path id="Trazado_112380" data-name="Trazado 112380" d="M564.692,357.73l-.974-.568.769-.444.975.566a5.922,5.922,0,0,1,5.418-.234c1.889,1.1.631,2.246-.327,3.192l1.9,1.1c.282-.319.221-.634-.229-.946l2.2-1.273c1.5.937,1.152,2.124-.351,3.163l.986.574-.77.444-.974-.566a5.928,5.928,0,0,1-5.485.237c-1.864-1.084-.552-2.242.383-3.2l-1.864-1.083c-.224.264-.176.559.219.846l-2.217,1.28C562.941,359.87,563.158,358.765,564.692,357.73Zm5.382,4.04a1.9,1.9,0,0,0,1.64.039l-1.7-.989C569.718,361.2,569.642,361.519,570.074,361.77Zm-1.342-2.585c.25-.366.283-.678-.137-.922a1.7,1.7,0,0,0-1.534-.05Z" transform="translate(-555.576 -352.595)" fill="#9796f7"/>
          <path id="Trazado_112381" data-name="Trazado 112381" d="M564.692,357.375l-.974-.567.769-.445.975.566a5.918,5.918,0,0,1,5.418-.233c1.889,1.1.631,2.246-.327,3.192l1.9,1.1c.282-.32.221-.634-.229-.946l2.2-1.274c1.5.937,1.152,2.124-.351,3.163l.986.574-.77.444-.974-.566a5.927,5.927,0,0,1-5.485.237c-1.864-1.084-.552-2.242.383-3.2l-1.864-1.082c-.224.264-.176.558.219.845l-2.217,1.28C562.941,359.515,563.158,358.411,564.692,357.375Zm5.382,4.04a1.9,1.9,0,0,0,1.64.039l-1.7-.989C569.718,360.841,569.642,361.164,570.074,361.415Zm-1.342-2.585c.25-.366.283-.678-.137-.921a1.7,1.7,0,0,0-1.534-.051Z" transform="translate(-555.576 -352.595)" fill="#d9dff6"/>
        </g>
      </g>
    </g>
    <g id="Grupo_42898" data-name="Grupo 42898" transform="translate(33.856 22.437)">
      <g id="Grupo_42897" data-name="Grupo 42897" transform="translate(0)">
        <g id="Grupo_42896" data-name="Grupo 42896" transform="translate(0)">
          <path id="Trazado_112382" data-name="Trazado 112382" d="M555.576,355.515v3.073c0,4.151,6.189,7.517,13.824,7.517s13.825-3.366,13.825-7.517v-3.073Z" transform="translate(-555.576 -347.999)" fill="#9796f7"/>
          <path id="Trazado_112383" data-name="Trazado 112383" d="M568.417,365.038c.442.148.894.287,1.372.4v-7.734h-1.372Zm14.036.03c-.441.148-.894.288-1.372.4v-7.734h1.372Zm-17.65-1.685a8.009,8.009,0,0,1-2.41-2.337v-5.175h2.41Z" transform="translate(-561.621 -347.999)" fill="#6782ea" opacity="0.41" style="mix-blend-mode: screen;isolation: isolate"/>
          <path id="Trazado_112384" data-name="Trazado 112384" d="M583.225,355.515c0,4.151-6.189,7.517-13.825,7.517s-13.824-3.366-13.824-7.517S561.765,348,569.4,348,583.225,351.364,583.225,355.515Z" transform="translate(-555.576 -347.999)" fill="#d9dff6"/>
          <path id="Trazado_112385" data-name="Trazado 112385" d="M580.043,355.421c0,3.121-4.765,5.651-10.643,5.651s-10.642-2.53-10.642-5.651,4.764-5.649,10.642-5.649S580.043,352.3,580.043,355.421Z" transform="translate(-555.576 -347.999)" fill="#b4b9f6"/>
          <path id="Trazado_112386" data-name="Trazado 112386" d="M569.4,350.555c-5.628,0-10.224,2.322-10.6,5.258a3.017,3.017,0,0,1-.037-.392c0-3.119,4.764-5.649,10.642-5.649s10.643,2.53,10.643,5.649a3.028,3.028,0,0,1-.037.392C579.625,352.877,575.029,350.555,569.4,350.555Z" transform="translate(-555.576 -347.999)" fill="#9796f7"/>
          <path id="Trazado_112387" data-name="Trazado 112387" d="M564.692,353.133l-.974-.567.769-.444.975.566a5.922,5.922,0,0,1,5.418-.234c1.889,1.1.631,2.246-.327,3.192l1.9,1.1c.282-.319.221-.634-.229-.946l2.2-1.274c1.5.938,1.152,2.124-.351,3.163l.986.575-.77.444-.974-.566a5.93,5.93,0,0,1-5.485.236c-1.864-1.083-.552-2.241.383-3.2l-1.864-1.082c-.224.264-.176.559.219.846l-2.217,1.279C562.941,355.273,563.158,354.169,564.692,353.133Zm5.382,4.041a1.9,1.9,0,0,0,1.64.039l-1.7-.99C569.718,356.6,569.642,356.923,570.074,357.174Zm-1.342-2.586c.25-.365.283-.677-.137-.921a1.7,1.7,0,0,0-1.534-.051Z" transform="translate(-555.576 -347.999)" fill="#9796f7"/>
          <path id="Trazado_112388" data-name="Trazado 112388" d="M564.692,352.778l-.974-.567.769-.444.975.566a5.922,5.922,0,0,1,5.418-.234c1.889,1.1.631,2.246-.327,3.192l1.9,1.1c.282-.319.221-.634-.229-.946l2.2-1.273c1.5.937,1.152,2.124-.351,3.162l.986.575-.77.444-.974-.566a5.933,5.933,0,0,1-5.485.237c-1.864-1.084-.552-2.242.383-3.2l-1.864-1.083c-.224.264-.176.559.219.846l-2.217,1.28C562.941,354.918,563.158,353.814,564.692,352.778Zm5.382,4.041a1.9,1.9,0,0,0,1.64.039l-1.7-.989C569.718,356.244,569.642,356.568,570.074,356.819Zm-1.342-2.585c.25-.366.283-.678-.137-.922a1.7,1.7,0,0,0-1.534-.05Z" transform="translate(-555.576 -347.999)" fill="#d9dff6"/>
        </g>
      </g>
    </g>
  </g>
  <g id="Grupo_42903" data-name="Grupo 42903" transform="translate(0 113.682)">
    <g id="Grupo_42902" data-name="Grupo 42902" transform="translate(18.148 51.133)">
      <g id="Grupo_42901" data-name="Grupo 42901" transform="translate(0)" style="isolation: isolate">
        <path id="Trazado_112389" data-name="Trazado 112389" d="M653.938,286.594a2.062,2.062,0,0,0,.277-.3l.021-.03a1.448,1.448,0,0,0,.181-.345l.006-.019a1.211,1.211,0,0,0,.064-.369l-.293,47.62v.016a1.224,1.224,0,0,1-.01.135,1.253,1.253,0,0,1-.027.133c-.007.028-.017.057-.027.085l-.006.019c0,.009-.005.019-.009.029a1.318,1.318,0,0,1-.06.135,1.491,1.491,0,0,1-.08.139l-.031.042-.022.029c-.018.025-.035.051-.055.075a1.673,1.673,0,0,1-.147.16c-.022.022-.05.042-.074.064l-.068.058c-.03.024-.056.05-.088.074a2.843,2.843,0,0,1-.317.206,3.684,3.684,0,0,1-.5.23c-.057.022-.118.038-.177.058-.089.029-.175.062-.267.087-.043.012-.089.019-.133.03l-.114.025c-.043.009-.085.021-.129.029-.1.019-.2.035-.306.047-.036,0-.073.008-.11.012l-.057.006c-.034,0-.068.008-.1.01-.084.007-.168.011-.252.015l-.24,0h-.038c-.066,0-.131,0-.2-.005s-.154-.008-.23-.015-.136-.013-.2-.021H650.1l-.012,0c-.078-.009-.156-.021-.233-.034s-.159-.028-.238-.045c-.038-.008-.076-.019-.114-.028l-.049-.012-.087-.021c-.093-.025-.184-.052-.273-.082-.053-.018-.1-.039-.156-.059l-.082-.031c-.026-.011-.053-.019-.078-.03a3.51,3.51,0,0,1-.42-.213,1.7,1.7,0,0,1-.978-1.4l.292-47.62a1.7,1.7,0,0,0,.978,1.4,3.585,3.585,0,0,0,.5.242l.083.032a4.609,4.609,0,0,0,.515.162l.05.012a5.247,5.247,0,0,0,.6.109h.014a5.939,5.939,0,0,0,.628.041h.02c.206,0,.411-.009.615-.028l.057-.006a5.325,5.325,0,0,0,.544-.088c.039-.008.077-.016.115-.026.137-.032.269-.073.4-.116.059-.02.12-.037.177-.058a3.7,3.7,0,0,0,.5-.23,2.762,2.762,0,0,0,.4-.281Z" transform="translate(-647.383 -283.539)" fill="#9796f7"/>
        <g id="Grupo_42900" data-name="Grupo 42900" transform="translate(0.292)">
          <path id="Trazado_112390" data-name="Trazado 112390" d="M653.174,286.932c1.343-.758,1.362-2.01.049-2.791a5.32,5.32,0,0,0-4.824-.047c-1.338.754-1.357,2.006-.038,2.79A5.318,5.318,0,0,0,653.174,286.932Z" transform="translate(-647.383 -283.539)" fill="#9391ea"/>
        </g>
      </g>
    </g>
    <path id="Trazado_112391" data-name="Trazado 112391" d="M672.635,236.91l-5.463-3.138h0c-.074-.042-.149-.084-.225-.124s-.156-.075-.233-.113c-.131-.067-.263-.133-.4-.193-.118-.054-.238-.1-.358-.151-.137-.055-.274-.109-.414-.159-.05-.018-.1-.04-.149-.057-.073-.025-.151-.043-.225-.066-.14-.044-.28-.086-.422-.124s-.26-.065-.391-.1-.29-.063-.437-.09c-.063-.011-.124-.028-.188-.039s-.14-.016-.209-.026c-.158-.023-.317-.043-.478-.06-.134-.014-.269-.026-.406-.035-.163-.011-.327-.018-.493-.023-.082,0-.161-.011-.243-.011-.053,0-.108,0-.162,0-.2,0-.406.009-.611.019-.123.007-.245.011-.37.02-.232.018-.468.046-.705.076-.084.011-.166.015-.251.027l-.044.008c-.376.056-.758.129-1.144.215-.1.022-.2.05-.3.075q-.446.108-.9.243c-.067.02-.133.033-.2.054s-.142.05-.212.073c-.175.057-.351.118-.527.181s-.326.117-.491.18-.358.142-.537.217-.331.139-.5.213-.363.166-.545.253-.336.161-.506.246-.368.191-.552.29c-.113.06-.224.114-.337.176s-.239.134-.359.2c-.633.364-1.258.767-1.877,1.188-.162.11-.323.223-.484.337-.552.389-1.1.8-1.634,1.228-.066.053-.135.1-.2.156q-.72.587-1.421,1.216c-.084.076-.162.162-.246.239-.38.349-.749.717-1.12,1.085-.282.28-.567.552-.843.842-.375.4-.737.81-1.1,1.223-.213.24-.435.466-.644.713-.053.063-.1.13-.157.194-.108.13-.213.264-.321.395q-.642.786-1.255,1.606c-.118.158-.238.315-.355.475-.074.1-.151.2-.225.3-.389.542-.764,1.1-1.132,1.656-.081.123-.16.248-.24.372-.145.225-.294.448-.437.676s-.264.46-.4.688c-.276.459-.547.92-.809,1.388-.1.173-.205.34-.3.514-.118.218-.22.442-.335.661q-.347.66-.674,1.328c-.1.2-.2.388-.3.586s-.182.425-.278.636c-.2.449-.4.9-.59,1.351-.089.213-.192.422-.278.636-.078.194-.139.391-.214.585-.191.492-.369.984-.541,1.478-.082.233-.179.465-.256.7-.093.281-.176.563-.263.846-.038.125-.079.25-.116.376-.178.6-.347,1.192-.5,1.789-.034.137-.06.274-.093.412-.05.209-.094.416-.141.625q-.206.921-.361,1.837c-.031.179-.066.358-.094.536-.013.085-.032.17-.044.254-.071.476-.11.946-.16,1.418-.029.271-.071.545-.093.815-.065.811-.1,1.616-.1,2.409,0,6.637,2.35,11.3,6.132,13.472l5.463,3.137Z" transform="translate(-632.024 -232.406)" fill="#9796f7"/>
    <path id="Trazado_112392" data-name="Trazado 112392" d="M667.172,250.382c-.006-13.19-9.269-18.6-20.652-12.066s-20.634,22.58-20.628,35.77,9.269,18.6,20.652,12.065S667.178,263.572,667.172,250.382ZM628.7,272.915c.206-11.52,8.376-25.681,18.207-31.57s17.667-1.314,17.461,10.206-8.372,25.68-18.207,31.571-17.667,1.309-17.461-10.207" transform="translate(-620.429 -232.406)" fill="#d9dff6"/>
    <path id="Trazado_112393" data-name="Trazado 112393" d="M628.7,272.915c-.206,11.516,7.629,16.1,17.461,10.207s18-20.055,18.207-31.571-7.625-16.1-17.461-10.206-18,20.05-18.207,31.57" transform="translate(-620.429 -232.406)" fill="#fff"/>
    <path id="Trazado_112394" data-name="Trazado 112394" d="M658.269,250.361c-.205,11.515-8.371,25.679-18.207,31.571-4.357,2.61-8.321,3.159-11.368,1.964,3.194,2.532,8.008,2.476,13.433-.774,9.835-5.891,18-20.055,18.207-31.57.115-6.415-2.264-10.673-6.091-12.174C656.836,241.435,658.362,245.2,658.269,250.361Z" transform="translate(-616.397 -232.406)" fill="#9391ea"/>
  </g>
  <g id="Grupo_42910" data-name="Grupo 42910" transform="translate(153.435 84.733)">
    <path id="Trazado_112395" data-name="Trazado 112395" d="M496.718,282.65l-12.3,7.17a3.129,3.129,0,0,0,.028,5.422l2.1,1.2a6.482,6.482,0,0,0,6.473-.033l12.3-7.169a3.13,3.13,0,0,0-.027-5.423l-2.1-1.195A6.482,6.482,0,0,0,496.718,282.65Z" transform="translate(-470.534 -203.456)" fill="#6642cc" opacity="0.3" style="mix-blend-mode: multiply;isolation: isolate"/>
    <g id="Grupo_42909" data-name="Grupo 42909" transform="translate(0)">
      <g id="Grupo_42904" data-name="Grupo 42904" transform="translate(20.961 37.436)">
        <path id="Trazado_112396" data-name="Trazado 112396" d="M497.938,284.709s-.506-1.69-3.514-1.137c-.5.092-1.02,2.17-1.02,2.17L487.91,287.4s10.42,3.894,10.328,2.223C498.1,287.128,497.938,284.709,497.938,284.709Z" transform="translate(-487.91 -240.892)" fill="#130159"/>
        <path id="Trazado_112397" data-name="Trazado 112397" d="M495.982,240.892l-1.665,44.279c-1,1.355-4.38.215-4.38.215-.17-1.306-3.393-42.122-3.393-42.122Z" transform="translate(-484.287 -240.892)" fill="#5601f3"/>
      </g>
      <g id="Grupo_42905" data-name="Grupo 42905" transform="translate(7.279 7.856)">
        <path id="Trazado_112398" data-name="Trazado 112398" d="M511.921,214.238c-.708.32-.827-.485-.922-1.115a3.613,3.613,0,0,0-.255-.941c-.122-.063-.3.7-.407.48-.073-.145-1.468-2.166-2.523-.977-.547.617,1.025,2.6,1.642,2.9,1.19.574,1.413.012,2.174.934Z" transform="translate(-507.7 -211.312)" fill="#f4c5a2"/>
        <path id="Trazado_112399" data-name="Trazado 112399" d="M504.672,215.759a14.028,14.028,0,0,1-5.391,2.27l-6.462-4.652s-.869-.361-1.181,1.772c0,0,6.622,7.533,8.086,7.716s3.594-.874,7.068-2.792C512.674,216.826,507.715,213.724,504.672,215.759Z" transform="translate(-489.25 -211.312)" fill="#00cdc4"/>
      </g>
      <g id="Grupo_42906" data-name="Grupo 42906" transform="translate(15.605 40.894)">
        <path id="Trazado_112400" data-name="Trazado 112400" d="M503.294,286.91s-.507-1.69-3.514-1.136c-.5.091-1.02,2.17-1.02,2.17l-5.494,1.654s10.42,3.894,10.328,2.224C503.456,289.329,503.294,286.91,503.294,286.91Z" transform="translate(-493.266 -244.35)" fill="#130159"/>
        <path id="Trazado_112401" data-name="Trazado 112401" d="M501.362,244.35,499.7,287.278c-1,1.355-4.38.215-4.38.215-.17-1.305-3.393-42.122-3.393-42.122Z" transform="translate(-489.691 -244.35)" fill="#681ef7"/>
      </g>
      <g id="Grupo_42907" data-name="Grupo 42907" transform="translate(19.677)">
        <path id="Trazado_112402" data-name="Trazado 112402" d="M494.244,210.687l-.656,4.052,3.83-.265-.751-3.424Z" transform="translate(-491.485 -203.456)" fill="#fed4bd"/>
        <path id="Trazado_112403" data-name="Trazado 112403" d="M492.8,213.881l5.458-.682.622,2.2-6.295.291Z" transform="translate(-491.947 -203.456)" fill="#fff"/>
        <path id="Trazado_112404" data-name="Trazado 112404" d="M492.439,207.647c-.28,1.933.256,4.045,2.332,3.911a3.514,3.514,0,0,0,3.346-3.088c.28-1.933-.764-3.684-2.332-3.911S492.719,205.715,492.439,207.647Z" transform="translate(-491.01 -203.456)" fill="#fed4bd"/>
        <path id="Trazado_112405" data-name="Trazado 112405" d="M497.082,211.875s-.721.577-1.708-.317a6.173,6.173,0,0,1-.549-1.862c.017-.5.717-1.126.554-1.555-.318-.83-1.09-.677-1.3.947-.09-.765-4.172-2.749-1.629-4.6,3.3-2.4,8.326-.287,6.585,2.806C500.506,207.717,498.312,210.521,497.082,211.875Z" transform="translate(-491.613 -203.456)" fill="#3d00bd"/>
      </g>
      <path id="Trazado_112406" data-name="Trazado 112406" d="M488.17,217.492c-.658,2.173-1.581,20.258-3,26.987,2.644,3.386,14.907,4.13,18.4.178a141.668,141.668,0,0,0-4.665-25.73C497.346,213.675,492.616,211.91,488.17,217.492Z" transform="translate(-469.529 -203.456)" fill="#01e4d0"/>
      <g id="Grupo_42908" data-name="Grupo 42908" transform="translate(0 11.008)">
        <path id="Trazado_112407" data-name="Trazado 112407" d="M519.2,218.79c-1.012.2-1.344-1.059-1.631-1.672-.991-2.116-.786-.6-.936-.566-.393.091-2.174-.767-2.4.2-.253,1.082,1.154,1.848,1.953,2.275,1.541.824,1.527-.065,2.432,1.043Z" transform="translate(-514.203 -214.464)" fill="#f4c5a2"/>
        <path id="Trazado_112408" data-name="Trazado 112408" d="M511.036,215.977c-5.03,5.375-5.485,6.011-5.485,6.011L495.219,217.7s-1.971.252-1.271,2.433c0,0,9.566,8.1,11.933,7.956s5.443-3.695,8.879-7.56C519.363,215.35,514.255,212.537,511.036,215.977Z" transform="translate(-491.195 -214.464)" fill="#01e4d0"/>
      </g>
    </g>
  </g>
  <path id="Trazado_112416" data-name="Trazado 112416" d="M386.847,314.767l-1.938,1.1a2.888,2.888,0,0,0-.025,5.006l11.356,6.62a5.988,5.988,0,0,0,5.977.03l1.938-1.1a2.889,2.889,0,0,0,.025-5.006l-11.357-6.62A5.986,5.986,0,0,0,386.847,314.767Z" transform="translate(-116.428 -118.724)" fill="#bbb8f6" opacity="0.5" style="mix-blend-mode: multiply;isolation: isolate"/>
  <g id="Grupo_42917" data-name="Grupo 42917" transform="translate(130.127 111.954)">
    <path id="Trazado_112417" data-name="Trazado 112417" d="M522.9,304.455l-1.938,1.1a2.889,2.889,0,0,0-.025,5.007l11.356,6.619a5.985,5.985,0,0,0,5.977.03l1.938-1.1a2.889,2.889,0,0,0,.025-5.006l-11.357-6.62A5.986,5.986,0,0,0,522.9,304.455Z" transform="translate(-518.663 -230.678)" fill="#6642cc" opacity="0.3" style="mix-blend-mode: multiply;isolation: isolate"/>
    <path id="Trazado_112418" data-name="Trazado 112418" d="M519.573,250.89a24.669,24.669,0,0,0,2.534-1.412c.281-.285,1.262-1.472,1.908-1.512.4-.025.074.317-.206.768-.647,1.04,1.692-.973,2.25-.164.357.518.041,2.458-2.679,2.963a13.186,13.186,0,0,0-2.806,1.345Z" transform="translate(-503.245 -230.678)" fill="#f4c5a2"/>
    <path id="Trazado_112419" data-name="Trazado 112419" d="M532.017,245.963a43.292,43.292,0,0,1-2.367,8.8l11.283-5.579s2.332-.475,1.32,2.714c0,0-14.386,9.577-19.207,6.453-2.569-1.665.736-13.992,4.735-15.994C529.91,241.675,532.876,241.161,532.017,245.963Z" transform="translate(-522.139 -230.678)" fill="#f6dd03"/>
    <path id="Trazado_112420" data-name="Trazado 112420" d="M532.891,238.363v4.176l-3.313-.4,1.25-4.25Z" transform="translate(-519.961 -230.678)" fill="#fed4bd"/>
    <path id="Trazado_112421" data-name="Trazado 112421" d="M532.882,240.565l-3.212-.458-.769,1.8,4.689.7Z" transform="translate(-519.984 -230.678)" fill="#fffaff"/>
    <path id="Trazado_112422" data-name="Trazado 112422" d="M527.225,306.951s1.31-.547,3.982.258c1.787.539,5.878,2.023,5.878,2.023s-9.863,2.7-9.873,1.168C527.2,308.121,527.225,306.951,527.225,306.951Z" transform="translate(-521.784 -230.678)" fill="#130159"/>
    <path id="Trazado_112423" data-name="Trazado 112423" d="M521.568,309.876a25.035,25.035,0,0,1,3.982.258,50.578,50.578,0,0,1,5.878,2.022s-9.863,2.7-9.873,1.169C521.539,311.046,521.568,309.876,521.568,309.876Z" transform="translate(-510.47 -230.678)" fill="#130159"/>
    <path id="Trazado_112424" data-name="Trazado 112424" d="M532.314,266.032l2.284,41.343a6.628,6.628,0,0,0,5.227-.347l.3-40.237Z" transform="translate(-529.928 -230.678)" fill="#5601f3"/>
    <path id="Trazado_112425" data-name="Trazado 112425" d="M526.364,267.485l3.222,43.237c4.511.511,4.767-.869,4.767-.869-.256-2.469.956-44.239.956-44.239Z" transform="translate(-519.165 -230.678)" fill="#681ef7"/>
    <path id="Trazado_112426" data-name="Trazado 112426" d="M533.01,235.522c-.191,1.939-1.216,3.857-3.195,3.23a3.506,3.506,0,0,1-2.5-3.791c.192-1.94,1.622-3.386,3.2-3.23S533.2,233.583,533.01,235.522Z" transform="translate(-517.816 -230.678)" fill="#fed4bd"/>
    <path id="Trazado_112427" data-name="Trazado 112427" d="M526.916,238.651s.56.732,1.73.1a6.177,6.177,0,0,0,.978-1.671c.1-.488-.426-1.263-.165-1.639.506-.728,1.218-.4,1.036,1.229.27-.72,4.7-1.664,2.679-4.062-2.622-3.111-8-2.271-7.051,1.142C524.594,233.8,526.048,237.044,526.916,238.651Z" transform="translate(-516.647 -230.678)" fill="#3d00bd"/>
    <path id="Trazado_112428" data-name="Trazado 112428" d="M541.577,244.354s-.867,16.49-.867,25.434c-3.3,2.98-14.163.428-14.89-1.313s.345-3.261.63-5.312c.91-6.557.046-15.185,1.8-18.465C530.632,240.265,536.235,239.94,541.577,244.354Z" transform="translate(-524.642 -230.678)" fill="#f6bf03"/>
    <g id="Grupo_42916" data-name="Grupo 42916" transform="translate(13.072 39.273)">
      <path id="Trazado_112429" data-name="Trazado 112429" d="M518.643,276.426l10.792-6.475v10.285l-10.59,6.177Z" transform="translate(-518.643 -269.951)" fill="#3d00bd"/>
      <path id="Trazado_112430" data-name="Trazado 112430" d="M518.386,273.87s.537-.343.537-.275v3.4l-.537.224Z" transform="translate(-507.874 -269.951)" fill="#7676e5"/>
    </g>
    <path id="Trazado_112431" data-name="Trazado 112431" d="M523.934,274.45c.9,1.18,1.59,4.782-.6,5.2-.641.121-1.869-2.366-1.989-4.318" transform="translate(-503.633 -230.678)" fill="#f4c5a2"/>
    <path id="Trazado_112432" data-name="Trazado 112432" d="M526.8,247.3c-.916-4.792-4.429-4.853-4.958,3.072a51.993,51.993,0,0,0,.407,11.211c.429,3.739,3.407,14.645,3.426,14.661.4.34,3.5-1.11,3.584-2.3a43.8,43.8,0,0,1-2.4-12.868C526.462,255.609,527.505,250.965,526.8,247.3Z" transform="translate(-508.461 -230.678)" fill="#f6dd03"/>
  </g>
  <g id="Grupo_42923" data-name="Grupo 42923" transform="translate(145.03 192.349)">
    <path id="Trazado_112450" data-name="Trazado 112450" d="M463.16,312.594a4.83,4.83,0,0,0-4.386,0L373.9,361.916c-1.206.7-1.2,1.838.018,2.541l63.526,36.212a4.833,4.833,0,0,0,4.386,0l84.876-49.325a1.342,1.342,0,0,0-.018-2.54Z" transform="translate(-373 -311.072)" fill="#bbb8f6" opacity="0.5" style="mix-blend-mode: multiply;isolation: isolate"/>
    <g id="Grupo_42922" data-name="Grupo 42922" transform="translate(1.299)">
      <path id="Trazado_112451" data-name="Trazado 112451" d="M462.945,311.591a4.75,4.75,0,0,0-4.312,0l-83.449,48.5a1.32,1.32,0,0,0,.018,2.5l62.458,35.6a4.752,4.752,0,0,0,4.313,0l83.448-48.495a1.32,1.32,0,0,0-.018-2.5Z" transform="translate(-374.3 -311.072)" fill="#b4b9f6"/>
      <path id="Trazado_112452" data-name="Trazado 112452" d="M462.044,314.678a4.417,4.417,0,0,0-4.005,0l-77.5,45.038a1.225,1.225,0,0,0,.017,2.319l58,33.066a4.417,4.417,0,0,0,4,0l77.5-45.038a1.226,1.226,0,0,0-.016-2.32Z" transform="translate(-374.3 -311.072)" fill="#fff"/>
      <path id="Trazado_112453" data-name="Trazado 112453" d="M388.834,314.308a3.4,3.4,0,0,0-3.085,0l-3.243,1.985a.944.944,0,0,0,.013,1.787l44.691,25.476a3.4,3.4,0,0,0,3.085,0l3.243-1.986a.944.944,0,0,0-.013-1.787Z" transform="translate(-289.739 -311.072)" fill="#9796f7"/>
      <g id="Grupo_42921" data-name="Grupo 42921" transform="translate(21.675 10.131)">
        <path id="Trazado_112454" data-name="Trazado 112454" d="M447.183,386.026a.95.95,0,0,0,.821-.467.928.928,0,0,0-.347-1.277L397.4,355.688a.956.956,0,0,0-1.295.343.928.928,0,0,0,.347,1.276L446.71,385.9A.954.954,0,0,0,447.183,386.026Zm7.062-4.3a.95.95,0,0,0,.821-.467.929.929,0,0,0-.346-1.277l-50.262-28.593a.954.954,0,0,0-1.294.342.929.929,0,0,0,.346,1.277l50.262,28.593A.957.957,0,0,0,454.245,381.731Zm7.063-4.295a.948.948,0,0,0,.821-.467.928.928,0,0,0-.346-1.277L411.52,347.1a.955.955,0,0,0-1.294.342.928.928,0,0,0,.347,1.277l50.262,28.594A.954.954,0,0,0,461.308,377.436Zm7.062-4.294a.951.951,0,0,0,.822-.468.928.928,0,0,0-.347-1.276l-50.262-28.6a.955.955,0,0,0-1.294.342.928.928,0,0,0,.347,1.277L467.9,373.016A.955.955,0,0,0,468.37,373.142Zm7.063-4.3a.952.952,0,0,0,.822-.467.929.929,0,0,0-.347-1.277l-50.263-28.6a.955.955,0,0,0-1.294.342.928.928,0,0,0,.347,1.277l50.262,28.595A.954.954,0,0,0,475.433,368.847Zm7.062-4.295a.952.952,0,0,0,.822-.467.928.928,0,0,0-.347-1.277l-50.262-28.6a.956.956,0,0,0-1.294.343.927.927,0,0,0,.347,1.276l50.262,28.6A.948.948,0,0,0,482.495,364.552Zm7.062-4.3a.952.952,0,0,0,.822-.467.929.929,0,0,0-.347-1.277L439.77,329.918a.955.955,0,0,0-1.294.343.928.928,0,0,0,.347,1.277l50.262,28.593A.948.948,0,0,0,489.557,360.256Zm7.063-4.3a.952.952,0,0,0,.822-.467.929.929,0,0,0-.347-1.277l-50.263-28.593a.955.955,0,0,0-1.294.342.929.929,0,0,0,.347,1.277l50.263,28.593A.954.954,0,0,0,496.62,355.961Zm7.062-4.3a.952.952,0,0,0,.822-.467.929.929,0,0,0-.347-1.277l-50.262-28.593a.956.956,0,0,0-1.294.342.929.929,0,0,0,.347,1.277l50.262,28.593A.953.953,0,0,0,503.682,351.666Z" transform="translate(-395.974 -321.204)" fill="#dfe3ff"/>
      </g>
    </g>
  </g>
  <g id="Grupo_42925" data-name="Grupo 42925" transform="translate(96.058 253.127)">
    <path id="Trazado_112455" data-name="Trazado 112455" d="M542.127,428.391,575.363,409.2a2.428,2.428,0,0,0,0-4.2l-48.807-28.178a8.806,8.806,0,0,0-8.806,0L487.681,394.18a4.265,4.265,0,0,0,0,7.389l46.456,26.822A7.991,7.991,0,0,0,542.127,428.391Z" transform="translate(-485.548 -371.851)" fill="#bbb8f6" opacity="0.5" style="mix-blend-mode: multiply;isolation: isolate"/>
    <path id="Trazado_112456" data-name="Trazado 112456" d="M486.9,393.083l2.037.3,33.514-19.35,49.971,28.851v-.556l2.831-.092v2.852a3.4,3.4,0,0,1-1.7,2.942l-31.545,18.259a8.2,8.2,0,0,1-8.189.012l-45.063-25.936a3.712,3.712,0,0,1-1.86-3.217Z" transform="translate(-485.568 -371.851)" fill="#9796f7"/>
    <path id="Trazado_112457" data-name="Trazado 112457" d="M541.728,422.971l32.4-18.707a2.238,2.238,0,0,0,0-3.876l-47.476-27.41a8.412,8.412,0,0,0-8.413,0l-29.336,16.937a4.017,4.017,0,0,0,0,6.959l45.2,26.1A7.62,7.62,0,0,0,541.728,422.971Z" transform="translate(-485.569 -371.851)" fill="#b4b9f6"/>
    <g id="Grupo_42924" data-name="Grupo 42924" transform="translate(5.725 3.193)">
      <path id="Trazado_112458" data-name="Trazado 112458" d="M534.922,391.2l26.015-15.019a8.5,8.5,0,0,1,8.5,0h0a2.823,2.823,0,0,1,0,4.891l-26.015,15.019a8.5,8.5,0,0,1-8.5,0h0A2.823,2.823,0,0,1,534.922,391.2Z" transform="translate(-533.51 -375.044)" fill="#d9dff6"/>
      <path id="Trazado_112459" data-name="Trazado 112459" d="M524.636,390.506l5.56-3.21a.875.875,0,0,0,0-1.515l-5.56-3.209a.876.876,0,0,0-.875,0l-5.559,3.21a.874.874,0,0,0,0,1.515l5.559,3.209A.872.872,0,0,0,524.636,390.506Z" transform="translate(-477.545 -375.044)" fill="#9796f7"/>
      <path id="Trazado_112460" data-name="Trazado 112460" d="M533.717,395.749l5.559-3.21a.875.875,0,0,0,0-1.515l-5.559-3.21a.876.876,0,0,0-.875,0l-5.56,3.21a.875.875,0,0,0,0,1.515l5.56,3.21A.876.876,0,0,0,533.717,395.749Z" transform="translate(-495.706 -375.044)" fill="#9796f7"/>
      <path id="Trazado_112461" data-name="Trazado 112461" d="M542.8,400.991l5.56-3.21a.874.874,0,0,0,0-1.514l-5.56-3.21a.87.87,0,0,0-.874,0l-5.56,3.21a.874.874,0,0,0,0,1.514l5.56,3.21A.87.87,0,0,0,542.8,400.991Z" transform="translate(-513.866 -375.044)" fill="#9796f7"/>
      <path id="Trazado_112462" data-name="Trazado 112462" d="M551.876,406.234l5.56-3.21a.875.875,0,0,0,0-1.515l-5.56-3.21a.876.876,0,0,0-.875,0l-5.559,3.21a.875.875,0,0,0,0,1.515l5.559,3.21A.876.876,0,0,0,551.876,406.234Z" transform="translate(-532.026 -375.044)" fill="#01e4d0"/>
      <path id="Trazado_112463" data-name="Trazado 112463" d="M515.462,395.8l5.56-3.209a.875.875,0,0,0,0-1.515l-5.56-3.21a.876.876,0,0,0-.875,0l-5.559,3.21a.875.875,0,0,0,0,1.515l5.559,3.209A.872.872,0,0,0,515.462,395.8Z" transform="translate(-459.198 -375.044)" fill="#d9dff6"/>
      <path id="Trazado_112464" data-name="Trazado 112464" d="M524.543,401.045l5.56-3.21a.875.875,0,0,0,0-1.515l-5.56-3.21a.877.877,0,0,0-.875,0l-5.559,3.21a.874.874,0,0,0,0,1.515l5.559,3.21A.877.877,0,0,0,524.543,401.045Z" transform="translate(-477.359 -375.044)" fill="#d9dff6"/>
      <path id="Trazado_112465" data-name="Trazado 112465" d="M533.624,406.287l5.559-3.21a.874.874,0,0,0,0-1.514l-5.559-3.21a.876.876,0,0,0-.875,0l-5.56,3.21a.874.874,0,0,0,0,1.514l5.56,3.21A.872.872,0,0,0,533.624,406.287Z" transform="translate(-495.52 -375.044)" fill="#d9dff6"/>
      <path id="Trazado_112466" data-name="Trazado 112466" d="M542.7,411.53l5.56-3.21a.875.875,0,0,0,0-1.515l-5.56-3.21a.875.875,0,0,0-.874,0l-5.56,3.21a.875.875,0,0,0,0,1.515l5.56,3.21A.875.875,0,0,0,542.7,411.53Z" transform="translate(-513.68 -375.044)" fill="#d9dff6"/>
      <path id="Trazado_112467" data-name="Trazado 112467" d="M506.289,401.1l5.56-3.21a.875.875,0,0,0,0-1.515l-5.56-3.21a.875.875,0,0,0-.874,0l-5.56,3.21a.875.875,0,0,0,0,1.515l5.56,3.21A.875.875,0,0,0,506.289,401.1Z" transform="translate(-440.852 -375.044)" fill="#d9dff6"/>
      <path id="Trazado_112468" data-name="Trazado 112468" d="M515.369,406.341l5.56-3.21a.875.875,0,0,0,0-1.515l-5.56-3.209a.872.872,0,0,0-.875,0l-5.559,3.209a.875.875,0,0,0,0,1.515l5.559,3.21A.876.876,0,0,0,515.369,406.341Z" transform="translate(-459.012 -375.044)" fill="#d9dff6"/>
      <path id="Trazado_112469" data-name="Trazado 112469" d="M524.45,411.584l5.56-3.21a.875.875,0,0,0,0-1.515l-5.56-3.21a.877.877,0,0,0-.875,0l-5.56,3.21a.875.875,0,0,0,0,1.515l5.56,3.21A.877.877,0,0,0,524.45,411.584Z" transform="translate(-477.173 -375.044)" fill="#d9dff6"/>
      <path id="Trazado_112470" data-name="Trazado 112470" d="M534.16,421.758l4.762-2.749a.986.986,0,0,0,0-1.708l-13.935-8.046a2.137,2.137,0,0,0-2.135,0l-4.763,2.75a.986.986,0,0,0,0,1.708l13.936,8.045A2.132,2.132,0,0,0,534.16,421.758Z" transform="translate(-486.16 -375.044)" fill="#f6bf03"/>
      <path id="Trazado_112471" data-name="Trazado 112471" d="M497.117,406.395l5.559-3.21a.875.875,0,0,0,0-1.515l-5.559-3.21a.876.876,0,0,0-.875,0l-5.56,3.21a.875.875,0,0,0,0,1.515l5.56,3.21A.876.876,0,0,0,497.117,406.395Z" transform="translate(-422.506 -375.044)" fill="#d9dff6"/>
      <path id="Trazado_112472" data-name="Trazado 112472" d="M506.2,411.637l5.56-3.21a.875.875,0,0,0,0-1.515L506.2,403.7a.87.87,0,0,0-.874,0l-5.56,3.21a.874.874,0,0,0,0,1.514l5.56,3.21A.875.875,0,0,0,506.2,411.637Z" transform="translate(-440.666 -375.044)" fill="#d9dff6"/>
      <path id="Trazado_112473" data-name="Trazado 112473" d="M515.276,416.88l5.56-3.21a.875.875,0,0,0,0-1.515l-5.56-3.21a.876.876,0,0,0-.875,0l-5.559,3.21a.875.875,0,0,0,0,1.515l5.559,3.21A.876.876,0,0,0,515.276,416.88Z" transform="translate(-458.826 -375.044)" fill="#d9dff6"/>
    </g>
  </g>
  <g id="Grupo_42928" data-name="Grupo 42928" transform="translate(235.096 113.038)">
    <g id="Grupo_42927" data-name="Grupo 42927" transform="translate(0 12.252)">
      <path id="Trazado_112474" data-name="Trazado 112474" d="M436.171,275.276c0,3.821-5.833,6.918-13.03,6.918s-13.029-3.1-13.029-6.918,5.834-6.917,13.029-6.917S436.171,271.457,436.171,275.276Z" transform="translate(-408.744 -244.013)" fill="#bbb8f6" opacity="0.5" style="mix-blend-mode: multiply;isolation: isolate"/>
      <path id="Trazado_112475" data-name="Trazado 112475" d="M437.539,255.976l-2.856,17.4c-.263,4.061-5.488,7.221-11.681,7.221s-11.417-3.16-11.68-7.221l-2.856-17.4Z" transform="translate(-408.466 -244.013)" fill="#b3b8f6"/>
      <path id="Trazado_112476" data-name="Trazado 112476" d="M437.539,252.715v4.5c0,4.8-6.508,8.7-14.537,8.7s-14.536-3.9-14.536-8.7v-4.5Z" transform="translate(-408.466 -244.013)" fill="#9796f7"/>
      <ellipse id="Elipse_1076" data-name="Elipse 1076" cx="14.536" cy="8.702" rx="14.536" ry="8.702" transform="translate(0)" fill="#d9dff6"/>
      <g id="Grupo_42926" data-name="Grupo 42926" transform="translate(1.097 1.479)">
        <ellipse id="Elipse_1077" data-name="Elipse 1077" cx="13.44" cy="7.222" rx="13.44" ry="7.222" transform="translate(0)" fill="#fff"/>
        <ellipse id="Elipse_1078" data-name="Elipse 1078" cx="13.44" cy="7.222" rx="13.44" ry="7.222" transform="translate(0)" fill="#b3b8f6"/>
      </g>
      <path id="Trazado_112477" data-name="Trazado 112477" d="M423,250.419c6.024,0,10.655,2.2,12.53,4.759-1.875,2.557-6.506,4.759-12.53,4.759s-10.656-2.2-12.531-4.759C412.347,252.621,416.978,250.419,423,250.419Z" transform="translate(-408.466 -244.013)" fill="#8285df"/>
    </g>
    <path id="Trazado_112478" data-name="Trazado 112478" d="M428.721,238.886a12.541,12.541,0,0,0-1.088-4.418,4.257,4.257,0,0,0-7.672-.548,12.072,12.072,0,0,0-1.747,4.575,58.589,58.589,0,0,0-1.339,12.71,8.169,8.169,0,0,0,.943,4.469,5.914,5.914,0,0,0,4.97,2.366c1.368.008,4.482-.225,5.5-1.276.994-1.023.694-3.852.769-5.2A76.892,76.892,0,0,0,428.721,238.886Z" transform="translate(-408.515 -231.762)" fill="#603eff"/>
    <path id="Trazado_112479" data-name="Trazado 112479" d="M418.894,243.633a9.586,9.586,0,0,0,.689-6.822c-.19-.689-.631-1.48-1.346-1.454-.614.022-1.029.683-1.071,1.3a10.146,10.146,0,0,0,.239,1.824,4.129,4.129,0,0,1-2,3.964,17.024,17.024,0,0,0-2.146,1.081,2.783,2.783,0,0,0-1.025,2.533C412.9,250.828,417.958,245.476,418.894,243.633Z" transform="translate(-394.583 -231.762)" fill="#603eff"/>
    <path id="Trazado_112480" data-name="Trazado 112480" d="M427.332,245.711a8.685,8.685,0,0,1-2.673-5.139,2.3,2.3,0,0,1,.492-2.071,1.724,1.724,0,0,1,2.245.22,3.858,3.858,0,0,1,.959,2.24,12.779,12.779,0,0,0,.438,2.437,2.441,2.441,0,0,0,1.688,1.663c.9.171,1.953-.37,2.7.172,1.46,1.066.068,2.661-1.186,2.693C430.386,247.967,428.453,246.751,427.332,245.711Z" transform="translate(-420.877 -231.762)" fill="#603eff"/>
  </g>
  <g id="Grupo_42931" data-name="Grupo 42931" transform="translate(243.603 242.676)">
    <path id="Trazado_112481" data-name="Trazado 112481" d="M427.212,364.465h0a3.6,3.6,0,0,0-3.585.017L368.012,396.8a3.6,3.6,0,0,0,.03,6.238h0a3.6,3.6,0,0,0,3.585-.018L427.242,370.7A3.6,3.6,0,0,0,427.212,364.465Z" transform="translate(-366.222 -361.399)" fill="#bbb8f6" opacity="0.5" style="mix-blend-mode: multiply;isolation: isolate"/>
    <g id="Grupo_42930" data-name="Grupo 42930">
      <path id="Trazado_112482" data-name="Trazado 112482" d="M368.836,390.382a2.32,2.32,0,0,0-.479-.1l-.043,0a1.692,1.692,0,0,0-.47.024l-.023.005a1.442,1.442,0,0,0-.421.159L416.973,361.6l.016-.009c.048-.026.1-.05.147-.071a1.562,1.562,0,0,1,.154-.055c.034-.01.07-.016.105-.024l.023-.005.036-.008a1.676,1.676,0,0,1,.177-.021,1.763,1.763,0,0,1,.193,0c.021,0,.042.005.063.007l.043,0c.037,0,.074.005.111.011a2.277,2.277,0,0,1,.257.055c.036.01.074.026.111.038l.1.035c.044.016.086.027.131.045a3.582,3.582,0,0,1,.407.2,4.475,4.475,0,0,1,.545.378c.058.046.112.1.169.149.085.074.172.142.254.223.038.038.074.08.112.119l.1.1c.036.039.074.076.109.116.081.093.16.19.237.288.027.035.052.072.079.108l.041.055c.025.034.05.066.074.1.058.082.115.167.169.252s.1.164.151.247l.012.021.011.02c.039.068.077.136.114.2s.086.165.126.249.069.148.1.223l.007.016.007.014c.038.087.073.174.107.262s.068.183.1.275c.015.044.027.089.041.134l.018.059c.01.035.022.069.031.1.031.111.058.222.082.333.014.067.023.133.034.2.006.035.013.069.018.1s.013.066.017.1a4.368,4.368,0,0,1,.037.566,2.043,2.043,0,0,1-.852,1.871l-49.573,28.865a2.041,2.041,0,0,0,.851-1.871,4.333,4.333,0,0,0-.054-.664c0-.035-.012-.07-.018-.105a5.47,5.47,0,0,0-.147-.634l-.018-.059a6.319,6.319,0,0,0-.253-.686l-.007-.015a7.277,7.277,0,0,0-.342-.677l-.012-.021a7.1,7.1,0,0,0-.406-.62c-.013-.019-.027-.038-.041-.056a6.38,6.38,0,0,0-.424-.511c-.032-.035-.064-.069-.1-.1-.117-.123-.241-.234-.366-.343-.056-.049-.111-.1-.168-.148a4.554,4.554,0,0,0-.545-.378,3.283,3.283,0,0,0-.539-.248Z" transform="translate(-360.316 -361.399)" fill="#b4b9f6"/>
      <path id="Trazado_112483" data-name="Trazado 112483" d="M374.978,366.254c0-.033-.012-.066-.017-.1s-.012-.069-.018-.1c-.011-.066-.02-.132-.034-.2-.024-.111-.051-.222-.082-.333-.009-.034-.021-.068-.031-.1l-.018-.059c-.014-.045-.026-.09-.041-.135-.031-.091-.064-.183-.1-.275s-.069-.174-.107-.261l-.007-.014-.007-.016c-.033-.075-.066-.15-.1-.223s-.082-.167-.126-.249-.075-.137-.114-.2l-.011-.02-.012-.021c-.049-.083-.1-.166-.151-.247s-.111-.17-.169-.252c-.024-.035-.049-.067-.074-.1l-.041-.055c-.027-.036-.052-.073-.079-.108-.077-.1-.156-.195-.237-.288-.035-.04-.073-.077-.109-.116l-.1-.1c-.038-.039-.074-.081-.112-.119-.082-.081-.169-.149-.254-.223-.057-.05-.111-.1-.169-.149a4.475,4.475,0,0,0-.545-.378,3.582,3.582,0,0,0-.407-.2c-.045-.018-.087-.029-.131-.045l-.1-.035c-.037-.012-.075-.028-.111-.038a2.277,2.277,0,0,0-.257-.055c-.037-.006-.074-.007-.111-.011l-.043,0c-.021,0-.042-.006-.063-.007a1.763,1.763,0,0,0-.193,0,1.676,1.676,0,0,0-.177.021l-.036.008-.023.005c-.035.008-.071.014-.105.024a1.562,1.562,0,0,0-.154.055c-.05.021-.1.045-.147.071l-.016.009-2.64,1.538h.01c.023,0,.046.005.068.006l.046,0c.04,0,.079.006.12.012a2.416,2.416,0,0,1,.275.059c.039.01.079.028.119.041s.072.024.109.037.092.029.14.049a3.772,3.772,0,0,1,.437.217,4.89,4.89,0,0,1,.584.4c.062.05.12.107.181.16.091.079.185.152.272.239.042.041.08.086.121.128s.068.072.1.11.08.081.118.125c.087.1.171.2.253.308.029.038.057.077.085.115l.044.06c.027.036.054.071.08.108.062.089.122.179.181.27s.109.176.162.265l.012.023.012.021c.042.073.083.146.123.22s.091.177.135.266.074.16.109.24l.008.017.007.015c.04.093.079.187.115.28s.073.2.105.3c.016.048.03.1.044.145l.02.063c.011.037.023.074.033.11.034.12.063.239.088.358.015.071.024.141.037.212.006.038.013.075.019.112s.014.071.018.106a4.678,4.678,0,0,1,.04.607,2.986,2.986,0,0,1-.247,1.249l2.578-1.5a2.043,2.043,0,0,0,.852-1.871A4.368,4.368,0,0,0,374.978,366.254Z" transform="translate(-313.383 -361.399)" fill="#9796f7"/>
      <g id="Grupo_42929" data-name="Grupo 42929" transform="translate(0 28.866)">
        <path id="Trazado_112484" data-name="Trazado 112484" d="M426.134,390.665a2.067,2.067,0,0,0-2.064-.21c-.529.3-7.1,9.778-7.1,9.778s10.67-2.37,11.2-2.672a2.034,2.034,0,0,0,.86-1.876A6.4,6.4,0,0,0,426.134,390.665Z" transform="translate(-416.974 -390.265)" fill="#fff"/>
      </g>
      <path id="Trazado_112485" data-name="Trazado 112485" d="M427.26,396.393c-1.446,2.049-2.687,3.84-2.687,3.84s1.935-.43,4.2-.946C429.673,397.947,428.019,396.08,427.26,396.393Z" transform="translate(-424.573 -361.399)" fill="#9796f7"/>
    </g>
  </g>
</svg>
