<svg xmlns="http://www.w3.org/2000/svg" viewBox="0 0 334.77 332.41"><defs><style>.cls-1,.cls-2{fill:#fff;}.cls-2,.cls-3{stroke:#000;stroke-miterlimit:10;}.cls-3{fill:none;}</style></defs><g id="Capa_2" data-name="Capa 2"><g id="Capa_1-2" data-name="Capa 1"><rect class="cls-1" x="0.5" y="0.5" width="333.77" height="331.41"/><rect class="cls-2" x="0.5" y="89.55" width="333.77" height="7.69"/><rect class="cls-2" x="0.5" y="97.24" width="333.77" height="47.62"/><rect class="cls-3" x="0.5" y="144.86" width="333.77" height="37.38"/><rect class="cls-3" x="0.5" y="182.24" width="333.77" height="46.81"/><rect class="cls-2" x="0.5" y="15.88" width="333.77" height="9.39"/><rect class="cls-2" x="0.5" y="25.26" width="333.77" height="12.86"/><rect class="cls-3" x="0.5" y="229.05" width="333.77" height="12.86"/><rect class="cls-3" x="0.5" y="293.34" width="333.77" height="12.86"/><rect class="cls-3" x="0.5" y="306.19" width="333.77" height="12.86"/><rect class="cls-3" x="0.5" y="319.05" width="154.6" height="12.86"/><rect class="cls-3" x="155.17" y="319.05" width="179.1" height="12.86"/><rect class="cls-3" x="0.5" y="241.91" width="51.58" height="12.86"/><rect class="cls-3" x="52.08" y="241.91" width="51.58" height="12.86"/><rect class="cls-3" x="103.66" y="241.91" width="102.88" height="12.86"/><rect class="cls-3" x="206.54" y="241.91" width="127.73" height="12.86"/><rect class="cls-3" x="0.5" y="254.76" width="51.58" height="12.86"/><rect class="cls-3" x="52.08" y="254.76" width="51.58" height="12.86"/><rect class="cls-3" x="103.66" y="254.76" width="102.88" height="12.86"/><rect class="cls-3" x="206.54" y="254.76" width="127.73" height="12.86"/><rect class="cls-3" x="0.5" y="267.62" width="51.58" height="12.86"/><rect class="cls-3" x="0.5" y="280.48" width="103.16" height="12.86"/><rect class="cls-3" x="103.52" y="280.48" width="51.58" height="12.86"/><rect class="cls-3" x="155.1" y="280.48" width="51.58" height="12.86"/><rect class="cls-3" x="206.68" y="280.48" width="51.58" height="12.86"/><rect class="cls-3" x="258.27" y="280.48" width="76.01" height="12.86"/><rect class="cls-3" x="52.08" y="267.62" width="51.58" height="12.86"/><rect class="cls-3" x="103.66" y="267.62" width="102.88" height="12.86"/><rect class="cls-3" x="206.54" y="267.62" width="127.73" height="12.86"/><rect class="cls-3" x="0.5" y="38.12" width="103.44" height="12.86"/><rect class="cls-3" x="103.94" y="38.12" width="230.33" height="12.86"/><rect class="cls-3" x="0.5" y="50.98" width="103.44" height="12.86"/><rect class="cls-3" x="103.94" y="50.98" width="230.33" height="12.86"/><rect class="cls-3" x="0.5" y="63.84" width="206.3" height="12.86"/><rect class="cls-3" x="206.8" y="63.84" width="127.48" height="12.86"/><rect class="cls-3" x="0.5" y="76.69" width="206.3" height="12.86"/><rect class="cls-3" x="206.8" y="76.69" width="127.48" height="12.86"/><rect class="cls-2" x="0.5" y="0.5" width="333.77" height="15.38"/><path d="M100.19,10.12V4.39h2.43a4.23,4.23,0,0,1,1.33.15,1.38,1.38,0,0,1,.67.55,1.65,1.65,0,0,1,.25.9,1.56,1.56,0,0,1-.38,1.07,1.8,1.8,0,0,1-1.13.53,2.55,2.55,0,0,1,.62.48,6.51,6.51,0,0,1,.66.93l.69,1.12H104l-.83-1.25a7.2,7.2,0,0,0-.61-.84.85.85,0,0,0-.35-.24,2,2,0,0,0-.58-.06h-.24v2.39Zm1.15-3.31h.86a4.3,4.3,0,0,0,1-.07.65.65,0,0,0,.32-.24.75.75,0,0,0,.12-.43.67.67,0,0,0-.16-.47.66.66,0,0,0-.43-.22,7.29,7.29,0,0,0-.84,0h-.91Z"/><path d="M106,10.12V4.39h4.25v1h-3.09V6.63H110v1h-2.87V9.15h3.2v1Z"/><path d="M111.3,10.12V4.39h1.85a6.55,6.55,0,0,1,1.38.09,1.47,1.47,0,0,1,.82.56,1.77,1.77,0,0,1,.33,1.11,1.86,1.86,0,0,1-.19.89,1.66,1.66,0,0,1-1.08.83,6.09,6.09,0,0,1-1.2.09h-.76v2.16Zm1.15-4.76V7h.63a3,3,0,0,0,.92-.09.77.77,0,0,0,.36-.28.74.74,0,0,0,.13-.44.77.77,0,0,0-.18-.52.8.8,0,0,0-.47-.25,4.89,4.89,0,0,0-.83,0Z"/><path d="M116.4,7.29a3.52,3.52,0,0,1,.26-1.47,3,3,0,0,1,.53-.79,2.24,2.24,0,0,1,.74-.51,3.19,3.19,0,0,1,1.24-.23,2.65,2.65,0,0,1,2,.79A3,3,0,0,1,122,7.26a3,3,0,0,1-.75,2.17,3,3,0,0,1-4,0A3,3,0,0,1,116.4,7.29Zm1.19,0A2.12,2.12,0,0,0,118,8.72a1.53,1.53,0,0,0,2.27,0,2.17,2.17,0,0,0,.45-1.5,2.22,2.22,0,0,0-.43-1.47,1.47,1.47,0,0,0-1.15-.48,1.45,1.45,0,0,0-1.15.49A2.13,2.13,0,0,0,117.59,7.25Z"/><path d="M122.86,10.12V4.39h2.43a4.34,4.34,0,0,1,1.34.15,1.36,1.36,0,0,1,.66.55,1.65,1.65,0,0,1,.25.9,1.51,1.51,0,0,1-.38,1.07,1.8,1.8,0,0,1-1.13.53,2.37,2.37,0,0,1,.62.48,6.51,6.51,0,0,1,.66.93l.7,1.12h-1.39l-.83-1.25a7.2,7.2,0,0,0-.61-.84.85.85,0,0,0-.35-.24,2,2,0,0,0-.58-.06H124v2.39ZM124,6.81h.86a4.3,4.3,0,0,0,1-.07.61.61,0,0,0,.32-.24.75.75,0,0,0,.12-.43.63.63,0,0,0-.59-.69,7.18,7.18,0,0,0-.84,0H124Z"/><path d="M129.92,10.12V5.36h-1.7v-1h4.55v1h-1.69v4.76Z"/><path d="M133.52,10.12V4.39h4.24v1h-3.09V6.63h2.88v1h-2.88V9.15h3.2v1Z"/><path d="M141.07,4.39h2.12a4.29,4.29,0,0,1,1.09.11,1.89,1.89,0,0,1,.86.53,2.57,2.57,0,0,1,.55.92,4.44,4.44,0,0,1,.18,1.36,3.75,3.75,0,0,1-.17,1.22,2.62,2.62,0,0,1-.62,1,2,2,0,0,1-.81.45,3.12,3.12,0,0,1-1,.13h-2.18Zm1.16,1V9.15h.86a3.63,3.63,0,0,0,.7-.05,1.16,1.16,0,0,0,.47-.24,1.28,1.28,0,0,0,.3-.55,3.69,3.69,0,0,0,.12-1.05,3.29,3.29,0,0,0-.12-1,1.32,1.32,0,0,0-.33-.56,1.16,1.16,0,0,0-.53-.27,6.15,6.15,0,0,0-.95,0Z"/><path d="M146.85,10.12V4.39h4.25v1H148V6.63h2.88v1H148V9.15h3.2v1Z"/><path d="M154.41,10.12V4.39h4.25v1h-3.09V6.63h2.87v1h-2.87V9.15h3.2v1Z"/><path d="M159.75,10.12V4.39h2.44a4.27,4.27,0,0,1,1.33.15,1.38,1.38,0,0,1,.67.55,1.74,1.74,0,0,1,.25.9,1.56,1.56,0,0,1-.38,1.07,1.83,1.83,0,0,1-1.14.53,2.37,2.37,0,0,1,.62.48,5.21,5.21,0,0,1,.66.93l.7,1.12h-1.38l-.84-1.25a6.15,6.15,0,0,0-.61-.84.82.82,0,0,0-.34-.24,2.12,2.12,0,0,0-.59-.06h-.23v2.39Zm1.16-3.31h.85a4.18,4.18,0,0,0,1-.07.68.68,0,0,0,.33-.24.75.75,0,0,0,.12-.43.72.72,0,0,0-.16-.47.69.69,0,0,0-.43-.22,7.51,7.51,0,0,0-.85,0h-.9Z"/><path d="M165.53,10.12V4.39H168a4.3,4.3,0,0,1,1.34.15,1.32,1.32,0,0,1,.66.55,1.65,1.65,0,0,1,.25.9,1.51,1.51,0,0,1-.38,1.07,1.77,1.77,0,0,1-1.13.53,2.37,2.37,0,0,1,.62.48A6.51,6.51,0,0,1,170,9l.7,1.12H169.3l-.84-1.25a7.2,7.2,0,0,0-.61-.84.79.79,0,0,0-.35-.24,2,2,0,0,0-.58-.06h-.23v2.39Zm1.16-3.31h.85a4.24,4.24,0,0,0,1-.07.68.68,0,0,0,.33-.24.83.83,0,0,0,.11-.43.72.72,0,0,0-.15-.47.69.69,0,0,0-.44-.22,7.18,7.18,0,0,0-.84,0h-.9Z"/><path d="M171.07,7.29a3.69,3.69,0,0,1,.26-1.47,3,3,0,0,1,.53-.79,2.34,2.34,0,0,1,.74-.51,3.19,3.19,0,0,1,1.24-.23,2.65,2.65,0,0,1,2,.79,3,3,0,0,1,.76,2.18,3,3,0,0,1-.75,2.17,2.67,2.67,0,0,1-2,.78,2.7,2.7,0,0,1-2-.78A3,3,0,0,1,171.07,7.29Zm1.19,0a2.12,2.12,0,0,0,.45,1.47,1.45,1.45,0,0,0,1.14.51,1.48,1.48,0,0,0,1.14-.5,2.22,2.22,0,0,0,.44-1.5A2.17,2.17,0,0,0,175,5.76a1.47,1.47,0,0,0-1.15-.48,1.45,1.45,0,0,0-1.15.49A2.18,2.18,0,0,0,172.26,7.25Z"/><path d="M177.53,10.12V4.39H180a4.3,4.3,0,0,1,1.34.15,1.32,1.32,0,0,1,.66.55,1.65,1.65,0,0,1,.25.9,1.51,1.51,0,0,1-.38,1.07,1.77,1.77,0,0,1-1.13.53,2.37,2.37,0,0,1,.62.48A6.51,6.51,0,0,1,182,9l.7,1.12H181.3l-.84-1.25a7.2,7.2,0,0,0-.61-.84.79.79,0,0,0-.35-.24,2,2,0,0,0-.58-.06h-.23v2.39Zm1.16-3.31h.85a4.24,4.24,0,0,0,1-.07.68.68,0,0,0,.33-.24.83.83,0,0,0,.11-.43.72.72,0,0,0-.15-.47.69.69,0,0,0-.44-.22,7.18,7.18,0,0,0-.84,0h-.9Z"/><path d="M183.3,10.12V4.39h4.25v1h-3.09V6.63h2.87v1h-2.87V9.15h3.2v1Z"/><path d="M188.35,8.25l1.12-.11a1.45,1.45,0,0,0,.41.84,1.3,1.3,0,0,0,.84.26,1.26,1.26,0,0,0,.84-.24.69.69,0,0,0,.29-.55.5.5,0,0,0-.12-.34.91.91,0,0,0-.42-.25c-.13-.05-.44-.13-.92-.25A3.17,3.17,0,0,1,189.08,7a1.49,1.49,0,0,1-.53-1.15,1.52,1.52,0,0,1,.25-.82,1.6,1.6,0,0,1,.72-.58,2.88,2.88,0,0,1,1.12-.2,2.48,2.48,0,0,1,1.63.47A1.7,1.7,0,0,1,192.84,6l-1.16,0a1,1,0,0,0-.32-.64,1.14,1.14,0,0,0-.73-.19,1.32,1.32,0,0,0-.79.21.4.4,0,0,0-.18.35.46.46,0,0,0,.17.35,3.09,3.09,0,0,0,1.06.38,5.48,5.48,0,0,1,1.25.41,1.6,1.6,0,0,1,.86,1.5,1.7,1.7,0,0,1-.27.92A1.62,1.62,0,0,1,192,10a3.26,3.26,0,0,1-1.25.21,2.52,2.52,0,0,1-1.67-.5A2.18,2.18,0,0,1,188.35,8.25Z"/><path d="M196,7.29a3.51,3.51,0,0,1,.27-1.47,2.74,2.74,0,0,1,.53-.79,2.14,2.14,0,0,1,.74-.51,3.17,3.17,0,0,1,1.23-.23,2.67,2.67,0,0,1,2,.79,3,3,0,0,1,.76,2.18,3,3,0,0,1-.76,2.17,2.66,2.66,0,0,1-2,.78,2.69,2.69,0,0,1-2-.78A2.92,2.92,0,0,1,196,7.29Zm1.2,0a2.12,2.12,0,0,0,.44,1.47,1.54,1.54,0,0,0,2.28,0,2.17,2.17,0,0,0,.44-1.5,2.17,2.17,0,0,0-.43-1.47,1.61,1.61,0,0,0-2.3,0A2.18,2.18,0,0,0,197.16,7.25Z"/><path d="M204.65,10.12V4.39h3.93v1h-2.77V6.71h2.39v1h-2.39v2.44Z"/><path d="M214.25,10.12H213l-.5-1.31h-2.29l-.48,1.31h-1.22l2.23-5.73H212Zm-2.13-2.27-.79-2.12-.77,2.12Z"/><path d="M214.9,10.12V4.44h1.15V9.15h2.88v1Z"/><path d="M219.78,10.12V4.44h1.16V9.15h2.88v1Z"/><path d="M229.8,10.12h-1.25l-.5-1.31h-2.29l-.48,1.31h-1.22l2.23-5.73h1.22Zm-2.13-2.27-.78-2.12-.78,2.12Z"/><path d="M230.12,8.25l1.13-.11a1.39,1.39,0,0,0,.41.84,1.3,1.3,0,0,0,.84.26,1.28,1.28,0,0,0,.84-.24.68.68,0,0,0,.28-.55.5.5,0,0,0-.12-.34.82.82,0,0,0-.41-.25c-.14-.05-.45-.13-.93-.25a3.11,3.11,0,0,1-1.3-.57,1.49,1.49,0,0,1-.53-1.15,1.44,1.44,0,0,1,.25-.82,1.53,1.53,0,0,1,.71-.58,3,3,0,0,1,1.13-.2,2.43,2.43,0,0,1,1.62.47A1.68,1.68,0,0,1,234.62,6l-1.16,0a1,1,0,0,0-.32-.64,1.16,1.16,0,0,0-.73-.19,1.3,1.3,0,0,0-.79.21.4.4,0,0,0-.18.35.43.43,0,0,0,.17.35,3,3,0,0,0,1.06.38,5.66,5.66,0,0,1,1.25.41,1.63,1.63,0,0,1,.63.59,1.8,1.8,0,0,1,0,1.83,1.65,1.65,0,0,1-.78.64,3.21,3.21,0,0,1-1.24.21,2.5,2.5,0,0,1-1.67-.5A2.23,2.23,0,0,1,230.12,8.25Z"/><path d="M116.83,33.9h-1.1V29.76a3.81,3.81,0,0,1-1.42.83v-1a3.44,3.44,0,0,0,.94-.54,2.07,2.07,0,0,0,.69-.91h.89Z"/><path d="M118.7,33.9V32.8h1.1v1.1Z"/><path d="M123.12,33.9V28.17h1.16V33.9Z"/><path d="M125.39,33.9V28.17h1.12L128.86,32V28.17h1.07V33.9h-1.16l-2.31-3.74V33.9Z"/><path d="M131.16,33.9V28.17h3.93v1h-2.77v1.35h2.39v1h-2.39V33.9Z"/><path d="M135.81,31.07a3.55,3.55,0,0,1,.26-1.47,3,3,0,0,1,.53-.79,2.24,2.24,0,0,1,.74-.51,3.19,3.19,0,0,1,1.24-.23,2.65,2.65,0,0,1,2,.79,3,3,0,0,1,.76,2.18,3,3,0,0,1-.75,2.17,3,3,0,0,1-4.05,0A3,3,0,0,1,135.81,31.07ZM137,31a2.12,2.12,0,0,0,.45,1.47,1.53,1.53,0,0,0,2.27,0,2.17,2.17,0,0,0,.45-1.5,2.22,2.22,0,0,0-.43-1.47,1.47,1.47,0,0,0-1.15-.48,1.45,1.45,0,0,0-1.15.49A2.13,2.13,0,0,0,137,31Z"/><path d="M142.27,33.9V28.17h2.43a4.34,4.34,0,0,1,1.34.15,1.36,1.36,0,0,1,.66.55,1.65,1.65,0,0,1,.25.9,1.51,1.51,0,0,1-.38,1.07,1.8,1.8,0,0,1-1.13.53,2.37,2.37,0,0,1,.62.48,6.51,6.51,0,0,1,.66.93l.7,1.12H146l-.83-1.25a7.2,7.2,0,0,0-.61-.84.85.85,0,0,0-.35-.24,2,2,0,0,0-.58-.06h-.24V33.9Zm1.15-3.31h.86a4.3,4.3,0,0,0,1-.07.61.61,0,0,0,.32-.24.75.75,0,0,0,.12-.43.63.63,0,0,0-.59-.69,7.18,7.18,0,0,0-.84,0h-.91Z"/><path d="M148,33.9V28.17h1.73l1,3.91,1-3.91h1.74V33.9h-1.08V29.39l-1.13,4.51h-1.12l-1.13-4.51V33.9Z"/><path d="M159.87,33.9h-1.26l-.5-1.3h-2.29l-.47,1.3h-1.23l2.23-5.73h1.23Zm-2.13-2.27L157,29.51l-.77,2.12Z"/><path d="M164.15,31.79l1.12.36a2.5,2.5,0,0,1-.86,1.39,2.71,2.71,0,0,1-3.4-.33,3,3,0,0,1-.73-2.13,3.15,3.15,0,0,1,.74-2.22,2.55,2.55,0,0,1,1.94-.79,2.41,2.41,0,0,1,1.71.62,2.29,2.29,0,0,1,.58,1.06l-1.14.27a1.18,1.18,0,0,0-.43-.7,1.2,1.2,0,0,0-.78-.26,1.28,1.28,0,0,0-1,.46,2.2,2.2,0,0,0-.4,1.48,2.38,2.38,0,0,0,.39,1.54,1.27,1.27,0,0,0,1,.47,1.13,1.13,0,0,0,.79-.3A1.71,1.71,0,0,0,164.15,31.79Z"/><path d="M166.23,33.9V28.17h1.15V33.9Z"/><path d="M168.25,31.07a3.72,3.72,0,0,1,.26-1.47,3,3,0,0,1,.53-.79,2.34,2.34,0,0,1,.74-.51,3.19,3.19,0,0,1,1.24-.23,2.65,2.65,0,0,1,2,.79A3,3,0,0,1,173.8,31a3,3,0,0,1-.75,2.17,2.67,2.67,0,0,1-2,.78,2.7,2.7,0,0,1-2-.78A3,3,0,0,1,168.25,31.07Zm1.19,0a2.12,2.12,0,0,0,.45,1.47A1.45,1.45,0,0,0,171,33a1.48,1.48,0,0,0,1.14-.5,2.22,2.22,0,0,0,.44-1.5,2.22,2.22,0,0,0-.43-1.47,1.47,1.47,0,0,0-1.15-.48,1.45,1.45,0,0,0-1.15.49A2.18,2.18,0,0,0,169.44,31Zm.88-3.19.53-1.17h1.23L171,27.84Z"/><path d="M174.72,33.9V28.17h1.12L178.19,32V28.17h1.07V33.9H178.1l-2.31-3.74V33.9Z"/><path d="M185.37,31.79v-1h2.49v2.28a3.2,3.2,0,0,1-1.05.62,4,4,0,0,1-1.4.26,3.1,3.1,0,0,1-1.56-.37,2.4,2.4,0,0,1-1-1.08,3.56,3.56,0,0,1-.33-1.53,3.33,3.33,0,0,1,.37-1.59,2.51,2.51,0,0,1,1.1-1.06,3,3,0,0,1,1.37-.29,2.74,2.74,0,0,1,1.67.45,2,2,0,0,1,.77,1.24l-1.15.21a1.22,1.22,0,0,0-.46-.67,1.38,1.38,0,0,0-.83-.24,1.55,1.55,0,0,0-1.2.48A2,2,0,0,0,183.7,31a2.25,2.25,0,0,0,.45,1.53,1.51,1.51,0,0,0,1.19.51,2,2,0,0,0,.73-.15,2.43,2.43,0,0,0,.62-.34v-.73Z"/><path d="M188.93,33.9V28.17h4.24v1h-3.09v1.27H193v1h-2.88v1.56h3.2v1Z"/><path d="M194.28,33.9V28.17h1.12L197.75,32V28.17h1.07V33.9h-1.16l-2.31-3.74V33.9Z"/><path d="M200,33.9V28.17h4.25v1H201.2v1.27h2.87v1H201.2v1.56h3.2v1Z"/><path d="M205.38,33.9V28.17h2.44a4.27,4.27,0,0,1,1.33.15,1.38,1.38,0,0,1,.67.55,1.74,1.74,0,0,1,.25.9,1.56,1.56,0,0,1-.38,1.07,1.83,1.83,0,0,1-1.14.53,2.37,2.37,0,0,1,.62.48,5.79,5.79,0,0,1,.66.93l.7,1.12h-1.38l-.84-1.25a7.2,7.2,0,0,0-.61-.84.79.79,0,0,0-.35-.24,2,2,0,0,0-.58-.06h-.23V33.9Zm1.16-3.31h.85a4.24,4.24,0,0,0,1-.07.68.68,0,0,0,.33-.24.83.83,0,0,0,.11-.43.72.72,0,0,0-.15-.47.69.69,0,0,0-.44-.22,7.18,7.18,0,0,0-.84,0h-.9Z"/><path d="M216.32,33.9h-1.26l-.5-1.3h-2.29l-.47,1.3h-1.23l2.23-5.73H214Zm-2.13-2.27-.79-2.12-.77,2.12Z"/><path d="M217,33.9V28.22h1.16v4.71H221v1Z"/><path d="M5.68,47.51v-5H9.06v.59H6.34v1.55H8.69v.59H6.34v2.28Z"/><path d="M9.93,47.51v-5h3.63v.59h-3v1.53h2.77v.59H10.6v1.71h3.07v.59Z"/><path d="M18.16,45.75l.67.17a2.22,2.22,0,0,1-.75,1.24,2.08,2.08,0,0,1-1.33.43,2.39,2.39,0,0,1-1.32-.33,2.1,2.1,0,0,1-.77-.95A3.37,3.37,0,0,1,14.4,45a2.94,2.94,0,0,1,.3-1.37,2,2,0,0,1,.85-.89,2.49,2.49,0,0,1,1.21-.3,2.12,2.12,0,0,1,1.27.38,2,2,0,0,1,.71,1.08l-.65.16a1.59,1.59,0,0,0-.51-.8,1.32,1.32,0,0,0-.83-.25,1.59,1.59,0,0,0-1,.28,1.4,1.4,0,0,0-.54.74,2.85,2.85,0,0,0-.16,1,3,3,0,0,0,.19,1.12,1.33,1.33,0,0,0,.58.71,1.58,1.58,0,0,0,.85.24,1.45,1.45,0,0,0,.94-.32A1.66,1.66,0,0,0,18.16,45.75Z"/><path d="M19.66,47.51v-5h.67v2.06h2.6V42.5h.66v5h-.66V45.15h-2.6v2.36Z"/><path d="M24.15,47.51l1.92-5h.72l2.05,5h-.76L27.5,46H25.4l-.55,1.52Zm1.44-2.06h1.7l-.52-1.39a10.58,10.58,0,0,1-.35-1,8.05,8.05,0,0,1-.27,1Z"/><path d="M30.93,47.51v-5h1.72a4,4,0,0,1,.89.07,1.66,1.66,0,0,1,.74.36,2.07,2.07,0,0,1,.59.85,3.43,3.43,0,0,1,.2,1.2,3.47,3.47,0,0,1-.14,1,2.35,2.35,0,0,1-.34.73,1.92,1.92,0,0,1-.45.45,1.81,1.81,0,0,1-.6.25,3.23,3.23,0,0,1-.81.09Zm.66-.59h1.07a2.34,2.34,0,0,0,.78-.1,1.11,1.11,0,0,0,.45-.26,1.47,1.47,0,0,0,.36-.63,3,3,0,0,0,.13-1,2.35,2.35,0,0,0-.25-1.21,1.32,1.32,0,0,0-.63-.57,2.56,2.56,0,0,0-.86-.1H31.59Z"/><path d="M36,47.51v-5h3.62v.59h-3v1.53h2.77v.59H36.66v1.71h3.07v.59Z"/><path d="M42.61,47.51v-5h2.22a3,3,0,0,1,1,.13,1.11,1.11,0,0,1,.55.48,1.42,1.42,0,0,1,.21.75,1.25,1.25,0,0,1-.34.9,1.75,1.75,0,0,1-1.07.47,1.54,1.54,0,0,1,.4.25,3.7,3.7,0,0,1,.55.66L47,47.51h-.83l-.67-1c-.19-.3-.35-.53-.47-.69a1.53,1.53,0,0,0-.34-.34,1,1,0,0,0-.3-.13,1.64,1.64,0,0,0-.37,0h-.77v2.23Zm.66-2.8h1.42a2,2,0,0,0,.72-.1.68.68,0,0,0,.38-.3.77.77,0,0,0,.14-.45.75.75,0,0,0-.26-.58,1.22,1.22,0,0,0-.82-.23H43.27Z"/><path d="M47.66,47.51v-5h3.63v.59h-3v1.53H51.1v.59H48.33v1.71H51.4v.59Z"/><path d="M52.32,47.51v-5h1.89a3.75,3.75,0,0,1,.76,0,1.43,1.43,0,0,1,.62.23,1.19,1.19,0,0,1,.4.48,1.58,1.58,0,0,1,.15.69,1.55,1.55,0,0,1-.4,1.08,2,2,0,0,1-1.47.44H53v2ZM53,44.88h1.3a1.36,1.36,0,0,0,.91-.24.85.85,0,0,0,.27-.67.89.89,0,0,0-.16-.54.72.72,0,0,0-.42-.3,2.9,2.9,0,0,0-.62,0H53Z"/><path d="M56.79,45.07a2.73,2.73,0,0,1,.67-2,2.26,2.26,0,0,1,1.73-.7,2.41,2.41,0,0,1,1.25.33,2.22,2.22,0,0,1,.85.92A3.11,3.11,0,0,1,61.58,45a2.87,2.87,0,0,1-.31,1.36,2,2,0,0,1-.87.91,2.46,2.46,0,0,1-1.22.31,2.33,2.33,0,0,1-1.26-.34,2.24,2.24,0,0,1-.85-.93A2.85,2.85,0,0,1,56.79,45.07Zm.68,0A2,2,0,0,0,58,46.51a1.62,1.62,0,0,0,1.22.52,1.6,1.6,0,0,0,1.23-.53A2.14,2.14,0,0,0,60.9,45a2.52,2.52,0,0,0-.21-1.07,1.57,1.57,0,0,0-.61-.71,1.59,1.59,0,0,0-.89-.25,1.7,1.7,0,0,0-1.21.48A2.17,2.17,0,0,0,57.47,45.08Z"/><path d="M62.44,47.51v-5h2.23a2.94,2.94,0,0,1,1,.13,1.09,1.09,0,0,1,.56.48,1.42,1.42,0,0,1,.21.75,1.25,1.25,0,0,1-.35.9,1.72,1.72,0,0,1-1.06.47,1.74,1.74,0,0,1,.4.25,3.7,3.7,0,0,1,.55.66l.87,1.37H66l-.67-1a7.54,7.54,0,0,0-.48-.69,1.34,1.34,0,0,0-.33-.34,1,1,0,0,0-.3-.13,1.64,1.64,0,0,0-.37,0h-.77v2.23Zm.67-2.8h1.42a2,2,0,0,0,.71-.1.74.74,0,0,0,.39-.3.77.77,0,0,0,.14-.45.75.75,0,0,0-.26-.58,1.24,1.24,0,0,0-.82-.23H63.11Z"/><path d="M68.64,47.51V43.09H67V42.5h4v.59H69.3v4.42Z"/><path d="M71.65,47.51v-5h3.62v.59h-3v1.53h2.78v.59H72.31v1.71h3.08v.59Z"/><path d="M5.68,59.82v-5H9.06v.59H6.34V57H8.69v.59H6.34v2.27Z"/><path d="M9.93,59.82v-5h3.63v.59h-3v1.54h2.77v.59H10.6v1.7h3.07v.59Z"/><path d="M18.16,58.07l.67.16a2.25,2.25,0,0,1-.75,1.25,2.08,2.08,0,0,1-1.33.43,2.39,2.39,0,0,1-1.32-.33,2.13,2.13,0,0,1-.77-1,3.3,3.3,0,0,1-.26-1.34,3,3,0,0,1,.3-1.37,2,2,0,0,1,.85-.88,2.49,2.49,0,0,1,1.21-.3,2.06,2.06,0,0,1,1.27.38,1.93,1.93,0,0,1,.71,1.08l-.65.15a1.63,1.63,0,0,0-.51-.8,1.39,1.39,0,0,0-.83-.25,1.66,1.66,0,0,0-1,.28,1.44,1.44,0,0,0-.54.74,3.18,3.18,0,0,0,0,2.08,1.29,1.29,0,0,0,.58.71,1.58,1.58,0,0,0,.85.24,1.45,1.45,0,0,0,.94-.32A1.6,1.6,0,0,0,18.16,58.07Z"/><path d="M19.66,59.82v-5h.67v2.06h2.6V54.81h.66v5h-.66V57.46h-2.6v2.36Z"/><path d="M24.15,59.82l1.92-5h.72l2.05,5h-.76l-.58-1.51H25.4l-.55,1.51Zm1.44-2h1.7l-.52-1.39a10.58,10.58,0,0,1-.35-1,8.62,8.62,0,0,1-.27,1Z"/><path d="M30.93,59.82v-5h1.72a4.74,4.74,0,0,1,.89.07,1.77,1.77,0,0,1,.74.36,2.1,2.1,0,0,1,.59.86,3.37,3.37,0,0,1,.2,1.19,3.42,3.42,0,0,1-.14,1,2.15,2.15,0,0,1-.34.73,2,2,0,0,1-.45.46,2,2,0,0,1-.6.25,3.83,3.83,0,0,1-.81.08Zm.66-.59h1.07a2.69,2.69,0,0,0,.78-.09,1.24,1.24,0,0,0,.45-.26,1.61,1.61,0,0,0,.36-.63,3.08,3.08,0,0,0,.13-1,2.37,2.37,0,0,0-.25-1.21,1.25,1.25,0,0,0-.63-.56,2.51,2.51,0,0,0-.86-.11H31.59Z"/><path d="M36,59.82v-5h3.62v.59h-3v1.54h2.77v.59H36.66v1.7h3.07v.59Z"/><path d="M42.61,59.82v-5h3.62v.59h-3v1.54H46v.59H43.27v1.7h3.08v.59Z"/><path d="M47.27,59.82v-5H49.5a2.9,2.9,0,0,1,1,.14,1.12,1.12,0,0,1,.56.47,1.43,1.43,0,0,1,.21.76,1.24,1.24,0,0,1-.35.9,1.71,1.71,0,0,1-1.06.46,2.16,2.16,0,0,1,.4.25,3.46,3.46,0,0,1,.55.67l.87,1.36h-.83l-.67-1a7.54,7.54,0,0,0-.48-.69,1.53,1.53,0,0,0-.33-.34,1.3,1.3,0,0,0-.3-.13l-.37,0h-.77v2.22Zm.67-2.8h1.42a2.19,2.19,0,0,0,.71-.09.74.74,0,0,0,.39-.3.82.82,0,0,0,.14-.45.77.77,0,0,0-.26-.59,1.24,1.24,0,0,0-.82-.22H47.94Z"/><path d="M52.33,59.82v-5h2.22a2.92,2.92,0,0,1,1,.14,1.16,1.16,0,0,1,.56.47,1.43,1.43,0,0,1,.21.76,1.29,1.29,0,0,1-.35.9,1.74,1.74,0,0,1-1.07.46,1.87,1.87,0,0,1,.4.25,3.13,3.13,0,0,1,.55.67l.88,1.36h-.84l-.66-1c-.2-.3-.35-.53-.48-.69a1.79,1.79,0,0,0-.34-.34,1.3,1.3,0,0,0-.3-.13l-.37,0H53v2.22ZM53,57h1.43a2.23,2.23,0,0,0,.71-.09.74.74,0,0,0,.39-.3.81.81,0,0,0,.13-.45.74.74,0,0,0-.26-.59,1.21,1.21,0,0,0-.81-.22H53Z"/><path d="M57.17,57.38a2.75,2.75,0,0,1,.67-2,2.3,2.3,0,0,1,1.73-.71,2.38,2.38,0,0,1,1.25.33,2.12,2.12,0,0,1,.85.93,2.91,2.91,0,0,1,.3,1.34,3,3,0,0,1-.31,1.37,2.19,2.19,0,0,1-.87.91,2.55,2.55,0,0,1-2.49,0,2.19,2.19,0,0,1-.84-.94A2.83,2.83,0,0,1,57.17,57.38Zm.69,0a2,2,0,0,0,.48,1.43,1.62,1.62,0,0,0,1.23.52,1.56,1.56,0,0,0,1.23-.53,2.12,2.12,0,0,0,.48-1.49,2.72,2.72,0,0,0-.2-1.07,1.55,1.55,0,0,0-.61-.7,1.63,1.63,0,0,0-.89-.26,1.73,1.73,0,0,0-1.22.49A2.18,2.18,0,0,0,57.86,57.39Z"/><path d="M62.83,59.82v-5h2.22a2.92,2.92,0,0,1,1,.14,1.16,1.16,0,0,1,.56.47,1.43,1.43,0,0,1,.21.76,1.29,1.29,0,0,1-.35.9,1.74,1.74,0,0,1-1.07.46,1.87,1.87,0,0,1,.4.25,3.13,3.13,0,0,1,.55.67l.88,1.36h-.84l-.66-1c-.2-.3-.35-.53-.48-.69a1.79,1.79,0,0,0-.34-.34,1.3,1.3,0,0,0-.3-.13l-.37,0h-.77v2.22Zm.66-2.8h1.43a2.23,2.23,0,0,0,.71-.09.74.74,0,0,0,.39-.3.81.81,0,0,0,.13-.45.74.74,0,0,0-.26-.59,1.21,1.21,0,0,0-.81-.22H63.49Z"/><path d="M69.62,57.38a2.7,2.7,0,0,1,.67-2A2.27,2.27,0,0,1,72,54.72a2.41,2.41,0,0,1,1.25.33,2.25,2.25,0,0,1,.85.93,3,3,0,0,1,.29,1.34,2.91,2.91,0,0,1-.31,1.37,2.07,2.07,0,0,1-.87.91,2.46,2.46,0,0,1-1.22.31,2.42,2.42,0,0,1-1.26-.34,2.27,2.27,0,0,1-.85-.94A2.82,2.82,0,0,1,69.62,57.38Zm.68,0a2,2,0,0,0,.49,1.43,1.58,1.58,0,0,0,1.22.52,1.56,1.56,0,0,0,1.23-.53,2.12,2.12,0,0,0,.49-1.49,2.55,2.55,0,0,0-.21-1.07,1.55,1.55,0,0,0-.61-.7,1.6,1.6,0,0,0-.89-.26,1.71,1.71,0,0,0-1.21.49A2.14,2.14,0,0,0,70.3,57.39Z"/><path d="M77.24,59.82v-5h3.38v.59H77.91V57h2.35v.59H77.91v2.27Z"/><path d="M80.55,59.82l1.92-5h.72l2,5h-.76l-.58-1.51H81.8l-.55,1.51Zm1.44-2h1.7l-.52-1.39c-.16-.42-.28-.77-.36-1a5.75,5.75,0,0,1-.27,1Z"/><path d="M85.74,59.82v-5h.66v4.42h2.47v.59Z"/><path d="M89.63,59.82v-5h.67v4.42h2.46v.59Z"/><path d="M93,59.82l1.93-5h.71l2,5h-.75l-.59-1.51H94.26l-.55,1.51Zm1.45-2h1.7l-.52-1.39c-.16-.42-.28-.77-.36-1a5.75,5.75,0,0,1-.27,1Z"/><path d="M6.74,251v-5h3.38v.59H7.41v1.55H9.76v.59H7.41V251Z"/><path d="M11,251v-5h3.62v.59h-3v1.53h2.77v.59H11.66v1.71h3.08V251Z"/><path d="M19.23,249.26l.66.17a2.22,2.22,0,0,1-.75,1.24,2,2,0,0,1-1.32.43,2.39,2.39,0,0,1-1.32-.33,2,2,0,0,1-.77-1,3.39,3.39,0,0,1-.27-1.35,2.93,2.93,0,0,1,.3-1.36,2,2,0,0,1,.85-.89,2.51,2.51,0,0,1,1.22-.3,1.93,1.93,0,0,1,2,1.46l-.66.15a1.48,1.48,0,0,0-.5-.79,1.33,1.33,0,0,0-.84-.25,1.65,1.65,0,0,0-1,.27,1.54,1.54,0,0,0-.55.75,3.11,3.11,0,0,0-.15,1,3.17,3.17,0,0,0,.18,1.12,1.47,1.47,0,0,0,.58.71,1.6,1.6,0,0,0,.85.23,1.42,1.42,0,0,0,.95-.32A1.66,1.66,0,0,0,19.23,249.26Z"/><path d="M20.73,251v-5h.66v2.05H24V246h.66v5H24v-2.37H21.39V251Z"/><path d="M25.21,251l1.93-5h.71l2,5h-.75l-.59-1.52H26.47L25.92,251ZM26.66,249h1.7l-.52-1.39c-.16-.42-.28-.77-.36-1a5.75,5.75,0,0,1-.27,1Z"/><path d="M6.74,263.84v-5h3.38v.59H7.41V261H9.76v.59H7.41v2.28Z"/><path d="M11,263.84v-5h3.62v.59h-3V261h2.77v.59H11.66v1.7h3.08v.6Z"/><path d="M19.23,262.08l.66.17a2.22,2.22,0,0,1-.75,1.24,2,2,0,0,1-1.32.43,2.39,2.39,0,0,1-1.32-.33,2,2,0,0,1-.77-.95,3.39,3.39,0,0,1-.27-1.35,2.93,2.93,0,0,1,.3-1.36,2,2,0,0,1,.85-.89,2.51,2.51,0,0,1,1.22-.3,1.93,1.93,0,0,1,2,1.46l-.66.15a1.48,1.48,0,0,0-.5-.79,1.33,1.33,0,0,0-.84-.25,1.65,1.65,0,0,0-1,.27,1.54,1.54,0,0,0-.55.75,3.11,3.11,0,0,0-.15,1,3.17,3.17,0,0,0,.18,1.12,1.47,1.47,0,0,0,.58.71,1.6,1.6,0,0,0,.85.23,1.42,1.42,0,0,0,.95-.32A1.66,1.66,0,0,0,19.23,262.08Z"/><path d="M20.73,263.84v-5h.66v2.05H24v-2.05h.66v5H24v-2.37H21.39v2.37Z"/><path d="M25.21,263.84l1.93-5h.71l2,5h-.75l-.59-1.52H26.47l-.55,1.52Zm1.45-2.06h1.7l-.52-1.39c-.16-.42-.28-.77-.36-1a5.75,5.75,0,0,1-.27,1Z"/><path d="M6.74,276.73v-5h3.38v.59H7.41v1.55H9.76v.59H7.41v2.28Z"/><path d="M11,276.73v-5h3.62v.59h-3v1.53h2.77v.59H11.66v1.71h3.08v.59Z"/><path d="M19.23,275l.66.17a2.22,2.22,0,0,1-.75,1.24,2,2,0,0,1-1.32.43,2.39,2.39,0,0,1-1.32-.33,2,2,0,0,1-.77-1,3.38,3.38,0,0,1-.27-1.34,2.94,2.94,0,0,1,.3-1.37,2.09,2.09,0,0,1,.85-.89,2.51,2.51,0,0,1,1.22-.3,2,2,0,0,1,2,1.46l-.66.16a1.51,1.51,0,0,0-.5-.8,1.33,1.33,0,0,0-.84-.25,1.58,1.58,0,0,0-1,.28,1.47,1.47,0,0,0-.55.74,3.11,3.11,0,0,0-.15,1,3.17,3.17,0,0,0,.18,1.12,1.42,1.42,0,0,0,.58.71,1.61,1.61,0,0,0,.85.24,1.47,1.47,0,0,0,.95-.32A1.72,1.72,0,0,0,19.23,275Z"/><path d="M20.73,276.73v-5h.66v2H24v-2h.66v5H24v-2.36H21.39v2.36Z"/><path d="M25.21,276.73l1.93-5h.71l2,5h-.75l-.59-1.52H26.47l-.55,1.52Zm1.45-2.06h1.7l-.52-1.39c-.16-.42-.28-.76-.36-1a5.75,5.75,0,0,1-.27,1Z"/><path d="M109.32,251l1.93-5H112l2.05,5h-.75l-.59-1.52h-2.09L110,251Zm1.45-2.06h1.7l-.53-1.39c-.16-.42-.27-.77-.35-1a8.62,8.62,0,0,1-.27,1Z"/><path d="M118.12,249.26l.66.17a2.22,2.22,0,0,1-.75,1.24,2,2,0,0,1-1.33.43,2.38,2.38,0,0,1-1.31-.33,2.11,2.11,0,0,1-.78-1,3.57,3.57,0,0,1-.26-1.35,2.93,2.93,0,0,1,.3-1.36,2,2,0,0,1,.85-.89,2.51,2.51,0,0,1,1.22-.3,2.07,2.07,0,0,1,1.26.38,2,2,0,0,1,.71,1.08l-.65.15a1.48,1.48,0,0,0-.5-.79,1.35,1.35,0,0,0-.84-.25,1.62,1.62,0,0,0-1,.27,1.54,1.54,0,0,0-.55.75,3.12,3.12,0,0,0-.16,1,3.16,3.16,0,0,0,.19,1.12,1.42,1.42,0,0,0,.58.71,1.6,1.6,0,0,0,.85.23,1.38,1.38,0,0,0,.94-.32A1.61,1.61,0,0,0,118.12,249.26Z"/><path d="M123.17,249.26l.66.17a2.12,2.12,0,0,1-.75,1.24,2,2,0,0,1-1.32.43,2.39,2.39,0,0,1-1.32-.33,2.09,2.09,0,0,1-.77-1,3.39,3.39,0,0,1-.27-1.35,2.93,2.93,0,0,1,.3-1.36,2.06,2.06,0,0,1,.86-.89,2.47,2.47,0,0,1,1.21-.3,2.07,2.07,0,0,1,1.26.38,2,2,0,0,1,.72,1.08l-.65.15a1.56,1.56,0,0,0-.51-.79,1.32,1.32,0,0,0-.83-.25,1.66,1.66,0,0,0-1,.27,1.46,1.46,0,0,0-.54.75,2.85,2.85,0,0,0-.16,1,3.17,3.17,0,0,0,.18,1.12,1.47,1.47,0,0,0,.58.71,1.62,1.62,0,0,0,.85.23,1.4,1.4,0,0,0,1-.32A1.6,1.6,0,0,0,123.17,249.26Z"/><path d="M124.76,251v-5h.67v5Z"/><path d="M126.39,248.58a2.75,2.75,0,0,1,.67-2,2.29,2.29,0,0,1,1.73-.7,2.38,2.38,0,0,1,1.25.33,2.1,2.1,0,0,1,.85.92,3.16,3.16,0,0,1,0,2.71,2.13,2.13,0,0,1-.87.91,2.46,2.46,0,0,1-1.22.31,2.33,2.33,0,0,1-1.26-.34,2.18,2.18,0,0,1-.85-.93A2.86,2.86,0,0,1,126.39,248.58Zm.69,0a2,2,0,0,0,.48,1.42,1.62,1.62,0,0,0,1.23.52A1.59,1.59,0,0,0,130,250a2.15,2.15,0,0,0,.48-1.5,2.67,2.67,0,0,0-.2-1.06,1.57,1.57,0,0,0-.61-.71,1.59,1.59,0,0,0-.89-.25,1.68,1.68,0,0,0-1.21.48A2.15,2.15,0,0,0,127.08,248.59Zm1.29-2.89.45-1h.81l-.75,1Z"/><path d="M132,251v-5h.68l2.64,3.93V246H136v5h-.68l-2.63-3.94V251Z"/><path d="M139.05,251v-5h2.22a3,3,0,0,1,1,.13,1.13,1.13,0,0,1,.56.48,1.42,1.42,0,0,1,.21.75,1.25,1.25,0,0,1-.35.9,1.72,1.72,0,0,1-1.06.47,1.62,1.62,0,0,1,.4.25,3.77,3.77,0,0,1,.55.66l.87,1.37h-.84L142,250a7.54,7.54,0,0,0-.48-.69,1.44,1.44,0,0,0-.33-.33,1,1,0,0,0-.31-.14l-.37,0h-.77V251Zm.66-2.8h1.43a2,2,0,0,0,.71-.1.74.74,0,0,0,.39-.3.81.81,0,0,0,.13-.45.74.74,0,0,0-.25-.58,1.25,1.25,0,0,0-.82-.23h-1.59Z"/><path d="M144.11,251v-5h3.62v.59h-3v1.53h2.77v.59h-2.77v1.71h3.08V251Z"/><path d="M148.22,251l1.92-5h.71l2.06,5h-.76l-.58-1.52h-2.1l-.55,1.52Zm1.44-2.06h1.7l-.52-1.39c-.16-.42-.28-.77-.36-1a5.75,5.75,0,0,1-.27,1Z"/><path d="M153.41,251v-5h.66v4.42h2.47V251Z"/><path d="M157.44,251v-5h.66v5Z"/><path d="M158.87,251v-.62l2.57-3.21a6.4,6.4,0,0,1,.52-.59h-2.8V246h3.59v.59l-2.81,3.47-.31.36h3.2V251Z"/><path d="M163,251l1.92-5h.72l2.05,5h-.76l-.58-1.52h-2.1L163.7,251Zm1.44-2.06h1.7l-.52-1.39c-.16-.42-.28-.77-.36-1a5.75,5.75,0,0,1-.27,1Z"/><path d="M168.22,251v-5h1.72a4.18,4.18,0,0,1,.9.07,1.57,1.57,0,0,1,.73.36,2,2,0,0,1,.59.85,3.41,3.41,0,0,1,.2,1.19,3.56,3.56,0,0,1-.13,1,2.61,2.61,0,0,1-.35.73,1.75,1.75,0,0,1-.45.45,2,2,0,0,1-.6.25,3.2,3.2,0,0,1-.8.09Zm.66-.59H170a2.64,2.64,0,0,0,.78-.1,1,1,0,0,0,.45-.26,1.54,1.54,0,0,0,.36-.63,3.06,3.06,0,0,0,.14-1,2.32,2.32,0,0,0-.26-1.2,1.27,1.27,0,0,0-.63-.57,2.56,2.56,0,0,0-.86-.1h-1.05Z"/><path d="M172.72,251l1.93-5h.71l2,5h-.75l-.59-1.52H174l-.55,1.52Zm1.45-2.06h1.7l-.53-1.39c-.16-.42-.27-.77-.35-1a8.62,8.62,0,0,1-.27,1Z"/><path d="M109.32,263.84l1.93-5H112l2.05,5h-.75l-.59-1.52h-2.09l-.55,1.52Zm1.45-2.06h1.7l-.53-1.39c-.16-.42-.27-.77-.35-1a8.62,8.62,0,0,1-.27,1Z"/><path d="M118.12,262.08l.66.17a2.22,2.22,0,0,1-.75,1.24,2,2,0,0,1-1.33.43,2.38,2.38,0,0,1-1.31-.33,2.11,2.11,0,0,1-.78-.95,3.57,3.57,0,0,1-.26-1.35,2.93,2.93,0,0,1,.3-1.36,2,2,0,0,1,.85-.89,2.51,2.51,0,0,1,1.22-.3,2.07,2.07,0,0,1,1.26.38,2,2,0,0,1,.71,1.08l-.65.15a1.48,1.48,0,0,0-.5-.79,1.35,1.35,0,0,0-.84-.25,1.62,1.62,0,0,0-1,.27,1.54,1.54,0,0,0-.55.75,3.12,3.12,0,0,0-.16,1,3.16,3.16,0,0,0,.19,1.12,1.42,1.42,0,0,0,.58.71,1.6,1.6,0,0,0,.85.23,1.38,1.38,0,0,0,.94-.32A1.61,1.61,0,0,0,118.12,262.08Z"/><path d="M123.17,262.08l.66.17a2.12,2.12,0,0,1-.75,1.24,2,2,0,0,1-1.32.43,2.39,2.39,0,0,1-1.32-.33,2.09,2.09,0,0,1-.77-.95,3.39,3.39,0,0,1-.27-1.35,2.93,2.93,0,0,1,.3-1.36,2.06,2.06,0,0,1,.86-.89,2.47,2.47,0,0,1,1.21-.3,2.07,2.07,0,0,1,1.26.38,2,2,0,0,1,.72,1.08l-.65.15a1.56,1.56,0,0,0-.51-.79,1.32,1.32,0,0,0-.83-.25,1.66,1.66,0,0,0-1,.27,1.46,1.46,0,0,0-.54.75,2.85,2.85,0,0,0-.16,1,3.17,3.17,0,0,0,.18,1.12,1.47,1.47,0,0,0,.58.71,1.62,1.62,0,0,0,.85.23,1.4,1.4,0,0,0,1-.32A1.6,1.6,0,0,0,123.17,262.08Z"/><path d="M124.76,263.84v-5h.67v5Z"/><path d="M126.39,261.4a2.75,2.75,0,0,1,.67-2,2.29,2.29,0,0,1,1.73-.7,2.38,2.38,0,0,1,1.25.33,2.1,2.1,0,0,1,.85.92,3.16,3.16,0,0,1,0,2.71,2.13,2.13,0,0,1-.87.91,2.46,2.46,0,0,1-1.22.31,2.33,2.33,0,0,1-1.26-.34,2.18,2.18,0,0,1-.85-.93A2.86,2.86,0,0,1,126.39,261.4Zm.69,0a2,2,0,0,0,.48,1.42,1.62,1.62,0,0,0,1.23.52,1.59,1.59,0,0,0,1.23-.52,2.15,2.15,0,0,0,.48-1.5,2.67,2.67,0,0,0-.2-1.06,1.57,1.57,0,0,0-.61-.71,1.59,1.59,0,0,0-.89-.25,1.68,1.68,0,0,0-1.21.48A2.15,2.15,0,0,0,127.08,261.41Zm1.29-2.89.45-1h.81l-.75,1Z"/><path d="M132,263.84v-5h.68l2.64,3.93v-3.93H136v5h-.68l-2.63-3.94v3.94Z"/><path d="M139.05,263.84v-5h2.22a3,3,0,0,1,1,.13,1.13,1.13,0,0,1,.56.48,1.42,1.42,0,0,1,.21.75,1.25,1.25,0,0,1-.35.9,1.72,1.72,0,0,1-1.06.47,1.62,1.62,0,0,1,.4.25,3.77,3.77,0,0,1,.55.66l.87,1.37h-.84l-.66-1a7.54,7.54,0,0,0-.48-.69,1.44,1.44,0,0,0-.33-.33.76.76,0,0,0-.31-.13,1.58,1.58,0,0,0-.37,0h-.77v2.23Zm.66-2.8h1.43a2,2,0,0,0,.71-.1.74.74,0,0,0,.39-.3.81.81,0,0,0,.13-.45.74.74,0,0,0-.25-.58,1.25,1.25,0,0,0-.82-.23h-1.59Z"/><path d="M144.11,263.84v-5h3.62v.59h-3V261h2.77v.59h-2.77v1.7h3.08v.6Z"/><path d="M148.22,263.84l1.92-5h.71l2.06,5h-.76l-.58-1.52h-2.1l-.55,1.52Zm1.44-2.06h1.7l-.52-1.39c-.16-.42-.28-.77-.36-1a5.75,5.75,0,0,1-.27,1Z"/><path d="M153.41,263.84v-5h.66v4.41h2.47v.6Z"/><path d="M157.44,263.84v-5h.66v5Z"/><path d="M158.87,263.84v-.62l2.57-3.21a6.4,6.4,0,0,1,.52-.59h-2.8v-.59h3.59v.59l-2.81,3.47-.31.35h3.2v.6Z"/><path d="M163,263.84l1.92-5h.72l2.05,5h-.76l-.58-1.52h-2.1l-.55,1.52Zm1.44-2.06h1.7l-.52-1.39c-.16-.42-.28-.77-.36-1a5.75,5.75,0,0,1-.27,1Z"/><path d="M168.22,263.84v-5h1.72a4.18,4.18,0,0,1,.9.07,1.57,1.57,0,0,1,.73.36,2.07,2.07,0,0,1,.59.85,3.79,3.79,0,0,1,.07,2.2,2.55,2.55,0,0,1-.35.74,1.75,1.75,0,0,1-.45.45,2,2,0,0,1-.6.25,3.2,3.2,0,0,1-.8.09Zm.66-.6H170a2.69,2.69,0,0,0,.78-.09,1.09,1.09,0,0,0,.45-.26,1.54,1.54,0,0,0,.36-.63,3.06,3.06,0,0,0,.14-1,2.32,2.32,0,0,0-.26-1.2,1.22,1.22,0,0,0-.63-.57,2.56,2.56,0,0,0-.86-.1h-1.05Z"/><path d="M172.72,263.84l1.93-5h.71l2,5h-.75l-.59-1.52H174l-.55,1.52Zm1.45-2.06h1.7l-.53-1.39c-.16-.42-.27-.77-.35-1a8.62,8.62,0,0,1-.27,1Z"/><path d="M109.32,276.73l1.93-5H112l2.05,5h-.75l-.59-1.52h-2.09l-.55,1.52Zm1.45-2.06h1.7l-.53-1.39c-.16-.42-.27-.76-.35-1a8.62,8.62,0,0,1-.27,1Z"/><path d="M118.12,275l.66.17a2.22,2.22,0,0,1-.75,1.24,2,2,0,0,1-1.33.43,2.38,2.38,0,0,1-1.31-.33,2.05,2.05,0,0,1-.78-1,3.55,3.55,0,0,1-.26-1.34,2.94,2.94,0,0,1,.3-1.37,2.09,2.09,0,0,1,.85-.89,2.51,2.51,0,0,1,1.22-.3A2,2,0,0,1,118,272a1.94,1.94,0,0,1,.71,1.07l-.65.16a1.51,1.51,0,0,0-.5-.8,1.35,1.35,0,0,0-.84-.25,1.56,1.56,0,0,0-1,.28,1.47,1.47,0,0,0-.55.74,3.12,3.12,0,0,0-.16,1,3.16,3.16,0,0,0,.19,1.12,1.37,1.37,0,0,0,.58.71,1.61,1.61,0,0,0,.85.24,1.43,1.43,0,0,0,.94-.32A1.67,1.67,0,0,0,118.12,275Z"/><path d="M123.17,275l.66.17a2.12,2.12,0,0,1-.75,1.24,2,2,0,0,1-1.32.43,2.39,2.39,0,0,1-1.32-.33,2,2,0,0,1-.77-1,3.38,3.38,0,0,1-.27-1.34,2.94,2.94,0,0,1,.3-1.37,2.11,2.11,0,0,1,.86-.89,2.47,2.47,0,0,1,1.21-.3A2,2,0,0,1,123,272a2,2,0,0,1,.72,1.07l-.65.16a1.59,1.59,0,0,0-.51-.8,1.32,1.32,0,0,0-.83-.25,1.59,1.59,0,0,0-1,.28,1.4,1.4,0,0,0-.54.74,2.85,2.85,0,0,0-.16,1,3.17,3.17,0,0,0,.18,1.12,1.42,1.42,0,0,0,.58.71,1.63,1.63,0,0,0,.85.24,1.45,1.45,0,0,0,1-.32A1.66,1.66,0,0,0,123.17,275Z"/><path d="M124.76,276.73v-5h.67v5Z"/><path d="M126.39,274.29a2.79,2.79,0,0,1,.67-2,2.29,2.29,0,0,1,1.73-.7A2.38,2.38,0,0,1,130,272a2.1,2.1,0,0,1,.85.92,3.16,3.16,0,0,1,0,2.71,2.13,2.13,0,0,1-.87.91,2.46,2.46,0,0,1-1.22.31,2.33,2.33,0,0,1-1.26-.34,2.18,2.18,0,0,1-.85-.93A2.83,2.83,0,0,1,126.39,274.29Zm.69,0a2,2,0,0,0,.48,1.43,1.65,1.65,0,0,0,1.23.52,1.6,1.6,0,0,0,1.23-.53,2.14,2.14,0,0,0,.48-1.49,2.69,2.69,0,0,0-.2-1.07,1.57,1.57,0,0,0-.61-.71,1.59,1.59,0,0,0-.89-.25,1.68,1.68,0,0,0-1.21.48A2.17,2.17,0,0,0,127.08,274.3Zm1.29-2.89.45-1h.81l-.75,1Z"/><path d="M132,276.73v-5h.68l2.64,3.93v-3.93H136v5h-.68l-2.63-3.94v3.94Z"/><path d="M139.05,276.73v-5h2.22a3,3,0,0,1,1,.13,1.13,1.13,0,0,1,.56.48,1.42,1.42,0,0,1,.21.75,1.25,1.25,0,0,1-.35.9,1.72,1.72,0,0,1-1.06.47,2,2,0,0,1,.4.25,4.18,4.18,0,0,1,.55.66l.87,1.37h-.84l-.66-1a6.35,6.35,0,0,0-.48-.69,1.53,1.53,0,0,0-.33-.34.93.93,0,0,0-.31-.13,1.58,1.58,0,0,0-.37,0h-.77v2.23Zm.66-2.8h1.43a2,2,0,0,0,.71-.1.74.74,0,0,0,.39-.3.77.77,0,0,0,.13-.45.74.74,0,0,0-.25-.58,1.25,1.25,0,0,0-.82-.23h-1.59Z"/><path d="M144.11,276.73v-5h3.62v.59h-3v1.53h2.77v.59h-2.77v1.71h3.08v.59Z"/><path d="M148.22,276.73l1.92-5h.71l2.06,5h-.76l-.58-1.52h-2.1l-.55,1.52Zm1.44-2.06h1.7l-.52-1.39c-.16-.42-.28-.76-.36-1a5.75,5.75,0,0,1-.27,1Z"/><path d="M153.41,276.73v-5h.66v4.42h2.47v.59Z"/><path d="M157.44,276.73v-5h.66v5Z"/><path d="M158.87,276.73v-.62l2.57-3.21c.18-.22.35-.42.52-.59h-2.8v-.59h3.59v.59l-2.81,3.47-.31.36h3.2v.59Z"/><path d="M163,276.73l1.92-5h.72l2.05,5h-.76l-.58-1.52h-2.1l-.55,1.52Zm1.44-2.06h1.7l-.52-1.39c-.16-.42-.28-.76-.36-1a5.75,5.75,0,0,1-.27,1Z"/><path d="M168.22,276.73v-5h1.72a4.18,4.18,0,0,1,.9.07,1.67,1.67,0,0,1,.73.36,2.07,2.07,0,0,1,.59.85,3.43,3.43,0,0,1,.2,1.2,3.48,3.48,0,0,1-.13,1,2.61,2.61,0,0,1-.35.73,1.75,1.75,0,0,1-.45.45,1.81,1.81,0,0,1-.6.25,3.2,3.2,0,0,1-.8.09Zm.66-.59H170a2.34,2.34,0,0,0,.78-.1,1,1,0,0,0,.45-.26,1.47,1.47,0,0,0,.36-.63,3,3,0,0,0,.14-1,2.34,2.34,0,0,0-.26-1.21,1.32,1.32,0,0,0-.63-.57,2.56,2.56,0,0,0-.86-.1h-1.05Z"/><path d="M172.72,276.73l1.93-5h.71l2,5h-.75l-.59-1.52H174l-.55,1.52Zm1.45-2.06h1.7l-.53-1.39c-.16-.42-.27-.76-.35-1a8.62,8.62,0,0,1-.27,1Z"/><path d="M5.09,73.53l1.93-5h.71l2,5H9L8.44,72H6.35L5.8,73.53Zm1.45-2.06h1.7l-.53-1.39c-.15-.42-.27-.77-.35-1a5.75,5.75,0,0,1-.27,1ZM7,68.21l.46-1h.8l-.75,1Z"/><path d="M10.32,73.53v-5h2.22a3,3,0,0,1,1,.13,1.09,1.09,0,0,1,.56.48,1.42,1.42,0,0,1,.21.75,1.25,1.25,0,0,1-.35.9,1.72,1.72,0,0,1-1.06.47,1.74,1.74,0,0,1,.4.25,4.18,4.18,0,0,1,.55.66l.87,1.37h-.83l-.67-1a6.67,6.67,0,0,0-.48-.7,1.45,1.45,0,0,0-.33-.33.93.93,0,0,0-.31-.13,1.52,1.52,0,0,0-.37,0H11v2.23Zm.67-2.8h1.42a2,2,0,0,0,.71-.1.74.74,0,0,0,.39-.3.77.77,0,0,0,.14-.45.75.75,0,0,0-.26-.58,1.25,1.25,0,0,0-.82-.23H11Z"/><path d="M15.38,73.53v-5H19v.59H16v1.53h2.78v.59H16v1.71h3.08v.59Z"/><path d="M19.49,73.53l1.92-5h.72l2.05,5h-.76L22.84,72h-2.1l-.55,1.52Zm1.44-2.06h1.7l-.52-1.39c-.16-.42-.28-.77-.36-1a5.75,5.75,0,0,1-.27,1Z"/><path d="M26.06,71.09a2.77,2.77,0,0,1,.67-2,2.28,2.28,0,0,1,1.73-.7,2.41,2.41,0,0,1,1.25.33,2.16,2.16,0,0,1,.85.92,3.26,3.26,0,0,1,0,2.71,2.09,2.09,0,0,1-.88.91,2.42,2.42,0,0,1-1.21.31,2.37,2.37,0,0,1-1.27-.34,2.22,2.22,0,0,1-.84-.93A2.86,2.86,0,0,1,26.06,71.09Zm.69,0a2,2,0,0,0,.48,1.42,1.6,1.6,0,0,0,1.22.53,1.63,1.63,0,0,0,1.24-.53A2.14,2.14,0,0,0,30.17,71,2.52,2.52,0,0,0,30,70a1.55,1.55,0,0,0-.6-.71,1.65,1.65,0,0,0-.9-.25,1.72,1.72,0,0,0-1.21.48A2.21,2.21,0,0,0,26.75,71.1Z"/><path d="M33.65,73.53v-5h1.89a5.06,5.06,0,0,1,.77,0,1.53,1.53,0,0,1,.61.24,1.21,1.21,0,0,1,.41.48,1.58,1.58,0,0,1,.15.69,1.56,1.56,0,0,1-.41,1.08,2,2,0,0,1-1.47.44H34.32v2Zm.67-2.63h1.29a1.39,1.39,0,0,0,.92-.24A.85.85,0,0,0,36.8,70a1,1,0,0,0-.16-.54.79.79,0,0,0-.42-.3,2.9,2.9,0,0,0-.62,0H34.32Z"/><path d="M38.33,73.53v-5h2.22a3,3,0,0,1,1,.13,1.09,1.09,0,0,1,.56.48,1.42,1.42,0,0,1,.21.75,1.25,1.25,0,0,1-.35.9,1.72,1.72,0,0,1-1.06.47,1.74,1.74,0,0,1,.4.25,4.18,4.18,0,0,1,.55.66l.87,1.37h-.83l-.67-1a6.67,6.67,0,0,0-.48-.7,1.45,1.45,0,0,0-.33-.33.93.93,0,0,0-.31-.13,1.52,1.52,0,0,0-.37,0H39v2.23Zm.67-2.8h1.42a2,2,0,0,0,.71-.1.74.74,0,0,0,.39-.3.77.77,0,0,0,.14-.45.75.75,0,0,0-.26-.58,1.25,1.25,0,0,0-.82-.23H39Z"/><path d="M43.18,71.09a2.73,2.73,0,0,1,.67-2,2.26,2.26,0,0,1,1.73-.7,2.41,2.41,0,0,1,1.25.33,2.22,2.22,0,0,1,.85.92A3.11,3.11,0,0,1,48,71a2.87,2.87,0,0,1-.31,1.36,2,2,0,0,1-.87.91,2.46,2.46,0,0,1-1.22.31,2.33,2.33,0,0,1-1.26-.34,2.24,2.24,0,0,1-.85-.93A2.85,2.85,0,0,1,43.18,71.09Zm.68,0a2,2,0,0,0,.49,1.42,1.68,1.68,0,0,0,2.45,0A2.14,2.14,0,0,0,47.29,71,2.52,2.52,0,0,0,47.08,70a1.57,1.57,0,0,0-.61-.71,1.59,1.59,0,0,0-.89-.25,1.7,1.7,0,0,0-1.21.48A2.17,2.17,0,0,0,43.86,71.1Z"/><path d="M52.4,71.77l.66.17a2.22,2.22,0,0,1-.75,1.24,2,2,0,0,1-1.32.43,2.39,2.39,0,0,1-1.32-.33,2,2,0,0,1-.77-1A3.39,3.39,0,0,1,48.63,71a2.93,2.93,0,0,1,.3-1.36,2.09,2.09,0,0,1,.85-.89,2.51,2.51,0,0,1,1.22-.3,1.93,1.93,0,0,1,2,1.46l-.66.15a1.52,1.52,0,0,0-.5-.79A1.33,1.33,0,0,0,51,69a1.58,1.58,0,0,0-1,.28,1.47,1.47,0,0,0-.55.74,3.12,3.12,0,0,0-.16,1,3.16,3.16,0,0,0,.19,1.12,1.42,1.42,0,0,0,.58.71,1.61,1.61,0,0,0,.85.24,1.38,1.38,0,0,0,.94-.33A1.61,1.61,0,0,0,52.4,71.77Z"/><path d="M53.89,73.53v-5h3.62v.59h-3v1.53h2.78v.59H54.55v1.71h3.08v.59Z"/><path d="M58.32,71.92l.63-.06a1.38,1.38,0,0,0,.2.62,1.16,1.16,0,0,0,.51.39,1.89,1.89,0,0,0,.77.15,2,2,0,0,0,.67-.11,1,1,0,0,0,.43-.31.76.76,0,0,0,.14-.43.59.59,0,0,0-.14-.41,1,1,0,0,0-.45-.3c-.13,0-.43-.13-.89-.24a5.12,5.12,0,0,1-1-.32,1.34,1.34,0,0,1-.53-.46,1.16,1.16,0,0,1-.18-.63,1.24,1.24,0,0,1,.22-.71,1.33,1.33,0,0,1,.63-.5,2.43,2.43,0,0,1,.92-.17,2.48,2.48,0,0,1,1,.18,1.46,1.46,0,0,1,.9,1.32l-.64,0a1,1,0,0,0-.34-.72A1.38,1.38,0,0,0,60.3,69a1.36,1.36,0,0,0-.87.22.63.63,0,0,0-.28.53.56.56,0,0,0,.2.44,2.47,2.47,0,0,0,1,.36,6.8,6.8,0,0,1,1.11.32,1.45,1.45,0,0,1,.64.51,1.24,1.24,0,0,1,.21.71,1.41,1.41,0,0,1-.23.76,1.51,1.51,0,0,1-.66.55,2.25,2.25,0,0,1-1,.19,2.89,2.89,0,0,1-1.14-.19,1.64,1.64,0,0,1-.72-.6A1.68,1.68,0,0,1,58.32,71.92Z"/><path d="M63,71.09a2.77,2.77,0,0,1,.67-2,2.29,2.29,0,0,1,1.73-.7,2.38,2.38,0,0,1,1.25.33,2.1,2.1,0,0,1,.85.92,3.16,3.16,0,0,1,0,2.71,2.13,2.13,0,0,1-.87.91,2.46,2.46,0,0,1-1.22.31,2.33,2.33,0,0,1-1.26-.34,2.18,2.18,0,0,1-.85-.93A2.86,2.86,0,0,1,63,71.09Zm.69,0a2,2,0,0,0,.48,1.42,1.63,1.63,0,0,0,1.23.53,1.6,1.6,0,0,0,1.23-.53A2.14,2.14,0,0,0,67.12,71a2.69,2.69,0,0,0-.2-1.07,1.57,1.57,0,0,0-.61-.71,1.62,1.62,0,0,0-.89-.25,1.68,1.68,0,0,0-1.21.48A2.17,2.17,0,0,0,63.7,71.1Z"/><path d="M70.61,73.53v-5h1.72a4,4,0,0,1,.89.07A1.56,1.56,0,0,1,74,69a2.07,2.07,0,0,1,.59.85,3.43,3.43,0,0,1,.2,1.2,3.47,3.47,0,0,1-.14,1,2.35,2.35,0,0,1-.34.73,1.92,1.92,0,0,1-.45.45,1.81,1.81,0,0,1-.6.25,3.23,3.23,0,0,1-.81.09Zm.66-.59h1.07a2.34,2.34,0,0,0,.78-.1,1.11,1.11,0,0,0,.45-.26,1.58,1.58,0,0,0,.36-.63,3,3,0,0,0,.13-1,2.33,2.33,0,0,0-.25-1.2,1.41,1.41,0,0,0-.63-.57,2.56,2.56,0,0,0-.86-.1h-1Z"/><path d="M75.46,71.09a2.73,2.73,0,0,1,.67-2,2.28,2.28,0,0,1,1.73-.7,2.41,2.41,0,0,1,1.25.33,2.22,2.22,0,0,1,.85.92A3.11,3.11,0,0,1,80.25,71a2.87,2.87,0,0,1-.31,1.36,2,2,0,0,1-.87.91,2.43,2.43,0,0,1-1.22.31,2.33,2.33,0,0,1-1.26-.34,2.22,2.22,0,0,1-.84-.93A2.73,2.73,0,0,1,75.46,71.09Zm.68,0a2,2,0,0,0,.49,1.42,1.68,1.68,0,0,0,2.45,0A2.09,2.09,0,0,0,79.57,71,2.52,2.52,0,0,0,79.36,70a1.57,1.57,0,0,0-.61-.71,1.59,1.59,0,0,0-.89-.25,1.7,1.7,0,0,0-1.21.48A2.17,2.17,0,0,0,76.14,71.1Z"/><path d="M81.1,73.53v-5h.68l2.63,3.93V68.52h.64v5h-.68l-2.64-3.94v3.94Z"/><path d="M86.16,73.53v-5h1.73a4.08,4.08,0,0,1,.89.07,1.52,1.52,0,0,1,.73.36,2,2,0,0,1,.6.85A3.44,3.44,0,0,1,90.3,71a3.48,3.48,0,0,1-.13,1,2.6,2.6,0,0,1-.34.73,1.78,1.78,0,0,1-.46.45,1.65,1.65,0,0,1-.6.25,3.2,3.2,0,0,1-.8.09Zm.66-.59h1.07a2.34,2.34,0,0,0,.78-.1,1,1,0,0,0,.45-.26,1.48,1.48,0,0,0,.37-.63,3,3,0,0,0,.13-1,2.32,2.32,0,0,0-.26-1.2,1.32,1.32,0,0,0-.63-.57,2.5,2.5,0,0,0-.85-.1H86.82Z"/><path d="M91.23,73.53v-5h3.62v.59h-3v1.53h2.77v.59H91.89v1.71H95v.59Z"/><path d="M97.6,71.92l.63-.06a1.38,1.38,0,0,0,.21.62,1.07,1.07,0,0,0,.5.39,1.89,1.89,0,0,0,.77.15,2,2,0,0,0,.67-.11,1,1,0,0,0,.43-.31.69.69,0,0,0,.14-.43.63.63,0,0,0-.13-.41,1,1,0,0,0-.45-.3q-.21-.08-.9-.24a4.72,4.72,0,0,1-1-.32,1.38,1.38,0,0,1-.54-.46,1.15,1.15,0,0,1-.17-.63A1.31,1.31,0,0,1,98,69.1a1.38,1.38,0,0,1,.63-.5,2.67,2.67,0,0,1,1.9,0,1.46,1.46,0,0,1,.66.53,1.5,1.5,0,0,1,.24.79l-.63,0a1,1,0,0,0-.35-.72,1.37,1.37,0,0,0-.87-.24,1.39,1.39,0,0,0-.88.22.66.66,0,0,0-.28.53.56.56,0,0,0,.2.44,2.54,2.54,0,0,0,1,.36,6.5,6.5,0,0,1,1.11.32,1.4,1.4,0,0,1,.64.51,1.24,1.24,0,0,1,.21.71,1.33,1.33,0,0,1-.23.76,1.54,1.54,0,0,1-.65.55,2.33,2.33,0,0,1-1,.19,3,3,0,0,1-1.14-.19,1.64,1.64,0,0,1-.72-.6A1.77,1.77,0,0,1,97.6,71.92Z"/><path d="M102.51,73.53v-5h3.62v.59h-3v1.53H106v.59h-2.78v1.71h3.08v.59Z"/><path d="M109.11,73.53v-5H111a4.92,4.92,0,0,1,.76,0,1.52,1.52,0,0,1,.62.24,1.29,1.29,0,0,1,.41.48,1.58,1.58,0,0,1,.15.69,1.56,1.56,0,0,1-.41,1.08,2,2,0,0,1-1.47.44h-1.28v2Zm.67-2.63h1.29a1.36,1.36,0,0,0,.91-.24.85.85,0,0,0,.27-.67.89.89,0,0,0-.16-.54.73.73,0,0,0-.41-.3,3,3,0,0,0-.62,0h-1.28Z"/><path d="M113.79,73.53v-5H116a3,3,0,0,1,1,.13,1.13,1.13,0,0,1,.56.48,1.42,1.42,0,0,1,.21.75,1.25,1.25,0,0,1-.35.9,1.72,1.72,0,0,1-1.06.47,2,2,0,0,1,.4.25,4.18,4.18,0,0,1,.55.66l.87,1.37h-.84l-.66-1a6.67,6.67,0,0,0-.48-.7,1.69,1.69,0,0,0-.33-.33.93.93,0,0,0-.31-.13,1.58,1.58,0,0,0-.37,0h-.77v2.23Zm.66-2.8h1.43a2,2,0,0,0,.71-.1.74.74,0,0,0,.39-.3.77.77,0,0,0,.13-.45.74.74,0,0,0-.25-.58,1.25,1.25,0,0,0-.82-.23h-1.59Z"/><path d="M118.85,73.53v-5h3.62v.59h-3v1.53h2.77v.59h-2.77v1.71h3.08v.59Z"/><path d="M123.28,71.92l.63-.06a1.38,1.38,0,0,0,.2.62,1.16,1.16,0,0,0,.51.39,1.86,1.86,0,0,0,.77.15,2,2,0,0,0,.67-.11,1,1,0,0,0,.43-.31.76.76,0,0,0,.14-.43.64.64,0,0,0-.14-.41,1,1,0,0,0-.45-.3c-.13,0-.43-.13-.89-.24a5.12,5.12,0,0,1-1-.32,1.28,1.28,0,0,1-.53-.46,1.16,1.16,0,0,1-.18-.63,1.24,1.24,0,0,1,.22-.71,1.33,1.33,0,0,1,.63-.5,2.43,2.43,0,0,1,.92-.17,2.52,2.52,0,0,1,1,.18,1.46,1.46,0,0,1,.9,1.32l-.64,0a1,1,0,0,0-.34-.72,1.38,1.38,0,0,0-.88-.24,1.36,1.36,0,0,0-.87.22.63.63,0,0,0-.28.53.56.56,0,0,0,.2.44,2.47,2.47,0,0,0,1,.36,7.14,7.14,0,0,1,1.11.32,1.45,1.45,0,0,1,.64.51,1.24,1.24,0,0,1,.21.71,1.41,1.41,0,0,1-.23.76,1.51,1.51,0,0,1-.66.55,2.29,2.29,0,0,1-1,.19,2.89,2.89,0,0,1-1.14-.19,1.64,1.64,0,0,1-.72-.6A1.68,1.68,0,0,1,123.28,71.92Z"/><path d="M128.19,73.53v-5h3.62v.59h-3v1.53h2.77v.59h-2.77v1.71h3.08v.59Z"/><path d="M132.84,73.53v-5h.68l2.63,3.93V68.52h.63v5h-.68l-2.63-3.94v3.94Z"/><path d="M139.17,73.53V69.11h-1.65v-.59h4v.59h-1.65v4.42Z"/><path d="M141.85,71.09a2.73,2.73,0,0,1,.67-2,2.26,2.26,0,0,1,1.73-.7,2.41,2.41,0,0,1,1.25.33,2.22,2.22,0,0,1,.85.92,3.11,3.11,0,0,1,.29,1.35,2.87,2.87,0,0,1-.31,1.36,2.07,2.07,0,0,1-.87.91,2.46,2.46,0,0,1-1.22.31,2.33,2.33,0,0,1-1.26-.34,2.24,2.24,0,0,1-.85-.93A2.85,2.85,0,0,1,141.85,71.09Zm.68,0a2,2,0,0,0,.49,1.42,1.68,1.68,0,0,0,2.45,0A2.14,2.14,0,0,0,146,71a2.52,2.52,0,0,0-.21-1.07,1.57,1.57,0,0,0-.61-.71,1.59,1.59,0,0,0-.89-.25,1.7,1.7,0,0,0-1.21.48A2.17,2.17,0,0,0,142.53,71.1Z"/><path d="M149.45,73.53v-5h3.62v.59h-3v1.53h2.78v.59h-2.78v1.71h3.08v.59Z"/><path d="M154.08,73.53v-5h.66v4.42h2.47v.59Z"/><path d="M159.7,73.53v-5h3.62v.59h-3v1.53h2.77v.59h-2.77v1.71h3.08v.59Z"/><path d="M164.36,73.53v-5h2.22a3,3,0,0,1,1,.13,1.09,1.09,0,0,1,.56.48,1.42,1.42,0,0,1,.21.75,1.25,1.25,0,0,1-.35.9,1.72,1.72,0,0,1-1.06.47,1.74,1.74,0,0,1,.4.25,3.7,3.7,0,0,1,.55.66l.87,1.37H168l-.67-1a6.67,6.67,0,0,0-.48-.7,1.45,1.45,0,0,0-.33-.33,1,1,0,0,0-.3-.13,1.64,1.64,0,0,0-.37,0H165v2.23Zm.67-2.8h1.42a2,2,0,0,0,.71-.1.74.74,0,0,0,.39-.3.77.77,0,0,0,.14-.45.75.75,0,0,0-.26-.58,1.24,1.24,0,0,0-.82-.23H165Z"/><path d="M169.42,73.53v-5h2.22a3,3,0,0,1,1,.13,1.13,1.13,0,0,1,.56.48,1.5,1.5,0,0,1,.2.75,1.25,1.25,0,0,1-.34.9,1.75,1.75,0,0,1-1.07.47,1.54,1.54,0,0,1,.4.25,3.32,3.32,0,0,1,.55.66l.87,1.37H173l-.66-1c-.2-.31-.36-.54-.48-.7a1.69,1.69,0,0,0-.34-.33,1,1,0,0,0-.3-.13,1.64,1.64,0,0,0-.37,0h-.77v2.23Zm.66-2.8h1.43a2,2,0,0,0,.71-.1.74.74,0,0,0,.39-.3.77.77,0,0,0,.13-.45.75.75,0,0,0-.26-.58,1.21,1.21,0,0,0-.81-.23h-1.59Z"/><path d="M174.26,71.09a2.77,2.77,0,0,1,.67-2,2.29,2.29,0,0,1,1.73-.7,2.41,2.41,0,0,1,1.25.33,2.16,2.16,0,0,1,.85.92,3.26,3.26,0,0,1,0,2.71,2.13,2.13,0,0,1-.87.91,2.49,2.49,0,0,1-1.22.31,2.37,2.37,0,0,1-1.27-.34,2.22,2.22,0,0,1-.84-.93A2.86,2.86,0,0,1,174.26,71.09Zm.69,0a2,2,0,0,0,.48,1.42,1.69,1.69,0,0,0,2.46,0,2.14,2.14,0,0,0,.48-1.49,2.52,2.52,0,0,0-.21-1.07,1.55,1.55,0,0,0-.6-.71,1.62,1.62,0,0,0-.89-.25,1.72,1.72,0,0,0-1.22.48A2.21,2.21,0,0,0,175,71.1Z"/><path d="M179.92,73.53v-5h2.22a3,3,0,0,1,1,.13,1.13,1.13,0,0,1,.56.48,1.5,1.5,0,0,1,.2.75,1.25,1.25,0,0,1-.34.9,1.75,1.75,0,0,1-1.07.47,1.54,1.54,0,0,1,.4.25,3.32,3.32,0,0,1,.55.66l.87,1.37h-.83l-.66-1c-.2-.31-.36-.54-.48-.7a1.69,1.69,0,0,0-.34-.33,1,1,0,0,0-.3-.13,1.64,1.64,0,0,0-.37,0h-.77v2.23Zm.66-2.8H182a2,2,0,0,0,.71-.1.74.74,0,0,0,.39-.3.77.77,0,0,0,.13-.45.75.75,0,0,0-.26-.58,1.21,1.21,0,0,0-.81-.23h-1.59Z"/><path d="M5.64,85.55v-5h.68L9,84.48V80.54h.63v5H8.9L6.27,81.62v3.93Z"/><path d="M10.5,83.11a2.7,2.7,0,0,1,.67-2,2.27,2.27,0,0,1,1.73-.71,2.32,2.32,0,0,1,1.25.34,2.16,2.16,0,0,1,.85.92,3.08,3.08,0,0,1,.29,1.35A2.9,2.9,0,0,1,15,84.42a2.07,2.07,0,0,1-.87.91,2.46,2.46,0,0,1-1.22.31,2.33,2.33,0,0,1-1.26-.34,2.27,2.27,0,0,1-.85-.94A2.82,2.82,0,0,1,10.5,83.11Zm.68,0a2,2,0,0,0,.49,1.43,1.7,1.7,0,0,0,2.45,0,2.17,2.17,0,0,0,.49-1.5A2.55,2.55,0,0,0,14.4,82a1.55,1.55,0,0,0-.61-.7A1.6,1.6,0,0,0,12.9,81a1.71,1.71,0,0,0-1.21.49A2.14,2.14,0,0,0,11.18,83.12Z"/><path d="M16.12,85.55v-5h1l1.19,3.55.24.74c.05-.18.14-.45.26-.8L20,80.54h.89v5h-.63V81.36l-1.46,4.19h-.6l-1.45-4.26v4.26Z"/><path d="M22,85.55v-5h1.88a2.17,2.17,0,0,1,.92.16,1.16,1.16,0,0,1,.54.46,1.24,1.24,0,0,1,.2.66,1.11,1.11,0,0,1-.18.61,1.24,1.24,0,0,1-.52.46,1.38,1.38,0,0,1,.7.45,1.25,1.25,0,0,1,.24.76,1.49,1.49,0,0,1-.15.66,1.23,1.23,0,0,1-.37.46,1.5,1.5,0,0,1-.54.25,3.17,3.17,0,0,1-.81.08Zm.66-2.9h1.08a2.39,2.39,0,0,0,.64-.06.69.69,0,0,0,.38-.25.76.76,0,0,0,.12-.44.82.82,0,0,0-.11-.44.67.67,0,0,0-.35-.26,3.1,3.1,0,0,0-.76-.07h-1Zm0,2.31h1.25l.45,0a1,1,0,0,0,.38-.14.63.63,0,0,0,.25-.28.82.82,0,0,0,.1-.42.81.81,0,0,0-.14-.49.85.85,0,0,0-.4-.29,2.68,2.68,0,0,0-.73-.08H22.61Z"/><path d="M26.65,85.55v-5h2.23a2.9,2.9,0,0,1,1,.14,1.12,1.12,0,0,1,.56.47,1.43,1.43,0,0,1,.21.76,1.25,1.25,0,0,1-.35.9,1.71,1.71,0,0,1-1.06.46,2.16,2.16,0,0,1,.4.25,3.46,3.46,0,0,1,.55.67l.87,1.36h-.83l-.67-1a7.54,7.54,0,0,0-.48-.69,1.27,1.27,0,0,0-.33-.33,1,1,0,0,0-.3-.14l-.37,0h-.77v2.22Zm.67-2.8h1.42a2.23,2.23,0,0,0,.71-.09.74.74,0,0,0,.39-.3.82.82,0,0,0,.14-.45.74.74,0,0,0-.26-.58,1.18,1.18,0,0,0-.82-.23H27.32Z"/><path d="M31.71,85.55v-5h3.63v.59h-3v1.54h2.77v.59H32.38V85h3.07v.59Z"/><path d="M38.31,85.55v-5H40a4.74,4.74,0,0,1,.89.07,1.83,1.83,0,0,1,.74.36,2.1,2.1,0,0,1,.59.86,3.37,3.37,0,0,1,.2,1.19,3.42,3.42,0,0,1-.14,1,2.36,2.36,0,0,1-.34.73,1.67,1.67,0,0,1-.46.46,1.87,1.87,0,0,1-.59.25,3.37,3.37,0,0,1-.81.08ZM39,85h1.07a2.61,2.61,0,0,0,.77-.09,1.09,1.09,0,0,0,.45-.26,1.62,1.62,0,0,0,.37-.63,3.08,3.08,0,0,0,.13-1,2.27,2.27,0,0,0-.26-1.21,1.27,1.27,0,0,0-.62-.56,2.55,2.55,0,0,0-.86-.11H39Z"/><path d="M43.38,85.55v-5H47v.59H44v1.54h2.78v.59H44V85h3.08v.59Z"/><path d="M48,85.55v-5h.66V85h2.47v.59Z"/><path d="M53.63,85.55v-5h2.22a3,3,0,0,1,1,.14,1.14,1.14,0,0,1,.55.47,1.43,1.43,0,0,1,.21.76,1.25,1.25,0,0,1-.34.9,1.74,1.74,0,0,1-1.07.46,1.87,1.87,0,0,1,.4.25,3.46,3.46,0,0,1,.55.67L58,85.55h-.83l-.67-1c-.19-.3-.35-.53-.47-.69a1.45,1.45,0,0,0-.34-.33,1,1,0,0,0-.3-.14l-.37,0h-.77v2.22Zm.66-2.8h1.42a2.19,2.19,0,0,0,.71-.09.67.67,0,0,0,.39-.3.82.82,0,0,0,.14-.45.74.74,0,0,0-.26-.58,1.17,1.17,0,0,0-.82-.23H54.29Z"/><path d="M58.68,85.55v-5h3.63v.59h-3v1.54h2.77v.59H59.35V85h3.07v.59Z"/><path d="M63.11,83.94l.63,0a1.38,1.38,0,0,0,.21.62,1.07,1.07,0,0,0,.5.39,1.89,1.89,0,0,0,.77.14,1.75,1.75,0,0,0,.67-.11.89.89,0,0,0,.43-.31.72.72,0,0,0,0-.84,1,1,0,0,0-.45-.29,7.25,7.25,0,0,0-.9-.25,4.27,4.27,0,0,1-1-.31,1.4,1.4,0,0,1-.54-.47,1.1,1.1,0,0,1-.18-.62,1.32,1.32,0,0,1,.22-.71,1.28,1.28,0,0,1,.63-.5,2.25,2.25,0,0,1,.92-.17,2.48,2.48,0,0,1,1,.18,1.45,1.45,0,0,1,.66.53A1.49,1.49,0,0,1,67,82l-.63,0a1.08,1.08,0,0,0-.35-.72A1.37,1.37,0,0,0,65.1,81a1.43,1.43,0,0,0-.88.22.69.69,0,0,0-.28.53.59.59,0,0,0,.2.45,2.92,2.92,0,0,0,1,.36,5.67,5.67,0,0,1,1.11.32,1.45,1.45,0,0,1,.64.51,1.21,1.21,0,0,1,.21.71,1.28,1.28,0,0,1-.23.75,1.44,1.44,0,0,1-.66.55,2.26,2.26,0,0,1-1,.2,3,3,0,0,1-1.14-.2,1.52,1.52,0,0,1-.72-.6A1.63,1.63,0,0,1,63.11,83.94Z"/><path d="M68,85.55v-5H69.9a4.77,4.77,0,0,1,.76,0,1.44,1.44,0,0,1,.62.24,1.13,1.13,0,0,1,.4.48,1.54,1.54,0,0,1,.15.68,1.52,1.52,0,0,1-.4,1.08,1.94,1.94,0,0,1-1.47.45H68.67v2Zm.66-2.62H70a1.38,1.38,0,0,0,.91-.24.87.87,0,0,0,.27-.68.89.89,0,0,0-.16-.54.82.82,0,0,0-.42-.29,2.72,2.72,0,0,0-.62-.05H68.67Z"/><path d="M72.47,83.11a2.75,2.75,0,0,1,.67-2,2.31,2.31,0,0,1,1.74-.71,2.35,2.35,0,0,1,1.25.34,2.08,2.08,0,0,1,.84.92,3,3,0,0,1,.3,1.35A3,3,0,0,1,77,84.42a2.19,2.19,0,0,1-.87.91,2.46,2.46,0,0,1-1.22.31,2.33,2.33,0,0,1-1.26-.34,2.21,2.21,0,0,1-.85-.94A2.83,2.83,0,0,1,72.47,83.11Zm.69,0a2,2,0,0,0,.49,1.43,1.7,1.7,0,0,0,2.45,0,2.16,2.16,0,0,0,.48-1.5,2.72,2.72,0,0,0-.2-1.07,1.55,1.55,0,0,0-.61-.7,1.6,1.6,0,0,0-.89-.26,1.69,1.69,0,0,0-1.21.49A2.14,2.14,0,0,0,73.16,83.12Z"/><path d="M78.11,85.55v-5h.68l2.64,3.94V80.54h.63v5h-.68l-2.63-3.93v3.93Z"/><path d="M83,83.94l.63,0a1.38,1.38,0,0,0,.2.62,1.16,1.16,0,0,0,.51.39,1.89,1.89,0,0,0,.77.14,1.78,1.78,0,0,0,.67-.11.94.94,0,0,0,.43-.31.74.74,0,0,0,.14-.43.68.68,0,0,0-.14-.41,1,1,0,0,0-.45-.29,6.44,6.44,0,0,0-.89-.25,4.6,4.6,0,0,1-1-.31,1.36,1.36,0,0,1-.53-.47,1.1,1.1,0,0,1-.18-.62,1.24,1.24,0,0,1,.22-.71,1.28,1.28,0,0,1,.63-.5,2.25,2.25,0,0,1,.92-.17,2.48,2.48,0,0,1,1,.18,1.37,1.37,0,0,1,.65.53,1.42,1.42,0,0,1,.25.78l-.64,0a1.07,1.07,0,0,0-.34-.72,1.38,1.38,0,0,0-.88-.24,1.42,1.42,0,0,0-.87.22.66.66,0,0,0-.28.53.59.59,0,0,0,.2.45,2.83,2.83,0,0,0,1,.36,5.91,5.91,0,0,1,1.11.32,1.45,1.45,0,0,1,.64.51,1.21,1.21,0,0,1,.21.71,1.35,1.35,0,0,1-.23.75,1.44,1.44,0,0,1-.66.55,2.26,2.26,0,0,1-1,.2,2.88,2.88,0,0,1-1.14-.2,1.52,1.52,0,0,1-.72-.6A1.63,1.63,0,0,1,83,83.94Z"/><path d="M87.3,85.55l1.92-5h.71l2.06,5h-.76L90.65,84h-2.1L88,85.55Zm1.44-2h1.7l-.52-1.39c-.16-.42-.28-.77-.36-1a5.75,5.75,0,0,1-.27,1Z"/><path d="M92.49,85.55v-5h1.88a2.17,2.17,0,0,1,.92.16,1.16,1.16,0,0,1,.54.46,1.24,1.24,0,0,1,.2.66,1.11,1.11,0,0,1-.18.61,1.24,1.24,0,0,1-.52.46,1.38,1.38,0,0,1,.7.45,1.25,1.25,0,0,1,.24.76,1.49,1.49,0,0,1-.15.66,1.23,1.23,0,0,1-.37.46,1.5,1.5,0,0,1-.54.25,3.17,3.17,0,0,1-.81.08Zm.66-2.9h1.08a2.39,2.39,0,0,0,.64-.06.69.69,0,0,0,.38-.25.76.76,0,0,0,.13-.44.83.83,0,0,0-.12-.44.67.67,0,0,0-.35-.26,3.1,3.1,0,0,0-.76-.07h-1Zm0,2.31H94.4l.45,0a1,1,0,0,0,.38-.14.63.63,0,0,0,.25-.28.82.82,0,0,0,.1-.42.81.81,0,0,0-.14-.49.85.85,0,0,0-.4-.29,2.68,2.68,0,0,0-.73-.08H93.15Z"/><path d="M97.16,85.55v-5h.66V85h2.47v.59Z"/><path d="M101.09,85.55v-5h3.62v.59h-3v1.54h2.77v.59h-2.77V85h3.08v.59Z"/><path d="M107.69,85.55v-5h1.73a4.82,4.82,0,0,1,.89.07A1.73,1.73,0,0,1,111,81a2,2,0,0,1,.6.86,3.38,3.38,0,0,1,.19,1.19,3.44,3.44,0,0,1-.13,1,2.36,2.36,0,0,1-.34.73,1.67,1.67,0,0,1-.46.46,1.84,1.84,0,0,1-.6.25,3.23,3.23,0,0,1-.8.08Zm.66-.59h1.07a2.69,2.69,0,0,0,.78-.09,1.09,1.09,0,0,0,.45-.26A1.62,1.62,0,0,0,111,84a3.08,3.08,0,0,0,.13-1,2.36,2.36,0,0,0-.26-1.21,1.25,1.25,0,0,0-.63-.56,2.44,2.44,0,0,0-.85-.11h-1.06Z"/><path d="M112.76,85.55v-5h3.62v.59h-3v1.54h2.77v.59h-2.77V85h3.08v.59Z"/><path d="M117.39,85.55v-5h.66V85h2.47v.59Z"/><path d="M123,85.55v-5h2.22a2.92,2.92,0,0,1,1,.14,1.12,1.12,0,0,1,.56.47,1.43,1.43,0,0,1,.21.76,1.25,1.25,0,0,1-.35.9,1.71,1.71,0,0,1-1.06.46,2.16,2.16,0,0,1,.4.25,3.86,3.86,0,0,1,.55.67l.87,1.36h-.84l-.66-1a7.54,7.54,0,0,0-.48-.69,1.27,1.27,0,0,0-.33-.33,1,1,0,0,0-.31-.14l-.37,0h-.76v2.22Zm.67-2.8h1.42a2.23,2.23,0,0,0,.71-.09.74.74,0,0,0,.39-.3.82.82,0,0,0,.14-.45.74.74,0,0,0-.26-.58,1.2,1.2,0,0,0-.82-.23h-1.58Z"/><path d="M128.06,85.55v-5h3.62v.59h-3v1.54h2.78v.59h-2.78V85h3.08v.59Z"/><path d="M132.72,85.55v-5h1.89a4.77,4.77,0,0,1,.76,0,1.44,1.44,0,0,1,.62.24,1.2,1.2,0,0,1,.4.48,1.54,1.54,0,0,1,.15.68,1.49,1.49,0,0,1-.41,1.08,1.92,1.92,0,0,1-1.46.45h-1.29v2Zm.66-2.62h1.29a1.39,1.39,0,0,0,.92-.24.87.87,0,0,0,.27-.68,1,1,0,0,0-.16-.54.82.82,0,0,0-.42-.29,2.72,2.72,0,0,0-.62-.05h-1.28Z"/><path d="M137.18,83.11a2.75,2.75,0,0,1,.67-2,2.46,2.46,0,0,1,3-.37,2,2,0,0,1,.85.92,3,3,0,0,1,.3,1.35,3,3,0,0,1-.31,1.36,2.19,2.19,0,0,1-.87.91,2.46,2.46,0,0,1-1.22.31,2.33,2.33,0,0,1-1.26-.34,2.15,2.15,0,0,1-.85-.94A2.83,2.83,0,0,1,137.18,83.11Zm.69,0a2,2,0,0,0,.48,1.43,1.62,1.62,0,0,0,1.23.52,1.59,1.59,0,0,0,1.23-.52,2.16,2.16,0,0,0,.48-1.5,2.72,2.72,0,0,0-.2-1.07,1.55,1.55,0,0,0-.61-.7,1.63,1.63,0,0,0-.89-.26,1.69,1.69,0,0,0-1.21.49A2.14,2.14,0,0,0,137.87,83.12Z"/><path d="M142.84,85.55v-5h2.22a2.92,2.92,0,0,1,1,.14,1.16,1.16,0,0,1,.56.47,1.43,1.43,0,0,1,.21.76,1.25,1.25,0,0,1-.35.9,1.72,1.72,0,0,1-1.07.46,1.87,1.87,0,0,1,.4.25,3.13,3.13,0,0,1,.55.67l.88,1.36h-.84l-.66-1a7.54,7.54,0,0,0-.48-.69,1.28,1.28,0,0,0-.34-.33,1,1,0,0,0-.3-.14l-.37,0h-.77v2.22Zm.66-2.8h1.43a2.23,2.23,0,0,0,.71-.09.74.74,0,0,0,.39-.3.81.81,0,0,0,.13-.45.71.71,0,0,0-.26-.58,1.15,1.15,0,0,0-.81-.23H143.5Z"/><path d="M149,85.55V81.13h-1.65v-.59h4v.59H149.7v4.42Z"/><path d="M152.05,85.55v-5h3.62v.59h-3v1.54h2.77v.59h-2.77V85h3.08v.59Z"/><path d="M8.64,103.48v.89H5.28a2.2,2.2,0,0,1,.33-1,6.31,6.31,0,0,1,1.08-1.2,6.26,6.26,0,0,0,.79-.82,1.07,1.07,0,0,0,.2-.58.7.7,0,0,0-.17-.5.69.69,0,0,0-.48-.17.65.65,0,0,0-.48.18.93.93,0,0,0-.2.6l-1-.09a1.59,1.59,0,0,1,.54-1.14,1.78,1.78,0,0,1,1.12-.35,1.66,1.66,0,0,1,1.17.4,1.33,1.33,0,0,1,.42,1,1.73,1.73,0,0,1-.12.64,2.75,2.75,0,0,1-.38.64,7,7,0,0,1-.63.64c-.3.28-.5.46-.58.55a2.78,2.78,0,0,0-.19.27Z"/><path d="M9.5,104.37v-1h1v1Z"/><path d="M13.39,99.36h1.85a3.26,3.26,0,0,1,1,.1,1.61,1.61,0,0,1,.76.46,2.18,2.18,0,0,1,.48.81,3.72,3.72,0,0,1,.16,1.19,3.35,3.35,0,0,1-.15,1.06,2.31,2.31,0,0,1-.54.89,1.79,1.79,0,0,1-.71.4,3.07,3.07,0,0,1-.89.1H13.39Zm1,.85v3.32h.76a2.81,2.81,0,0,0,.61,0,.94.94,0,0,0,.41-.21,1,1,0,0,0,.26-.48,3.2,3.2,0,0,0,.11-.92,2.89,2.89,0,0,0-.11-.89,1.11,1.11,0,0,0-.28-.49,1,1,0,0,0-.47-.23,4.71,4.71,0,0,0-.83-.05Z"/><path d="M18.45,104.37v-5h3.72v.85H19.46v1.11H22v.85H19.46v1.36h2.8v.84Z"/><path d="M24.25,104.37v-4.16H22.76v-.85h4v.85H25.26v4.16Z"/><path d="M31.39,104.37h-1.1l-.43-1.13h-2l-.41,1.13H26.37l1.95-5h1.07Zm-1.86-2-.69-1.86-.68,1.86Z"/><path d="M32,104.37v-5h1v4.13h2.52v.84Z"/><path d="M36.24,104.37v-5h1v4.13h2.51v.84Z"/><path d="M40.48,104.37v-5H44.2v.85H41.5v1.11H44v.85H41.5v1.36h2.79v.84Z"/><path d="M47.09,99.36h1.85a3.38,3.38,0,0,1,1,.1,1.63,1.63,0,0,1,.75.46,2.18,2.18,0,0,1,.48.81,3.72,3.72,0,0,1,.16,1.19,3.35,3.35,0,0,1-.15,1.06,2.31,2.31,0,0,1-.54.89,1.79,1.79,0,0,1-.71.4,3.07,3.07,0,0,1-.89.1H47.09Zm1,.85v3.32h.76a2.81,2.81,0,0,0,.61,0,.89.89,0,0,0,.41-.21,1.08,1.08,0,0,0,.27-.48,3.67,3.67,0,0,0,.1-.92,3.3,3.3,0,0,0-.1-.89,1.23,1.23,0,0,0-.29-.49,1,1,0,0,0-.47-.23,4.71,4.71,0,0,0-.83-.05Z"/><path d="M52.15,104.37v-5h3.72v.85H53.16v1.11h2.52v.85H53.16v1.36H56v.84Z"/><path d="M58.79,104.37v-5h1v4.13h2.51v.84Z"/><path d="M62.84,101.9a3.1,3.1,0,0,1,.23-1.29,2.21,2.21,0,0,1,.46-.68,1.82,1.82,0,0,1,.65-.45,2.6,2.6,0,0,1,1.08-.2A2.37,2.37,0,0,1,67,100a3.06,3.06,0,0,1,0,3.81,2.33,2.33,0,0,1-1.77.69,2.37,2.37,0,0,1-1.77-.68A2.6,2.6,0,0,1,62.84,101.9Zm1,0a1.88,1.88,0,0,0,.39,1.29,1.36,1.36,0,0,0,2,0,1.92,1.92,0,0,0,.39-1.31,1.83,1.83,0,0,0-.38-1.28,1.25,1.25,0,0,0-1-.43,1.31,1.31,0,0,0-1,.43A1.93,1.93,0,0,0,63.88,101.86Z"/><path d="M68.23,102.74l1-.09a1.19,1.19,0,0,0,.37.73,1.32,1.32,0,0,0,1.46,0,.61.61,0,0,0,.25-.48.48.48,0,0,0-.1-.31.85.85,0,0,0-.36-.21c-.12,0-.39-.12-.82-.22a2.78,2.78,0,0,1-1.14-.5,1.31,1.31,0,0,1-.46-1,1.25,1.25,0,0,1,.22-.72,1.37,1.37,0,0,1,.62-.51,2.7,2.7,0,0,1,1-.17,2.15,2.15,0,0,1,1.42.41,1.43,1.43,0,0,1,.5,1.1l-1,0a.88.88,0,0,0-.28-.56,1,1,0,0,0-.64-.17,1.18,1.18,0,0,0-.69.19.35.35,0,0,0-.16.31.37.37,0,0,0,.15.3,2.69,2.69,0,0,0,.93.34,4.28,4.28,0,0,1,1.09.36,1.29,1.29,0,0,1,.55.51,1.41,1.41,0,0,1,.2.79,1.55,1.55,0,0,1-.23.81,1.45,1.45,0,0,1-.68.56,2.89,2.89,0,0,1-1.09.18,2.14,2.14,0,0,1-1.46-.44A1.92,1.92,0,0,1,68.23,102.74Z"/><path d="M75.1,104.37v-5h1v2h2v-2h1v5h-1v-2.19h-2v2.19Z"/><path d="M80.16,104.37v-5h3.71v.85h-2.7v1.11h2.51v.85H81.17v1.36H84v.84Z"/><path d="M88,102.53l1,.31a2.17,2.17,0,0,1-.75,1.22,2.1,2.1,0,0,1-1.33.4,2.16,2.16,0,0,1-1.64-.68,2.62,2.62,0,0,1-.64-1.87,2.74,2.74,0,0,1,.64-1.94,2.22,2.22,0,0,1,1.7-.69,1.89,1.89,0,0,1,2,1.46L88,101a1,1,0,0,0-1.06-.84,1.15,1.15,0,0,0-.9.4,1.93,1.93,0,0,0-.35,1.3,2.09,2.09,0,0,0,.34,1.35,1.12,1.12,0,0,0,.89.4,1,1,0,0,0,.69-.25A1.42,1.42,0,0,0,88,102.53Z"/><path d="M89.88,104.37v-5h1v2h2v-2h1v5h-1v-2.19h-2v2.19Z"/><path d="M94.73,101.9a3.27,3.27,0,0,1,.23-1.29,2.4,2.4,0,0,1,.46-.68,1.82,1.82,0,0,1,.65-.45,2.6,2.6,0,0,1,1.08-.2,2.37,2.37,0,0,1,1.77.68,3.06,3.06,0,0,1,0,3.81,2.33,2.33,0,0,1-1.76.69,2.37,2.37,0,0,1-1.78-.68A2.6,2.6,0,0,1,94.73,101.9Zm1,0a1.83,1.83,0,0,0,.4,1.29,1.24,1.24,0,0,0,1,.44,1.27,1.27,0,0,0,1-.43,2,2,0,0,0,.38-1.31,1.88,1.88,0,0,0-.37-1.28,1.28,1.28,0,0,0-1-.43,1.33,1.33,0,0,0-1,.43A1.93,1.93,0,0,0,95.77,101.86Z"/><path d="M100.12,102.74l1-.09a1.23,1.23,0,0,0,.36.73,1.1,1.1,0,0,0,.73.23,1.13,1.13,0,0,0,.74-.21.64.64,0,0,0,.25-.48.49.49,0,0,0-.11-.31.85.85,0,0,0-.36-.21c-.12,0-.39-.12-.81-.22a2.71,2.71,0,0,1-1.14-.5,1.29,1.29,0,0,1-.47-1,1.33,1.33,0,0,1,.22-.72,1.4,1.4,0,0,1,.63-.51,2.61,2.61,0,0,1,1-.17,2.13,2.13,0,0,1,1.42.41,1.43,1.43,0,0,1,.5,1.1l-1,0a.84.84,0,0,0-.28-.56,1,1,0,0,0-.64-.17,1.18,1.18,0,0,0-.69.19.38.38,0,0,0,0,.61,2.69,2.69,0,0,0,.93.34,4.28,4.28,0,0,1,1.09.36,1.38,1.38,0,0,1,.56.51,1.49,1.49,0,0,1,.2.79,1.47,1.47,0,0,1-.24.81,1.45,1.45,0,0,1-.68.56,2.85,2.85,0,0,1-1.09.18,2.14,2.14,0,0,1-1.46-.44A1.92,1.92,0,0,1,100.12,102.74Z"/><path d="M105.23,101.7v-1h1v1Zm0,2.67v-1h1v1Z"/><path d="M5.37,151.54l.93-.11a.85.85,0,0,0,.24.54.63.63,0,0,0,.47.19.65.65,0,0,0,.5-.22.91.91,0,0,0,.2-.61.83.83,0,0,0-.19-.58.63.63,0,0,0-.48-.21,1.59,1.59,0,0,0-.44.07l.11-.78a.82.82,0,0,0,.59-.17.6.6,0,0,0,.21-.48.52.52,0,0,0-.55-.55.57.57,0,0,0-.42.17.83.83,0,0,0-.22.5l-.88-.15a1.89,1.89,0,0,1,.28-.73,1.16,1.16,0,0,1,.52-.42,1.64,1.64,0,0,1,.74-.16,1.5,1.5,0,0,1,1.14.45,1.22,1.22,0,0,1,.35.84,1.17,1.17,0,0,1-.72,1.05,1.16,1.16,0,0,1,.69.41,1.22,1.22,0,0,1,.26.78,1.47,1.47,0,0,1-.49,1.12A1.66,1.66,0,0,1,7,153a1.63,1.63,0,0,1-1.12-.39A1.52,1.52,0,0,1,5.37,151.54Z"/><path d="M9.5,152.87v-1h1v1Z"/><path d="M16.6,151l1,.31a2.21,2.21,0,0,1-.75,1.22,2.36,2.36,0,0,1-3-.28,2.62,2.62,0,0,1-.64-1.87,2.74,2.74,0,0,1,.64-1.94,2.22,2.22,0,0,1,1.7-.69,2.12,2.12,0,0,1,1.5.54,2.07,2.07,0,0,1,.51.92l-1,.24a1,1,0,0,0-1.06-.84,1.12,1.12,0,0,0-.9.4,2,2,0,0,0-.35,1.3,2.09,2.09,0,0,0,.34,1.35,1.12,1.12,0,0,0,.89.4,1,1,0,0,0,.69-.25A1.42,1.42,0,0,0,16.6,151Z"/><path d="M23,152.87h-1.1l-.44-1.14h-2L19,152.87H17.94l1.95-5H21Zm-1.86-2L20.42,149l-.68,1.86Z"/><path d="M23.5,147.86h1v2.72a4.74,4.74,0,0,0,0,.83.83.83,0,0,0,.31.5,1.33,1.33,0,0,0,1.32,0,.72.72,0,0,0,.26-.44,5.69,5.69,0,0,0,0-.85v-2.77h1v2.63a6.26,6.26,0,0,1-.09,1.28,1.32,1.32,0,0,1-.3.63,1.63,1.63,0,0,1-.59.41,2.61,2.61,0,0,1-1,.15,2.79,2.79,0,0,1-1.09-.17,1.56,1.56,0,0,1-.59-.43,1.37,1.37,0,0,1-.28-.55,5.92,5.92,0,0,1-.1-1.28Z"/><path d="M28.3,151.24l1-.09a1.17,1.17,0,0,0,.36.72,1.07,1.07,0,0,0,.73.24,1.13,1.13,0,0,0,.74-.21.64.64,0,0,0,.25-.48.49.49,0,0,0-.11-.31.85.85,0,0,0-.36-.21c-.12,0-.39-.12-.81-.22a2.78,2.78,0,0,1-1.14-.5,1.28,1.28,0,0,1-.46-1,1.31,1.31,0,0,1,.21-.71,1.46,1.46,0,0,1,.63-.51,2.42,2.42,0,0,1,1-.17,2.08,2.08,0,0,1,1.42.41,1.47,1.47,0,0,1,.51,1.1l-1,.05a.87.87,0,0,0-.27-.56,1.07,1.07,0,0,0-.65-.17,1.18,1.18,0,0,0-.69.18.4.4,0,0,0-.16.32.38.38,0,0,0,.15.3,2.54,2.54,0,0,0,.93.33,4.76,4.76,0,0,1,1.1.37,1.4,1.4,0,0,1,.55.5,1.56,1.56,0,0,1,.2.8,1.47,1.47,0,0,1-.24.81,1.45,1.45,0,0,1-.68.56,2.85,2.85,0,0,1-1.09.18,2.19,2.19,0,0,1-1.46-.44A1.92,1.92,0,0,1,28.3,151.24Z"/><path d="M37.75,152.87h-1.1l-.44-1.14h-2l-.42,1.14H32.72l2-5h1.07Zm-1.86-2L35.2,149l-.68,1.86Z"/><path d="M40,147.86h1.85a3.35,3.35,0,0,1,1,.1,1.66,1.66,0,0,1,.76.46,2.3,2.3,0,0,1,.47.81,3.68,3.68,0,0,1,.17,1.18,3.09,3.09,0,0,1-.16,1.07,2.18,2.18,0,0,1-.53.89,1.94,1.94,0,0,1-.71.4,3.19,3.19,0,0,1-.9.1H40Zm1,.85V152h.75a2.92,2.92,0,0,0,.62-.05.85.85,0,0,0,.4-.21,1.08,1.08,0,0,0,.27-.48,3.25,3.25,0,0,0,.1-.92,2.94,2.94,0,0,0-.1-.89,1.12,1.12,0,0,0-.29-.49,1,1,0,0,0-.47-.23,4.63,4.63,0,0,0-.83,0Z"/><path d="M45,152.87v-5h3.71v.85H46v1.11h2.51v.84H46V152h2.8v.84Z"/><path d="M51.67,152.87v-5h1V152h2.51v.84Z"/><path d="M60.43,152.87h-1.1l-.43-1.14h-2l-.41,1.14H55.41l2-5h1.07Zm-1.86-2L57.88,149l-.68,1.86Z"/><path d="M62.66,152.87v-5H66.1v.85H63.67v1.19h2.09v.84H63.67v2.13Z"/><path d="M71.06,152.87H70l-.43-1.14h-2l-.41,1.14H66l1.95-5h1.07Zm-1.86-2L68.51,149l-.68,1.86Z"/><path d="M71.63,152.87v-5h1V152h2.52v.84Z"/><path d="M75.9,152.87v-5h1V152h2.51v.84Z"/><path d="M84.67,152.87h-1.1l-.44-1.14h-2l-.41,1.14H79.64l2-5h1.07Zm-1.86-2L82.12,149l-.68,1.86Z"/><path d="M86.69,150.4a3.1,3.1,0,0,1,.23-1.29,2.4,2.4,0,0,1,.46-.68A2,2,0,0,1,88,148a2.78,2.78,0,0,1,1.08-.19,2.33,2.33,0,0,1,1.77.68,3.06,3.06,0,0,1,0,3.81,2.33,2.33,0,0,1-1.77.69,2.37,2.37,0,0,1-1.77-.68A2.61,2.61,0,0,1,86.69,150.4Zm1,0a1.88,1.88,0,0,0,.39,1.29,1.36,1.36,0,0,0,2,0,1.92,1.92,0,0,0,.39-1.31,1.88,1.88,0,0,0-.38-1.29,1.4,1.4,0,0,0-2,0A1.93,1.93,0,0,0,87.73,150.36Z"/><path d="M94.28,152.87v-5H98v.85H95.29v1.11h2.52v.84H95.29V152h2.8v.84Z"/><path d="M99,152.87v-5h2.13a3.6,3.6,0,0,1,1.17.14,1.13,1.13,0,0,1,.58.48,1.4,1.4,0,0,1,.22.79,1.36,1.36,0,0,1-.33.93,1.59,1.59,0,0,1-1,.46,2.41,2.41,0,0,1,.54.42,5.47,5.47,0,0,1,.58.81l.61,1h-1.21l-.73-1.09A7.28,7.28,0,0,0,101,151a.64.64,0,0,0-.3-.2,1.6,1.6,0,0,0-.51-.06H100v2.09Zm1-2.89h.74a3.94,3.94,0,0,0,.91-.06.56.56,0,0,0,.29-.21.65.65,0,0,0,.1-.38.67.67,0,0,0-.13-.41.6.6,0,0,0-.39-.19,5.43,5.43,0,0,0-.73,0H100Z"/><path d="M104,152.87v-5h2.13a3.69,3.69,0,0,1,1.17.14,1.17,1.17,0,0,1,.58.48,1.4,1.4,0,0,1,.22.79,1.36,1.36,0,0,1-.33.93,1.62,1.62,0,0,1-1,.46,3,3,0,0,1,.54.42,5.6,5.6,0,0,1,.57.81l.61,1H107.3l-.73-1.09A7.8,7.8,0,0,0,106,151a.75.75,0,0,0-.3-.2,1.6,1.6,0,0,0-.51-.06H105v2.09Zm1-2.89h.75a4,4,0,0,0,.91-.06.54.54,0,0,0,.28-.21.66.66,0,0,0,.11-.38.62.62,0,0,0-.14-.41.6.6,0,0,0-.38-.19,5.62,5.62,0,0,0-.74,0H105Z"/><path d="M108.86,150.4a3.28,3.28,0,0,1,.22-1.29,2.43,2.43,0,0,1,.47-.68,1.89,1.89,0,0,1,.65-.46,2.78,2.78,0,0,1,1.08-.19,2.33,2.33,0,0,1,1.77.68,3.06,3.06,0,0,1,0,3.81,2.33,2.33,0,0,1-1.77.69,2.37,2.37,0,0,1-1.77-.68A2.61,2.61,0,0,1,108.86,150.4Zm1,0a1.88,1.88,0,0,0,.39,1.29,1.36,1.36,0,0,0,2,0,2.39,2.39,0,0,0,0-2.6,1.4,1.4,0,0,0-2,0A1.93,1.93,0,0,0,109.9,150.36Z"/><path d="M114.51,152.87v-5h2.13a3.69,3.69,0,0,1,1.17.14,1.17,1.17,0,0,1,.58.48,1.4,1.4,0,0,1,.22.79,1.36,1.36,0,0,1-.33.93,1.62,1.62,0,0,1-1,.46,3,3,0,0,1,.54.42,5.6,5.6,0,0,1,.57.81l.61,1H117.8l-.73-1.09a7.8,7.8,0,0,0-.53-.74.75.75,0,0,0-.3-.2,1.6,1.6,0,0,0-.51-.06h-.21v2.09Zm1-2.89h.75a4,4,0,0,0,.91-.06.54.54,0,0,0,.28-.21.66.66,0,0,0,.11-.38.62.62,0,0,0-.14-.41.6.6,0,0,0-.38-.19,5.62,5.62,0,0,0-.74,0h-.79Z"/><path d="M7.28,190.24v-1h-2v-.84l2.18-3.19h.8v3.18h.63v.85H8.21v1Zm0-1.85v-1.71l-1.15,1.71Z"/><path d="M9.5,190.24v-1h1v1Z"/><path d="M17.65,190.24h-1.1l-.43-1.13h-2l-.41,1.13H12.63l1.95-5h1.07Zm-1.86-2-.69-1.86-.68,1.86Z"/><path d="M18.2,190.24v-5h1l2,3.35v-3.35h.94v5h-1l-2-3.26v3.26Z"/><path d="M27.76,190.24H26.67l-.44-1.13h-2l-.41,1.13H22.74l2-5h1.07Zm-1.86-2-.69-1.86-.67,1.86ZM24.63,185l.47-1h1.08l-.94,1Z"/><path d="M28.33,190.24v-5h1v4.13h2.52v.84Z"/><path d="M32.55,190.24v-5h1v5Z"/><path d="M34.27,188.61l1-.09a1.23,1.23,0,0,0,.36.73,1.34,1.34,0,0,0,1.47,0,.61.61,0,0,0,.25-.48.44.44,0,0,0-.11-.3.77.77,0,0,0-.36-.22l-.81-.22a2.79,2.79,0,0,1-1.14-.49,1.34,1.34,0,0,1-.25-1.73,1.46,1.46,0,0,1,.63-.51,2.62,2.62,0,0,1,1-.17,2.17,2.17,0,0,1,1.42.41,1.52,1.52,0,0,1,.5,1.11l-1,0a.87.87,0,0,0-.27-.56,1.08,1.08,0,0,0-.65-.16,1.12,1.12,0,0,0-.68.18.36.36,0,0,0-.17.31.37.37,0,0,0,.15.3,2.69,2.69,0,0,0,.93.34,4.38,4.38,0,0,1,1.1.36,1.35,1.35,0,0,1,.55.51,1.51,1.51,0,0,1,.2.8,1.47,1.47,0,0,1-.24.8,1.4,1.4,0,0,1-.68.56,2.85,2.85,0,0,1-1.09.18,2.14,2.14,0,0,1-1.46-.44A1.85,1.85,0,0,1,34.27,188.61Z"/><path d="M39.16,190.24v-5h1v5Z"/><path d="M40.88,188.61l1-.09a1.23,1.23,0,0,0,.36.73,1.15,1.15,0,0,0,.74.23,1.1,1.1,0,0,0,.73-.21.61.61,0,0,0,.25-.48.44.44,0,0,0-.1-.3.75.75,0,0,0-.37-.22l-.81-.22a2.79,2.79,0,0,1-1.14-.49,1.31,1.31,0,0,1-.46-1,1.25,1.25,0,0,1,.22-.72,1.37,1.37,0,0,1,.62-.51,2.62,2.62,0,0,1,1-.17,2.15,2.15,0,0,1,1.42.41,1.49,1.49,0,0,1,.5,1.11l-1,0a.93.93,0,0,0-.28-.56,1,1,0,0,0-.64-.16,1.13,1.13,0,0,0-.69.18.35.35,0,0,0-.16.31.37.37,0,0,0,.15.3,2.69,2.69,0,0,0,.93.34,4.43,4.43,0,0,1,1.09.36,1.29,1.29,0,0,1,.55.51,1.42,1.42,0,0,1,.2.8,1.47,1.47,0,0,1-.24.8,1.42,1.42,0,0,1-.67.56,2.89,2.89,0,0,1-1.09.18,2.12,2.12,0,0,1-1.46-.44A1.9,1.9,0,0,1,40.88,188.61Z"/><path d="M47.75,185.23H49.6a3.76,3.76,0,0,1,.95.1,1.72,1.72,0,0,1,.75.46,2.18,2.18,0,0,1,.48.81,3.7,3.7,0,0,1,.17,1.19,3,3,0,0,1-.16,1.06,2.18,2.18,0,0,1-.53.89,1.91,1.91,0,0,1-.72.4,3.07,3.07,0,0,1-.89.1h-1.9Zm1,.85v3.32h.75a2.92,2.92,0,0,0,.62-.05.9.9,0,0,0,.4-.21,1,1,0,0,0,.27-.48,3.21,3.21,0,0,0,.1-.92,3,3,0,0,0-.1-.89,1.12,1.12,0,0,0-.29-.48.92.92,0,0,0-.47-.24,4.63,4.63,0,0,0-.83,0Z"/><path d="M52.81,190.24v-5h3.71v.85h-2.7v1.11h2.51V188H53.82v1.36h2.8v.84Z"/><path d="M62.62,188.4l1,.31a2.17,2.17,0,0,1-.75,1.22,2.13,2.13,0,0,1-1.34.4,2.18,2.18,0,0,1-1.64-.68,2.67,2.67,0,0,1-.64-1.87,2.74,2.74,0,0,1,.65-1.94,2.2,2.2,0,0,1,1.69-.69,2.09,2.09,0,0,1,1.5.54,2,2,0,0,1,.51.92l-1,.24a1,1,0,0,0-.37-.61,1.08,1.08,0,0,0-.69-.23,1.15,1.15,0,0,0-.9.4,2,2,0,0,0-.35,1.3,2.08,2.08,0,0,0,.35,1.35,1.09,1.09,0,0,0,.88.41,1,1,0,0,0,.7-.26A1.48,1.48,0,0,0,62.62,188.4Z"/><path d="M69,190.24h-1.1l-.44-1.13h-2L65,190.24H64l2-5H67Zm-1.86-2-.69-1.86-.68,1.86Z"/><path d="M69.52,185.23h1V188a6.4,6.4,0,0,0,0,.84.83.83,0,0,0,.31.49,1.11,1.11,0,0,0,.67.19,1,1,0,0,0,.65-.18.72.72,0,0,0,.26-.43,5.44,5.44,0,0,0,.05-.85v-2.78h1v2.64a7.21,7.21,0,0,1-.08,1.27,1.42,1.42,0,0,1-.9,1,2.54,2.54,0,0,1-1,.15,2.79,2.79,0,0,1-1.09-.17,1.56,1.56,0,0,1-.59-.43,1.44,1.44,0,0,1-.28-.55,5.82,5.82,0,0,1-.1-1.27Z"/><path d="M74.33,188.61l1-.09a1.23,1.23,0,0,0,.36.73,1.13,1.13,0,0,0,.74.23,1.1,1.1,0,0,0,.73-.21.61.61,0,0,0,.25-.48.44.44,0,0,0-.1-.3.75.75,0,0,0-.37-.22l-.81-.22a2.79,2.79,0,0,1-1.14-.49,1.31,1.31,0,0,1-.46-1,1.25,1.25,0,0,1,.22-.72,1.37,1.37,0,0,1,.62-.51,2.62,2.62,0,0,1,1-.17,2.15,2.15,0,0,1,1.42.41,1.49,1.49,0,0,1,.5,1.11l-1,0a.93.93,0,0,0-.28-.56,1,1,0,0,0-.64-.16,1.13,1.13,0,0,0-.69.18.35.35,0,0,0-.16.31.37.37,0,0,0,.15.3,2.52,2.52,0,0,0,.93.34,4.43,4.43,0,0,1,1.09.36,1.35,1.35,0,0,1,.55.51,1.42,1.42,0,0,1,.2.8,1.47,1.47,0,0,1-.24.8,1.42,1.42,0,0,1-.67.56,2.93,2.93,0,0,1-1.09.18,2.12,2.12,0,0,1-1.46-.44A1.86,1.86,0,0,1,74.33,188.61Z"/><path d="M83.77,190.24h-1.1l-.44-1.13h-2l-.41,1.13H78.74l2-5h1.07Zm-1.86-2-.69-1.86-.68,1.86Z"/><path d="M84.05,188.61l1-.09a1.23,1.23,0,0,0,.36.73,1.1,1.1,0,0,0,.73.23,1.13,1.13,0,0,0,.74-.21.63.63,0,0,0,.24-.48.44.44,0,0,0-.1-.3.77.77,0,0,0-.36-.22l-.81-.22a2.78,2.78,0,0,1-1.15-.49,1.35,1.35,0,0,1-.46-1,1.33,1.33,0,0,1,.22-.72,1.35,1.35,0,0,1,.63-.51,2.61,2.61,0,0,1,1-.17,2.15,2.15,0,0,1,1.42.41,1.45,1.45,0,0,1,.5,1.11l-1,0a.88.88,0,0,0-.28-.56,1,1,0,0,0-.64-.16,1.18,1.18,0,0,0-.69.18.35.35,0,0,0-.16.31.37.37,0,0,0,.15.3,2.69,2.69,0,0,0,.93.34,4.28,4.28,0,0,1,1.09.36,1.38,1.38,0,0,1,.56.51,1.51,1.51,0,0,1,.2.8,1.47,1.47,0,0,1-.24.8,1.45,1.45,0,0,1-.68.56,2.89,2.89,0,0,1-1.09.18,2.14,2.14,0,0,1-1.46-.44A1.9,1.9,0,0,1,84.05,188.61Z"/><path d="M92.11,190.24v-2.1l-1.83-2.91h1.18l1.18,2,1.16-2H95l-1.84,2.91v2.1Z"/><path d="M100.49,188.4l1,.31a2.17,2.17,0,0,1-.75,1.22,2.1,2.1,0,0,1-1.33.4,2.16,2.16,0,0,1-1.64-.68,2.62,2.62,0,0,1-.64-1.87,2.74,2.74,0,0,1,.64-1.94,2.22,2.22,0,0,1,1.7-.69,2.08,2.08,0,0,1,1.49.54,2,2,0,0,1,.52.92l-1,.24a1.05,1.05,0,0,0-.38-.61,1,1,0,0,0-.68-.23,1.19,1.19,0,0,0-.91.4,2,2,0,0,0-.34,1.3,2.09,2.09,0,0,0,.34,1.35,1.11,1.11,0,0,0,.89.41,1,1,0,0,0,.69-.26A1.48,1.48,0,0,0,100.49,188.4Z"/><path d="M102.13,187.77a3.27,3.27,0,0,1,.23-1.29,2.43,2.43,0,0,1,.47-.68,1.86,1.86,0,0,1,.65-.45,2.6,2.6,0,0,1,1.08-.2,2.35,2.35,0,0,1,1.77.69,3.08,3.08,0,0,1,0,3.81,2.34,2.34,0,0,1-1.76.68,2.39,2.39,0,0,1-1.78-.68A2.6,2.6,0,0,1,102.13,187.77Zm1.05,0a1.91,1.91,0,0,0,.39,1.29,1.35,1.35,0,0,0,2,0,1.92,1.92,0,0,0,.39-1.31,1.88,1.88,0,0,0-.38-1.28,1.26,1.26,0,0,0-1-.43,1.3,1.3,0,0,0-1,.43A1.89,1.89,0,0,0,103.18,187.74Z"/><path d="M107.79,190.24v-5h1l2,3.35v-3.35h.94v5h-1l-2-3.26v3.26Z"/><path d="M112.58,188.61l1-.09a1.23,1.23,0,0,0,.36.73,1.1,1.1,0,0,0,.73.23,1.13,1.13,0,0,0,.74-.21.63.63,0,0,0,.24-.48.44.44,0,0,0-.1-.3.77.77,0,0,0-.36-.22l-.81-.22a2.78,2.78,0,0,1-1.15-.49,1.35,1.35,0,0,1-.46-1,1.33,1.33,0,0,1,.22-.72,1.4,1.4,0,0,1,.63-.51,2.61,2.61,0,0,1,1-.17,2.15,2.15,0,0,1,1.42.41,1.45,1.45,0,0,1,.5,1.11l-1,0a.84.84,0,0,0-.28-.56,1,1,0,0,0-.64-.16,1.18,1.18,0,0,0-.69.18.35.35,0,0,0-.16.31.37.37,0,0,0,.15.3,2.69,2.69,0,0,0,.93.34,4.28,4.28,0,0,1,1.09.36,1.38,1.38,0,0,1,.56.51,1.51,1.51,0,0,1,.2.8,1.47,1.47,0,0,1-.24.8,1.45,1.45,0,0,1-.68.56,2.89,2.89,0,0,1-1.09.18,2.14,2.14,0,0,1-1.46-.44A1.9,1.9,0,0,1,112.58,188.61Z"/><path d="M117.51,190.24v-5h3.71v.85h-2.7v1.11H121V188h-2.51v1.36h2.8v.84Z"/><path d="M125.38,188.4l1,.31a2.17,2.17,0,0,1-.75,1.22,2.1,2.1,0,0,1-1.33.4,2.18,2.18,0,0,1-1.64-.68,2.62,2.62,0,0,1-.64-1.87,2.74,2.74,0,0,1,.64-1.94,2.24,2.24,0,0,1,1.7-.69,2.11,2.11,0,0,1,1.5.54,2,2,0,0,1,.51.92l-1,.24a1,1,0,0,0-.37-.61,1.08,1.08,0,0,0-.69-.23,1.15,1.15,0,0,0-.9.4,2,2,0,0,0-.35,1.3,2.15,2.15,0,0,0,.34,1.35,1.12,1.12,0,0,0,.89.41,1,1,0,0,0,.7-.26A1.48,1.48,0,0,0,125.38,188.4Z"/><path d="M127.22,185.23h1V188a7.13,7.13,0,0,0,0,.84.88.88,0,0,0,.31.49,1.13,1.13,0,0,0,.67.19,1,1,0,0,0,.65-.18.68.68,0,0,0,.26-.43,5.44,5.44,0,0,0,.05-.85v-2.78h1v2.64a7.21,7.21,0,0,1-.08,1.27,1.44,1.44,0,0,1-.31.63,1.48,1.48,0,0,1-.58.41,2.63,2.63,0,0,1-1,.15,2.79,2.79,0,0,1-1.09-.17,1.52,1.52,0,0,1-.58-.43,1.33,1.33,0,0,1-.29-.55,6.53,6.53,0,0,1-.1-1.27Z"/><path d="M132.29,190.24v-5H136v.85h-2.7v1.11h2.51V188H133.3v1.36h2.8v.84Z"/><path d="M137,190.24v-5h1l2.05,3.35v-3.35h.94v5h-1l-2-3.26v3.26Z"/><path d="M145.22,188.4l1,.31a2.17,2.17,0,0,1-.75,1.22,2.12,2.12,0,0,1-1.33.4,2.15,2.15,0,0,1-1.64-.68,2.63,2.63,0,0,1-.65-1.87,2.74,2.74,0,0,1,.65-1.94,2.22,2.22,0,0,1,1.7-.69,2.08,2.08,0,0,1,1.49.54,2,2,0,0,1,.51.92l-1,.24a1,1,0,0,0-.37-.61,1.07,1.07,0,0,0-.68-.23,1.16,1.16,0,0,0-.91.4,2,2,0,0,0-.34,1.3,2.09,2.09,0,0,0,.34,1.35,1.1,1.1,0,0,0,.89.41,1,1,0,0,0,.69-.26A1.55,1.55,0,0,0,145.22,188.4Z"/><path d="M147,190.24v-5h1v5Z"/><path d="M153.53,190.24h-1.1l-.44-1.13h-2l-.42,1.13H148.5l1.95-5h1.07Zm-1.86-2L151,186.4l-.68,1.86Z"/><path d="M153.81,188.61l1-.09a1.23,1.23,0,0,0,.36.73,1.13,1.13,0,0,0,.74.23,1.1,1.1,0,0,0,.73-.21.61.61,0,0,0,.25-.48.44.44,0,0,0-.1-.3.75.75,0,0,0-.37-.22l-.81-.22a2.79,2.79,0,0,1-1.14-.49,1.31,1.31,0,0,1-.46-1,1.25,1.25,0,0,1,.22-.72,1.37,1.37,0,0,1,.62-.51,2.62,2.62,0,0,1,1-.17,2.15,2.15,0,0,1,1.42.41,1.49,1.49,0,0,1,.5,1.11l-1,0a.93.93,0,0,0-.28-.56,1,1,0,0,0-.64-.16,1.13,1.13,0,0,0-.69.18.35.35,0,0,0-.16.31.37.37,0,0,0,.15.3,2.61,2.61,0,0,0,.93.34,4.43,4.43,0,0,1,1.09.36,1.29,1.29,0,0,1,.55.51,1.42,1.42,0,0,1,.2.8,1.47,1.47,0,0,1-.24.8,1.42,1.42,0,0,1-.67.56,2.93,2.93,0,0,1-1.09.18,2.12,2.12,0,0,1-1.46-.44A1.9,1.9,0,0,1,153.81,188.61Z"/><path d="M8.65,286.16l-.93.1a.68.68,0,0,0-.17-.42.54.54,0,0,0-.38-.14.64.64,0,0,0-.51.28,2.24,2.24,0,0,0-.26,1.14,1.08,1.08,0,0,1,.89-.43,1.35,1.35,0,0,1,1,.46,1.68,1.68,0,0,1,.43,1.18,1.7,1.7,0,0,1-.45,1.24,1.54,1.54,0,0,1-1.16.46,1.56,1.56,0,0,1-1.25-.59,3,3,0,0,1-.49-1.93,3.11,3.11,0,0,1,.51-2,1.66,1.66,0,0,1,1.32-.61,1.44,1.44,0,0,1,.95.32A1.49,1.49,0,0,1,8.65,286.16Zm-2.17,2.1a1.1,1.1,0,0,0,.21.72.64.64,0,0,0,.5.25.55.55,0,0,0,.44-.2,1.06,1.06,0,0,0,.18-.69,1.14,1.14,0,0,0-.19-.71.62.62,0,0,0-.48-.23.59.59,0,0,0-.47.22A.91.91,0,0,0,6.48,288.26Z"/><path d="M9.5,290v-1h1v1Z"/><path d="M17.65,290h-1.1l-.43-1.14h-2L13.7,290H12.63l1.95-5h1.07Zm-1.86-2-.69-1.86L14.42,288Z"/><path d="M21.4,288.1l1,.31a2.17,2.17,0,0,1-.75,1.22,2.12,2.12,0,0,1-1.33.4,2.15,2.15,0,0,1-1.64-.68,2.61,2.61,0,0,1-.65-1.87,2.74,2.74,0,0,1,.65-1.94,2.22,2.22,0,0,1,1.7-.69,2.08,2.08,0,0,1,1.49.54,1.93,1.93,0,0,1,.51.93l-1,.24a1,1,0,0,0-1.05-.85,1.17,1.17,0,0,0-.91.4,2,2,0,0,0-.34,1.3,2.09,2.09,0,0,0,.34,1.35,1.11,1.11,0,0,0,.89.41,1,1,0,0,0,.69-.26A1.55,1.55,0,0,0,21.4,288.1Z"/><path d="M26.45,288.1l1,.31a2.17,2.17,0,0,1-.75,1.22,2.1,2.1,0,0,1-1.33.4,2.18,2.18,0,0,1-1.64-.68,2.6,2.6,0,0,1-.64-1.87,2.74,2.74,0,0,1,.64-1.94,2.24,2.24,0,0,1,1.7-.69,2.11,2.11,0,0,1,1.5.54,2,2,0,0,1,.51.93l-1,.24a1.06,1.06,0,0,0-.37-.62,1.08,1.08,0,0,0-.69-.23,1.15,1.15,0,0,0-.9.4,2,2,0,0,0-.35,1.3,2.15,2.15,0,0,0,.34,1.35,1.12,1.12,0,0,0,.89.41,1,1,0,0,0,.7-.26A1.48,1.48,0,0,0,26.45,288.1Z"/><path d="M28.27,290v-5h1v5Z"/><path d="M30,287.47a3.19,3.19,0,0,1,.23-1.28,2.17,2.17,0,0,1,.47-.69,2,2,0,0,1,.64-.45,2.85,2.85,0,0,1,1.08-.2,2.37,2.37,0,0,1,1.78.69,3.08,3.08,0,0,1,0,3.81,2.64,2.64,0,0,1-3.54,0A2.58,2.58,0,0,1,30,287.47Zm1,0a1.86,1.86,0,0,0,.4,1.29,1.35,1.35,0,0,0,2,0,1.92,1.92,0,0,0,.39-1.31,1.88,1.88,0,0,0-.38-1.28,1.26,1.26,0,0,0-1-.43,1.3,1.3,0,0,0-1,.43A1.89,1.89,0,0,0,31.08,287.44Z"/><path d="M35.7,290v-5h1l2.05,3.34v-3.34h.94v5h-1l-2-3.27V290Z"/><path d="M40.75,290v-5h3.71v.84h-2.7v1.11h2.51v.85H41.76v1.36h2.8V290Z"/><path d="M45.16,288.31l1-.09a1.23,1.23,0,0,0,.36.73,1.13,1.13,0,0,0,.74.23A1.1,1.1,0,0,0,48,289a.59.59,0,0,0,.25-.48.44.44,0,0,0-.1-.3.75.75,0,0,0-.37-.22l-.81-.22a2.79,2.79,0,0,1-1.14-.49,1.31,1.31,0,0,1-.46-1,1.25,1.25,0,0,1,.22-.72,1.37,1.37,0,0,1,.62-.51,2.62,2.62,0,0,1,1-.17,2.15,2.15,0,0,1,1.42.41,1.49,1.49,0,0,1,.5,1.11l-1,0a.87.87,0,0,0-.28-.55,1,1,0,0,0-.64-.17,1.13,1.13,0,0,0-.69.18.36.36,0,0,0-.16.31.37.37,0,0,0,.15.3,2.52,2.52,0,0,0,.93.34,4.43,4.43,0,0,1,1.09.36,1.35,1.35,0,0,1,.55.51,1.42,1.42,0,0,1,.2.8,1.47,1.47,0,0,1-.24.8,1.42,1.42,0,0,1-.67.56,2.93,2.93,0,0,1-1.09.18,2.18,2.18,0,0,1-1.46-.43A1.9,1.9,0,0,1,45.16,288.31Z"/><path d="M52,284.94h1.85a3.84,3.84,0,0,1,.95.09,1.72,1.72,0,0,1,.75.46,2.18,2.18,0,0,1,.48.81,3.7,3.7,0,0,1,.17,1.19,3.28,3.28,0,0,1-.16,1.06,2.18,2.18,0,0,1-.53.89,1.91,1.91,0,0,1-.72.4,3,3,0,0,1-.89.11H52Zm1,.84v3.32h.75a2.24,2.24,0,0,0,.61-.05,1,1,0,0,0,.41-.2,1.07,1.07,0,0,0,.27-.49,3.21,3.21,0,0,0,.1-.92,3,3,0,0,0-.1-.89,1.12,1.12,0,0,0-.29-.48.92.92,0,0,0-.47-.24,4.71,4.71,0,0,0-.83-.05Z"/><path d="M57.08,290v-5H60.8v.84H58.1v1.11h2.51v.85H58.1v1.36h2.8V290Z"/><path d="M63.68,290v-5H65.2l.91,3.41.9-3.41h1.51v5h-.94V286l-1,3.95h-1l-1-3.95V290Z"/><path d="M69.53,290v-5h3.71v.84h-2.7v1.11h2.52v.85H70.54v1.36h2.8V290Z"/><path d="M76,284.94h1v3.17a3.35,3.35,0,0,1-.1.95,1.4,1.4,0,0,1-.54.71,1.84,1.84,0,0,1-1,.26,1.54,1.54,0,0,1-1.14-.41,1.69,1.69,0,0,1-.4-1.22l1-.11a1.39,1.39,0,0,0,.13.61.54.54,0,0,0,.5.27.57.57,0,0,0,.48-.2,1.54,1.54,0,0,0,.14-.8Z"/><path d="M77.89,287.47a3.2,3.2,0,0,1,.22-1.28,2.34,2.34,0,0,1,.47-.69,2,2,0,0,1,.65-.45,2.77,2.77,0,0,1,1.08-.2,2.33,2.33,0,0,1,1.77.69,3.06,3.06,0,0,1,0,3.81,2.66,2.66,0,0,1-3.55,0A2.62,2.62,0,0,1,77.89,287.47Zm1,0a1.91,1.91,0,0,0,.39,1.29,1.3,1.3,0,0,0,1,.44,1.28,1.28,0,0,0,1-.44,1.92,1.92,0,0,0,.39-1.31,1.88,1.88,0,0,0-.38-1.28,1.25,1.25,0,0,0-1-.43,1.31,1.31,0,0,0-1,.43A1.94,1.94,0,0,0,78.93,287.44Z"/><path d="M83.54,290v-5h2.13a3.75,3.75,0,0,1,1.17.13,1.17,1.17,0,0,1,.58.48,1.49,1.49,0,0,1,.22.79,1.32,1.32,0,0,1-.33.93,1.59,1.59,0,0,1-1,.46,2.74,2.74,0,0,1,.55.42,6.54,6.54,0,0,1,.57.82l.61,1H86.83l-.73-1.1a7.2,7.2,0,0,0-.53-.73.85.85,0,0,0-.31-.21,1.49,1.49,0,0,0-.5-.06h-.21V290Zm1-2.9h.75a4,4,0,0,0,.91-.06.54.54,0,0,0,.28-.21.63.63,0,0,0,.1-.38.58.58,0,0,0-.13-.4.61.61,0,0,0-.38-.2c-.08,0-.33,0-.74,0h-.79Z"/><path d="M93.11,290H92l-.44-1.14h-2L89.15,290H88.08l2-5H91.1Zm-1.86-2-.69-1.86L89.88,288Z"/><path d="M5.4,324.22v-.89H8.69v.7a4.87,4.87,0,0,0-.83,1.14,6.37,6.37,0,0,0-.64,1.6,5.84,5.84,0,0,0-.22,1.5H6.07a6.56,6.56,0,0,1,.43-2.12,7.12,7.12,0,0,1,1.08-1.93Z"/><path d="M9.5,328.27v-1h1v1Z"/><path d="M13.4,328.27v-5h3.44v.85H14.41v1.18H16.5v.85H14.41v2.13Z"/><path d="M17.64,328.27v-5h1v5Z"/><path d="M19.62,328.27v-5h2.13a3.69,3.69,0,0,1,1.17.14,1.12,1.12,0,0,1,.58.48,1.45,1.45,0,0,1,.22.78,1.37,1.37,0,0,1-.33.94,1.62,1.62,0,0,1-1,.46,2.74,2.74,0,0,1,.55.42,5.6,5.6,0,0,1,.57.81l.61,1H22.91l-.73-1.09a7.8,7.8,0,0,0-.53-.74.72.72,0,0,0-.31-.2,1.49,1.49,0,0,0-.5-.06h-.21v2.09Zm1-2.89h.75a4,4,0,0,0,.91-.06.54.54,0,0,0,.28-.21.65.65,0,0,0,.1-.38.61.61,0,0,0-.13-.41.67.67,0,0,0-.38-.2H20.63Z"/><path d="M24.66,328.27v-5h1.51l.91,3.42.9-3.42H29.5v5h-.94v-3.94l-1,3.94h-1l-1-3.94v3.94Z"/><path d="M35,328.27h-1.1l-.44-1.14h-2l-.41,1.14H30l2-5H33Zm-1.86-2-.69-1.86-.68,1.86Z"/><path d="M37.25,328.27v-5h2.13a3.58,3.58,0,0,1,1.16.14,1.11,1.11,0,0,1,.59.48,1.45,1.45,0,0,1,.21.78,1.37,1.37,0,0,1-.33.94,1.59,1.59,0,0,1-1,.46,2.41,2.41,0,0,1,.54.42,4.81,4.81,0,0,1,.58.81l.61,1H40.54l-.73-1.09c-.26-.39-.44-.63-.53-.74a.72.72,0,0,0-.31-.2,1.52,1.52,0,0,0-.51-.06h-.2v2.09Zm1-2.89H39a4.06,4.06,0,0,0,.91-.06.54.54,0,0,0,.28-.21.65.65,0,0,0,.1-.38.61.61,0,0,0-.13-.41.67.67,0,0,0-.38-.2H38.26Z"/><path d="M42.3,328.27v-5H46v.85h-2.7v1.11h2.52v.84H43.31v1.37h2.8v.84Z"/><path d="M46.71,326.64l1-.1a1.13,1.13,0,0,0,.36.73,1.05,1.05,0,0,0,.73.24,1.13,1.13,0,0,0,.74-.21.63.63,0,0,0,.24-.49.47.47,0,0,0-.1-.3.85.85,0,0,0-.36-.21,7.17,7.17,0,0,0-.81-.22,2.77,2.77,0,0,1-1.15-.5,1.32,1.32,0,0,1-.46-1,1.24,1.24,0,0,1,.22-.71,1.31,1.31,0,0,1,.62-.51,2.5,2.5,0,0,1,1-.18,2.09,2.09,0,0,1,1.42.42,1.42,1.42,0,0,1,.5,1.1l-1,.05a.86.86,0,0,0-.28-.56,1,1,0,0,0-.64-.17,1.18,1.18,0,0,0-.69.18.36.36,0,0,0-.16.31.4.4,0,0,0,.15.31,2.54,2.54,0,0,0,.93.33,5.26,5.26,0,0,1,1.09.36,1.43,1.43,0,0,1,.55.51,1.44,1.44,0,0,1,.21.8,1.47,1.47,0,0,1-.24.81,1.45,1.45,0,0,1-.68.56,2.89,2.89,0,0,1-1.09.18,2.19,2.19,0,0,1-1.46-.44A1.92,1.92,0,0,1,46.71,326.64Z"/><path d="M51.64,328.27v-5h1.62a5.09,5.09,0,0,1,1.2.08,1.22,1.22,0,0,1,.72.49,1.49,1.49,0,0,1,.29,1,1.67,1.67,0,0,1-.16.78,1.48,1.48,0,0,1-.43.49,1.52,1.52,0,0,1-.52.24,5.74,5.74,0,0,1-1,.07h-.66v1.89Zm1-4.16v1.42h.55a2.66,2.66,0,0,0,.8-.08.66.66,0,0,0,.32-.25.71.71,0,0,0,.11-.39.64.64,0,0,0-.16-.45.75.75,0,0,0-.41-.22,5.42,5.42,0,0,0-.72,0Z"/><path d="M56.1,325.8a3.27,3.27,0,0,1,.23-1.29,2.42,2.42,0,0,1,.47-.69,2,2,0,0,1,.64-.45,2.85,2.85,0,0,1,1.08-.2,2.37,2.37,0,0,1,1.78.69,3.08,3.08,0,0,1,0,3.81,2.62,2.62,0,0,1-3.54,0A2.57,2.57,0,0,1,56.1,325.8Zm1,0a1.83,1.83,0,0,0,.4,1.29,1.24,1.24,0,0,0,1,.44,1.27,1.27,0,0,0,1-.43,2.39,2.39,0,0,0,0-2.6,1.29,1.29,0,0,0-1-.42,1.26,1.26,0,0,0-1,.43A1.86,1.86,0,0,0,57.14,325.76Z"/><path d="M61.76,328.27v-5h1l2.05,3.35v-3.35h.94v5h-1l-2-3.27v3.27Z"/><path d="M66.55,326.64l1-.1a1.18,1.18,0,0,0,.36.73,1.31,1.31,0,0,0,1.47,0,.61.61,0,0,0,.25-.49.47.47,0,0,0-.1-.3.84.84,0,0,0-.37-.21,7.17,7.17,0,0,0-.81-.22,2.78,2.78,0,0,1-1.14-.5,1.28,1.28,0,0,1-.46-1,1.24,1.24,0,0,1,.22-.71,1.31,1.31,0,0,1,.62-.51,2.43,2.43,0,0,1,1-.18,2.09,2.09,0,0,1,1.42.42,1.45,1.45,0,0,1,.5,1.1l-1,.05a.9.9,0,0,0-.28-.56,1,1,0,0,0-.64-.17,1.13,1.13,0,0,0-.69.18.36.36,0,0,0-.16.31.4.4,0,0,0,.15.31,2.54,2.54,0,0,0,.93.33,5.48,5.48,0,0,1,1.09.36,1.38,1.38,0,0,1,.75,1.31,1.47,1.47,0,0,1-.24.81,1.42,1.42,0,0,1-.67.56,2.89,2.89,0,0,1-1.09.18,2.18,2.18,0,0,1-1.46-.44A1.92,1.92,0,0,1,66.55,326.64Z"/><path d="M76,328.27h-1.1l-.44-1.14h-2L72,328.27H71l2-5H74Zm-1.86-2-.69-1.86-.68,1.86Z"/><path d="M76.53,323.26h2a6.1,6.1,0,0,1,.88.05,1.23,1.23,0,0,1,.53.21,1.19,1.19,0,0,1,.38.42,1.2,1.2,0,0,1,0,1.23,1.16,1.16,0,0,1-.51.44,1.34,1.34,0,0,1,.7.45,1.2,1.2,0,0,1,.25.76,1.4,1.4,0,0,1-.16.66,1.38,1.38,0,0,1-.43.52,1.45,1.45,0,0,1-.68.24c-.17,0-.58,0-1.22,0H76.53Zm1,.83v1.16h1.4a.65.65,0,0,0,.41-.18.54.54,0,0,0,.15-.4.51.51,0,0,0-.13-.37.55.55,0,0,0-.38-.18c-.1,0-.39,0-.86,0Zm0,2v1.34h.94a4.59,4.59,0,0,0,.69,0,.67.67,0,0,0,.37-.2.6.6,0,0,0,.14-.43.59.59,0,0,0-.11-.38.57.57,0,0,0-.31-.23,3.4,3.4,0,0,0-.9-.07Z"/><path d="M81.61,328.27v-5h1v4.13h2.52v.84Z"/><path d="M85.86,328.27v-5h3.72v.85H86.87v1.11h2.52v.84H86.87v1.37h2.8v.84Z"/><path d="M92.47,323.26h1.85a3.3,3.3,0,0,1,1,.1,1.61,1.61,0,0,1,.76.46,2.18,2.18,0,0,1,.48.81,3.66,3.66,0,0,1,.16,1.18,3.37,3.37,0,0,1-.15,1.07,2.39,2.39,0,0,1-.54.89,1.73,1.73,0,0,1-.71.39,2.75,2.75,0,0,1-.9.11h-1.9Zm1,.85v3.32h.76a2.87,2.87,0,0,0,.61-.05.94.94,0,0,0,.41-.21,1.08,1.08,0,0,0,.26-.48,3.25,3.25,0,0,0,.1-.92,2.9,2.9,0,0,0-.1-.89,1.22,1.22,0,0,0-.28-.49,1,1,0,0,0-.47-.23,3.88,3.88,0,0,0-.83-.05Z"/><path d="M97.53,328.27v-5h3.71v.85h-2.7v1.11h2.52v.84H98.54v1.37h2.8v.84Z"/><path d="M104.15,328.27v-5h2.13a3.58,3.58,0,0,1,1.16.14,1.11,1.11,0,0,1,.59.48,1.45,1.45,0,0,1,.22.78,1.37,1.37,0,0,1-.34.94,1.59,1.59,0,0,1-1,.46,2.41,2.41,0,0,1,.54.42,4.81,4.81,0,0,1,.58.81l.61,1h-1.21l-.73-1.09c-.26-.39-.44-.63-.53-.74a.72.72,0,0,0-.31-.2,1.52,1.52,0,0,0-.51-.06h-.2v2.09Zm1-2.89h.75a4,4,0,0,0,.91-.06.54.54,0,0,0,.28-.21.65.65,0,0,0,.1-.38.61.61,0,0,0-.13-.41.67.67,0,0,0-.38-.2h-1.53Z"/><path d="M109.2,328.27v-5h3.71v.85h-2.7v1.11h2.52v.84h-2.52v1.37H113v.84Z"/><path d="M113.87,328.27v-5h1.62a5,5,0,0,1,1.2.08,1.22,1.22,0,0,1,.72.49,1.5,1.5,0,0,1,.3,1,1.67,1.67,0,0,1-.17.78,1.37,1.37,0,0,1-.43.49,1.44,1.44,0,0,1-.52.24,5.6,5.6,0,0,1-1,.07h-.66v1.89Zm1-4.16v1.42h.55a2.66,2.66,0,0,0,.8-.08.61.61,0,0,0,.32-.25.71.71,0,0,0,.11-.39.64.64,0,0,0-.16-.45.76.76,0,0,0-.4-.22,5.72,5.72,0,0,0-.73,0Z"/><path d="M118.33,325.8a3.27,3.27,0,0,1,.23-1.29,2.42,2.42,0,0,1,.47-.69,2,2,0,0,1,.64-.45,2.85,2.85,0,0,1,1.08-.2,2.37,2.37,0,0,1,1.78.69,3.08,3.08,0,0,1,0,3.81,2.62,2.62,0,0,1-3.54,0A2.57,2.57,0,0,1,118.33,325.8Zm1,0a1.83,1.83,0,0,0,.4,1.29,1.24,1.24,0,0,0,1,.44,1.27,1.27,0,0,0,1-.43,2.39,2.39,0,0,0,0-2.6,1.29,1.29,0,0,0-1-.42,1.26,1.26,0,0,0-1,.43A1.86,1.86,0,0,0,119.37,325.76Z"/><path d="M124,328.27v-5h2.13a3.6,3.6,0,0,1,1.17.14,1.09,1.09,0,0,1,.58.48,1.5,1.5,0,0,1-.11,1.72,1.59,1.59,0,0,1-1,.46,2.41,2.41,0,0,1,.54.42,5.47,5.47,0,0,1,.58.81l.61,1h-1.21l-.73-1.09a7.28,7.28,0,0,0-.54-.74.64.64,0,0,0-.3-.2,1.6,1.6,0,0,0-.51-.06H125v2.09Zm1-2.89h.75a3.89,3.89,0,0,0,.9-.06.56.56,0,0,0,.29-.21.65.65,0,0,0,.1-.38.61.61,0,0,0-.13-.41.66.66,0,0,0-.39-.2H125Z"/><path d="M130.16,328.27v-4.16h-1.48v-.85h4v.85h-1.49v4.16Z"/><path d="M133.31,328.27v-5H137v.85h-2.71v1.11h2.52v.84h-2.52v1.37h2.8v.84Z"/><path d="M87.65,236.12l1.1-.11a1,1,0,0,0,.27.59.8.8,0,0,0,.54.21.72.72,0,0,0,.58-.28,1.24,1.24,0,0,0,.24-.84,1.15,1.15,0,0,0-.24-.79.77.77,0,0,0-.62-.26,1.1,1.1,0,0,0-.84.41l-.89-.12.56-3h2.9v1H89.18l-.17,1a1.69,1.69,0,0,1,2,.35,1.92,1.92,0,0,1,.5,1.38,2,2,0,0,1-.41,1.26,1.79,1.79,0,0,1-1.55.76,1.94,1.94,0,0,1-1.29-.42A1.82,1.82,0,0,1,87.65,236.12Z"/><path d="M92.32,237.59V236.5h1.1v1.09Z"/><path d="M96.78,237.59v-5.72h2.43a4.34,4.34,0,0,1,1.34.15,1.35,1.35,0,0,1,.66.55,1.6,1.6,0,0,1,.25.9,1.51,1.51,0,0,1-.38,1.07,1.85,1.85,0,0,1-1.13.53,2.37,2.37,0,0,1,.62.48,6.51,6.51,0,0,1,.66.93l.7,1.11h-1.39l-.83-1.24a7.2,7.2,0,0,0-.61-.84.85.85,0,0,0-.35-.24,1.68,1.68,0,0,0-.58-.07h-.24v2.39Zm1.15-3.3h.86a4.3,4.3,0,0,0,1-.07.61.61,0,0,0,.32-.24.75.75,0,0,0,.12-.43.7.7,0,0,0-.15-.47.78.78,0,0,0-.44-.23H97.93Z"/><path d="M102.55,237.59v-5.72h4.25v1h-3.09v1.26h2.87v1h-2.87v1.56h3.2v1Z"/><path d="M107.59,235.73l1.13-.11a1.36,1.36,0,0,0,.41.83,1.25,1.25,0,0,0,.84.27,1.28,1.28,0,0,0,.84-.24.7.7,0,0,0,.28-.55.58.58,0,0,0-.11-.35,1,1,0,0,0-.42-.24,8.69,8.69,0,0,0-.93-.25,3.25,3.25,0,0,1-1.3-.57,1.51,1.51,0,0,1-.53-1.15,1.42,1.42,0,0,1,.25-.82,1.47,1.47,0,0,1,.71-.58,3,3,0,0,1,1.13-.2,2.43,2.43,0,0,1,1.62.47,1.67,1.67,0,0,1,.58,1.26l-1.16.05a1,1,0,0,0-.32-.63,1.14,1.14,0,0,0-.73-.19,1.3,1.3,0,0,0-.79.2.43.43,0,0,0-.18.36.44.44,0,0,0,.17.35,3,3,0,0,0,1.06.38,5.66,5.66,0,0,1,1.25.41,1.61,1.61,0,0,1,.63.58,1.74,1.74,0,0,1,.23.92,1.72,1.72,0,0,1-.27.92,1.71,1.71,0,0,1-.78.64,3.39,3.39,0,0,1-1.24.2,2.45,2.45,0,0,1-1.67-.5A2.18,2.18,0,0,1,107.59,235.73Z"/><path d="M113.22,237.59v-5.72h4.25v1h-3.09v1.26h2.87v1h-2.87v1.56h3.2v1Z"/><path d="M118.57,237.59v-5.72h1.13l2.34,3.82v-3.82h1.07v5.72H122l-2.3-3.73v3.73Zm1.44-6h-.5c0-.06,0-.11,0-.14a.93.93,0,0,1,.2-.63.67.67,0,0,1,.52-.22,1,1,0,0,1,.25,0,2.53,2.53,0,0,1,.43.17,1.28,1.28,0,0,0,.48.13.28.28,0,0,0,.21-.07.45.45,0,0,0,.11-.27h.51a1.15,1.15,0,0,1-.2.76.62.62,0,0,1-.5.22l-.26,0-.45-.16a1.75,1.75,0,0,0-.52-.14.28.28,0,0,0-.2.08A.43.43,0,0,0,120,231.55Z"/><path d="M129.5,237.59h-1.26l-.5-1.3h-2.29l-.47,1.3h-1.23l2.24-5.72h1.22Zm-2.13-2.26-.79-2.13-.77,2.13Z"/><path d="M132,231.87h2.11a3.83,3.83,0,0,1,1.09.11,1.82,1.82,0,0,1,.86.52,2.61,2.61,0,0,1,.55.93,4.39,4.39,0,0,1,.19,1.35,3.65,3.65,0,0,1-.18,1.22,2.57,2.57,0,0,1-.61,1,2.09,2.09,0,0,1-.81.45,3.59,3.59,0,0,1-1,.12H132Zm1.15,1v3.79h.87a2.79,2.79,0,0,0,.69-.06,1,1,0,0,0,.47-.23,1.14,1.14,0,0,0,.3-.56,3.6,3.6,0,0,0,.12-1.05,3.37,3.37,0,0,0-.12-1,1.23,1.23,0,0,0-.32-.55,1.15,1.15,0,0,0-.54-.27,5.06,5.06,0,0,0-.95,0Z"/><path d="M137.82,237.59v-5.72h4.24v1H139v1.26h2.88v1H139v1.56h3.2v1Z"/><path d="M145.38,237.59v-5.72h2.43a4.3,4.3,0,0,1,1.34.15,1.31,1.31,0,0,1,.66.55,1.6,1.6,0,0,1,.25.9,1.51,1.51,0,0,1-.38,1.07,1.85,1.85,0,0,1-1.13.53,2.37,2.37,0,0,1,.62.48,6.51,6.51,0,0,1,.66.93l.7,1.11h-1.38l-.84-1.24a7.2,7.2,0,0,0-.61-.84.85.85,0,0,0-.35-.24,1.64,1.64,0,0,0-.58-.07h-.23v2.39Zm1.16-3.3h.85a4.24,4.24,0,0,0,1-.07.61.61,0,0,0,.32-.24.75.75,0,0,0,.12-.43.7.7,0,0,0-.15-.47.75.75,0,0,0-.44-.23h-1.74Z"/><path d="M151.15,237.59v-5.72h4.25v1h-3.09v1.26h2.87v1h-2.87v1.56h3.2v1Z"/><path d="M158,237.59l-2-5.72h1.26l1.45,4.23,1.4-4.23h1.23l-2.06,5.72Z"/><path d="M161.79,237.59v-5.72H163v5.72Z"/><path d="M163.75,235.73l1.13-.11a1.36,1.36,0,0,0,.41.83,1.25,1.25,0,0,0,.84.27,1.28,1.28,0,0,0,.84-.24.7.7,0,0,0,.28-.55.58.58,0,0,0-.11-.35,1,1,0,0,0-.42-.24,8.69,8.69,0,0,0-.93-.25,3.25,3.25,0,0,1-1.3-.57,1.51,1.51,0,0,1-.53-1.15,1.42,1.42,0,0,1,.25-.82,1.52,1.52,0,0,1,.71-.58,3,3,0,0,1,1.13-.2,2.43,2.43,0,0,1,1.62.47,1.67,1.67,0,0,1,.58,1.26l-1.16.05a1,1,0,0,0-.32-.63,1.14,1.14,0,0,0-.73-.19,1.3,1.3,0,0,0-.79.2.43.43,0,0,0-.18.36.47.47,0,0,0,.17.35,3,3,0,0,0,1.06.38,5.66,5.66,0,0,1,1.25.41,1.61,1.61,0,0,1,.63.58,1.74,1.74,0,0,1,.23.92,1.72,1.72,0,0,1-.27.92,1.66,1.66,0,0,1-.78.64,3.39,3.39,0,0,1-1.24.2,2.45,2.45,0,0,1-1.67-.5A2.18,2.18,0,0,1,163.75,235.73Z"/><path d="M169.35,237.59v-5.72h1.15v5.72Z"/><path d="M171.37,234.77a3.69,3.69,0,0,1,.26-1.47,2.52,2.52,0,0,1,.54-.79,2.14,2.14,0,0,1,.74-.51,3,3,0,0,1,1.23-.23,2.7,2.7,0,0,1,2,.78,3.07,3.07,0,0,1,.76,2.19,3,3,0,0,1-.76,2.17,2.66,2.66,0,0,1-2,.78,2.69,2.69,0,0,1-2-.78A2.92,2.92,0,0,1,171.37,234.77Zm1.19,0a2.14,2.14,0,0,0,.45,1.47,1.48,1.48,0,0,0,1.14.5,1.45,1.45,0,0,0,1.14-.5,2.21,2.21,0,0,0,.44-1.49,2.13,2.13,0,0,0-.43-1.47,1.61,1.61,0,0,0-2.3,0A2.16,2.16,0,0,0,172.56,234.73Z"/><path d="M177.84,237.59v-5.72H179l2.34,3.82v-3.82h1.07v5.72h-1.16l-2.3-3.73v3.73Z"/><path d="M183.61,237.59v-5.72h4.24v1h-3.09v1.26h2.88v1h-2.88v1.56H188v1Z"/><path d="M188.65,235.73l1.12-.11a1.37,1.37,0,0,0,.42.83,1.2,1.2,0,0,0,.83.27,1.29,1.29,0,0,0,.85-.24.73.73,0,0,0,.28-.55.53.53,0,0,0-.12-.35,1,1,0,0,0-.42-.24,8.26,8.26,0,0,0-.92-.25,3.31,3.31,0,0,1-1.31-.57,1.53,1.53,0,0,1-.28-2,1.54,1.54,0,0,1,.72-.58,2.93,2.93,0,0,1,1.13-.2,2.43,2.43,0,0,1,1.62.47,1.7,1.7,0,0,1,.57,1.26l-1.15.05a1,1,0,0,0-.32-.63,1.19,1.19,0,0,0-.74-.19,1.29,1.29,0,0,0-.78.2.41.41,0,0,0-.19.36.47.47,0,0,0,.17.35,3.08,3.08,0,0,0,1.07.38,5.54,5.54,0,0,1,1.24.41,1.71,1.71,0,0,1,.64.58,1.79,1.79,0,0,1-.05,1.84,1.68,1.68,0,0,1-.77.64,3.44,3.44,0,0,1-1.25.2,2.47,2.47,0,0,1-1.67-.5A2.17,2.17,0,0,1,188.65,235.73Z"/><path d="M196.5,237.59v-5.72h2.44a4.23,4.23,0,0,1,1.33.15,1.33,1.33,0,0,1,.67.55,1.6,1.6,0,0,1,.25.9,1.56,1.56,0,0,1-.38,1.07,1.85,1.85,0,0,1-1.13.53,2.55,2.55,0,0,1,.62.48,5.9,5.9,0,0,1,.65.93l.7,1.11h-1.38l-.84-1.24a7.61,7.61,0,0,0-.6-.84.85.85,0,0,0-.35-.24,1.68,1.68,0,0,0-.58-.07h-.24v2.39Zm1.16-3.3h.86a4.3,4.3,0,0,0,1-.07.7.7,0,0,0,.32-.24.75.75,0,0,0,.12-.43.65.65,0,0,0-.16-.47.75.75,0,0,0-.43-.23h-1.75Z"/><path d="M202.28,237.59v-5.72h4.24v1h-3.09v1.26h2.88v1h-2.88v1.56h3.2v1Z"/><path d="M212.78,237.59h-1.26l-.5-1.3h-2.29l-.47,1.3H207l2.23-5.72h1.23Zm-2.13-2.26-.79-2.13-.77,2.13Z"/><path d="M213.42,237.59v-5.68h1.16v4.72h2.87v1Z"/><path d="M218.24,237.59v-5.72h1.16v5.72Z"/><path d="M220,237.59v-1l3-3.71h-2.67v-1h4.2v.9l-3.14,3.86h3.26v1Z"/><path d="M230.55,237.59h-1.26l-.5-1.3H226.5l-.47,1.3h-1.22l2.23-5.72h1.22Zm-2.13-2.26-.79-2.13-.77,2.13Z"/><path d="M231.16,231.87h2.11a3.83,3.83,0,0,1,1.09.11,1.85,1.85,0,0,1,.87.52,2.45,2.45,0,0,1,.54.93,4.11,4.11,0,0,1,.19,1.35,4,4,0,0,1-.17,1.22,2.59,2.59,0,0,1-.62,1,2.09,2.09,0,0,1-.81.45,3.51,3.51,0,0,1-1,.12h-2.18Zm1.16,1v3.79h.86a2.89,2.89,0,0,0,.7-.06,1,1,0,0,0,.47-.23,1.33,1.33,0,0,0,.3-.56,3.6,3.6,0,0,0,.12-1.05,3.37,3.37,0,0,0-.12-1,1.35,1.35,0,0,0-.33-.55,1.16,1.16,0,0,0-.53-.27,5.06,5.06,0,0,0-.95,0Z"/><path d="M242.11,237.59h-1.26l-.5-1.3h-2.29l-.47,1.3h-1.23l2.23-5.72h1.22ZM240,235.33l-.79-2.13-.77,2.13Z"/><path d="M242.43,235.73l1.12-.11a1.42,1.42,0,0,0,.41.83,1.51,1.51,0,0,0,1.68,0,.71.71,0,0,0,.29-.55.53.53,0,0,0-.12-.35,1,1,0,0,0-.42-.24,8.26,8.26,0,0,0-.92-.25,3.31,3.31,0,0,1-1.31-.57,1.5,1.5,0,0,1-.28-2,1.54,1.54,0,0,1,.72-.58,2.88,2.88,0,0,1,1.12-.2,2.48,2.48,0,0,1,1.63.47,1.7,1.7,0,0,1,.57,1.26l-1.16.05a1,1,0,0,0-.32-.63,1.14,1.14,0,0,0-.73-.19,1.32,1.32,0,0,0-.79.2.43.43,0,0,0-.18.36.47.47,0,0,0,.17.35A3.09,3.09,0,0,0,245,234a5.48,5.48,0,0,1,1.25.41,1.61,1.61,0,0,1,.63.58,1.65,1.65,0,0,1,.23.92,1.72,1.72,0,0,1-.27.92,1.68,1.68,0,0,1-.77.64,3.48,3.48,0,0,1-1.25.2,2.47,2.47,0,0,1-1.67-.5A2.13,2.13,0,0,1,242.43,235.73Z"/></g></g></svg>