<?xml version="1.0" encoding="utf-8"?>
<!-- Generator: Adobe Illustrator 25.0.0, SVG Export Plug-In . SVG Version: 6.00 Build 0)  -->
<svg version="1.1" id="Capa_1" xmlns="http://www.w3.org/2000/svg" xmlns:xlink="http://www.w3.org/1999/xlink" x="0px" y="0px"
	 viewBox="0 0 691 112.7" style="enable-background:new 0 0 691 112.7;" xml:space="preserve">
<style type="text/css">
	.st0{opacity:0.225;fill:#D268CC;enable-background:new    ;}
	.st1{fill:#00223D;}
	.st2{fill-rule:evenodd;clip-rule:evenodd;fill:#43433B;}
	.st3{fill:#D268CC;}
	.st4{fill-rule:evenodd;clip-rule:evenodd;fill:#D268CC;}
</style>
<g id="Grupo_42736" transform="translate(-353.508 -3638)">
	<path id="Rectángulo_31595" class="st0" d="M368.5,3638h616c8.3,0,15,6.7,15,15v65c0,8.3-6.7,15-15,15h-616c-8.3,0-15-6.7-15-15
		v-65C353.5,3644.7,360.2,3638,368.5,3638z"/>
	<path id="Trazado_112862" class="st1" d="M390.5,3647.6h5.8c1,0,2,0.3,2.8,1c0.7,0.7,1.1,1.7,1.1,2.7c0,1-0.3,1.9-0.9,2.6
		c-0.7,0.8-1.8,1.2-2.9,1.1h-4.1v5.5h-1.7V3647.6z M398.4,3651.3c0.1-0.8-0.3-1.6-1.1-1.9c-0.5-0.2-1-0.3-1.6-0.3h-3.5v4.5h3.5
		c0.7,0,1.3-0.1,1.9-0.5C398.2,3652.6,398.5,3652,398.4,3651.3z M403.4,3658c0,0.4,0.2,0.8,0.5,1.1c0.3,0.3,0.8,0.4,1.2,0.4
		c0.6,0,1.1-0.1,1.6-0.4c0.8-0.4,1.4-1.2,1.3-2.1v-1.3c-0.2,0.1-0.5,0.2-0.7,0.3c-0.3,0.1-0.6,0.1-0.9,0.2l-1,0.1
		c-0.4,0-0.9,0.2-1.3,0.4C403.6,3656.9,403.3,3657.5,403.4,3658z M407.2,3654.8c0.3,0,0.6-0.2,0.7-0.5c0.1-0.2,0.1-0.4,0.1-0.6
		c0-0.5-0.2-0.9-0.6-1.2c-0.5-0.3-1.1-0.4-1.6-0.4c-0.7-0.1-1.3,0.2-1.8,0.7c-0.2,0.3-0.4,0.7-0.4,1.1h-1.5c-0.1-1,0.4-1.9,1.1-2.4
		c0.8-0.5,1.6-0.7,2.5-0.7c0.9,0,1.9,0.2,2.7,0.6c0.7,0.4,1.1,1.2,1,2v5.4c0,0.1,0,0.3,0.1,0.4c0.1,0.1,0.3,0.2,0.4,0.1
		c0.1,0,0.1,0,0.2,0c0.1,0,0.2,0,0.3,0v1.2c-0.2,0.1-0.4,0.1-0.6,0.1c-0.2,0-0.4,0-0.5,0c-0.5,0-0.9-0.2-1.2-0.6
		c-0.1-0.3-0.2-0.6-0.3-0.9c-0.4,0.5-0.9,0.8-1.4,1.1c-0.6,0.3-1.3,0.5-2,0.5c-0.8,0-1.6-0.3-2.1-0.8c-0.5-0.5-0.8-1.2-0.8-2
		c0-0.8,0.3-1.5,0.8-2c0.6-0.5,1.4-0.8,2.1-0.9L407.2,3654.8z M412.2,3651.1h1.5v1.6c0.2-0.4,0.5-0.8,0.9-1.2c0.4-0.4,1-0.7,1.7-0.7
		c0,0,0.1,0,0.1,0s0.2,0,0.4,0v1.7c-0.1,0-0.2,0-0.3,0c-0.1,0-0.2,0-0.3,0c-0.7,0-1.4,0.2-1.8,0.8c-0.4,0.5-0.6,1.1-0.6,1.8v5.4
		h-1.6V3651.1z M419.4,3658c0,0.4,0.2,0.8,0.5,1.1c0.3,0.3,0.8,0.4,1.2,0.4c0.6,0,1.1-0.1,1.6-0.4c0.8-0.4,1.4-1.2,1.3-2.1v-1.3
		c-0.2,0.1-0.5,0.2-0.7,0.3c-0.3,0.1-0.6,0.1-0.9,0.2l-1,0.1c-0.4,0-0.9,0.2-1.3,0.4C419.6,3656.9,419.4,3657.5,419.4,3658z
		 M423.2,3654.8c0.3,0,0.6-0.2,0.7-0.5c0.1-0.2,0.1-0.4,0.1-0.6c0-0.5-0.2-0.9-0.6-1.2c-0.5-0.3-1.1-0.4-1.6-0.4
		c-0.7-0.1-1.3,0.2-1.8,0.7c-0.2,0.3-0.4,0.7-0.4,1.1h-1.5c-0.1-1,0.4-1.9,1.1-2.4c0.8-0.5,1.6-0.7,2.5-0.7c0.9,0,1.9,0.2,2.7,0.6
		c0.7,0.4,1.1,1.2,1,2v5.4c0,0.1,0,0.3,0.1,0.4c0.1,0.1,0.3,0.2,0.4,0.1c0.1,0,0.1,0,0.2,0c0.1,0,0.2,0,0.3,0v1.2
		c-0.2,0.1-0.4,0.1-0.6,0.1c-0.2,0-0.4,0-0.5,0c-0.5,0-0.9-0.2-1.2-0.6c-0.1-0.3-0.2-0.6-0.3-0.9c-0.4,0.5-0.9,0.8-1.4,1.1
		c-0.6,0.3-1.3,0.5-2,0.5c-0.8,0-1.6-0.3-2.1-0.8c-0.5-0.5-0.8-1.2-0.8-2c0-0.8,0.3-1.5,0.8-2c0.6-0.5,1.4-0.8,2.1-0.9L423.2,3654.8
		z M437.2,3659.4c0.7,0,1.4-0.3,1.8-0.9c0.5-0.8,0.8-1.8,0.7-2.8c0-0.7-0.1-1.3-0.3-1.9c-0.5-1.2-1.8-1.9-3.1-1.4
		c-0.7,0.3-1.2,0.8-1.4,1.5c-0.2,0.7-0.3,1.5-0.3,2.2c0,0.6,0.1,1.3,0.3,1.9C435.3,3658.9,436.2,3659.5,437.2,3659.4L437.2,3659.4z
		 M433.1,3651.1h1.5v1.2c0.3-0.4,0.6-0.7,1-1c0.6-0.4,1.2-0.5,1.9-0.5c1,0,2,0.4,2.7,1.2c0.8,1,1.2,2.2,1.1,3.5
		c0,2.1-0.5,3.5-1.6,4.4c-0.7,0.6-1.5,0.8-2.4,0.8c-0.6,0-1.2-0.1-1.8-0.5c-0.4-0.2-0.7-0.6-0.9-0.9v4.8h-1.6L433.1,3651.1z
		 M443.2,3651.1h1.5v1.6c0.2-0.4,0.5-0.8,0.9-1.2c0.4-0.4,1-0.7,1.7-0.7c0,0,0.1,0,0.1,0s0.2,0,0.4,0v1.7c-0.1,0-0.2,0-0.3,0
		c-0.1,0-0.2,0-0.3,0c-0.7,0-1.4,0.2-1.8,0.8c-0.4,0.5-0.6,1.1-0.6,1.8v5.4h-1.6L443.2,3651.1z M452.9,3659.5
		c0.9,0.1,1.8-0.4,2.2-1.2c0.4-0.8,0.6-1.7,0.6-2.6c0-0.7-0.1-1.5-0.4-2.1c-0.4-0.9-1.3-1.4-2.3-1.3c-0.9-0.1-1.7,0.4-2.1,1.1
		c-0.5,0.8-0.7,1.7-0.7,2.7c0,0.9,0.2,1.8,0.7,2.5C451.3,3659.2,452.1,3659.5,452.9,3659.5L452.9,3659.5z M453,3650.8
		c1.1,0,2.3,0.4,3.1,1.2c0.9,1,1.4,2.3,1.3,3.6c0.1,1.3-0.3,2.7-1.1,3.8c-0.8,1-2.1,1.6-3.4,1.5c-1.2,0.1-2.3-0.4-3.1-1.3
		c-0.8-1-1.2-2.3-1.1-3.5c-0.1-1.4,0.4-2.7,1.2-3.8C450.6,3651.3,451.8,3650.8,453,3650.8L453,3650.8z M459.6,3649.7
		c0-0.5,0.1-1,0.3-1.4c0.5-0.6,1.3-0.9,2.1-0.8c0.1,0,0.2,0,0.3,0c0.1,0,0.2,0,0.4,0v1.4c-0.2,0-0.3,0-0.4,0c-0.1,0-0.1,0-0.2,0
		c-0.5,0-0.8,0.1-0.9,0.4c-0.1,0.6-0.2,1.3-0.1,1.9h1.6v1.2h-1.6v8.1h-1.6v-8.1h-1.3v-1.2h1.3L459.6,3649.7z M465.8,3651.1v6.2
		c0,0.4,0.1,0.8,0.2,1.2c0.3,0.6,0.9,0.9,1.6,0.8c1,0.1,1.9-0.5,2.2-1.5c0.2-0.7,0.4-1.4,0.3-2.2v-4.6h1.6v9.4h-1.5l0-1.4
		c-0.2,0.3-0.5,0.7-0.8,0.9c-0.6,0.5-1.4,0.8-2.2,0.7c-1.1,0.1-2.2-0.4-2.7-1.3c-0.3-0.6-0.4-1.3-0.4-1.9v-6.4L465.8,3651.1z
		 M474.2,3651.1h1.5v1.3c0.4-0.5,0.9-0.9,1.4-1.2c0.5-0.2,1.1-0.4,1.7-0.4c1.1-0.1,2.2,0.4,2.7,1.4c0.3,0.7,0.4,1.4,0.4,2.2v6h-1.6
		v-5.9c0-0.5-0.1-1-0.3-1.4c-0.3-0.6-0.9-0.9-1.5-0.9c-0.3,0-0.6,0-0.9,0.1c-0.4,0.1-0.8,0.4-1.1,0.8c-0.2,0.3-0.4,0.6-0.5,1
		c-0.1,0.5-0.1,0.9-0.1,1.4v4.9h-1.6L474.2,3651.1z M485.2,3655.9c0,0.9,0.2,1.8,0.6,2.5c0.4,0.7,1.2,1.1,2.1,1
		c0.7,0,1.4-0.3,1.8-0.9c0.5-0.8,0.8-1.8,0.7-2.7c0.1-0.9-0.2-1.9-0.7-2.6c-0.4-0.5-1.1-0.9-1.8-0.9c-0.8,0-1.5,0.3-1.9,0.9
		C485.4,3654,485.2,3654.9,485.2,3655.9z M487.6,3650.9c0.6,0,1.3,0.1,1.8,0.5c0.4,0.3,0.7,0.6,1,0.9v-4.8h1.5v13h-1.4v-1.3
		c-0.3,0.5-0.8,1-1.3,1.3c-0.5,0.3-1.1,0.4-1.7,0.4c-1.1,0-2.1-0.5-2.7-1.3c-0.8-1-1.2-2.2-1.2-3.5c0-1.3,0.3-2.5,1.1-3.6
		C485.3,3651.4,486.4,3650.9,487.6,3650.9z M494.2,3651.1h1.6v9.4h-1.6V3651.1z M494.2,3647.6h1.6v1.8h-1.6V3647.6z M497.5,3659.3
		l5.6-6.8h-5.2v-1.4h7.3v1.3l-5.5,6.7h5.7v1.4h-7.9L497.5,3659.3z M508.5,3658c0,0.4,0.2,0.8,0.5,1.1c0.3,0.3,0.8,0.4,1.2,0.4
		c0.6,0,1.1-0.1,1.6-0.4c0.8-0.4,1.4-1.2,1.3-2.1v-1.3c-0.2,0.1-0.5,0.2-0.7,0.3c-0.3,0.1-0.6,0.1-0.9,0.2l-1,0.1
		c-0.4,0-0.9,0.2-1.3,0.4C508.7,3656.9,508.4,3657.5,508.5,3658z M512.3,3654.8c0.3,0,0.6-0.2,0.7-0.5c0.1-0.2,0.1-0.4,0.1-0.6
		c0-0.5-0.2-0.9-0.6-1.2c-0.5-0.3-1.1-0.4-1.6-0.4c-0.7-0.1-1.3,0.2-1.8,0.7c-0.2,0.3-0.4,0.7-0.4,1.1h-1.5c-0.1-1,0.4-1.9,1.1-2.4
		c0.8-0.5,1.6-0.7,2.5-0.7c0.9,0,1.9,0.2,2.7,0.6c0.7,0.4,1.1,1.2,1,2v5.4c0,0.1,0,0.3,0.1,0.4c0.1,0.1,0.3,0.2,0.4,0.1
		c0.1,0,0.1,0,0.2,0c0.1,0,0.2,0,0.3,0v1.2c-0.2,0.1-0.4,0.1-0.6,0.1c-0.2,0-0.4,0-0.5,0c-0.5,0-0.9-0.2-1.2-0.6
		c-0.1-0.3-0.2-0.6-0.3-0.9c-0.4,0.5-0.9,0.8-1.4,1.1c-0.6,0.3-1.3,0.5-2,0.5c-0.8,0-1.6-0.3-2.1-0.8c-0.5-0.5-0.8-1.2-0.8-2
		c0-0.8,0.3-1.5,0.8-2c0.6-0.5,1.4-0.8,2.1-0.9L512.3,3654.8z M517.3,3651.1h1.5v1.6c0.2-0.4,0.5-0.8,0.9-1.2c0.4-0.4,1-0.7,1.7-0.7
		c0,0,0.1,0,0.1,0s0.2,0,0.4,0v1.7c-0.1,0-0.2,0-0.3,0c-0.1,0-0.2,0-0.3,0c-0.7,0-1.4,0.2-1.8,0.8c-0.4,0.5-0.6,1.1-0.6,1.8v5.4
		h-1.6L517.3,3651.1z M532.2,3650.9c0.7,0,1.3,0.2,1.9,0.5c0.6,0.3,1.1,0.7,1.4,1.2c0.3,0.5,0.5,1.1,0.6,1.7
		c0.1,0.7,0.2,1.4,0.1,2.1h-6.9c0,0.8,0.2,1.6,0.7,2.3c0.5,0.6,1.2,0.9,2,0.9c0.7,0,1.5-0.3,2-0.8c0.3-0.3,0.5-0.7,0.6-1.1h1.6
		c-0.1,0.4-0.2,0.8-0.4,1.2c-0.2,0.4-0.5,0.7-0.8,1c-0.5,0.5-1.1,0.8-1.8,0.9c-0.4,0.1-0.9,0.1-1.3,0.1c-1.1,0-2.2-0.4-3-1.3
		c-0.9-1-1.3-2.3-1.2-3.6c-0.1-1.3,0.4-2.6,1.2-3.7C529.7,3651.4,530.9,3650.8,532.2,3650.9L532.2,3650.9z M534.7,3655
		c0-0.6-0.2-1.1-0.4-1.6c-0.4-0.8-1.3-1.2-2.2-1.1c-0.7,0-1.4,0.3-1.8,0.8c-0.5,0.5-0.8,1.3-0.8,2L534.7,3655z M538.3,3651.1h1.5
		v1.3c0.4-0.5,0.9-0.9,1.4-1.2c0.5-0.2,1.1-0.4,1.7-0.4c1.1-0.1,2.2,0.4,2.7,1.4c0.3,0.7,0.4,1.4,0.4,2.2v6h-1.6v-5.9
		c0-0.5-0.1-1-0.3-1.4c-0.3-0.6-0.9-0.9-1.5-0.9c-0.3,0-0.6,0-0.9,0.1c-0.4,0.1-0.8,0.4-1.1,0.8c-0.2,0.3-0.4,0.6-0.5,1
		c-0.1,0.5-0.1,0.9-0.1,1.4v4.9h-1.6L538.3,3651.1z M557.2,3650.9c0.7,0,1.3,0.2,1.9,0.5c0.6,0.3,1.1,0.7,1.4,1.2
		c0.3,0.5,0.5,1.1,0.6,1.7c0.1,0.7,0.2,1.4,0.1,2.1h-6.9c0,0.8,0.2,1.6,0.7,2.3c0.5,0.6,1.2,0.9,2,0.9c0.7,0,1.5-0.3,2-0.8
		c0.3-0.3,0.5-0.7,0.6-1.1h1.6c-0.1,0.4-0.2,0.8-0.4,1.2c-0.2,0.4-0.5,0.7-0.8,1c-0.5,0.5-1.1,0.8-1.8,0.9c-0.4,0.1-0.9,0.1-1.3,0.1
		c-1.1,0-2.2-0.4-3-1.3c-0.9-1-1.3-2.3-1.2-3.6c-0.1-1.3,0.4-2.6,1.2-3.7C554.8,3651.4,556,3650.8,557.2,3650.9L557.2,3650.9z
		 M559.7,3655c0-0.6-0.2-1.1-0.4-1.6c-0.4-0.8-1.3-1.2-2.2-1.1c-0.7,0-1.4,0.3-1.8,0.8c-0.5,0.5-0.8,1.3-0.8,2H559.7z M563.3,3647.6
		h1.6v12.9h-1.6L563.3,3647.6z M575.9,3650.8c0.9,0,1.8,0.2,2.6,0.8c0.7,0.7,1.2,1.6,1.2,2.7h-1.5c-0.1-0.5-0.3-1-0.6-1.4
		c-0.4-0.4-1-0.6-1.6-0.6c-1,0-1.8,0.6-2.2,1.5c-0.3,0.8-0.4,1.6-0.4,2.4c0,0.8,0.2,1.7,0.6,2.4c0.7,1,2.2,1.3,3.2,0.5
		c0.1-0.1,0.1-0.1,0.2-0.2c0.4-0.5,0.7-1,0.8-1.6h1.5c-0.1,1-0.5,2-1.3,2.7c-0.8,0.6-1.7,0.9-2.7,0.9c-1.1,0-2.2-0.5-2.9-1.3
		c-0.8-1-1.1-2.2-1.1-3.4c-0.1-1.4,0.3-2.8,1.2-3.9C573.6,3651.3,574.7,3650.8,575.9,3650.8z M582.5,3658c0,0.4,0.2,0.8,0.5,1.1
		c0.3,0.3,0.8,0.4,1.2,0.4c0.6,0,1.1-0.1,1.6-0.4c0.8-0.4,1.4-1.2,1.3-2.1v-1.3c-0.2,0.1-0.5,0.2-0.7,0.3c-0.3,0.1-0.6,0.1-0.9,0.2
		l-1,0.1c-0.4,0-0.9,0.2-1.3,0.4C582.7,3656.9,582.5,3657.5,582.5,3658L582.5,3658z M586.3,3654.8c0.3,0,0.6-0.2,0.7-0.5
		c0.1-0.2,0.1-0.4,0.1-0.6c0-0.5-0.2-0.9-0.6-1.2c-0.5-0.3-1.1-0.4-1.6-0.4c-0.7-0.1-1.3,0.2-1.8,0.7c-0.2,0.3-0.4,0.7-0.4,1.1h-1.5
		c-0.1-0.9,0.4-1.9,1.1-2.4c0.8-0.5,1.6-0.7,2.5-0.7c0.9,0,1.9,0.2,2.7,0.6c0.7,0.4,1.1,1.2,1,2v5.4c0,0.1,0,0.3,0.1,0.4
		c0.1,0.1,0.3,0.2,0.4,0.1c0.1,0,0.1,0,0.2,0c0.1,0,0.2,0,0.3,0v1.2c-0.2,0.1-0.4,0.1-0.6,0.1c-0.2,0-0.4,0-0.5,0
		c-0.5,0-0.9-0.2-1.2-0.6c-0.1-0.3-0.2-0.6-0.3-0.9c-0.4,0.5-0.9,0.8-1.4,1.1c-0.6,0.3-1.3,0.5-2,0.5c-0.8,0-1.6-0.3-2.1-0.8
		c-0.5-0.5-0.8-1.2-0.8-2c0-0.8,0.3-1.5,0.8-2c0.6-0.5,1.4-0.8,2.1-0.9L586.3,3654.8z M587,3647.3l-2.3,2.5h-1.2l1.6-2.5L587,3647.3
		z M878.9,3670l-2.3,2.5h-1.2l1.6-2.5L878.9,3670z M591.3,3647.6h1.6v12.9h-1.6V3647.6z M598.9,3650.8c0.9,0,1.8,0.2,2.6,0.8
		c0.7,0.7,1.2,1.6,1.2,2.7h-1.5c-0.1-0.5-0.3-1-0.6-1.4c-0.4-0.4-1-0.6-1.6-0.6c-1,0-1.8,0.6-2.2,1.5c-0.3,0.8-0.4,1.6-0.4,2.4
		c0,0.8,0.2,1.7,0.6,2.4c0.7,1,2.2,1.3,3.2,0.5c0.1-0.1,0.1-0.1,0.2-0.2c0.4-0.5,0.7-1,0.8-1.6h1.5c-0.1,1-0.5,2-1.3,2.7
		c-0.8,0.6-1.7,0.9-2.7,0.9c-1.1,0-2.2-0.5-2.9-1.3c-0.8-1-1.1-2.2-1.1-3.4c-0.1-1.4,0.3-2.8,1.2-3.9
		C596.6,3651.3,597.7,3650.8,598.9,3650.8L598.9,3650.8z M605.9,3651.1v6.2c0,0.4,0.1,0.8,0.2,1.2c0.3,0.6,0.9,0.9,1.6,0.8
		c1,0.1,1.9-0.5,2.2-1.5c0.2-0.7,0.4-1.4,0.3-2.2v-4.6h1.6v9.4h-1.5l0-1.4c-0.2,0.3-0.5,0.7-0.8,0.9c-0.6,0.5-1.4,0.8-2.2,0.7
		c-1.1,0.1-2.2-0.4-2.7-1.3c-0.3-0.6-0.4-1.3-0.4-1.9v-6.4L605.9,3651.1z M614.3,3647.6h1.6v12.9h-1.6V3647.6z M622,3659.5
		c0.9,0.1,1.8-0.4,2.2-1.2c0.4-0.8,0.6-1.7,0.6-2.6c0-0.7-0.1-1.5-0.4-2.1c-0.4-0.9-1.3-1.4-2.3-1.3c-0.9-0.1-1.7,0.4-2.1,1.1
		c-0.5,0.8-0.7,1.7-0.7,2.7c0,0.9,0.2,1.8,0.7,2.5C620.4,3659.2,621.2,3659.5,622,3659.5L622,3659.5z M622.1,3650.8
		c1.1,0,2.3,0.4,3.1,1.2c0.9,1,1.4,2.3,1.3,3.6c0.1,1.3-0.3,2.7-1.1,3.8c-0.8,1-2.1,1.6-3.4,1.5c-1.2,0.1-2.3-0.4-3.1-1.3
		c-0.8-1-1.2-2.3-1.1-3.5c-0.1-1.4,0.4-2.7,1.2-3.8C619.7,3651.3,620.9,3650.8,622.1,3650.8L622.1,3650.8z M639.2,3651.1h1.7
		c-0.2,0.6-0.7,2-1.5,4.1c-0.6,1.6-1.1,2.9-1.4,4c-0.5,1.5-1.2,3-1.9,4.4c-0.5,0.6-1.2,0.9-1.9,0.8c-0.2,0-0.3,0-0.5,0
		c-0.1,0-0.3-0.1-0.4-0.1v-1.4c0.2,0.1,0.4,0.1,0.6,0.1c0.1,0,0.2,0,0.3,0c0.2,0,0.4,0,0.6-0.1c0.1-0.1,0.3-0.2,0.3-0.4
		c0,0,0.1-0.3,0.3-0.7s0.3-0.8,0.4-1l-3.5-9.7h1.8l2.5,7.7L639.2,3651.1z M647.3,3651.1h1.6v1.3c0.3-0.4,0.6-0.7,1-1
		c0.5-0.4,1.1-0.5,1.8-0.5c0.6,0,1.3,0.2,1.8,0.6c0.3,0.3,0.5,0.6,0.7,0.9c0.3-0.5,0.7-0.9,1.2-1.1c0.5-0.2,1-0.4,1.6-0.4
		c1.1-0.1,2.1,0.4,2.6,1.4c0.3,0.6,0.4,1.3,0.4,2v6.3h-1.6v-6.5c0.1-0.5-0.1-1-0.5-1.3c-0.3-0.2-0.7-0.4-1.1-0.4
		c-0.6,0-1.2,0.2-1.6,0.6c-0.5,0.6-0.7,1.3-0.7,2.1v5.5h-1.6v-6.1c0-0.5,0-1-0.2-1.4c-0.3-0.5-0.8-0.7-1.3-0.7
		c-0.6,0-1.2,0.3-1.6,0.7c-0.6,0.7-0.8,1.6-0.7,2.5v5h-1.6L647.3,3651.1z M666.2,3650.9c0.7,0,1.3,0.2,1.9,0.5
		c0.6,0.3,1.1,0.7,1.4,1.2c0.3,0.5,0.5,1.1,0.6,1.7c0.1,0.7,0.2,1.4,0.1,2.1h-6.9c0,0.8,0.2,1.6,0.7,2.3c0.5,0.6,1.2,0.9,2,0.9
		c0.7,0,1.5-0.3,2-0.8c0.3-0.3,0.5-0.7,0.6-1.1h1.6c-0.1,0.4-0.2,0.8-0.4,1.2c-0.2,0.4-0.5,0.7-0.8,1c-0.5,0.5-1.1,0.8-1.8,0.9
		c-0.4,0.1-0.9,0.1-1.3,0.1c-1.1,0-2.2-0.4-3-1.3c-0.9-1-1.3-2.3-1.2-3.6c-0.1-1.3,0.4-2.6,1.2-3.7
		C663.8,3651.4,665,3650.8,666.2,3650.9L666.2,3650.9z M668.7,3655c0-0.6-0.2-1.1-0.4-1.6c-0.4-0.8-1.3-1.2-2.2-1.1
		c-0.7,0-1.4,0.3-1.8,0.8c-0.5,0.5-0.8,1.3-0.8,2L668.7,3655z M668.1,3647.3l-2.3,2.5h-1.2l1.6-2.5H668.1z M672.6,3648.5h1.6v2.6
		h1.5v1.3h-1.5v6.1c0,0.3,0.1,0.5,0.3,0.7c0.2,0.1,0.4,0.1,0.6,0.1c0.1,0,0.2,0,0.2,0c0.1,0,0.2,0,0.3,0v1.2
		c-0.2,0.1-0.4,0.1-0.6,0.1c-0.2,0-0.4,0-0.6,0c-0.6,0.1-1.1-0.1-1.5-0.6c-0.3-0.4-0.4-1-0.4-1.5v-6.2h-1.3v-1.3h1.3L672.6,3648.5z
		 M681.1,3659.5c0.9,0.1,1.8-0.4,2.2-1.2c0.4-0.8,0.6-1.7,0.6-2.7c0-0.7-0.1-1.5-0.4-2.1c-0.4-0.9-1.3-1.4-2.3-1.3
		c-0.9-0.1-1.7,0.4-2.1,1.1c-0.5,0.8-0.7,1.7-0.7,2.7c0,0.9,0.2,1.8,0.7,2.5C679.4,3659.2,680.2,3659.5,681.1,3659.5L681.1,3659.5z
		 M681.1,3650.8c1.1,0,2.3,0.4,3.1,1.2c0.9,1,1.4,2.3,1.3,3.6c0.1,1.3-0.3,2.7-1.1,3.8c-0.8,1-2.1,1.6-3.4,1.5
		c-1.2,0.1-2.3-0.4-3.1-1.3c-0.8-1-1.2-2.3-1.1-3.5c-0.1-1.4,0.4-2.7,1.2-3.8C678.7,3651.3,679.9,3650.8,681.1,3650.8L681.1,3650.8z
		 M688.3,3655.9c0,0.9,0.2,1.8,0.6,2.5c0.4,0.7,1.2,1.1,2.1,1c0.7,0,1.4-0.3,1.8-0.9c0.5-0.8,0.8-1.8,0.7-2.7
		c0.1-0.9-0.2-1.9-0.7-2.6c-0.4-0.5-1.1-0.9-1.8-0.9c-0.8,0-1.5,0.3-1.9,0.9C688.5,3654,688.3,3654.9,688.3,3655.9z M690.7,3650.9
		c0.6,0,1.3,0.1,1.8,0.5c0.4,0.3,0.7,0.6,1,0.9v-4.8h1.5v13h-1.4v-1.3c-0.3,0.5-0.8,1-1.3,1.3c-0.5,0.3-1.1,0.4-1.7,0.4
		c-1.1,0-2.1-0.5-2.7-1.3c-0.8-1-1.2-2.2-1.2-3.5c0-1.3,0.3-2.5,1-3.6C688.4,3651.4,689.5,3650.9,690.7,3650.9z M701.1,3659.5
		c0.9,0.1,1.8-0.4,2.2-1.2c0.4-0.8,0.6-1.7,0.6-2.7c0-0.7-0.1-1.5-0.4-2.1c-0.4-0.9-1.3-1.4-2.3-1.3c-0.9-0.1-1.7,0.4-2.1,1.1
		c-0.5,0.8-0.7,1.7-0.7,2.7c0,0.9,0.2,1.8,0.7,2.5C699.4,3659.2,700.2,3659.5,701.1,3659.5L701.1,3659.5z M701.1,3650.8
		c1.1,0,2.3,0.4,3.1,1.2c0.9,1,1.4,2.3,1.3,3.6c0.1,1.3-0.3,2.7-1.1,3.8c-0.8,1-2.1,1.6-3.4,1.5c-1.2,0.1-2.3-0.4-3.1-1.3
		c-0.8-1-1.2-2.3-1.1-3.5c-0.1-1.4,0.4-2.7,1.2-3.8C698.7,3651.3,699.9,3650.8,701.1,3650.8L701.1,3650.8z M713.4,3655.9
		c0,0.9,0.2,1.8,0.6,2.5c0.4,0.7,1.2,1.1,2.1,1c0.7,0,1.4-0.3,1.8-0.9c0.5-0.8,0.8-1.8,0.7-2.7c0.1-0.9-0.2-1.9-0.7-2.6
		c-0.4-0.5-1.1-0.9-1.8-0.9c-0.8,0-1.5,0.3-1.9,0.9C713.5,3654,713.3,3654.9,713.4,3655.9z M715.7,3650.9c0.6,0,1.3,0.1,1.8,0.5
		c0.4,0.3,0.7,0.6,1,0.9v-4.8h1.5v13h-1.4v-1.3c-0.3,0.5-0.8,1-1.3,1.3c-0.5,0.3-1.1,0.4-1.7,0.4c-1.1,0-2.1-0.5-2.7-1.3
		c-0.8-1-1.2-2.2-1.2-3.5c0-1.3,0.3-2.5,1-3.6C713.4,3651.4,714.5,3650.9,715.7,3650.9L715.7,3650.9z M726.3,3650.9
		c0.7,0,1.3,0.2,1.9,0.5c0.6,0.3,1.1,0.7,1.4,1.2c0.3,0.5,0.5,1.1,0.6,1.7c0.1,0.7,0.2,1.4,0.1,2.1h-6.9c0,0.8,0.2,1.6,0.7,2.3
		c0.5,0.6,1.2,0.9,2,0.9c0.7,0,1.5-0.3,2-0.8c0.3-0.3,0.5-0.7,0.6-1.1h1.6c-0.1,0.4-0.2,0.8-0.4,1.2c-0.2,0.4-0.5,0.7-0.8,1
		c-0.5,0.5-1.1,0.8-1.8,0.9c-0.4,0.1-0.9,0.1-1.3,0.1c-1.1,0-2.2-0.4-3-1.3c-0.9-1-1.3-2.3-1.2-3.6c-0.1-1.3,0.4-2.6,1.2-3.7
		C723.9,3651.4,725,3650.8,726.3,3650.9L726.3,3650.9z M728.8,3655c0-0.6-0.2-1.1-0.4-1.6c-0.4-0.8-1.3-1.2-2.2-1.1
		c-0.7,0-1.4,0.3-1.8,0.8c-0.5,0.5-0.8,1.3-0.8,2H728.8z M740.7,3650.9c0.7,0,1.4,0.2,1.9,0.5c0.3,0.3,0.7,0.6,0.9,0.9v-1.2h1.5v8.6
		c0,1-0.1,1.9-0.5,2.8c-0.7,1.3-2.2,2.1-3.7,1.9c-0.9,0-1.8-0.2-2.6-0.7c-0.7-0.5-1.1-1.3-1.2-2.1h1.6c0,0.4,0.2,0.7,0.5,1
		c1.3,0.9,3.1,0.6,4-0.7c0,0,0,0,0-0.1c0.3-0.9,0.4-1.8,0.3-2.7c-0.3,0.4-0.7,0.8-1.1,1.1c-1.5,0.7-3.2,0.4-4.4-0.7
		c-0.9-1-1.3-2.3-1.1-3.6c-0.1-1.3,0.3-2.6,1.2-3.7C738.6,3651.4,739.6,3650.9,740.7,3650.9z M743.5,3655.8c0.1-0.9-0.2-1.8-0.7-2.6
		c-0.5-0.5-1.1-0.9-1.8-0.8c-1-0.1-2,0.6-2.3,1.6c-0.2,0.7-0.4,1.4-0.3,2.2c-0.1,0.9,0.2,1.7,0.6,2.4c0.4,0.5,1.1,0.9,1.7,0.8
		c1,0.1,2-0.6,2.4-1.5C743.4,3657.1,743.6,3656.4,743.5,3655.8L743.5,3655.8z M747.4,3651.1h1.5v1.6c0.2-0.4,0.5-0.8,0.9-1.2
		c0.4-0.4,1-0.7,1.7-0.7c0,0,0.1,0,0.1,0c0.1,0,0.2,0,0.4,0v1.7c-0.1,0-0.2,0-0.3,0c-0.1,0-0.2,0-0.3,0c-0.7,0-1.4,0.2-1.8,0.8
		c-0.4,0.5-0.6,1.1-0.6,1.8v5.4h-1.6L747.4,3651.1z M754.6,3658c0,0.4,0.2,0.8,0.5,1.1c0.3,0.3,0.8,0.4,1.2,0.4
		c0.6,0,1.1-0.1,1.6-0.4c0.8-0.4,1.4-1.2,1.3-2.1v-1.3c-0.2,0.1-0.5,0.2-0.7,0.3c-0.3,0.1-0.6,0.1-0.9,0.2l-1,0.1
		c-0.4,0-0.9,0.2-1.3,0.4C754.8,3656.9,754.6,3657.5,754.6,3658L754.6,3658z M758.4,3654.8c0.3,0,0.6-0.2,0.7-0.5
		c0.1-0.2,0.1-0.4,0.1-0.6c0-0.5-0.2-0.9-0.6-1.2c-0.5-0.3-1.1-0.4-1.6-0.4c-0.7-0.1-1.3,0.2-1.8,0.7c-0.2,0.3-0.4,0.7-0.4,1.1h-1.5
		c-0.1-0.9,0.4-1.9,1.1-2.4c0.8-0.5,1.6-0.7,2.5-0.7c0.9,0,1.9,0.2,2.7,0.6c0.7,0.4,1.1,1.2,1,2v5.4c0,0.1,0,0.3,0.1,0.4
		c0.1,0.1,0.3,0.2,0.4,0.1c0.1,0,0.1,0,0.2,0c0.1,0,0.2,0,0.3,0v1.2c-0.2,0.1-0.4,0.1-0.6,0.1c-0.2,0-0.4,0-0.5,0
		c-0.5,0-0.9-0.2-1.2-0.6c-0.1-0.3-0.2-0.6-0.3-0.9c-0.4,0.5-0.9,0.8-1.4,1.1c-0.6,0.3-1.3,0.5-2,0.5c-0.8,0-1.6-0.3-2.1-0.8
		c-0.5-0.5-0.8-1.2-0.8-2c0-0.8,0.3-1.5,0.8-2c0.6-0.5,1.4-0.8,2.1-0.9L758.4,3654.8z M763.8,3649.7c0-0.5,0.1-1,0.3-1.4
		c0.5-0.6,1.3-0.9,2.1-0.8c0.1,0,0.2,0,0.3,0c0.1,0,0.2,0,0.4,0v1.4c-0.2,0-0.3,0-0.4,0c-0.1,0-0.1,0-0.2,0c-0.5,0-0.8,0.1-0.9,0.4
		c-0.1,0.6-0.2,1.3-0.1,1.9h1.6v1.2h-1.6v8.1h-1.6v-8.1h-1.3v-1.2h1.3L763.8,3649.7z M768.5,3649.4v-1.8h1.6v1.8L768.5,3649.4z
		 M768.5,3651.1h1.6v9.4h-1.6V3651.1z M776,3650.8c0.9,0,1.8,0.2,2.6,0.8c0.7,0.7,1.2,1.6,1.2,2.7h-1.5c-0.1-0.5-0.3-1-0.6-1.4
		c-0.4-0.4-1-0.6-1.6-0.6c-1,0-1.8,0.6-2.2,1.5c-0.3,0.8-0.4,1.6-0.4,2.4c0,0.8,0.2,1.7,0.6,2.4c0.7,1,2.2,1.3,3.2,0.5
		c0.1-0.1,0.1-0.1,0.2-0.2c0.4-0.5,0.7-1,0.8-1.6h1.5c-0.1,1-0.5,2-1.3,2.7c-0.8,0.6-1.7,0.9-2.7,0.9c-1.1,0-2.2-0.5-2.9-1.3
		c-0.8-1-1.1-2.2-1.1-3.4c-0.1-1.4,0.3-2.8,1.2-3.9C773.7,3651.3,774.8,3650.8,776,3650.8L776,3650.8z M782.6,3658
		c0,0.4,0.2,0.8,0.5,1.1c0.3,0.3,0.8,0.4,1.2,0.4c0.6,0,1.1-0.1,1.6-0.4c0.8-0.4,1.4-1.2,1.3-2.1v-1.3c-0.2,0.1-0.5,0.2-0.7,0.3
		c-0.3,0.1-0.6,0.1-0.9,0.2l-1,0.1c-0.4,0-0.9,0.2-1.3,0.4C782.8,3656.9,782.6,3657.5,782.6,3658L782.6,3658z M786.4,3654.8
		c0.3,0,0.6-0.2,0.7-0.5c0.1-0.2,0.1-0.4,0.1-0.6c0-0.5-0.2-0.9-0.6-1.2c-0.5-0.3-1.1-0.4-1.6-0.4c-0.7-0.1-1.3,0.2-1.8,0.7
		c-0.2,0.3-0.4,0.7-0.4,1.1h-1.5c-0.1-0.9,0.4-1.9,1.1-2.4c0.8-0.5,1.6-0.7,2.5-0.7c0.9,0,1.9,0.2,2.7,0.6c0.7,0.4,1.1,1.2,1,2v5.4
		c0,0.1,0,0.3,0.1,0.4c0.1,0.1,0.3,0.2,0.4,0.1c0.1,0,0.1,0,0.2,0c0.1,0,0.2,0,0.3,0v1.2c-0.2,0.1-0.4,0.1-0.6,0.1
		c-0.2,0-0.4,0-0.5,0c-0.5,0-0.9-0.2-1.2-0.6c-0.1-0.3-0.2-0.6-0.3-0.9c-0.4,0.5-0.9,0.8-1.4,1.1c-0.6,0.3-1.3,0.5-2,0.5
		c-0.8,0-1.6-0.3-2.1-0.8c-0.5-0.5-0.8-1.2-0.8-2c0-0.8,0.3-1.5,0.8-2c0.6-0.5,1.4-0.8,2.1-0.9L786.4,3654.8z M791.4,3651.1h1.5v1.6
		c0.2-0.4,0.5-0.8,0.9-1.2c0.4-0.4,1-0.7,1.7-0.7c0,0,0.1,0,0.1,0c0.1,0,0.2,0,0.4,0v1.7c-0.1,0-0.2,0-0.3,0c-0.1,0-0.2,0-0.3,0
		c-0.7,0-1.4,0.2-1.8,0.8c-0.4,0.5-0.6,1.1-0.6,1.8v5.4h-1.6L791.4,3651.1z M802.4,3647.6h1.6v12.9h-1.6V3647.6z M807.6,3658
		c0,0.4,0.2,0.8,0.5,1.1c0.3,0.3,0.8,0.4,1.2,0.4c0.6,0,1.1-0.1,1.6-0.4c0.8-0.4,1.4-1.2,1.3-2.1v-1.3c-0.2,0.1-0.5,0.2-0.7,0.3
		c-0.3,0.1-0.6,0.1-0.9,0.2l-1,0.1c-0.4,0-0.9,0.2-1.3,0.4C807.9,3656.9,807.6,3657.5,807.6,3658z M811.4,3654.8
		c0.3,0,0.6-0.2,0.7-0.5c0.1-0.2,0.1-0.4,0.1-0.6c0-0.5-0.2-0.9-0.6-1.2c-0.5-0.3-1.1-0.4-1.6-0.4c-0.7-0.1-1.3,0.2-1.8,0.7
		c-0.2,0.3-0.4,0.7-0.4,1.1h-1.5c-0.1-0.9,0.4-1.9,1.1-2.4c0.8-0.5,1.6-0.7,2.5-0.7c0.9,0,1.9,0.2,2.7,0.6c0.7,0.4,1.1,1.2,1,2v5.4
		c0,0.1,0,0.3,0.1,0.4c0.1,0.1,0.3,0.2,0.4,0.1c0.1,0,0.1,0,0.2,0c0.1,0,0.2,0,0.3,0v1.2c-0.2,0.1-0.4,0.1-0.6,0.1
		c-0.2,0-0.4,0-0.5,0c-0.5,0-0.9-0.2-1.2-0.6c-0.1-0.3-0.2-0.6-0.3-0.9c-0.4,0.5-0.9,0.8-1.4,1.1c-0.6,0.3-1.3,0.5-2,0.5
		c-0.8,0-1.6-0.3-2.1-0.8c-0.5-0.5-0.8-1.2-0.8-2c0-0.8,0.3-1.5,0.8-2c0.6-0.5,1.4-0.8,2.1-0.9L811.4,3654.8z M825,3650.8
		c0.9,0,1.8,0.2,2.6,0.8c0.7,0.7,1.2,1.6,1.2,2.7h-1.5c-0.1-0.5-0.3-1-0.6-1.4c-0.4-0.4-1-0.6-1.6-0.6c-1,0-1.8,0.6-2.2,1.5
		c-0.3,0.8-0.4,1.6-0.4,2.4c0,0.8,0.2,1.7,0.6,2.4c0.7,1,2.2,1.3,3.2,0.5c0.1-0.1,0.1-0.1,0.2-0.2c0.4-0.5,0.7-1,0.8-1.6h1.5
		c-0.1,1-0.5,2-1.3,2.7c-0.8,0.6-1.7,0.9-2.7,0.9c-1.1,0-2.2-0.5-2.9-1.3c-0.8-1-1.1-2.2-1.1-3.4c-0.1-1.4,0.3-2.8,1.2-3.9
		C822.7,3651.3,823.9,3650.8,825,3650.8L825,3650.8z M831.6,3658c0,0.4,0.2,0.8,0.5,1.1c0.3,0.3,0.8,0.4,1.2,0.4
		c0.6,0,1.1-0.1,1.6-0.4c0.8-0.4,1.4-1.2,1.3-2.1v-1.3c-0.2,0.1-0.5,0.2-0.7,0.3c-0.3,0.1-0.6,0.1-0.9,0.2l-1,0.1
		c-0.4,0-0.9,0.2-1.3,0.4C831.9,3656.9,831.6,3657.5,831.6,3658L831.6,3658z M835.5,3654.8c0.3,0,0.6-0.2,0.7-0.5
		c0.1-0.2,0.1-0.4,0.1-0.6c0-0.5-0.2-0.9-0.6-1.2c-0.5-0.3-1.1-0.4-1.6-0.4c-0.7-0.1-1.3,0.2-1.8,0.7c-0.2,0.3-0.4,0.7-0.4,1.1h-1.5
		c-0.1-0.9,0.4-1.9,1.1-2.4c0.8-0.5,1.6-0.7,2.5-0.7c0.9,0,1.9,0.2,2.7,0.6c0.7,0.4,1.1,1.2,1,2v5.4c0,0.1,0,0.3,0.1,0.4
		c0.1,0.1,0.3,0.2,0.4,0.1c0.1,0,0.1,0,0.2,0c0.1,0,0.2,0,0.3,0v1.2c-0.2,0.1-0.4,0.1-0.6,0.1c-0.2,0-0.4,0-0.5,0
		c-0.5,0-0.9-0.2-1.2-0.6c-0.1-0.3-0.2-0.6-0.3-0.9c-0.4,0.5-0.9,0.8-1.4,1.1c-0.6,0.3-1.3,0.5-2,0.5c-0.8,0-1.6-0.3-2.1-0.8
		c-0.5-0.5-0.8-1.2-0.8-2c0-0.8,0.3-1.5,0.8-2c0.6-0.5,1.4-0.8,2.1-0.9L835.5,3654.8z M840.5,3651.1h1.5v1.6
		c0.2-0.4,0.5-0.8,0.9-1.2c0.4-0.4,1-0.7,1.7-0.7c0,0,0.1,0,0.1,0s0.2,0,0.4,0v1.7c-0.1,0-0.2,0-0.3,0c-0.1,0-0.2,0-0.3,0
		c-0.7,0-1.4,0.2-1.8,0.8c-0.4,0.5-0.6,1.1-0.6,1.8v5.4h-1.6L840.5,3651.1z M846.7,3648.5h1.6v2.6h1.5v1.3h-1.5v6.1
		c0,0.3,0.1,0.5,0.3,0.7c0.2,0.1,0.4,0.1,0.6,0.1c0.1,0,0.2,0,0.2,0c0.1,0,0.2,0,0.3,0v1.2c-0.2,0.1-0.4,0.1-0.6,0.1
		c-0.2,0-0.4,0-0.6,0c-0.6,0.1-1.1-0.1-1.5-0.6c-0.3-0.4-0.4-1-0.4-1.5v-6.2h-1.3v-1.3h1.3L846.7,3648.5z M852.6,3658
		c0,0.4,0.2,0.8,0.5,1.1c0.3,0.3,0.8,0.4,1.2,0.4c0.6,0,1.1-0.1,1.6-0.4c0.8-0.4,1.4-1.2,1.3-2.1v-1.3c-0.2,0.1-0.5,0.2-0.7,0.3
		c-0.3,0.1-0.6,0.1-0.9,0.2l-1,0.1c-0.4,0-0.9,0.2-1.3,0.4C852.9,3656.9,852.6,3657.5,852.6,3658L852.6,3658z M856.5,3654.8
		c0.3,0,0.6-0.2,0.7-0.5c0.1-0.2,0.1-0.4,0.1-0.6c0-0.5-0.2-0.9-0.6-1.2c-0.5-0.3-1.1-0.4-1.6-0.4c-0.7-0.1-1.3,0.2-1.8,0.7
		c-0.2,0.3-0.4,0.7-0.4,1.1h-1.5c-0.1-0.9,0.4-1.9,1.1-2.4c0.8-0.5,1.6-0.7,2.5-0.7c0.9,0,1.9,0.2,2.7,0.6c0.7,0.4,1.1,1.2,1,2v5.4
		c0,0.1,0,0.3,0.1,0.4c0.1,0.1,0.3,0.2,0.4,0.1c0.1,0,0.1,0,0.2,0c0.1,0,0.2,0,0.3,0v1.2c-0.2,0.1-0.4,0.1-0.6,0.1
		c-0.2,0-0.4,0-0.5,0c-0.5,0-0.9-0.2-1.2-0.6c-0.1-0.3-0.2-0.6-0.3-0.9c-0.4,0.5-0.9,0.8-1.4,1.1c-0.6,0.3-1.3,0.5-2,0.5
		c-0.8,0-1.6-0.3-2.1-0.8c-0.5-0.5-0.8-1.2-0.8-2c0-0.8,0.3-1.5,0.8-2c0.6-0.5,1.4-0.8,2.1-0.9L856.5,3654.8z M867.4,3655.9
		c0,0.9,0.2,1.8,0.6,2.5c0.4,0.7,1.2,1.1,2.1,1c0.7,0,1.4-0.3,1.8-0.9c0.5-0.8,0.8-1.8,0.7-2.7c0.1-0.9-0.2-1.9-0.7-2.6
		c-0.4-0.5-1.1-0.9-1.8-0.9c-0.8,0-1.5,0.3-1.9,0.9C867.6,3654,867.4,3654.9,867.4,3655.9z M869.8,3650.9c0.6,0,1.3,0.1,1.8,0.5
		c0.4,0.3,0.7,0.6,1,0.9v-4.8h1.5v13h-1.4v-1.3c-0.3,0.5-0.8,1-1.3,1.3c-0.5,0.3-1.1,0.4-1.7,0.4c-1.1,0-2.1-0.5-2.7-1.3
		c-0.8-1-1.2-2.2-1.2-3.5c0-1.3,0.3-2.5,1-3.6C867.5,3651.4,868.6,3650.9,869.8,3650.9z M880.4,3650.9c0.7,0,1.3,0.2,1.9,0.5
		c0.6,0.3,1.1,0.7,1.4,1.2c0.3,0.5,0.5,1.1,0.6,1.7c0.1,0.7,0.2,1.4,0.1,2.1h-6.9c0,0.8,0.2,1.6,0.7,2.3c0.5,0.6,1.2,0.9,2,0.9
		c0.7,0,1.5-0.3,2-0.8c0.3-0.3,0.5-0.7,0.6-1.1h1.6c-0.1,0.4-0.2,0.8-0.4,1.2c-0.2,0.4-0.5,0.7-0.8,1c-0.5,0.5-1.1,0.8-1.8,0.9
		c-0.4,0.1-0.9,0.1-1.3,0.1c-1.1,0-2.2-0.4-3-1.3c-0.9-1-1.3-2.3-1.2-3.6c-0.1-1.3,0.4-2.6,1.2-3.7
		C877.9,3651.4,879.1,3650.8,880.4,3650.9L880.4,3650.9z M882.9,3655c0-0.6-0.2-1.1-0.4-1.6c-0.4-0.8-1.3-1.2-2.2-1.1
		c-0.7,0-1.4,0.3-1.8,0.8c-0.5,0.5-0.8,1.3-0.8,2H882.9z M393.8,3674.8c0.9,0,1.8,0.2,2.6,0.8c0.7,0.7,1.2,1.6,1.2,2.7H396
		c-0.1-0.5-0.3-1-0.6-1.4c-0.4-0.4-1-0.6-1.6-0.6c-1,0-1.8,0.6-2.2,1.5c-0.3,0.8-0.4,1.6-0.4,2.4c0,0.8,0.2,1.7,0.6,2.4
		c0.4,0.6,1.1,1,1.9,1c0.6,0,1.1-0.2,1.6-0.6c0.4-0.5,0.7-1,0.8-1.6h1.5c-0.1,1-0.5,2-1.3,2.7c-0.8,0.6-1.7,0.9-2.7,0.9
		c-1.1,0-2.2-0.5-2.9-1.3c-0.8-1-1.1-2.2-1.1-3.4c-0.1-1.4,0.3-2.8,1.2-3.9C391.5,3675.3,392.6,3674.8,393.8,3674.8z M402.9,3683.5
		c0.9,0.1,1.8-0.4,2.2-1.2c0.4-0.8,0.6-1.7,0.6-2.7c0-0.7-0.1-1.5-0.4-2.1c-0.4-0.9-1.3-1.4-2.3-1.3c-0.9-0.1-1.7,0.4-2.1,1.1
		c-0.5,0.8-0.7,1.7-0.7,2.7c0,0.9,0.2,1.8,0.7,2.5C401.3,3683.2,402.1,3683.5,402.9,3683.5z M403,3674.8c1.1,0,2.3,0.4,3.1,1.2
		c0.9,1,1.3,2.3,1.3,3.6c0.1,1.3-0.3,2.7-1.1,3.8c-0.8,1-2.1,1.6-3.4,1.5c-1.2,0.1-2.3-0.4-3.1-1.3c-0.8-1-1.2-2.3-1.1-3.5
		c-0.1-1.4,0.4-2.7,1.2-3.8C400.5,3675.3,401.7,3674.8,403,3674.8L403,3674.8z M409.2,3675.1h1.5v1.3c0.4-0.5,0.9-0.9,1.4-1.2
		c0.5-0.2,1.1-0.4,1.7-0.4c1.1-0.1,2.2,0.4,2.7,1.4c0.3,0.7,0.4,1.4,0.4,2.2v6h-1.6v-5.9c0-0.5-0.1-1-0.3-1.4
		c-0.3-0.6-0.9-0.9-1.5-0.9c-0.3,0-0.6,0-0.9,0.1c-0.4,0.1-0.8,0.4-1.1,0.8c-0.2,0.3-0.4,0.6-0.5,1c-0.1,0.5-0.1,0.9-0.1,1.4v4.9
		h-1.6L409.2,3675.1z M419.5,3672.5h1.6v2.6h1.5v1.3h-1.5v6.1c0,0.3,0.1,0.5,0.3,0.7c0.2,0.1,0.4,0.1,0.6,0.1c0.1,0,0.2,0,0.2,0
		c0.1,0,0.2,0,0.3,0v1.2c-0.2,0.1-0.4,0.1-0.6,0.1c-0.2,0-0.4,0-0.6,0c-0.6,0.1-1.1-0.1-1.5-0.6c-0.3-0.4-0.4-1-0.4-1.5v-6.2h-1.3
		v-1.3h1.3V3672.5z M424.2,3675.1h1.5v1.6c0.2-0.4,0.5-0.8,0.9-1.2c0.4-0.4,1-0.7,1.7-0.7c0,0,0.1,0,0.1,0s0.2,0,0.4,0v1.7
		c-0.1,0-0.2,0-0.3,0c-0.1,0-0.2,0-0.3,0c-0.7,0-1.4,0.2-1.8,0.8c-0.4,0.5-0.6,1.1-0.6,1.8v5.4h-1.6L424.2,3675.1z M433.9,3683.5
		c0.9,0.1,1.8-0.4,2.2-1.2c0.4-0.8,0.6-1.7,0.6-2.7c0-0.7-0.1-1.5-0.4-2.1c-0.4-0.9-1.3-1.4-2.3-1.3c-0.9-0.1-1.7,0.4-2.1,1.1
		c-0.5,0.8-0.7,1.7-0.7,2.7c0,0.9,0.2,1.8,0.7,2.5C432.3,3683.2,433.1,3683.5,433.9,3683.5L433.9,3683.5z M434,3674.8
		c1.1,0,2.3,0.4,3.1,1.2c0.9,1,1.4,2.3,1.3,3.6c0.1,1.3-0.3,2.7-1.1,3.8c-0.8,1-2.1,1.6-3.4,1.5c-1.2,0.1-2.3-0.4-3.1-1.3
		c-0.8-1-1.2-2.3-1.1-3.5c-0.1-1.4,0.4-2.7,1.2-3.8C431.5,3675.3,432.7,3674.8,434,3674.8L434,3674.8z M440.2,3671.6h1.6v12.9h-1.6
		L440.2,3671.6z M453.2,3683.4c0.7,0,1.4-0.3,1.8-0.9c0.5-0.8,0.8-1.8,0.7-2.8c0-0.7-0.1-1.3-0.3-1.9c-0.5-1.2-1.8-1.9-3.1-1.4
		c-0.7,0.3-1.2,0.8-1.4,1.5c-0.2,0.7-0.3,1.5-0.3,2.2c0,0.6,0.1,1.3,0.3,1.9C451.3,3682.9,452.2,3683.5,453.2,3683.4z M449.1,3675.1
		h1.5v1.2c0.3-0.4,0.6-0.7,1-1c0.6-0.4,1.2-0.5,1.9-0.5c1,0,2,0.4,2.7,1.2c0.8,1,1.2,2.2,1.1,3.5c0,2.1-0.5,3.5-1.6,4.4
		c-0.7,0.6-1.5,0.8-2.4,0.8c-0.6,0-1.2-0.1-1.8-0.5c-0.4-0.2-0.7-0.6-0.9-0.9v4.8h-1.6L449.1,3675.1z M468.1,3674.9
		c0.7,0,1.3,0.2,1.9,0.5c0.6,0.3,1.1,0.7,1.4,1.2c0.3,0.5,0.5,1.1,0.6,1.7c0.1,0.7,0.2,1.4,0.1,2.1h-6.9c0,0.8,0.2,1.6,0.7,2.3
		c0.5,0.6,1.2,0.9,2,0.9c0.7,0,1.5-0.3,2-0.8c0.3-0.3,0.5-0.7,0.6-1.1h1.6c-0.1,0.4-0.2,0.8-0.4,1.2c-0.2,0.4-0.5,0.7-0.8,1
		c-0.5,0.5-1.1,0.8-1.8,0.9c-0.4,0.1-0.9,0.1-1.3,0.1c-1.1,0-2.2-0.4-3-1.3c-0.9-1-1.3-2.3-1.2-3.6c-0.1-1.3,0.4-2.6,1.2-3.7
		C465.7,3675.4,466.9,3674.8,468.1,3674.9L468.1,3674.9z M470.6,3679c0-0.6-0.2-1.1-0.4-1.6c-0.4-0.8-1.3-1.2-2.2-1.1
		c-0.7,0-1.4,0.3-1.8,0.8c-0.5,0.5-0.8,1.3-0.8,2H470.6z M475.2,3681.5c0,0.4,0.2,0.9,0.4,1.2c0.5,0.6,1.3,0.8,2.1,0.8
		c0.5,0,1.1-0.1,1.5-0.4c0.4-0.2,0.7-0.7,0.7-1.2c0-0.4-0.2-0.7-0.5-0.9c-0.4-0.2-0.9-0.3-1.4-0.4l-1.3-0.3
		c-0.6-0.1-1.2-0.4-1.8-0.7c-0.6-0.4-1-1-1-1.8c0-0.8,0.3-1.6,1-2.2c0.7-0.6,1.7-0.9,2.6-0.8c1.2-0.1,2.3,0.4,3.1,1.2
		c0.4,0.5,0.6,1.1,0.6,1.7h-1.5c0-0.4-0.2-0.7-0.4-1c-0.5-0.5-1.2-0.7-1.9-0.6c-0.5,0-1,0.1-1.4,0.3c-0.3,0.2-0.5,0.5-0.5,0.9
		c0,0.4,0.2,0.8,0.6,1c0.3,0.2,0.7,0.3,1,0.4l1,0.3c0.8,0.2,1.6,0.4,2.3,0.8c0.6,0.4,1,1.2,0.9,1.9c0,0.8-0.3,1.6-1,2.2
		c-0.8,0.7-1.9,1-2.9,0.9c-1.1,0.1-2.2-0.2-3-1c-0.6-0.6-0.9-1.5-0.9-2.4L475.2,3681.5z M483.5,3672.5h1.6v2.6h1.5v1.3h-1.5v6.1
		c0,0.3,0.1,0.5,0.3,0.7c0.2,0.1,0.4,0.1,0.6,0.1c0.1,0,0.2,0,0.2,0c0.1,0,0.2,0,0.3,0v1.2c-0.2,0.1-0.4,0.1-0.6,0.1
		c-0.2,0-0.4,0-0.6,0c-0.6,0.1-1.1-0.1-1.5-0.6c-0.3-0.4-0.4-1-0.4-1.5v-6.2h-1.3v-1.3h1.3L483.5,3672.5z M489.8,3675.1v6.2
		c0,0.4,0.1,0.8,0.2,1.2c0.3,0.6,0.9,0.9,1.6,0.8c1,0.1,1.9-0.5,2.2-1.5c0.2-0.7,0.4-1.4,0.3-2.2v-4.6h1.6v9.4h-1.5l0-1.4
		c-0.2,0.3-0.5,0.7-0.8,0.9c-0.6,0.5-1.4,0.8-2.2,0.7c-1.1,0.1-2.2-0.4-2.7-1.3c-0.3-0.6-0.4-1.3-0.4-1.9v-6.4L489.8,3675.1z
		 M499.2,3679.9c0,0.9,0.2,1.8,0.6,2.5c0.4,0.7,1.2,1.1,2.1,1c0.7,0,1.4-0.3,1.8-0.9c0.5-0.8,0.8-1.8,0.7-2.7
		c0.1-0.9-0.2-1.9-0.7-2.6c-0.4-0.5-1.1-0.9-1.8-0.9c-0.8,0-1.5,0.3-1.9,0.9C499.4,3678,499.2,3678.9,499.2,3679.9L499.2,3679.9z
		 M501.6,3674.9c0.6,0,1.3,0.1,1.8,0.5c0.4,0.3,0.7,0.6,1,0.9v-4.8h1.5v13h-1.4v-1.3c-0.3,0.5-0.8,1-1.3,1.3
		c-0.5,0.3-1.1,0.4-1.7,0.4c-1.1,0-2.1-0.5-2.7-1.3c-0.8-1-1.2-2.2-1.2-3.5c0-1.3,0.3-2.5,1.1-3.6
		C499.3,3675.4,500.4,3674.9,501.6,3674.9L501.6,3674.9z M508.2,3675.1h1.6v9.4h-1.6V3675.1z M508.2,3671.6h1.6v1.8h-1.6V3671.6z
		 M516.2,3674.9c0.7,0,1.3,0.2,1.9,0.5c0.6,0.3,1.1,0.7,1.4,1.2c0.3,0.5,0.5,1.1,0.6,1.7c0.1,0.7,0.2,1.4,0.1,2.1h-6.9
		c0,0.8,0.2,1.6,0.7,2.3c0.5,0.6,1.2,0.9,2,0.9c0.7,0,1.5-0.3,2-0.8c0.3-0.3,0.5-0.7,0.6-1.1h1.6c-0.1,0.4-0.2,0.8-0.4,1.2
		c-0.2,0.4-0.5,0.7-0.8,1c-0.5,0.5-1.1,0.8-1.8,0.9c-0.4,0.1-0.9,0.1-1.3,0.1c-1.1,0-2.2-0.4-3-1.3c-0.9-1-1.3-2.3-1.2-3.6
		c-0.1-1.3,0.4-2.6,1.2-3.7C513.7,3675.4,514.9,3674.8,516.2,3674.9L516.2,3674.9z M518.7,3679c0-0.6-0.2-1.1-0.4-1.6
		c-0.4-0.8-1.3-1.2-2.2-1.1c-0.7,0-1.4,0.3-1.8,0.8c-0.5,0.5-0.8,1.3-0.8,2H518.7z M531.2,3674.9c0.7,0,1.3,0.2,1.9,0.5
		c0.6,0.3,1.1,0.7,1.4,1.2c0.3,0.5,0.5,1.1,0.6,1.7c0.1,0.7,0.2,1.4,0.1,2.1h-6.9c0,0.8,0.2,1.6,0.7,2.3c0.5,0.6,1.2,0.9,2,0.9
		c0.7,0,1.5-0.3,2-0.8c0.3-0.3,0.5-0.7,0.6-1.1h1.6c-0.1,0.4-0.2,0.8-0.4,1.2c-0.2,0.4-0.5,0.7-0.8,1c-0.5,0.5-1.1,0.8-1.8,0.9
		c-0.4,0.1-0.9,0.1-1.3,0.1c-1.1,0-2.2-0.4-3-1.3c-0.9-1-1.3-2.3-1.2-3.6c-0.1-1.3,0.4-2.6,1.2-3.7
		C528.8,3675.4,529.9,3674.8,531.2,3674.9L531.2,3674.9z M533.7,3679c0-0.6-0.2-1.1-0.4-1.6c-0.4-0.8-1.3-1.2-2.2-1.1
		c-0.7,0-1.4,0.3-1.8,0.8c-0.5,0.5-0.8,1.3-0.8,2H533.7z M537.3,3675.1h1.5v1.3c0.4-0.5,0.9-0.9,1.4-1.2c0.5-0.2,1.1-0.4,1.7-0.4
		c1.1-0.1,2.2,0.4,2.7,1.4c0.3,0.7,0.4,1.4,0.4,2.2v6h-1.6v-5.9c0-0.5-0.1-1-0.3-1.4c-0.3-0.6-0.9-0.9-1.5-0.9c-0.3,0-0.6,0-0.9,0.1
		c-0.4,0.1-0.8,0.4-1.1,0.8c-0.2,0.3-0.4,0.6-0.5,1c-0.1,0.5-0.1,0.9-0.1,1.4v4.9h-1.6L537.3,3675.1z M556.2,3674.9
		c0.7,0,1.3,0.2,1.9,0.5c0.6,0.3,1.1,0.7,1.4,1.2c0.3,0.5,0.5,1.1,0.6,1.7c0.1,0.7,0.2,1.4,0.1,2.1h-6.9c0,0.8,0.2,1.6,0.7,2.3
		c0.5,0.6,1.2,0.9,2,0.9c0.7,0,1.5-0.3,2-0.8c0.3-0.3,0.5-0.7,0.6-1.1h1.6c-0.1,0.4-0.2,0.8-0.4,1.2c-0.2,0.4-0.5,0.7-0.8,1
		c-0.5,0.5-1.1,0.8-1.8,0.9c-0.4,0.1-0.9,0.1-1.3,0.1c-1.1,0-2.2-0.4-3-1.3c-0.9-1-1.3-2.3-1.2-3.6c-0.1-1.3,0.4-2.6,1.2-3.7
		C553.8,3675.4,555,3674.8,556.2,3674.9L556.2,3674.9z M558.7,3679c0-0.6-0.2-1.1-0.4-1.6c-0.4-0.8-1.3-1.2-2.2-1.1
		c-0.7,0-1.4,0.3-1.8,0.8c-0.5,0.5-0.8,1.3-0.8,2H558.7z M562.3,3671.6h1.6v12.9h-1.6L562.3,3671.6z M571.3,3675.1h1.6v1.3
		c0.3-0.4,0.6-0.7,1-1c0.5-0.4,1.1-0.5,1.8-0.5c0.6,0,1.3,0.2,1.8,0.6c0.3,0.3,0.5,0.6,0.7,0.9c0.3-0.5,0.7-0.9,1.2-1.1
		c0.5-0.2,1-0.4,1.6-0.4c1.1-0.1,2.1,0.4,2.6,1.4c0.3,0.6,0.4,1.3,0.4,2v6.3h-1.6v-6.5c0.1-0.5-0.1-1-0.5-1.3
		c-0.3-0.2-0.7-0.4-1.1-0.4c-0.6,0-1.2,0.2-1.6,0.6c-0.5,0.6-0.7,1.3-0.7,2.1v5.5h-1.6v-6.1c0-0.5,0-1-0.2-1.4
		c-0.3-0.5-0.8-0.7-1.3-0.7c-0.6,0-1.2,0.3-1.6,0.7c-0.6,0.7-0.8,1.6-0.7,2.5v5h-1.6L571.3,3675.1z M587.5,3682
		c0,0.4,0.2,0.8,0.5,1.1c0.3,0.3,0.8,0.4,1.2,0.4c0.6,0,1.1-0.1,1.6-0.4c0.8-0.4,1.4-1.2,1.3-2.1v-1.3c-0.2,0.1-0.5,0.2-0.7,0.3
		c-0.3,0.1-0.6,0.1-0.9,0.2l-1,0.1c-0.4,0-0.9,0.2-1.3,0.4C587.7,3680.9,587.5,3681.5,587.5,3682z M591.3,3678.8
		c0.3,0,0.6-0.2,0.7-0.5c0.1-0.2,0.1-0.4,0.1-0.6c0-0.5-0.2-0.9-0.6-1.2c-0.5-0.3-1.1-0.4-1.6-0.4c-0.7-0.1-1.3,0.2-1.8,0.7
		c-0.2,0.3-0.4,0.7-0.4,1.1h-1.5c-0.1-0.9,0.4-1.9,1.1-2.4c0.8-0.5,1.6-0.7,2.5-0.7c0.9,0,1.9,0.2,2.7,0.6c0.7,0.4,1.1,1.2,1,2v5.4
		c0,0.1,0,0.3,0.1,0.4c0.1,0.1,0.3,0.2,0.4,0.1c0.1,0,0.1,0,0.2,0c0.1,0,0.2,0,0.3,0v1.2c-0.2,0.1-0.4,0.1-0.6,0.1
		c-0.2,0-0.4,0-0.5,0c-0.5,0-0.9-0.2-1.2-0.6c-0.1-0.3-0.2-0.6-0.3-0.9c-0.4,0.5-0.9,0.8-1.4,1.1c-0.6,0.3-1.3,0.5-2,0.5
		c-0.8,0-1.6-0.3-2.1-0.8c-0.5-0.5-0.8-1.2-0.8-2c0-0.8,0.3-1.5,0.8-2c0.6-0.5,1.4-0.8,2.1-0.9L591.3,3678.8z M596.6,3672.5h1.6v2.6
		h1.5v1.3h-1.5v6.1c0,0.3,0.1,0.5,0.3,0.7c0.2,0.1,0.4,0.1,0.6,0.1c0.1,0,0.2,0,0.2,0s0.2,0,0.3,0v1.2c-0.2,0.1-0.4,0.1-0.6,0.1
		c-0.2,0-0.4,0-0.6,0c-0.6,0.1-1.1-0.1-1.5-0.6c-0.3-0.4-0.4-1-0.4-1.5v-6.2h-1.3v-1.3h1.3L596.6,3672.5z M605.2,3674.9
		c0.7,0,1.3,0.2,1.9,0.5c0.6,0.3,1.1,0.7,1.4,1.2c0.3,0.5,0.5,1.1,0.6,1.7c0.1,0.7,0.2,1.4,0.1,2.1h-6.9c0,0.8,0.2,1.6,0.7,2.3
		c0.5,0.6,1.2,0.9,2,0.9c0.7,0,1.5-0.3,2-0.8c0.3-0.3,0.5-0.7,0.6-1.1h1.6c-0.1,0.4-0.2,0.8-0.4,1.2c-0.2,0.4-0.5,0.7-0.8,1
		c-0.5,0.5-1.1,0.8-1.8,0.9c-0.4,0.1-0.9,0.1-1.3,0.1c-1.1,0-2.2-0.4-3-1.3c-0.9-1-1.3-2.3-1.2-3.6c-0.1-1.3,0.4-2.6,1.2-3.7
		C602.8,3675.4,604,3674.8,605.2,3674.9L605.2,3674.9z M607.7,3679c0-0.6-0.2-1.1-0.4-1.6c-0.4-0.8-1.3-1.2-2.2-1.1
		c-0.7,0-1.4,0.3-1.8,0.8c-0.5,0.5-0.8,1.3-0.8,2H607.7z M611.3,3675.1h1.5v1.6c0.2-0.4,0.5-0.8,0.9-1.2c0.4-0.4,1-0.7,1.7-0.7
		c0,0,0.1,0,0.1,0c0.1,0,0.2,0,0.4,0v1.7c-0.1,0-0.2,0-0.3,0c-0.1,0-0.2,0-0.3,0c-0.7,0-1.4,0.2-1.8,0.8c-0.4,0.5-0.6,1.1-0.6,1.8
		v5.4h-1.6L611.3,3675.1z M617.3,3675.1h1.6v9.4h-1.6L617.3,3675.1z M617.3,3671.6h1.6v1.8h-1.6L617.3,3671.6z M622.5,3682
		c0,0.4,0.2,0.8,0.5,1.1c0.3,0.3,0.8,0.4,1.2,0.4c0.6,0,1.1-0.1,1.6-0.4c0.8-0.4,1.4-1.2,1.3-2.1v-1.3c-0.2,0.1-0.5,0.2-0.7,0.3
		c-0.3,0.1-0.6,0.1-0.9,0.2l-1,0.1c-0.4,0-0.9,0.2-1.3,0.4C622.8,3680.9,622.5,3681.5,622.5,3682z M626.3,3678.8
		c0.3,0,0.6-0.2,0.7-0.5c0.1-0.2,0.1-0.4,0.1-0.6c0-0.5-0.2-0.9-0.6-1.2c-0.5-0.3-1.1-0.4-1.6-0.4c-0.7-0.1-1.3,0.2-1.8,0.7
		c-0.2,0.3-0.4,0.7-0.4,1.1h-1.5c-0.1-0.9,0.4-1.9,1.1-2.4c0.8-0.5,1.6-0.7,2.5-0.7c0.9,0,1.9,0.2,2.7,0.6c0.7,0.4,1.1,1.2,1,2v5.4
		c0,0.1,0,0.3,0.1,0.4c0.1,0.1,0.3,0.2,0.4,0.1c0.1,0,0.1,0,0.2,0c0.1,0,0.2,0,0.3,0v1.2c-0.2,0.1-0.4,0.1-0.6,0.1
		c-0.2,0-0.4,0-0.5,0c-0.5,0-0.9-0.2-1.2-0.6c-0.1-0.3-0.2-0.6-0.3-0.9c-0.4,0.5-0.9,0.8-1.4,1.1c-0.6,0.3-1.3,0.5-2,0.5
		c-0.8,0-1.6-0.3-2.1-0.8c-0.5-0.5-0.8-1.2-0.8-2c0-0.8,0.3-1.5,0.8-2c0.6-0.5,1.4-0.8,2.1-0.9L626.3,3678.8z M631.3,3671.6h1.6
		v12.9h-1.6V3671.6z M643.9,3674.8c0.9,0,1.8,0.2,2.6,0.8c0.7,0.7,1.2,1.6,1.2,2.7h-1.5c-0.1-0.5-0.3-1-0.6-1.4
		c-0.4-0.4-1-0.6-1.6-0.6c-1,0-1.8,0.6-2.2,1.5c-0.3,0.8-0.4,1.6-0.4,2.4c0,0.8,0.2,1.7,0.6,2.4c0.7,1,2.2,1.3,3.2,0.5
		c0.1-0.1,0.1-0.1,0.2-0.2c0.4-0.5,0.7-1,0.8-1.6h1.5c-0.1,2.1-1.8,3.7-3.8,3.6c-0.1,0-0.1,0-0.2,0c-1.1,0-2.2-0.5-2.9-1.3
		c-0.8-1-1.1-2.2-1.1-3.4c-0.1-1.4,0.3-2.8,1.2-3.9C641.6,3675.3,642.8,3674.8,643.9,3674.8L643.9,3674.8z M653,3683.5
		c0.9,0.1,1.8-0.4,2.2-1.2c0.4-0.8,0.6-1.7,0.6-2.6c0-0.7-0.1-1.5-0.4-2.1c-0.4-0.9-1.3-1.4-2.3-1.3c-0.9-0.1-1.7,0.4-2.1,1.1
		c-0.5,0.8-0.7,1.7-0.7,2.7c0,0.9,0.2,1.8,0.7,2.5C651.4,3683.2,652.2,3683.5,653,3683.5L653,3683.5z M653.1,3674.8
		c1.1,0,2.3,0.4,3.1,1.2c0.9,1,1.4,2.3,1.3,3.6c0.1,1.3-0.3,2.7-1.1,3.8c-0.8,1-2.1,1.6-3.4,1.5c-1.2,0.1-2.3-0.4-3.1-1.3
		c-0.8-1-1.2-2.3-1.1-3.5c-0.1-1.4,0.4-2.7,1.2-3.8C650.7,3675.3,651.9,3674.8,653.1,3674.8L653.1,3674.8z M659.3,3675.1h1.6v1.3
		c0.3-0.4,0.6-0.7,1-1c0.5-0.4,1.1-0.5,1.8-0.5c0.6,0,1.3,0.2,1.8,0.6c0.3,0.3,0.5,0.6,0.7,0.9c0.3-0.5,0.7-0.9,1.2-1.1
		c0.5-0.2,1-0.4,1.6-0.4c1.1-0.1,2.1,0.4,2.6,1.4c0.3,0.6,0.4,1.3,0.4,2v6.3h-1.6v-6.5c0.1-0.5-0.1-1-0.5-1.3
		c-0.3-0.2-0.7-0.4-1.1-0.4c-0.6,0-1.2,0.2-1.6,0.6c-0.5,0.6-0.7,1.3-0.7,2.1v5.5h-1.6v-6.1c0-0.5,0-1-0.2-1.4
		c-0.3-0.5-0.8-0.7-1.3-0.7c-0.6,0-1.2,0.3-1.6,0.7c-0.6,0.7-0.8,1.6-0.7,2.5v5h-1.6L659.3,3675.1z M678.3,3683.4
		c0.7,0,1.4-0.3,1.8-0.9c0.5-0.8,0.8-1.8,0.7-2.8c0-0.7-0.1-1.3-0.3-1.9c-0.5-1.2-1.8-1.9-3.1-1.4c-0.7,0.3-1.2,0.8-1.4,1.5
		c-0.2,0.7-0.3,1.5-0.3,2.2c0,0.6,0.1,1.3,0.3,1.9C676.4,3682.9,677.3,3683.5,678.3,3683.4L678.3,3683.4z M674.2,3675.1h1.5v1.2
		c0.3-0.4,0.6-0.7,1-1c0.6-0.4,1.2-0.5,1.9-0.5c1,0,2,0.4,2.7,1.2c0.8,1,1.2,2.2,1.1,3.5c0,2.1-0.5,3.5-1.6,4.4
		c-0.7,0.6-1.5,0.8-2.4,0.8c-0.6,0-1.2-0.1-1.8-0.5c-0.4-0.2-0.7-0.6-0.9-0.9v4.8h-1.6L674.2,3675.1z M684.4,3671.6h1.6v12.9h-1.6
		V3671.6z M692.2,3674.9c0.7,0,1.3,0.2,1.9,0.5c0.6,0.3,1.1,0.7,1.4,1.2c0.3,0.5,0.5,1.1,0.6,1.7c0.1,0.7,0.2,1.4,0.1,2.1h-6.9
		c0,0.8,0.2,1.6,0.7,2.3c0.5,0.6,1.2,0.9,2,0.9c0.7,0,1.5-0.3,2-0.8c0.3-0.3,0.5-0.7,0.6-1.1h1.6c-0.1,0.4-0.2,0.8-0.4,1.2
		c-0.2,0.4-0.5,0.7-0.8,1c-0.5,0.5-1.1,0.8-1.8,0.9c-0.4,0.1-0.9,0.1-1.3,0.1c-1.1,0-2.2-0.4-3-1.3c-0.9-1-1.3-2.3-1.2-3.6
		c-0.1-1.3,0.4-2.6,1.2-3.7C689.8,3675.4,691,3674.8,692.2,3674.9L692.2,3674.9z M694.8,3679c0-0.6-0.2-1.1-0.4-1.6
		c-0.4-0.8-1.3-1.2-2.2-1.1c-0.7,0-1.4,0.3-1.8,0.8c-0.5,0.5-0.8,1.3-0.8,2H694.8z M698.3,3675.1h1.6v1.3c0.3-0.4,0.6-0.7,1-1
		c0.5-0.4,1.1-0.5,1.8-0.5c0.6,0,1.3,0.2,1.8,0.6c0.3,0.3,0.5,0.6,0.7,0.9c0.3-0.5,0.7-0.9,1.2-1.1c0.5-0.2,1-0.4,1.6-0.4
		c1.1-0.1,2.1,0.4,2.6,1.4c0.3,0.6,0.4,1.3,0.4,2v6.3h-1.6v-6.5c0.1-0.5-0.1-1-0.5-1.3c-0.3-0.2-0.7-0.4-1.1-0.4
		c-0.6,0-1.2,0.2-1.6,0.6c-0.5,0.6-0.7,1.3-0.7,2.1v5.5h-1.6v-6.1c0-0.5,0-1-0.2-1.4c-0.3-0.5-0.8-0.7-1.3-0.7
		c-0.6,0-1.2,0.3-1.6,0.7c-0.6,0.7-0.8,1.6-0.7,2.5v5h-1.6L698.3,3675.1z M717.2,3674.9c0.7,0,1.3,0.2,1.9,0.5
		c0.6,0.3,1.1,0.7,1.4,1.2c0.3,0.5,0.5,1.1,0.6,1.7c0.1,0.7,0.2,1.4,0.1,2.1h-6.9c0,0.8,0.2,1.6,0.7,2.3c0.5,0.6,1.2,0.9,2,0.9
		c0.7,0,1.5-0.3,2-0.8c0.3-0.3,0.5-0.7,0.6-1.1h1.6c-0.1,0.4-0.2,0.8-0.4,1.2c-0.2,0.4-0.5,0.7-0.8,1c-0.5,0.5-1.1,0.8-1.8,0.9
		c-0.4,0.1-0.9,0.1-1.3,0.1c-1.1,0-2.2-0.4-3-1.3c-0.9-1-1.3-2.3-1.2-3.6c-0.1-1.3,0.4-2.6,1.2-3.7
		C714.8,3675.4,716,3674.8,717.2,3674.9L717.2,3674.9z M719.8,3679c0-0.6-0.2-1.1-0.4-1.6c-0.4-0.8-1.3-1.2-2.2-1.1
		c-0.7,0-1.4,0.3-1.8,0.8c-0.5,0.5-0.8,1.3-0.8,2H719.8z M723.3,3675.1h1.5v1.3c0.4-0.5,0.9-0.9,1.4-1.2c0.5-0.2,1.1-0.4,1.7-0.4
		c1.1-0.1,2.2,0.4,2.7,1.4c0.3,0.7,0.4,1.4,0.4,2.2v6h-1.6v-5.9c0-0.5-0.1-1-0.3-1.4c-0.3-0.6-0.9-0.9-1.5-0.9c-0.3,0-0.6,0-0.9,0.1
		c-0.4,0.1-0.8,0.4-1.1,0.8c-0.2,0.3-0.4,0.6-0.5,1c-0.1,0.5-0.1,0.9-0.1,1.4v4.9h-1.6L723.3,3675.1z M733.7,3672.5h1.6v2.6h1.5v1.3
		h-1.5v6.1c0,0.3,0.1,0.5,0.3,0.7c0.2,0.1,0.4,0.1,0.6,0.1c0.1,0,0.2,0,0.2,0c0.1,0,0.2,0,0.3,0v1.2c-0.2,0.1-0.4,0.1-0.6,0.1
		c-0.2,0-0.4,0-0.6,0c-0.6,0.1-1.1-0.1-1.5-0.6c-0.3-0.4-0.4-1-0.4-1.5v-6.2h-1.3v-1.3h1.3L733.7,3672.5z M739.6,3682
		c0,0.4,0.2,0.8,0.5,1.1c0.3,0.3,0.8,0.4,1.2,0.4c0.6,0,1.1-0.1,1.6-0.4c0.8-0.4,1.4-1.2,1.3-2.1v-1.3c-0.2,0.1-0.5,0.2-0.7,0.3
		c-0.3,0.1-0.6,0.1-0.9,0.2l-1,0.1c-0.4,0-0.9,0.2-1.3,0.4C739.8,3680.9,739.5,3681.5,739.6,3682L739.6,3682z M743.4,3678.8
		c0.3,0,0.6-0.2,0.7-0.5c0.1-0.2,0.1-0.4,0.1-0.6c0-0.5-0.2-0.9-0.6-1.2c-0.5-0.3-1.1-0.4-1.6-0.4c-0.7-0.1-1.3,0.2-1.8,0.7
		c-0.2,0.3-0.4,0.7-0.4,1.1h-1.5c-0.1-0.9,0.4-1.9,1.1-2.4c0.8-0.5,1.6-0.7,2.5-0.7c0.9,0,1.9,0.2,2.7,0.6c0.7,0.4,1.1,1.2,1,2v5.4
		c0,0.1,0,0.3,0.1,0.4c0.1,0.1,0.3,0.2,0.4,0.1c0.1,0,0.1,0,0.2,0c0.1,0,0.2,0,0.3,0v1.2c-0.2,0.1-0.4,0.1-0.6,0.1
		c-0.2,0-0.4,0-0.5,0c-0.5,0-0.9-0.2-1.2-0.6c-0.1-0.3-0.2-0.6-0.3-0.9c-0.4,0.5-0.9,0.8-1.4,1.1c-0.6,0.3-1.3,0.5-2,0.5
		c-0.8,0-1.6-0.3-2.1-0.8c-0.5-0.5-0.8-1.2-0.8-2c0-0.8,0.3-1.5,0.8-2c0.6-0.5,1.4-0.8,2.1-0.9L743.4,3678.8z M748.4,3675.1h1.5v1.6
		c0.2-0.4,0.5-0.8,0.9-1.2c0.4-0.4,1-0.7,1.7-0.7c0,0,0.1,0,0.1,0c0.1,0,0.2,0,0.4,0v1.7c-0.1,0-0.2,0-0.3,0c-0.1,0-0.2,0-0.3,0
		c-0.7,0-1.4,0.2-1.8,0.8c-0.4,0.5-0.6,1.1-0.6,1.8v5.4h-1.6L748.4,3675.1z M754.4,3675.1h1.6v9.4h-1.6V3675.1z M754.4,3671.6h1.6
		v1.8h-1.6V3671.6z M762.1,3683.5c0.9,0.1,1.8-0.4,2.2-1.2c0.4-0.8,0.6-1.7,0.6-2.6c0-0.7-0.1-1.5-0.4-2.1c-0.4-0.9-1.3-1.4-2.3-1.3
		c-0.9-0.1-1.7,0.4-2.1,1.1c-0.5,0.8-0.7,1.7-0.7,2.7c0,0.9,0.2,1.8,0.7,2.5C760.5,3683.2,761.3,3683.5,762.1,3683.5L762.1,3683.5z
		 M762.1,3674.8c1.1,0,2.3,0.4,3.1,1.2c0.9,1,1.4,2.3,1.3,3.6c0.1,1.3-0.3,2.7-1.1,3.8c-0.8,1-2.1,1.6-3.4,1.5
		c-1.2,0.1-2.3-0.4-3.1-1.3c-0.8-1-1.2-2.3-1.1-3.5c-0.1-1.4,0.4-2.7,1.2-3.8C759.7,3675.3,760.9,3674.8,762.1,3674.8L762.1,3674.8z
		 M774.2,3675.2h1.8v1.9h-1.8V3675.2z M774.2,3682.6h1.8v1.9h-1.8V3682.6z M789,3671.2c1.4-0.1,2.8,0.4,3.8,1.3
		c0.8,0.8,1.4,1.8,1.5,2.9h-1.7c-0.2-0.8-0.6-1.5-1.2-2c-0.7-0.5-1.6-0.8-2.4-0.7c-1.2,0-2.3,0.5-3.1,1.3c-0.9,1.2-1.3,2.6-1.2,4.1
		c-0.1,1.3,0.3,2.6,1.1,3.7c0.8,1,1.9,1.5,3.2,1.4c1.2,0.1,2.3-0.5,2.9-1.5c0.4-0.6,0.7-1.3,0.8-2.1h1.7c-0.1,1.3-0.6,2.5-1.5,3.4
		c-1.1,1.1-2.6,1.7-4.1,1.7c-1.4,0-2.7-0.5-3.8-1.4c-1.3-1.2-2-3.1-2-5.6c-0.1-1.7,0.5-3.4,1.5-4.7
		C785.6,3671.9,787.3,3671.2,789,3671.2L789,3671.2z M797.6,3682c0,0.4,0.2,0.8,0.5,1.1c0.3,0.3,0.8,0.4,1.2,0.4
		c0.6,0,1.1-0.1,1.6-0.4c0.8-0.4,1.4-1.2,1.3-2.1v-1.3c-0.2,0.1-0.5,0.2-0.7,0.3c-0.3,0.1-0.6,0.1-0.9,0.2l-1,0.1
		c-0.4,0-0.9,0.2-1.3,0.4C797.8,3680.9,797.5,3681.5,797.6,3682z M801.4,3678.8c0.3,0,0.6-0.2,0.7-0.5c0.1-0.2,0.1-0.4,0.1-0.6
		c0-0.5-0.2-0.9-0.6-1.2c-0.5-0.3-1.1-0.4-1.6-0.4c-0.7-0.1-1.3,0.2-1.8,0.7c-0.2,0.3-0.4,0.7-0.4,1.1h-1.5
		c-0.1-0.9,0.4-1.9,1.1-2.4c0.8-0.5,1.6-0.7,2.5-0.7c0.9,0,1.9,0.2,2.7,0.6c0.7,0.4,1.1,1.2,1,2v5.4c0,0.1,0,0.3,0.1,0.4
		c0.1,0.1,0.3,0.2,0.4,0.1c0.1,0,0.1,0,0.2,0c0.1,0,0.2,0,0.3,0v1.2c-0.2,0.1-0.4,0.1-0.6,0.1c-0.2,0-0.4,0-0.5,0
		c-0.5,0-0.9-0.2-1.2-0.6c-0.1-0.3-0.2-0.6-0.3-0.9c-0.4,0.5-0.9,0.8-1.4,1.1c-0.6,0.3-1.3,0.5-2,0.5c-0.8,0-1.6-0.3-2.1-0.8
		c-0.5-0.5-0.8-1.2-0.8-2c0-0.8,0.3-1.5,0.8-2c0.6-0.5,1.4-0.8,2.1-0.9L801.4,3678.8z M807.3,3681.6c0,0.4,0.2,0.9,0.4,1.2
		c0.5,0.6,1.3,0.8,2.1,0.8c0.5,0,1.1-0.1,1.5-0.4c0.4-0.2,0.7-0.7,0.7-1.2c0-0.4-0.2-0.7-0.5-0.9c-0.4-0.2-0.9-0.3-1.4-0.4l-1.3-0.3
		c-0.6-0.1-1.2-0.4-1.8-0.7c-0.6-0.4-1-1-1-1.8c0-0.8,0.3-1.6,1-2.2c0.7-0.6,1.7-0.9,2.6-0.8c1.2-0.1,2.3,0.4,3.1,1.2
		c0.4,0.5,0.6,1.1,0.6,1.7h-1.5c0-0.4-0.2-0.7-0.4-1c-0.5-0.5-1.2-0.7-1.9-0.6c-0.5,0-1,0.1-1.4,0.3c-0.3,0.2-0.5,0.5-0.5,0.9
		c0,0.4,0.2,0.8,0.6,1c0.3,0.2,0.7,0.3,1,0.4l1,0.3c0.8,0.2,1.6,0.4,2.3,0.8c0.6,0.4,1,1.2,0.9,1.9c0,0.8-0.3,1.6-1,2.2
		c-0.8,0.7-1.9,1-2.9,0.9c-1.1,0.1-2.2-0.2-3-1c-0.6-0.6-0.9-1.5-0.9-2.4L807.3,3681.6z M819.1,3683.5c0.9,0.1,1.8-0.4,2.2-1.2
		c0.4-0.8,0.6-1.7,0.6-2.7c0-0.7-0.1-1.5-0.4-2.1c-0.4-0.9-1.3-1.4-2.3-1.3c-0.9-0.1-1.7,0.4-2.1,1.1c-0.5,0.8-0.7,1.7-0.7,2.7
		c0,0.9,0.2,1.8,0.7,2.5C817.5,3683.2,818.3,3683.5,819.1,3683.5z M819.2,3674.8c1.1,0,2.3,0.4,3.1,1.2c0.9,1,1.4,2.3,1.3,3.6
		c0.1,1.3-0.3,2.7-1.1,3.8c-0.8,1-2.1,1.6-3.4,1.5c-1.2,0.1-2.3-0.4-3.1-1.3c-0.8-1-1.2-2.3-1.1-3.5c-0.1-1.4,0.4-2.7,1.2-3.8
		C816.7,3675.3,817.9,3674.8,819.2,3674.8L819.2,3674.8z M829.8,3684.5c0-1,0.3-1.9,0.7-2.8c0.5-0.9,1.3-1.7,2.3-2.2l1.7-1
		c0.6-0.3,1.1-0.7,1.6-1.1c0.9-0.9,1-2.4,0.1-3.4c-0.5-0.4-1.1-0.7-1.8-0.6c-0.9-0.1-1.8,0.4-2.2,1.2c-0.3,0.6-0.4,1.2-0.4,1.8h-1.6
		c0-0.9,0.2-1.9,0.6-2.7c0.8-1.3,2.2-2,3.6-1.8c2-0.2,3.9,1.2,4.1,3.3c0,0.2,0,0.3,0,0.5c0,1-0.4,1.9-1.1,2.6
		c-0.7,0.6-1.4,1.1-2.2,1.5l-1.2,0.7c-0.5,0.3-0.9,0.6-1.4,0.9c-0.5,0.4-0.9,1-1.1,1.7h6.9v1.5H829.8z M844.2,3678.9h10.1v1.3h-10.1
		L844.2,3678.9z M860.6,3671.6h2.1l6.5,10.5v-10.5h1.7v12.9h-2l-6.6-10.4v10.4h-1.7V3671.6z M875,3675.1v6.2c0,0.4,0.1,0.8,0.2,1.2
		c0.3,0.6,0.9,0.9,1.6,0.8c1,0.1,1.9-0.5,2.2-1.5c0.2-0.7,0.4-1.4,0.3-2.2v-4.6h1.6v9.4h-1.5l0-1.4c-0.2,0.3-0.5,0.7-0.8,0.9
		c-0.6,0.5-1.4,0.8-2.2,0.7c-1.1,0.1-2.2-0.4-2.7-1.3c-0.3-0.6-0.4-1.3-0.4-1.9v-6.4L875,3675.1z M883.4,3675.1h1.6v1.3
		c0.3-0.4,0.6-0.7,1-1c0.5-0.4,1.1-0.5,1.8-0.5c0.6,0,1.3,0.2,1.8,0.6c0.3,0.3,0.5,0.6,0.7,0.9c0.3-0.5,0.7-0.9,1.2-1.1
		c0.5-0.2,1-0.4,1.6-0.4c1.1-0.1,2.1,0.4,2.6,1.4c0.3,0.6,0.4,1.3,0.4,2v6.3h-1.6v-6.5c0.1-0.5-0.1-1-0.5-1.3
		c-0.3-0.2-0.7-0.4-1.1-0.4c-0.6,0-1.2,0.2-1.6,0.6c-0.5,0.6-0.7,1.3-0.7,2.1v5.5h-1.6v-6.1c0-0.5,0-1-0.2-1.4
		c-0.3-0.5-0.8-0.7-1.3-0.7c-0.6,0-1.2,0.3-1.6,0.7c-0.6,0.7-0.8,1.6-0.7,2.5v5h-1.6L883.4,3675.1z M902.3,3674.9
		c0.7,0,1.3,0.2,1.9,0.5c0.6,0.3,1.1,0.7,1.4,1.2c0.3,0.5,0.5,1.1,0.6,1.7c0.1,0.7,0.2,1.4,0.1,2.1h-6.9c0,0.8,0.2,1.6,0.7,2.3
		c0.5,0.6,1.2,0.9,2,0.9c0.7,0,1.5-0.3,2-0.8c0.3-0.3,0.5-0.7,0.6-1.1h1.6c-0.1,0.4-0.2,0.8-0.4,1.2c-0.2,0.4-0.5,0.7-0.8,1
		c-0.5,0.5-1.1,0.8-1.8,0.9c-0.4,0.1-0.9,0.1-1.3,0.1c-1.1,0-2.2-0.4-3-1.3c-0.9-1-1.3-2.3-1.2-3.6c-0.1-1.3,0.4-2.6,1.2-3.7
		C899.9,3675.4,901.1,3674.8,902.3,3674.9L902.3,3674.9z M904.9,3679c0-0.6-0.2-1.1-0.4-1.6c-0.4-0.8-1.3-1.2-2.2-1.1
		c-0.7,0-1.4,0.3-1.8,0.8c-0.5,0.5-0.8,1.3-0.8,2H904.9z M908.5,3675.1h1.5v1.6c0.2-0.4,0.5-0.8,0.9-1.2c0.4-0.4,1-0.7,1.7-0.7
		c0,0,0.1,0,0.1,0c0.1,0,0.2,0,0.4,0v1.7c-0.1,0-0.2,0-0.3,0c-0.1,0-0.2,0-0.3,0c-0.7,0-1.4,0.2-1.8,0.8c-0.4,0.5-0.6,1.1-0.6,1.8
		v5.4h-1.6L908.5,3675.1z M918.2,3683.5c0.9,0.1,1.8-0.4,2.2-1.2c0.4-0.8,0.6-1.7,0.6-2.7c0-0.7-0.1-1.5-0.4-2.1
		c-0.4-0.9-1.3-1.4-2.3-1.3c-0.9-0.1-1.7,0.4-2.1,1.1c-0.5,0.8-0.7,1.7-0.7,2.7c0,0.9,0.2,1.8,0.7,2.5
		C916.5,3683.2,917.3,3683.5,918.2,3683.5L918.2,3683.5z M918.2,3674.8c1.1,0,2.3,0.4,3.1,1.2c0.9,1,1.4,2.3,1.3,3.6
		c0.1,1.3-0.3,2.7-1.1,3.8c-0.8,1-2.1,1.6-3.4,1.5c-1.2,0.1-2.3-0.4-3.1-1.3c-0.8-1-1.2-2.3-1.1-3.5c-0.1-1.4,0.4-2.7,1.2-3.8
		C915.8,3675.3,917,3674.8,918.2,3674.8L918.2,3674.8z M391.2,3703.9c0,0.9,0.2,1.8,0.6,2.5c0.4,0.7,1.2,1.1,2.1,1
		c0.7,0,1.4-0.3,1.8-0.9c0.5-0.8,0.8-1.8,0.7-2.7c0.1-0.9-0.2-1.9-0.7-2.6c-0.4-0.5-1.1-0.9-1.8-0.9c-0.8,0-1.5,0.3-1.9,0.9
		C391.4,3702,391.1,3702.9,391.2,3703.9z M393.6,3698.9c0.6,0,1.3,0.1,1.8,0.5c0.4,0.3,0.7,0.6,1,0.9v-4.8h1.5v13h-1.4v-1.3
		c-0.3,0.5-0.8,1-1.3,1.3c-0.5,0.3-1.1,0.4-1.7,0.4c-1.1,0-2.1-0.5-2.7-1.3c-0.8-1-1.2-2.2-1.2-3.5c0-1.3,0.3-2.5,1-3.6
		C391.2,3699.4,392.4,3698.9,393.6,3698.9z M404.1,3698.9c0.7,0,1.3,0.2,1.9,0.5c0.6,0.3,1.1,0.7,1.4,1.2c0.3,0.5,0.5,1.1,0.6,1.7
		c0.1,0.7,0.2,1.4,0.1,2.1h-6.9c0,0.8,0.2,1.6,0.7,2.3c0.5,0.6,1.2,0.9,2,0.9c0.7,0,1.5-0.3,2-0.8c0.3-0.3,0.5-0.7,0.6-1.1h1.6
		c-0.1,0.4-0.2,0.8-0.4,1.2c-0.2,0.4-0.5,0.7-0.8,1c-0.5,0.5-1.1,0.8-1.8,0.9c-0.4,0.1-0.9,0.1-1.3,0.1c-1.1,0-2.2-0.4-3-1.3
		c-0.9-1-1.3-2.3-1.2-3.6c-0.1-1.3,0.4-2.6,1.2-3.7C401.7,3699.4,402.9,3698.8,404.1,3698.9z M406.6,3703c0-0.6-0.2-1.1-0.4-1.6
		c-0.4-0.8-1.3-1.2-2.2-1.1c-0.7,0-1.4,0.3-1.8,0.8c-0.5,0.5-0.8,1.3-0.8,2H406.6z M416.8,3699.1v6.2c0,0.4,0.1,0.8,0.2,1.2
		c0.3,0.6,0.9,0.9,1.6,0.8c1,0.1,1.9-0.5,2.2-1.5c0.2-0.7,0.4-1.4,0.3-2.2v-4.6h1.6v9.4h-1.5l0-1.4c-0.2,0.3-0.5,0.7-0.8,0.9
		c-0.6,0.5-1.4,0.8-2.2,0.7c-1.1,0.1-2.2-0.4-2.7-1.3c-0.3-0.6-0.4-1.3-0.4-1.9v-6.4L416.8,3699.1z M425.2,3699.1h1.5v1.3
		c0.4-0.5,0.9-0.9,1.4-1.2c0.5-0.2,1.1-0.4,1.7-0.4c1.1-0.1,2.2,0.4,2.7,1.4c0.3,0.7,0.4,1.4,0.4,2.2v6h-1.6v-5.9
		c0-0.5-0.1-1-0.3-1.4c-0.3-0.6-0.9-0.9-1.5-0.9c-0.3,0-0.6,0-0.9,0.1c-0.4,0.1-0.8,0.4-1.1,0.8c-0.2,0.3-0.4,0.6-0.5,1
		c-0.1,0.5-0.1,0.9-0.1,1.4v4.9h-1.6V3699.1z M435.2,3699.1h1.6v9.4h-1.6L435.2,3699.1z M435.2,3695.6h1.6v1.8h-1.6L435.2,3695.6z
		 M440.2,3703.9c0,0.9,0.2,1.8,0.6,2.5c0.4,0.7,1.2,1.1,2.1,1c0.7,0,1.4-0.3,1.8-0.9c0.5-0.8,0.8-1.8,0.7-2.7
		c0.1-0.9-0.2-1.9-0.7-2.6c-0.4-0.5-1.1-0.9-1.8-0.9c-0.8,0-1.5,0.3-1.9,0.9C440.4,3702,440.1,3702.9,440.2,3703.9L440.2,3703.9z
		 M442.6,3698.9c0.6,0,1.3,0.1,1.8,0.5c0.4,0.3,0.7,0.6,1,0.9v-4.8h1.5v13h-1.4v-1.3c-0.3,0.5-0.8,1-1.3,1.3
		c-0.5,0.3-1.1,0.4-1.7,0.4c-1.1,0-2.1-0.5-2.7-1.3c-0.8-1-1.2-2.2-1.2-3.5c0-1.3,0.3-2.5,1-3.6
		C440.3,3699.4,441.4,3698.9,442.6,3698.9L442.6,3698.9z M450.4,3706c0,0.4,0.2,0.8,0.5,1.1c0.3,0.3,0.8,0.4,1.2,0.4
		c0.6,0,1.1-0.1,1.6-0.4c0.8-0.4,1.4-1.2,1.3-2.1v-1.3c-0.2,0.1-0.5,0.2-0.7,0.3c-0.3,0.1-0.6,0.1-0.9,0.2l-1,0.1
		c-0.4,0-0.9,0.2-1.3,0.4C450.7,3704.9,450.4,3705.5,450.4,3706L450.4,3706z M454.3,3702.8c0.3,0,0.6-0.2,0.7-0.5
		c0.1-0.2,0.1-0.4,0.1-0.6c0-0.5-0.2-0.9-0.6-1.2c-0.5-0.3-1.1-0.4-1.6-0.4c-0.7-0.1-1.3,0.2-1.8,0.7c-0.2,0.3-0.4,0.7-0.4,1.1h-1.5
		c-0.1-0.9,0.4-1.9,1.1-2.4c0.8-0.5,1.6-0.7,2.5-0.7c0.9,0,1.9,0.2,2.7,0.6c0.7,0.4,1.1,1.2,1,2v5.4c0,0.1,0,0.3,0.1,0.4
		c0.1,0.1,0.3,0.2,0.4,0.1c0.1,0,0.1,0,0.2,0c0.1,0,0.2,0,0.3,0v1.2c-0.2,0.1-0.4,0.1-0.6,0.1c-0.2,0-0.4,0-0.5,0
		c-0.5,0-0.9-0.2-1.2-0.6c-0.1-0.3-0.2-0.6-0.3-0.9c-0.4,0.5-0.9,0.8-1.4,1.1c-0.6,0.3-1.3,0.5-2,0.5c-0.8,0-1.6-0.3-2.1-0.8
		c-0.5-0.5-0.8-1.2-0.8-2c0-0.8,0.3-1.5,0.8-2c0.6-0.5,1.4-0.8,2.1-0.9L454.3,3702.8z M460.2,3703.9c0,0.9,0.2,1.8,0.6,2.5
		c0.4,0.7,1.2,1.1,2.1,1c0.7,0,1.4-0.3,1.8-0.9c0.5-0.8,0.8-1.8,0.7-2.7c0.1-0.9-0.2-1.9-0.7-2.6c-0.4-0.5-1.1-0.9-1.8-0.9
		c-0.8,0-1.5,0.3-1.9,0.9C460.4,3702,460.2,3702.9,460.2,3703.9z M462.6,3698.9c0.6,0,1.3,0.1,1.8,0.5c0.4,0.3,0.7,0.6,1,0.9v-4.8
		h1.5v13h-1.4v-1.3c-0.3,0.5-0.8,1-1.3,1.3c-0.5,0.3-1.1,0.4-1.7,0.4c-1.1,0-2.1-0.5-2.7-1.3c-0.8-1-1.2-2.2-1.2-3.5
		c0-1.3,0.3-2.5,1-3.6C460.3,3699.4,461.4,3698.9,462.6,3698.9L462.6,3698.9z M473.2,3698.9c0.7,0,1.3,0.2,1.9,0.5
		c0.6,0.3,1.1,0.7,1.4,1.2c0.3,0.5,0.5,1.1,0.6,1.7c0.1,0.7,0.2,1.4,0.1,2.1h-6.9c0,0.8,0.2,1.6,0.7,2.3c0.5,0.6,1.2,0.9,2,0.9
		c0.7,0,1.5-0.3,2-0.8c0.3-0.3,0.5-0.7,0.6-1.1h1.6c-0.1,0.4-0.2,0.8-0.4,1.2c-0.2,0.4-0.5,0.7-0.8,1c-0.5,0.5-1.1,0.8-1.8,0.9
		c-0.4,0.1-0.9,0.1-1.3,0.1c-1.1,0-2.2-0.4-3-1.3c-0.9-1-1.3-2.3-1.2-3.6c-0.1-1.3,0.4-2.6,1.2-3.7
		C470.7,3699.4,471.9,3698.8,473.2,3698.9L473.2,3698.9z M475.7,3703c0-0.6-0.2-1.1-0.4-1.6c-0.4-0.8-1.3-1.2-2.2-1.1
		c-0.7,0-1.4,0.3-1.8,0.8c-0.5,0.5-0.8,1.3-0.8,2H475.7z M480.2,3705.5c0,0.4,0.2,0.9,0.4,1.2c0.5,0.6,1.3,0.8,2.1,0.8
		c0.5,0,1.1-0.1,1.5-0.4c0.4-0.2,0.7-0.7,0.7-1.2c0-0.4-0.2-0.7-0.5-0.9c-0.4-0.2-0.9-0.3-1.4-0.4l-1.3-0.3
		c-0.6-0.1-1.2-0.4-1.8-0.7c-0.6-0.4-1-1-1-1.8c0-0.8,0.3-1.6,1-2.2c0.7-0.6,1.7-0.9,2.6-0.8c1.2-0.1,2.3,0.4,3.1,1.2
		c0.4,0.5,0.6,1.1,0.6,1.7h-1.5c0-0.4-0.2-0.7-0.4-1c-0.5-0.5-1.2-0.7-1.9-0.6c-0.5,0-1,0.1-1.4,0.3c-0.3,0.2-0.5,0.5-0.5,0.9
		c0,0.4,0.2,0.8,0.6,1c0.3,0.2,0.7,0.3,1,0.4l1,0.3c0.8,0.2,1.6,0.4,2.3,0.8c0.6,0.4,1,1.2,0.9,1.9c0,0.8-0.3,1.6-1,2.2
		c-0.8,0.7-1.9,1-2.9,0.9c-1.1,0.1-2.2-0.2-3-1c-0.6-0.6-0.9-1.5-0.9-2.4L480.2,3705.5z M493.3,3699.1h1.5v1.3
		c0.4-0.5,0.9-0.9,1.4-1.2c0.5-0.2,1.1-0.4,1.7-0.4c1.1-0.1,2.2,0.4,2.7,1.4c0.3,0.7,0.4,1.4,0.4,2.2v6h-1.6v-5.9
		c0-0.5-0.1-1-0.3-1.4c-0.3-0.6-0.9-0.9-1.5-0.9c-0.3,0-0.6,0-0.9,0.1c-0.4,0.1-0.8,0.4-1.1,0.8c-0.2,0.3-0.4,0.6-0.5,1
		c-0.1,0.5-0.1,0.9-0.1,1.4v4.9h-1.6L493.3,3699.1z M507,3707.5c0.9,0.1,1.8-0.4,2.2-1.2c0.4-0.8,0.6-1.7,0.6-2.6
		c0-0.7-0.1-1.5-0.4-2.1c-0.4-0.9-1.3-1.4-2.3-1.3c-0.9-0.1-1.7,0.4-2.1,1.1c-0.5,0.8-0.7,1.7-0.7,2.7c0,0.9,0.2,1.8,0.7,2.5
		C505.4,3707.2,506.2,3707.5,507,3707.5L507,3707.5z M507.1,3698.8c1.1,0,2.3,0.4,3.1,1.2c0.9,1,1.4,2.3,1.3,3.6
		c0.1,1.3-0.3,2.7-1.1,3.8c-0.8,1-2.1,1.6-3.4,1.5c-1.2,0.1-2.3-0.4-3.1-1.3c-0.8-1-1.2-2.3-1.1-3.5c-0.1-1.4,0.4-2.7,1.2-3.8
		C504.6,3699.3,505.8,3698.8,507.1,3698.8L507.1,3698.8z M521.9,3698.8c0.9,0,1.8,0.2,2.6,0.8c0.7,0.7,1.2,1.6,1.2,2.7h-1.5
		c-0.1-0.5-0.3-1-0.6-1.4c-0.4-0.4-1-0.6-1.6-0.6c-1,0-1.8,0.6-2.2,1.5c-0.3,0.8-0.4,1.6-0.4,2.4c0,0.8,0.2,1.7,0.6,2.4
		c0.7,1,2.2,1.3,3.2,0.5c0.1-0.1,0.1-0.1,0.2-0.2c0.4-0.5,0.7-1,0.8-1.6h1.5c-0.1,2.1-1.8,3.7-3.8,3.6c-0.1,0-0.1,0-0.2,0
		c-1.1,0-2.2-0.5-2.9-1.3c-0.8-1-1.1-2.2-1.1-3.4c-0.1-1.4,0.3-2.8,1.2-3.9C519.6,3699.3,520.7,3698.8,521.9,3698.8L521.9,3698.8z
		 M531,3707.5c0.9,0.1,1.8-0.4,2.2-1.2c0.4-0.8,0.6-1.7,0.6-2.7c0-0.7-0.1-1.5-0.4-2.1c-0.4-0.9-1.3-1.4-2.3-1.3
		c-0.9-0.1-1.7,0.4-2.1,1.1c-0.5,0.8-0.7,1.7-0.7,2.7c0,0.9,0.2,1.8,0.7,2.5C529.4,3707.2,530.2,3707.5,531,3707.5z M531.1,3698.8
		c1.1,0,2.3,0.4,3.1,1.2c0.9,1,1.4,2.3,1.3,3.6c0.1,1.3-0.3,2.7-1.1,3.8c-0.8,1-2.1,1.6-3.4,1.5c-1.2,0.1-2.3-0.4-3.1-1.3
		c-0.8-1-1.2-2.3-1.1-3.5c-0.1-1.4,0.4-2.7,1.2-3.8C528.6,3699.3,529.8,3698.8,531.1,3698.8L531.1,3698.8z M537.3,3699.1h1.5v1.3
		c0.4-0.5,0.9-0.9,1.4-1.2c0.5-0.2,1.1-0.4,1.7-0.4c1.1-0.1,2.2,0.4,2.7,1.4c0.3,0.7,0.4,1.4,0.4,2.2v6h-1.6v-5.9
		c0-0.5-0.1-1-0.3-1.4c-0.3-0.6-0.9-0.9-1.5-0.9c-0.3,0-0.6,0-0.9,0.1c-0.4,0.1-0.8,0.4-1.1,0.8c-0.2,0.3-0.4,0.6-0.5,1
		c-0.1,0.5-0.1,0.9-0.1,1.4v4.9h-1.6L537.3,3699.1z M547.7,3697.7c0-0.5,0.1-1,0.3-1.4c0.5-0.6,1.3-0.9,2.1-0.8c0.1,0,0.2,0,0.3,0
		c0.1,0,0.2,0,0.4,0v1.4c-0.2,0-0.3,0-0.4,0c-0.1,0-0.1,0-0.2,0c-0.5,0-0.8,0.1-0.9,0.4c-0.1,0.6-0.2,1.3-0.1,1.9h1.6v1.2h-1.6v8.1
		h-1.6v-8.1h-1.3v-1.2h1.3V3697.7z M556,3707.5c0.9,0.1,1.8-0.4,2.2-1.2c0.4-0.8,0.6-1.7,0.6-2.7c0-0.7-0.1-1.5-0.4-2.1
		c-0.4-0.9-1.3-1.4-2.3-1.3c-0.9-0.1-1.7,0.4-2.1,1.1c-0.5,0.8-0.7,1.7-0.7,2.7c0,0.9,0.2,1.8,0.7,2.5
		C554.4,3707.2,555.2,3707.5,556,3707.5L556,3707.5z M556.1,3698.8c1.1,0,2.3,0.4,3.1,1.2c0.9,1,1.4,2.3,1.3,3.6
		c0.1,1.3-0.3,2.7-1.1,3.8c-0.8,1-2.1,1.6-3.4,1.5c-1.2,0.1-2.3-0.4-3.1-1.3c-0.8-1-1.2-2.3-1.1-3.5c-0.1-1.4,0.4-2.7,1.2-3.8
		C553.7,3699.3,554.9,3698.8,556.1,3698.8L556.1,3698.8z M562.4,3699.1h1.5v1.6c0.2-0.4,0.5-0.8,0.9-1.2c0.4-0.4,1-0.7,1.7-0.7
		c0,0,0.1,0,0.1,0c0.1,0,0.2,0,0.4,0v1.7c-0.1,0-0.2,0-0.3,0c-0.1,0-0.2,0-0.3,0c-0.7,0-1.4,0.2-1.8,0.8c-0.4,0.5-0.6,1.1-0.6,1.8
		v5.4h-1.6L562.4,3699.1z M568.3,3699.1h1.6v1.3c0.3-0.4,0.6-0.7,1-1c0.5-0.4,1.1-0.5,1.8-0.5c0.6,0,1.3,0.2,1.8,0.6
		c0.3,0.3,0.5,0.6,0.7,0.9c0.3-0.5,0.7-0.9,1.2-1.1c0.5-0.2,1-0.4,1.6-0.4c1.1-0.1,2.1,0.4,2.6,1.4c0.3,0.6,0.4,1.3,0.4,2v6.3h-1.6
		v-6.5c0.1-0.5-0.1-1-0.5-1.3c-0.3-0.2-0.7-0.4-1.1-0.4c-0.6,0-1.2,0.2-1.6,0.6c-0.5,0.6-0.7,1.3-0.7,2.1v5.5h-1.6v-6.1
		c0-0.5,0-1-0.2-1.4c-0.3-0.5-0.8-0.7-1.3-0.7c-0.6,0-1.2,0.3-1.6,0.7c-0.6,0.7-0.8,1.6-0.7,2.5v5h-1.6L568.3,3699.1z M587.2,3698.9
		c0.7,0,1.3,0.2,1.9,0.5c0.6,0.3,1.1,0.7,1.4,1.2c0.3,0.5,0.5,1.1,0.6,1.7c0.1,0.7,0.2,1.4,0.1,2.1h-6.9c0,0.8,0.2,1.6,0.7,2.3
		c0.5,0.6,1.2,0.9,2,0.9c0.7,0,1.5-0.3,2-0.8c0.3-0.3,0.5-0.7,0.6-1.1h1.6c-0.1,0.4-0.2,0.8-0.4,1.2c-0.2,0.4-0.5,0.7-0.8,1
		c-0.5,0.5-1.1,0.8-1.8,0.9c-0.4,0.1-0.9,0.1-1.3,0.1c-1.1,0-2.2-0.4-3-1.3c-0.9-1-1.3-2.3-1.2-3.6c-0.1-1.3,0.4-2.6,1.2-3.7
		C584.8,3699.4,586,3698.8,587.2,3698.9L587.2,3698.9z M589.7,3703c0-0.6-0.2-1.1-0.4-1.6c-0.4-0.8-1.3-1.2-2.2-1.1
		c-0.7,0-1.4,0.3-1.8,0.8c-0.5,0.5-0.8,1.3-0.8,2H589.7z M594.2,3705.5c0,0.4,0.2,0.9,0.4,1.2c0.5,0.6,1.3,0.8,2.1,0.8
		c0.5,0,1.1-0.1,1.5-0.4c0.4-0.2,0.7-0.7,0.7-1.2c0-0.4-0.2-0.7-0.5-0.9c-0.4-0.2-0.9-0.3-1.4-0.4l-1.3-0.3
		c-0.6-0.1-1.2-0.4-1.8-0.7c-0.6-0.4-1-1-1-1.8c0-0.8,0.3-1.6,1-2.2c0.7-0.6,1.7-0.9,2.6-0.8c1.2-0.1,2.3,0.4,3.1,1.2
		c0.4,0.5,0.6,1.1,0.6,1.7h-1.5c0-0.4-0.2-0.7-0.4-1c-0.5-0.5-1.2-0.7-1.9-0.6c-0.5,0-1,0.1-1.4,0.3c-0.3,0.2-0.5,0.5-0.5,0.9
		c0,0.4,0.2,0.8,0.6,1c0.3,0.2,0.7,0.3,1,0.4l1,0.3c0.8,0.2,1.6,0.4,2.3,0.8c0.6,0.4,1,1.2,0.9,1.9c0,0.8-0.3,1.6-1,2.2
		c-0.8,0.7-1.9,1-2.9,0.9c-1.1,0.1-2.2-0.2-3-1c-0.6-0.6-0.9-1.5-0.9-2.4L594.2,3705.5z M611.5,3695.4c-0.7,1.3-1.3,2.6-1.8,3.9
		c-0.9,3-0.8,6.1,0.1,9.1c0.5,1.3,1.1,2.5,1.7,3.7h-1.1c-0.9-1.3-1.4-2.2-1.6-2.6c-0.3-0.5-0.5-1-0.7-1.5c-0.3-0.9-0.6-1.8-0.7-2.8
		c-0.1-0.5-0.1-1-0.1-1.5c0-1.6,0.2-3.2,0.8-4.6c0.6-1.3,1.3-2.6,2.2-3.9L611.5,3695.4z M616.9,3698.8c0.9,0,1.8,0.2,2.6,0.8
		c0.7,0.7,1.2,1.6,1.2,2.7h-1.5c-0.1-0.5-0.3-1-0.6-1.4c-0.4-0.4-1-0.6-1.6-0.6c-1,0-1.8,0.6-2.2,1.5c-0.3,0.8-0.4,1.6-0.4,2.4
		c0,0.8,0.2,1.7,0.6,2.4c0.7,1,2.2,1.3,3.2,0.5c0.1-0.1,0.1-0.1,0.2-0.2c0.4-0.5,0.7-1,0.8-1.6h1.5c-0.1,2.1-1.8,3.7-3.8,3.6
		c-0.1,0-0.1,0-0.2,0c-1.1,0-2.2-0.5-2.9-1.3c-0.8-1-1.1-2.2-1.1-3.4c-0.1-1.4,0.3-2.8,1.2-3.9
		C614.6,3699.3,615.8,3698.8,616.9,3698.8L616.9,3698.8z M623.5,3706c0,0.4,0.2,0.8,0.5,1.1c0.3,0.3,0.8,0.4,1.2,0.4
		c0.6,0,1.1-0.1,1.6-0.4c0.8-0.4,1.4-1.2,1.3-2.1v-1.3c-0.2,0.1-0.5,0.2-0.7,0.3c-0.3,0.1-0.6,0.1-0.9,0.2l-1,0.1
		c-0.4,0-0.9,0.2-1.3,0.4C623.8,3704.9,623.5,3705.5,623.5,3706z M627.3,3702.8c0.3,0,0.6-0.2,0.7-0.5c0.1-0.2,0.1-0.4,0.1-0.6
		c0-0.5-0.2-0.9-0.6-1.2c-0.5-0.3-1.1-0.4-1.6-0.4c-0.7-0.1-1.3,0.2-1.8,0.7c-0.2,0.3-0.4,0.7-0.4,1.1h-1.5
		c-0.1-0.9,0.4-1.9,1.1-2.4c0.8-0.5,1.6-0.7,2.5-0.7c0.9,0,1.9,0.2,2.7,0.6c0.7,0.4,1.1,1.2,1,2v5.4c0,0.1,0,0.3,0.1,0.4
		c0.1,0.1,0.3,0.2,0.4,0.1c0.1,0,0.1,0,0.2,0c0.1,0,0.2,0,0.3,0v1.2c-0.2,0.1-0.4,0.1-0.6,0.1c-0.2,0-0.4,0-0.5,0
		c-0.5,0-0.9-0.2-1.2-0.6c-0.1-0.3-0.2-0.6-0.3-0.9c-0.4,0.5-0.9,0.8-1.4,1.1c-0.6,0.3-1.3,0.5-2,0.5c-0.8,0-1.6-0.3-2.1-0.8
		c-0.5-0.5-0.8-1.2-0.8-2c0-0.8,0.3-1.5,0.8-2c0.6-0.5,1.4-0.8,2.1-0.9L627.3,3702.8z M632.4,3699.1h1.5v1.6
		c0.2-0.4,0.5-0.8,0.9-1.2c0.4-0.4,1-0.7,1.7-0.7c0,0,0.1,0,0.1,0c0.1,0,0.2,0,0.4,0v1.7c-0.1,0-0.2,0-0.3,0c-0.1,0-0.2,0-0.3,0
		c-0.7,0-1.4,0.2-1.8,0.8c-0.4,0.5-0.6,1.1-0.6,1.8v5.4h-1.6L632.4,3699.1z M638.6,3696.5h1.6v2.6h1.5v1.3h-1.5v6.1
		c0,0.3,0.1,0.5,0.3,0.7c0.2,0.1,0.4,0.1,0.6,0.1c0.1,0,0.2,0,0.2,0s0.2,0,0.3,0v1.2c-0.2,0.1-0.4,0.1-0.6,0.1c-0.2,0-0.4,0-0.6,0
		c-0.6,0.1-1.1-0.1-1.5-0.6c-0.3-0.4-0.4-1-0.4-1.5v-6.2h-1.3v-1.3h1.3L638.6,3696.5z M644.5,3706c0,0.4,0.2,0.8,0.5,1.1
		c0.3,0.3,0.8,0.4,1.2,0.4c0.6,0,1.1-0.1,1.6-0.4c0.8-0.4,1.4-1.2,1.3-2.1v-1.3c-0.2,0.1-0.5,0.2-0.7,0.3c-0.3,0.1-0.6,0.1-0.9,0.2
		l-1,0.1c-0.4,0-0.9,0.2-1.3,0.4C644.8,3704.9,644.5,3705.5,644.5,3706L644.5,3706z M648.4,3702.8c0.3,0,0.6-0.2,0.7-0.5
		c0.1-0.2,0.1-0.4,0.1-0.6c0-0.5-0.2-0.9-0.6-1.2c-0.5-0.3-1.1-0.4-1.6-0.4c-0.7-0.1-1.3,0.2-1.8,0.7c-0.2,0.3-0.4,0.7-0.4,1.1h-1.5
		c-0.1-0.9,0.4-1.9,1.1-2.4c0.8-0.5,1.6-0.7,2.5-0.7c0.9,0,1.9,0.2,2.7,0.6c0.7,0.4,1.1,1.2,1,2v5.4c0,0.1,0,0.3,0.1,0.4
		c0.1,0.1,0.3,0.2,0.4,0.1c0.1,0,0.1,0,0.2,0c0.1,0,0.2,0,0.3,0v1.2c-0.2,0.1-0.4,0.1-0.6,0.1c-0.2,0-0.4,0-0.5,0
		c-0.5,0-0.9-0.2-1.2-0.6c-0.1-0.3-0.2-0.6-0.3-0.9c-0.4,0.5-0.9,0.8-1.4,1.1c-0.6,0.3-1.3,0.5-2,0.5c-0.8,0-1.6-0.3-2.1-0.8
		c-0.5-0.5-0.8-1.2-0.8-2c0-0.8,0.3-1.5,0.8-2c0.6-0.5,1.4-0.8,2.1-0.9L648.4,3702.8z M658.3,3699.1h1.5v1.3
		c0.4-0.5,0.9-0.9,1.4-1.2c0.5-0.2,1.1-0.4,1.7-0.4c1.1-0.1,2.2,0.4,2.7,1.4c0.3,0.7,0.4,1.4,0.4,2.2v6h-1.6v-5.9
		c0-0.5-0.1-1-0.3-1.4c-0.3-0.6-0.9-0.9-1.5-0.9c-0.3,0-0.6,0-0.9,0.1c-0.4,0.1-0.8,0.4-1.1,0.8c-0.2,0.3-0.4,0.6-0.5,1
		c-0.1,0.5-0.1,0.9-0.1,1.4v4.9h-1.6L658.3,3699.1z M672.3,3707.4c0.7,0,1.4-0.3,1.8-0.9c0.5-0.8,0.8-1.8,0.7-2.8
		c0-0.7-0.1-1.3-0.3-1.9c-0.5-1.2-1.8-1.9-3.1-1.4c-0.7,0.3-1.2,0.8-1.4,1.5c-0.2,0.7-0.3,1.5-0.3,2.2c0,0.6,0.1,1.3,0.3,1.9
		C670.4,3706.9,671.3,3707.5,672.3,3707.4L672.3,3707.4z M668.2,3699.1h1.5v1.2c0.3-0.4,0.6-0.7,1-1c0.6-0.4,1.2-0.5,1.9-0.5
		c1,0,2,0.4,2.7,1.2c0.8,1,1.2,2.2,1.1,3.5c0,2.1-0.5,3.5-1.6,4.4c-0.7,0.6-1.5,0.8-2.4,0.8c-0.6,0-1.2-0.1-1.8-0.5
		c-0.4-0.2-0.7-0.6-0.9-0.9v4.8h-1.6L668.2,3699.1z M677.8,3712.2c0.7-1.3,1.3-2.6,1.8-4c0.9-3,0.8-6.1-0.1-9.1
		c-0.5-1.3-1.1-2.5-1.7-3.7h1.1c0.9,1.4,1.4,2.3,1.6,2.7c0.2,0.4,0.4,0.9,0.6,1.4c0.3,0.7,0.5,1.4,0.6,2.2c0.1,0.7,0.2,1.4,0.2,2.1
		c0,1.6-0.3,3.2-0.8,4.6c-0.6,1.3-1.3,2.6-2.2,3.9L677.8,3712.2z"/>
	<g id="Grupo_33682" transform="translate(806.459 3689.527)">
		<g id="Grupo_28535">
			<path id="Trazado_71256" class="st2" d="M192.9,29.2L192.9,29.2L0,29.3V9.4h188.1c16.1,0,33.8-0.7,49.9-9.4v19.8
				C229.3,26.5,208.6,28.8,192.9,29.2z"/>
			<path id="Trazado_71257" class="st2" d="M192.9,31.9L192.9,31.9L0,31.9v19.9h188.1c16.1,0,33.8,0.7,49.9,9.4V41.3
				C229.3,34.6,208.6,32.3,192.9,31.9z"/>
		</g>
		<rect id="Rectángulo_29892" x="172.8" y="30.4" class="st3" width="4.2" height="10.7"/>
		<rect id="Rectángulo_29893" x="164.3" y="30.4" class="st3" width="4.2" height="10.7"/>
		<rect id="Rectángulo_29894" x="155.8" y="30.4" class="st3" width="4.2" height="10.7"/>
		<rect id="Rectángulo_29895" x="147.4" y="30.4" class="st3" width="4.2" height="10.7"/>
		<rect id="Rectángulo_29896" x="138.9" y="30.4" class="st3" width="4.2" height="10.7"/>
		<rect id="Rectángulo_29897" x="130.4" y="30.4" class="st3" width="4.2" height="10.7"/>
		<rect id="Rectángulo_29898" x="122" y="30.4" class="st3" width="4.2" height="10.7"/>
		<rect id="Rectángulo_29899" x="113.5" y="30.4" class="st3" width="4.2" height="10.7"/>
		<rect id="Rectángulo_29900" x="105.1" y="30.4" class="st3" width="4.2" height="10.7"/>
		<rect id="Rectángulo_29901" x="96.6" y="30.4" class="st3" width="4.2" height="10.7"/>
		<rect id="Rectángulo_29902" x="88.1" y="30.4" class="st3" width="4.2" height="10.7"/>
		<rect id="Rectángulo_29903" x="79.7" y="30.4" class="st3" width="4.2" height="10.7"/>
		<rect id="Rectángulo_29904" x="71.2" y="30.4" class="st3" width="4.2" height="10.7"/>
		<rect id="Rectángulo_29905" x="62.7" y="30.4" class="st3" width="4.2" height="10.7"/>
		<rect id="Rectángulo_29906" x="54.3" y="30.4" class="st3" width="4.2" height="10.7"/>
		<rect id="Rectángulo_29907" x="45.8" y="30.4" class="st3" width="4.2" height="10.7"/>
		<rect id="Rectángulo_29908" x="37.4" y="30.4" class="st3" width="4.2" height="10.7"/>
		<rect id="Rectángulo_29909" x="28.9" y="30.4" class="st3" width="4.2" height="10.7"/>
		<rect id="Rectángulo_29910" x="20.4" y="30.4" class="st3" width="4.2" height="10.7"/>
		<rect id="Rectángulo_29911" x="12" y="30.4" class="st3" width="4.2" height="10.7"/>
		<path id="Trazado_71258" class="st4" d="M200.6,30.6L200.6,30.6c0,5.2-4.2,9.4-9.4,9.4h0c-5.2,0-9.4-4.2-9.4-9.4l0,0
			c0-5.2,4.2-9.4,9.4-9.4h0C196.4,21.2,200.6,25.4,200.6,30.6z"/>
		<rect id="Rectángulo_29912" x="168.5" y="19.7" class="st3" width="4.2" height="10.7"/>
		<rect id="Rectángulo_29913" x="160.1" y="19.7" class="st3" width="4.2" height="10.7"/>
		<rect id="Rectángulo_29914" x="151.6" y="19.7" class="st3" width="4.2" height="10.7"/>
		<rect id="Rectángulo_29915" x="143.1" y="19.7" class="st3" width="4.2" height="10.7"/>
		<rect id="Rectángulo_29916" x="134.7" y="19.7" class="st3" width="4.2" height="10.7"/>
		<rect id="Rectángulo_29917" x="126.2" y="19.7" class="st3" width="4.2" height="10.7"/>
		<rect id="Rectángulo_29918" x="117.8" y="19.7" class="st3" width="4.2" height="10.7"/>
		<rect id="Rectángulo_29919" x="109.3" y="19.7" class="st3" width="4.2" height="10.7"/>
		<rect id="Rectángulo_29920" x="100.8" y="19.7" class="st3" width="4.2" height="10.7"/>
		<rect id="Rectángulo_29921" x="92.4" y="19.7" class="st3" width="4.2" height="10.7"/>
		<rect id="Rectángulo_29922" x="83.9" y="19.7" class="st3" width="4.2" height="10.7"/>
		<rect id="Rectángulo_29923" x="75.4" y="19.7" class="st3" width="4.2" height="10.7"/>
		<rect id="Rectángulo_29924" x="67" y="19.7" class="st3" width="4.2" height="10.7"/>
		<rect id="Rectángulo_29925" x="58.5" y="19.7" class="st3" width="4.2" height="10.7"/>
		<rect id="Rectángulo_29926" x="50.1" y="19.7" class="st3" width="4.2" height="10.7"/>
		<rect id="Rectángulo_29927" x="41.6" y="19.7" class="st3" width="4.2" height="10.7"/>
		<rect id="Rectángulo_29928" x="33.1" y="19.7" class="st3" width="4.2" height="10.7"/>
		<rect id="Rectángulo_29929" x="24.7" y="19.7" class="st3" width="4.2" height="10.7"/>
		<rect id="Rectángulo_29930" x="16.2" y="19.7" class="st3" width="4.2" height="10.7"/>
		<rect id="Rectángulo_29931" x="7.7" y="19.7" class="st3" width="4.2" height="10.7"/>
	</g>
</g>
</svg>
