<svg xmlns="http://www.w3.org/2000/svg" width="395.17" height="63" viewBox="0 0 395.17 63">
  <g id="Grupo_42664" data-name="Grupo 42664" transform="translate(-202.83 -3495.594)">
    <g id="Rect치ngulo_32209" data-name="Rect치ngulo 32209" transform="translate(292 3495.594)" fill="#ffc74a" stroke="#ffc74a" stroke-width="4">
      <rect width="245" height="63" rx="15" stroke="none"/>
      <rect x="2" y="2" width="241" height="59" rx="13" fill="none"/>
    </g>
    <rect id="Rect치ngulo_32210" data-name="Rect치ngulo 32210" width="366" height="33" transform="translate(232 3510.594)" fill="#fff"/>
    <path id="Trazado_112817" data-name="Trazado 112817" d="M3.7,10.557a2.956,2.956,0,0,0,.537,1.475,3.09,3.09,0,0,0,2.51.889,5.3,5.3,0,0,0,1.729-.234,1.67,1.67,0,0,0,1.26-1.67,1.232,1.232,0,0,0-.625-1.1,6.721,6.721,0,0,0-1.963-.674L5.625,8.9a9.627,9.627,0,0,1-3.105-1.1A3.51,3.51,0,0,1,1.064,4.678,4.16,4.16,0,0,1,2.471,1.465,5.946,5.946,0,0,1,6.6.186a6.281,6.281,0,0,1,3.882,1.206,4.306,4.306,0,0,1,1.685,3.5H9.277A2.065,2.065,0,0,0,8.145,3.047,3.8,3.8,0,0,0,6.4,2.686a3.264,3.264,0,0,0-1.855.469,1.493,1.493,0,0,0-.693,1.309,1.239,1.239,0,0,0,.684,1.152,8.368,8.368,0,0,0,1.875.6l2.48.6a6.413,6.413,0,0,1,2.461,1.045,3.519,3.519,0,0,1,1.289,2.939,4.148,4.148,0,0,1-1.509,3.276,6.321,6.321,0,0,1-4.263,1.3,6.914,6.914,0,0,1-4.424-1.284A4.267,4.267,0,0,1,.83,10.557Zm15.1-1h3.652L20.654,3.9ZM18.984.605h3.4L27.48,15H24.219l-.928-2.959h-5.3l-1,2.959H13.848Zm12.5,9.951a2.956,2.956,0,0,0,.537,1.475,3.09,3.09,0,0,0,2.51.889,5.3,5.3,0,0,0,1.729-.234,1.67,1.67,0,0,0,1.26-1.67,1.232,1.232,0,0,0-.625-1.1,6.721,6.721,0,0,0-1.963-.674L33.408,8.9a9.627,9.627,0,0,1-3.105-1.1,3.51,3.51,0,0,1-1.455-3.115,4.16,4.16,0,0,1,1.406-3.213A5.946,5.946,0,0,1,34.385.186a6.281,6.281,0,0,1,3.882,1.206,4.306,4.306,0,0,1,1.685,3.5H37.061a2.065,2.065,0,0,0-1.133-1.846,3.8,3.8,0,0,0-1.748-.361,3.264,3.264,0,0,0-1.855.469,1.493,1.493,0,0,0-.693,1.309,1.239,1.239,0,0,0,.684,1.152,8.368,8.368,0,0,0,1.875.6l2.48.6a6.413,6.413,0,0,1,2.461,1.045,3.519,3.519,0,0,1,1.289,2.939,4.148,4.148,0,0,1-1.509,3.276,6.321,6.321,0,0,1-4.263,1.3,6.914,6.914,0,0,1-4.424-1.284,4.267,4.267,0,0,1-1.611-3.53ZM47.139,8.105h5.605v2.637H47.139ZM62.6,10.557a2.956,2.956,0,0,0,.537,1.475,3.09,3.09,0,0,0,2.51.889,5.3,5.3,0,0,0,1.729-.234,1.67,1.67,0,0,0,1.26-1.67,1.232,1.232,0,0,0-.625-1.1,6.721,6.721,0,0,0-1.963-.674L64.521,8.9a9.627,9.627,0,0,1-3.105-1.1,3.51,3.51,0,0,1-1.455-3.115,4.16,4.16,0,0,1,1.406-3.213A5.946,5.946,0,0,1,65.5.186,6.281,6.281,0,0,1,69.38,1.392a4.306,4.306,0,0,1,1.685,3.5H68.174a2.065,2.065,0,0,0-1.133-1.846,3.8,3.8,0,0,0-1.748-.361,3.264,3.264,0,0,0-1.855.469,1.493,1.493,0,0,0-.693,1.309,1.239,1.239,0,0,0,.684,1.152,8.368,8.368,0,0,0,1.875.6l2.48.6a6.413,6.413,0,0,1,2.461,1.045,3.519,3.519,0,0,1,1.289,2.939,4.148,4.148,0,0,1-1.509,3.276,6.321,6.321,0,0,1-4.263,1.3,6.914,6.914,0,0,1-4.424-1.284,4.267,4.267,0,0,1-1.611-3.53Zm15.713,2.48a2.206,2.206,0,0,0,1.875-.869A4.043,4.043,0,0,0,80.84,9.7a4.021,4.021,0,0,0-.654-2.466,2.471,2.471,0,0,0-3.755,0A4,4,0,0,0,75.771,9.7a4.021,4.021,0,0,0,.659,2.471A2.219,2.219,0,0,0,78.311,13.037ZM83.76,9.7a6.171,6.171,0,0,1-1.348,4.009,5.86,5.86,0,0,1-8.184,0A6.171,6.171,0,0,1,72.881,9.7,6.212,6.212,0,0,1,74.229,5.7a5.8,5.8,0,0,1,8.184,0A6.212,6.212,0,0,1,83.76,9.7ZM89.678.459q.264,0,.479.015l.586.044V2.783q-.234-.029-.786-.044a.9.9,0,0,0-.762.244.886.886,0,0,0-.21.571v.9h1.826V6.416H88.984V15H86.211V6.416H84.658V4.453h1.523V3.77a3.6,3.6,0,0,1,.576-2.354Q87.363.459,89.678.459Zm1.641,5.977V4.453H92.8V1.484h2.754V4.453h1.729V6.436H95.557v5.625a1.267,1.267,0,0,0,.166.815,1.828,1.828,0,0,0,1.016.161q.127,0,.269,0t.278-.015V15.1l-1.318.049a3.538,3.538,0,0,1-2.7-.684,2.035,2.035,0,0,1-.469-1.475V6.436Zm12.773-2.08h2.822l1.621,7.666,1.66-7.666h2.9L110.01,15h-2.861l-1.67-7.754L103.789,15H100.9L97.91,4.355H100.9l1.66,7.637ZM120.5,9.824a3.024,3.024,0,0,1-.532.269,4.451,4.451,0,0,1-.737.19l-.625.117a4.036,4.036,0,0,0-1.26.381,1.277,1.277,0,0,0-.645,1.182,1.244,1.244,0,0,0,.4,1.03,1.488,1.488,0,0,0,.962.317,2.835,2.835,0,0,0,1.655-.527,2.249,2.249,0,0,0,.786-1.924Zm-1.689-1.3a4.344,4.344,0,0,0,1.1-.244.837.837,0,0,0,.6-.791.939.939,0,0,0-.454-.9,2.837,2.837,0,0,0-1.333-.249,1.737,1.737,0,0,0-1.4.488,2.029,2.029,0,0,0-.391.977h-2.686a4.084,4.084,0,0,1,.781-2.295A4.545,4.545,0,0,1,118.818,4.1a6.732,6.732,0,0,1,3.105.693,2.662,2.662,0,0,1,1.357,2.617v4.883q0,.508.02,1.23a1.547,1.547,0,0,0,.166.742,1,1,0,0,0,.41.322V15H120.85a3.1,3.1,0,0,1-.176-.605q-.049-.283-.078-.645a5.718,5.718,0,0,1-1.328,1.064,4,4,0,0,1-2.031.518,3.492,3.492,0,0,1-2.388-.825,2.943,2.943,0,0,1-.942-2.339,3.036,3.036,0,0,1,1.514-2.842,6.721,6.721,0,0,1,2.441-.684ZM131.533,4.1q.078,0,.132,0t.239.015V6.973q-.264-.029-.469-.039t-.332-.01a2.308,2.308,0,0,0-2.256,1.094,4.255,4.255,0,0,0-.322,1.895V15h-2.8V4.355h2.656V6.211A5.884,5.884,0,0,1,129.5,4.756,3.057,3.057,0,0,1,131.533,4.1Zm6.2,2.266a1.89,1.89,0,0,0-1.5.605,3.022,3.022,0,0,0-.669,1.641h4.326a2.423,2.423,0,0,0-.669-1.675A2.077,2.077,0,0,0,137.734,6.367Zm0-2.295a5.579,5.579,0,0,1,2.393.5,4.191,4.191,0,0,1,1.758,1.572,5.364,5.364,0,0,1,.811,2.2,14.192,14.192,0,0,1,.088,2.109H135.5A2.645,2.645,0,0,0,136.5,12.7a2.369,2.369,0,0,0,1.387.4,2,2,0,0,0,1.4-.488,2.319,2.319,0,0,0,.518-.732h2.842a3.531,3.531,0,0,1-.986,1.924,4.832,4.832,0,0,1-3.828,1.553,5.4,5.4,0,0,1-3.584-1.309A5.278,5.278,0,0,1,132.7,9.785a5.918,5.918,0,0,1,1.4-4.238A4.792,4.792,0,0,1,137.734,4.072Zm12.91,12.969.352.02a4.386,4.386,0,0,0,.781-.029,1.4,1.4,0,0,0,.625-.225,1.5,1.5,0,0,0,.454-.693,1.466,1.466,0,0,0,.171-.645L149.121,4.355h3.1l2.324,7.852,2.2-7.852H159.7l-3.652,10.469a14.7,14.7,0,0,1-1.67,3.755,3.173,3.173,0,0,1-2.461.728q-.371,0-.6,0t-.674-.034ZM169.3,10.557a2.956,2.956,0,0,0,.537,1.475,3.09,3.09,0,0,0,2.51.889,5.3,5.3,0,0,0,1.729-.234,1.67,1.67,0,0,0,1.26-1.67,1.232,1.232,0,0,0-.625-1.1,6.721,6.721,0,0,0-1.963-.674L171.221,8.9a9.627,9.627,0,0,1-3.105-1.1,3.51,3.51,0,0,1-1.455-3.115,4.16,4.16,0,0,1,1.406-3.213A5.946,5.946,0,0,1,172.2.186a6.281,6.281,0,0,1,3.882,1.206,4.306,4.306,0,0,1,1.685,3.5h-2.891a2.065,2.065,0,0,0-1.133-1.846,3.8,3.8,0,0,0-1.748-.361,3.264,3.264,0,0,0-1.855.469,1.493,1.493,0,0,0-.693,1.309,1.239,1.239,0,0,0,.684,1.152,8.368,8.368,0,0,0,1.875.6l2.48.6a6.413,6.413,0,0,1,2.461,1.045,3.519,3.519,0,0,1,1.289,2.939,4.148,4.148,0,0,1-1.509,3.276,6.321,6.321,0,0,1-4.263,1.3,6.914,6.914,0,0,1-4.424-1.284,4.267,4.267,0,0,1-1.611-3.53Zm15.713,2.48a2.206,2.206,0,0,0,1.875-.869,4.043,4.043,0,0,0,.654-2.471,4.021,4.021,0,0,0-.654-2.466,2.471,2.471,0,0,0-3.755,0,4,4,0,0,0-.659,2.466,4.021,4.021,0,0,0,.659,2.471A2.219,2.219,0,0,0,185.01,13.037Zm5.449-3.34a6.171,6.171,0,0,1-1.348,4.009,5.86,5.86,0,0,1-8.184,0A6.171,6.171,0,0,1,179.58,9.7,6.212,6.212,0,0,1,180.928,5.7a5.8,5.8,0,0,1,8.184,0A6.212,6.212,0,0,1,190.459,9.7Zm4.834,5.3H192.51V.605h2.783Zm5.488-10.645v6.416A3.358,3.358,0,0,0,201,12.139a1.487,1.487,0,0,0,1.494.811,1.953,1.953,0,0,0,1.953-1.152,4.171,4.171,0,0,0,.273-1.65V4.355h2.822V15h-2.705V13.5q-.039.049-.2.293a1.96,1.96,0,0,1-.371.43,3.876,3.876,0,0,1-1.265.8,4.31,4.31,0,0,1-1.431.215,3.189,3.189,0,0,1-3.184-1.7,6.5,6.5,0,0,1-.459-2.764V4.355Zm15.8,3.818a2.47,2.47,0,0,0-.4-1.074,1.679,1.679,0,0,0-1.455-.645,1.916,1.916,0,0,0-1.924,1.4,5.839,5.839,0,0,0-.273,1.973,5.368,5.368,0,0,0,.273,1.885,1.857,1.857,0,0,0,1.875,1.328,1.653,1.653,0,0,0,1.387-.527,2.625,2.625,0,0,0,.5-1.367H219.4a4.656,4.656,0,0,1-.918,2.4,4.462,4.462,0,0,1-3.877,1.826,4.535,4.535,0,0,1-3.779-1.523,6.164,6.164,0,0,1-1.211-3.955,6.255,6.255,0,0,1,1.338-4.268A4.657,4.657,0,0,1,214.648,4.1a5.558,5.558,0,0,1,3.276.9,4.179,4.179,0,0,1,1.509,3.174Zm7.627-5.088h-2.822V.518h2.822Zm-2.822,1.27h2.822V15h-2.822Zm10.293,8.682a2.206,2.206,0,0,0,1.875-.869,4.043,4.043,0,0,0,.654-2.471,4.021,4.021,0,0,0-.654-2.466,2.471,2.471,0,0,0-3.755,0,4,4,0,0,0-.659,2.466,4.021,4.021,0,0,0,.659,2.471A2.219,2.219,0,0,0,231.68,13.037Zm5.449-3.34a6.171,6.171,0,0,1-1.348,4.009,5.86,5.86,0,0,1-8.184,0A6.171,6.171,0,0,1,226.25,9.7,6.212,6.212,0,0,1,227.6,5.7a5.8,5.8,0,0,1,8.184,0A6.212,6.212,0,0,1,237.129,9.7Zm7.891-5.6a4.109,4.109,0,0,1,2.7.864,3.514,3.514,0,0,1,1.05,2.866V15h-2.852V8.525a2.954,2.954,0,0,0-.225-1.289,1.58,1.58,0,0,0-1.562-.82,1.938,1.938,0,0,0-1.943,1.2,4.126,4.126,0,0,0-.273,1.621V15h-2.773V4.375h2.686V5.928a4.725,4.725,0,0,1,1.016-1.182A3.53,3.53,0,0,1,245.02,4.1Zm10.518,2.266a1.89,1.89,0,0,0-1.5.605,3.022,3.022,0,0,0-.669,1.641H257.7a2.423,2.423,0,0,0-.669-1.675A2.077,2.077,0,0,0,255.537,6.367Zm0-2.295a5.579,5.579,0,0,1,2.393.5,4.191,4.191,0,0,1,1.758,1.572,5.364,5.364,0,0,1,.811,2.2,14.187,14.187,0,0,1,.088,2.109H253.3a2.645,2.645,0,0,0,1.006,2.246,2.369,2.369,0,0,0,1.387.4,2,2,0,0,0,1.4-.488,2.319,2.319,0,0,0,.518-.732h2.842a3.531,3.531,0,0,1-.986,1.924,4.832,4.832,0,0,1-3.828,1.553,5.4,5.4,0,0,1-3.584-1.309A5.278,5.278,0,0,1,250.5,9.785a5.918,5.918,0,0,1,1.4-4.238A4.792,4.792,0,0,1,255.537,4.072Zm9.092,7.529a1.859,1.859,0,0,0,.381,1.055,2.575,2.575,0,0,0,1.914.557,2.918,2.918,0,0,0,1.3-.244.819.819,0,0,0,.093-1.445,15.89,15.89,0,0,0-2.9-.84,6.041,6.041,0,0,1-2.549-1.123,2.435,2.435,0,0,1-.742-1.914,3.32,3.32,0,0,1,1.157-2.534,4.648,4.648,0,0,1,3.257-1.06,5.975,5.975,0,0,1,3.247.8A3.409,3.409,0,0,1,271.23,7.6h-2.783a1.646,1.646,0,0,0-.3-.85,1.9,1.9,0,0,0-1.562-.566,2.245,2.245,0,0,0-1.294.283.815.815,0,0,0-.386.664.727.727,0,0,0,.41.693,17.756,17.756,0,0,0,2.9.771,5.327,5.327,0,0,1,2.49,1.182,2.683,2.683,0,0,1,.82,2,3.235,3.235,0,0,1-1.177,2.583A7.06,7.06,0,0,1,263,14.3a3.447,3.447,0,0,1-1.2-2.7Zm18.438-7.5a3.433,3.433,0,0,1,1.719.425A3.381,3.381,0,0,1,286.006,5.7V.625h2.822V15h-2.705V13.525a3.926,3.926,0,0,1-1.357,1.377,3.811,3.811,0,0,1-1.895.43,3.956,3.956,0,0,1-3.14-1.509,5.794,5.794,0,0,1-1.274-3.872,6.664,6.664,0,0,1,1.255-4.287A4.083,4.083,0,0,1,283.066,4.1Zm.605,8.887a2.055,2.055,0,0,0,1.8-.879,3.883,3.883,0,0,0,.615-2.275,3.49,3.49,0,0,0-.986-2.793,2.123,2.123,0,0,0-1.406-.508,1.955,1.955,0,0,0-1.792.923,4.276,4.276,0,0,0-.571,2.29,4.237,4.237,0,0,0,.581,2.358A1.966,1.966,0,0,0,283.672,12.988Zm11.885-6.621a1.89,1.89,0,0,0-1.5.605,3.022,3.022,0,0,0-.669,1.641h4.326a2.423,2.423,0,0,0-.669-1.675A2.077,2.077,0,0,0,295.557,6.367Zm0-2.295a5.579,5.579,0,0,1,2.393.5,4.191,4.191,0,0,1,1.758,1.572,5.364,5.364,0,0,1,.811,2.2,14.187,14.187,0,0,1,.088,2.109H293.32a2.645,2.645,0,0,0,1.006,2.246,2.369,2.369,0,0,0,1.387.4,2,2,0,0,0,1.4-.488,2.319,2.319,0,0,0,.518-.732h2.842a3.531,3.531,0,0,1-.986,1.924,4.832,4.832,0,0,1-3.828,1.553,5.4,5.4,0,0,1-3.584-1.309,5.278,5.278,0,0,1-1.553-4.258,5.918,5.918,0,0,1,1.4-4.238A4.792,4.792,0,0,1,295.557,4.072Zm15.908,5.488h3.652L313.32,3.9ZM311.65.605h3.4L320.146,15h-3.262l-.928-2.959h-5.3l-1,2.959h-3.145Zm16,3.5a4.109,4.109,0,0,1,2.7.864,3.514,3.514,0,0,1,1.05,2.866V15h-2.852V8.525a2.954,2.954,0,0,0-.225-1.289,1.58,1.58,0,0,0-1.562-.82,1.938,1.938,0,0,0-1.943,1.2,4.126,4.126,0,0,0-.273,1.621V15h-2.773V4.375h2.686V5.928a4.725,4.725,0,0,1,1.016-1.182A3.53,3.53,0,0,1,327.646,4.1Zm12.188,5.723a3.024,3.024,0,0,1-.532.269,4.451,4.451,0,0,1-.737.19l-.625.117a4.036,4.036,0,0,0-1.26.381,1.277,1.277,0,0,0-.645,1.182,1.244,1.244,0,0,0,.4,1.03,1.488,1.488,0,0,0,.962.317,2.835,2.835,0,0,0,1.655-.527,2.249,2.249,0,0,0,.786-1.924Zm-1.689-1.3a4.344,4.344,0,0,0,1.1-.244.837.837,0,0,0,.6-.791.939.939,0,0,0-.454-.9,2.837,2.837,0,0,0-1.333-.249,1.737,1.737,0,0,0-1.4.488,2.029,2.029,0,0,0-.391.977h-2.686a4.084,4.084,0,0,1,.781-2.295A4.545,4.545,0,0,1,338.154,4.1a6.732,6.732,0,0,1,3.105.693,2.662,2.662,0,0,1,1.357,2.617v4.883q0,.508.02,1.23a1.547,1.547,0,0,0,.166.742,1,1,0,0,0,.41.322V15h-3.027a3.1,3.1,0,0,1-.176-.605q-.049-.283-.078-.645a5.718,5.718,0,0,1-1.328,1.064,4,4,0,0,1-2.031.518,3.492,3.492,0,0,1-2.388-.825,2.943,2.943,0,0,1-.942-2.339,3.036,3.036,0,0,1,1.514-2.842,6.721,6.721,0,0,1,2.441-.684ZM347.93,15h-2.783V.605h2.783Zm2.754-10.645h2.822V15h-2.822ZM355.479,0,352.51,2.92H350.5L352.373,0Zm-.371,6.436V4.453h1.484V1.484h2.754V4.453h1.729V6.436h-1.729v5.625a1.267,1.267,0,0,0,.166.815,1.828,1.828,0,0,0,1.016.161q.127,0,.269,0t.278-.015V15.1l-1.318.049a3.538,3.538,0,0,1-2.7-.684,2.035,2.035,0,0,1-.469-1.475V6.436Zm10.615-3.35H362.9V.518h2.822ZM362.9,4.355h2.822V15H362.9Zm11.875,3.818a2.47,2.47,0,0,0-.4-1.074,1.679,1.679,0,0,0-1.455-.645A1.916,1.916,0,0,0,371,7.852a5.839,5.839,0,0,0-.273,1.973A5.369,5.369,0,0,0,371,11.709a1.857,1.857,0,0,0,1.875,1.328,1.653,1.653,0,0,0,1.387-.527,2.625,2.625,0,0,0,.5-1.367H377.6a4.656,4.656,0,0,1-.918,2.4,4.462,4.462,0,0,1-3.877,1.826,4.535,4.535,0,0,1-3.779-1.523,6.165,6.165,0,0,1-1.211-3.955,6.255,6.255,0,0,1,1.338-4.268A4.657,4.657,0,0,1,372.842,4.1a5.558,5.558,0,0,1,3.276.9,4.179,4.179,0,0,1,1.509,3.174Zm10.635,1.65a3.024,3.024,0,0,1-.532.269,4.451,4.451,0,0,1-.737.19l-.625.117a4.036,4.036,0,0,0-1.26.381,1.277,1.277,0,0,0-.645,1.182,1.244,1.244,0,0,0,.4,1.03,1.488,1.488,0,0,0,.962.317,2.835,2.835,0,0,0,1.655-.527,2.249,2.249,0,0,0,.786-1.924Zm-1.689-1.3a4.344,4.344,0,0,0,1.1-.244.837.837,0,0,0,.6-.791.939.939,0,0,0-.454-.9,2.837,2.837,0,0,0-1.333-.249,1.737,1.737,0,0,0-1.4.488,2.029,2.029,0,0,0-.391.977H379.16a4.084,4.084,0,0,1,.781-2.295A4.545,4.545,0,0,1,383.73,4.1a6.732,6.732,0,0,1,3.105.693,2.662,2.662,0,0,1,1.357,2.617v4.883q0,.508.02,1.23a1.547,1.547,0,0,0,.166.742,1,1,0,0,0,.41.322V15h-3.027a3.1,3.1,0,0,1-.176-.605q-.049-.283-.078-.645a5.718,5.718,0,0,1-1.328,1.064,4,4,0,0,1-2.031.518,3.492,3.492,0,0,1-2.388-.825,2.943,2.943,0,0,1-.942-2.339,3.036,3.036,0,0,1,1.514-2.842,6.721,6.721,0,0,1,2.441-.684Z" transform="translate(202 3513.594)" fill="#15579f"/>
  </g>
</svg>
